<svg xmlns="http://www.w3.org/2000/svg" xmlns:xlink="http://www.w3.org/1999/xlink" width="479" zoomAndPan="magnify" viewBox="0 0 359.25 359.249987" height="479" preserveAspectRatio="xMidYMid meet" version="1.0"><defs><clipPath id="36a732cad8"><path d="M 123.652344 314.53125 L 252 314.53125 L 252 353.648438 L 123.652344 353.648438 Z M 123.652344 314.53125 " clip-rule="nonzero"/></clipPath><clipPath id="1b91a9ae3a"><path d="M 141.828125 316.589844 C 176.632812 316.589844 180.671875 314.941406 187.707031 314.71875 C 198.035156 314.417969 218.542969 317.710938 226.101562 317.1875 C 229.394531 316.964844 230.816406 315.765625 233.0625 315.765625 C 235.085938 315.691406 237.179688 316.066406 239.050781 316.738281 C 240.996094 317.335938 242.867188 318.386719 244.515625 319.582031 C 246.085938 320.78125 247.582031 322.351562 248.707031 324.074219 C 249.828125 325.71875 250.726562 327.664062 251.25 329.613281 C 251.773438 331.558594 252.074219 333.652344 251.925781 335.675781 C 251.847656 337.695312 251.324219 339.789062 250.578125 341.660156 C 249.902344 343.53125 248.78125 345.402344 247.433594 346.902344 C 246.160156 348.472656 244.515625 349.820312 242.792969 350.867188 C 241.070312 351.914062 239.050781 352.738281 237.105469 353.113281 C 235.160156 353.5625 232.988281 353.710938 230.96875 353.488281 C 228.945312 353.261719 226.925781 352.664062 225.054688 351.839844 C 223.257812 351.015625 221.460938 349.820312 220.039062 348.398438 C 218.542969 347.050781 217.269531 345.328125 216.296875 343.53125 C 215.398438 341.738281 214.652344 339.714844 214.351562 337.695312 C 214.054688 335.75 214.054688 333.578125 214.351562 331.632812 C 214.652344 329.613281 215.398438 327.589844 216.296875 325.792969 C 217.269531 324 218.542969 322.277344 220.039062 320.929688 C 221.460938 319.507812 223.257812 318.308594 225.054688 317.488281 C 226.925781 316.664062 229.023438 316.066406 230.96875 315.839844 C 232.988281 315.617188 235.160156 315.765625 237.105469 316.214844 C 239.050781 316.589844 241.070312 317.414062 242.792969 318.460938 C 244.515625 319.507812 246.160156 320.855469 247.433594 322.425781 C 248.78125 323.921875 249.902344 325.792969 250.652344 327.664062 C 251.324219 329.535156 251.847656 331.632812 251.925781 333.652344 C 252.074219 335.675781 251.773438 337.769531 251.25 339.714844 C 250.726562 341.660156 249.828125 343.609375 248.707031 345.253906 C 247.582031 346.976562 246.085938 348.546875 244.515625 349.746094 C 242.867188 350.941406 240.996094 351.988281 239.050781 352.589844 C 237.179688 353.261719 235.980469 353.414062 233.0625 353.5625 C 224.753906 354.011719 197.664062 350.71875 185.835938 350.867188 C 178.652344 351.015625 174.386719 352.214844 168.621094 352.289062 C 162.785156 352.4375 156.273438 351.765625 151.183594 351.542969 C 147.066406 351.316406 143.476562 351.464844 140.183594 350.941406 C 137.261719 350.417969 134.269531 349.59375 132.25 348.546875 C 130.828125 347.875 130.078125 347.199219 128.957031 346.078125 C 127.457031 344.429688 125.4375 341.585938 124.613281 339.042969 C 123.792969 336.574219 123.566406 333.503906 124.015625 330.882812 C 124.464844 328.265625 125.738281 325.421875 127.308594 323.324219 C 128.957031 321.230469 131.351562 319.285156 133.746094 318.160156 C 136.140625 317.039062 141.828125 316.589844 141.828125 316.589844 " clip-rule="nonzero"/></clipPath><clipPath id="a7378f5a29"><path d="M 0.652344 0.53125 L 129 0.53125 L 129 39.648438 L 0.652344 39.648438 Z M 0.652344 0.53125 " clip-rule="nonzero"/></clipPath><clipPath id="6f32e338d5"><path d="M 18.828125 2.589844 C 53.632812 2.589844 57.671875 0.941406 64.707031 0.71875 C 75.035156 0.417969 95.542969 3.710938 103.101562 3.1875 C 106.394531 2.964844 107.816406 1.765625 110.0625 1.765625 C 112.085938 1.691406 114.179688 2.066406 116.050781 2.738281 C 117.996094 3.335938 119.867188 4.386719 121.515625 5.582031 C 123.085938 6.78125 124.582031 8.351562 125.707031 10.074219 C 126.828125 11.71875 127.726562 13.664062 128.25 15.613281 C 128.773438 17.558594 129.074219 19.652344 128.925781 21.675781 C 128.847656 23.695312 128.324219 25.789062 127.578125 27.660156 C 126.902344 29.53125 125.78125 31.402344 124.433594 32.902344 C 123.160156 34.472656 121.515625 35.820312 119.792969 36.867188 C 118.070312 37.914062 116.050781 38.738281 114.105469 39.113281 C 112.160156 39.5625 109.988281 39.710938 107.96875 39.488281 C 105.945312 39.261719 103.925781 38.664062 102.054688 37.839844 C 100.257812 37.015625 98.460938 35.820312 97.039062 34.398438 C 95.542969 33.050781 94.269531 31.328125 93.296875 29.53125 C 92.398438 27.738281 91.652344 25.714844 91.351562 23.695312 C 91.054688 21.75 91.054688 19.578125 91.351562 17.632812 C 91.652344 15.613281 92.398438 13.589844 93.296875 11.792969 C 94.269531 10 95.542969 8.277344 97.039062 6.929688 C 98.460938 5.507812 100.257812 4.308594 102.054688 3.488281 C 103.925781 2.664062 106.023438 2.066406 107.96875 1.839844 C 109.988281 1.617188 112.160156 1.765625 114.105469 2.214844 C 116.050781 2.589844 118.070312 3.414062 119.792969 4.460938 C 121.515625 5.507812 123.160156 6.855469 124.433594 8.425781 C 125.78125 9.921875 126.902344 11.792969 127.652344 13.664062 C 128.324219 15.535156 128.847656 17.632812 128.925781 19.652344 C 129.074219 21.675781 128.773438 23.769531 128.25 25.714844 C 127.726562 27.660156 126.828125 29.609375 125.707031 31.253906 C 124.582031 32.976562 123.085938 34.546875 121.515625 35.746094 C 119.867188 36.941406 117.996094 37.988281 116.050781 38.589844 C 114.179688 39.261719 112.980469 39.414062 110.0625 39.5625 C 101.753906 40.011719 74.664062 36.71875 62.835938 36.867188 C 55.652344 37.015625 51.386719 38.214844 45.621094 38.289062 C 39.785156 38.4375 33.273438 37.765625 28.183594 37.542969 C 24.066406 37.316406 20.476562 37.464844 17.183594 36.941406 C 14.261719 36.417969 11.269531 35.59375 9.25 34.546875 C 7.828125 33.875 7.078125 33.199219 5.957031 32.078125 C 4.457031 30.429688 2.4375 27.585938 1.613281 25.042969 C 0.792969 22.574219 0.566406 19.503906 1.015625 16.882812 C 1.464844 14.265625 2.738281 11.421875 4.308594 9.324219 C 5.957031 7.230469 8.351562 5.285156 10.746094 4.160156 C 13.140625 3.039062 18.828125 2.589844 18.828125 2.589844 " clip-rule="nonzero"/></clipPath><clipPath id="0160a3b8a9"><rect x="0" width="129" y="0" height="40"/></clipPath><clipPath id="25a108bf7a"><path d="M 31.128906 24 L 269.222656 24 L 269.222656 333.835938 L 31.128906 333.835938 Z M 31.128906 24 " clip-rule="nonzero"/></clipPath><clipPath id="94e963a180"><path d="M 31.882812 173.789062 C 33.15625 168.398438 33.753906 167.125 34.503906 166.003906 C 35.25 164.878906 36.074219 163.757812 37.121094 162.785156 C 38.09375 161.886719 39.21875 161.0625 40.414062 160.316406 C 41.539062 159.640625 42.886719 159.117188 44.15625 158.742188 C 45.503906 158.371094 46.851562 158.144531 48.273438 158.070312 C 49.621094 157.996094 51.042969 158.144531 52.390625 158.445312 C 53.664062 158.667969 55.011719 159.117188 56.28125 159.714844 C 57.480469 160.316406 59.726562 161.960938 59.726562 161.960938 C 59.726562 161.960938 63.316406 164.507812 65.5625 166.527344 C 69.230469 169.746094 74.769531 175.058594 79.183594 179.847656 C 83.75 184.714844 89.140625 190.328125 92.507812 195.566406 C 95.351562 199.984375 97.445312 208.964844 98.71875 208.738281 C 99.992188 208.515625 99.917969 199.535156 100.140625 194.519531 C 100.441406 188.90625 100.289062 182.617188 100.140625 176.78125 C 99.992188 170.941406 99.242188 165.179688 99.242188 159.417969 C 99.242188 153.730469 99.839844 148.117188 100.140625 142.425781 C 100.441406 136.664062 100.964844 131.050781 101.113281 125.140625 C 101.261719 119.078125 101.488281 112.566406 101.039062 106.503906 C 100.664062 100.589844 99.09375 95.050781 98.644531 89.289062 C 98.269531 83.449219 96.546875 77.015625 98.570312 71.773438 C 100.664062 66.160156 112.117188 57.03125 112.042969 56.957031 C 111.964844 56.882812 99.46875 70.277344 99.316406 70.128906 C 99.167969 69.980469 105.828125 60.625 110.46875 56.882812 C 115.785156 52.691406 124.164062 50.445312 130.078125 46.777344 C 135.46875 43.484375 138.761719 39.441406 144.523438 36.074219 C 151.933594 31.734375 163.535156 24.625 171.46875 24.101562 C 177.453125 23.652344 185.460938 26.945312 187.707031 28.589844 C 188.53125 29.1875 188.15625 29.789062 188.90625 30.460938 C 191.300781 32.40625 200.28125 35.25 205.820312 37.945312 C 211.285156 40.640625 221.539062 46.925781 221.835938 46.476562 C 221.910156 46.328125 219.890625 44.683594 219.890625 44.605469 C 219.964844 44.457031 228.496094 52.464844 233.289062 55.683594 C 238.152344 58.902344 243.914062 60.699219 248.855469 63.917969 C 253.796875 67.058594 259.707031 69.53125 263 74.769531 C 266.96875 81.054688 267.492188 93.03125 268.238281 100.890625 C 268.914062 107.25 268.238281 112.414062 268.238281 118.179688 C 268.238281 124.015625 268.164062 129.554688 268.164062 135.542969 C 268.164062 141.980469 268.316406 148.863281 268.238281 155.375 C 268.238281 161.511719 267.867188 167.425781 268.015625 173.414062 C 268.164062 179.324219 269.136719 185.238281 269.136719 191.074219 C 269.136719 196.839844 268.765625 202.300781 268.015625 208.066406 C 267.265625 214.277344 265.546875 220.789062 264.574219 226.925781 C 263.675781 232.839844 263.523438 238.527344 262.550781 244.441406 C 261.578125 250.578125 260.082031 256.863281 258.734375 262.925781 C 257.460938 268.765625 256.339844 274.453125 254.84375 280.214844 C 253.421875 285.976562 252.449219 291.890625 250.128906 297.355469 C 247.734375 302.96875 244.214844 308.582031 240.472656 313.371094 C 236.957031 317.9375 228.945312 325.871094 228.574219 325.570312 C 228.199219 325.195312 239.277344 312.097656 238.378906 311.125 C 237.328125 310.078125 223.933594 321.753906 218.394531 323.398438 C 215.027344 324.449219 210.761719 322.875 209.636719 323.847656 C 209.113281 324.296875 209.710938 325.121094 209.1875 325.644531 C 207.390625 327.367188 195.417969 328.9375 191.824219 329.3125 C 190.253906 329.460938 189.730469 329.011719 188.308594 329.3125 C 185.910156 329.761719 182.617188 332.53125 178.953125 333.054688 C 174.160156 333.804688 167.277344 331.707031 161.886719 331.632812 C 156.949219 331.632812 149.386719 332.082031 147.890625 332.605469 C 147.59375 332.753906 147.742188 332.832031 147.441406 332.980469 C 146.542969 333.203125 141.453125 333.054688 141.378906 333.054688 C 141.378906 333.054688 139.808594 332.90625 138.984375 332.753906 C 138.160156 332.679688 136.589844 332.457031 136.515625 332.457031 C 136.515625 332.457031 135.019531 331.933594 134.269531 331.632812 C 133.519531 331.332031 132.023438 330.734375 131.949219 330.734375 C 131.949219 330.734375 130.601562 329.835938 129.929688 329.386719 C 129.253906 328.863281 127.984375 327.964844 127.984375 327.964844 C 127.90625 327.964844 126.859375 326.769531 126.335938 326.167969 C 125.8125 325.496094 124.691406 324.296875 124.691406 324.296875 C 124.691406 324.296875 123.941406 322.875 123.566406 322.128906 C 123.191406 321.453125 122.445312 320.03125 122.445312 319.957031 C 122.445312 319.957031 122.070312 318.386719 121.84375 317.636719 C 121.621094 316.8125 121.246094 315.242188 121.246094 315.242188 C 121.246094 315.167969 121.246094 313.296875 121.246094 312.773438 C 121.246094 312.546875 121.246094 312.25 121.246094 312.25 C 121.246094 312.25 121.246094 311.648438 121.246094 311.648438 C 121.246094 311.648438 121.398438 310.902344 121.246094 310.453125 C 120.949219 309.480469 118.703125 306.710938 118.851562 306.636719 C 118.925781 306.558594 121.023438 309.480469 121.472656 309.402344 C 121.769531 309.328125 121.695312 308.507812 121.84375 307.980469 C 121.996094 307.308594 122.445312 305.660156 122.445312 305.585938 C 122.445312 305.585938 123.269531 304.839844 123.191406 304.089844 C 123.042969 302.070312 118.179688 296.679688 114.734375 292.714844 C 110.542969 287.699219 103.433594 282.234375 99.390625 276.847656 C 95.875 272.28125 92.957031 264.347656 91.160156 262.925781 C 90.636719 262.476562 89.8125 262.402344 89.8125 262.402344 C 89.738281 262.402344 88.539062 261.578125 87.867188 261.203125 C 87.191406 260.753906 85.996094 259.933594 85.921875 259.933594 C 85.921875 259.933594 84.871094 258.808594 84.347656 258.285156 C 83.824219 257.6875 82.851562 256.640625 82.777344 256.5625 C 82.777344 256.5625 82.027344 255.21875 81.65625 254.542969 C 81.28125 253.945312 80.53125 252.597656 80.53125 252.597656 C 80.457031 252.449219 68.480469 239.125 64.367188 232.613281 C 60.996094 227.226562 57.628906 220.191406 56.804688 216.824219 C 56.507812 215.324219 56.730469 213.527344 56.730469 213.527344 C 56.730469 213.453125 56.957031 211.957031 57.03125 211.210938 C 57.105469 210.386719 57.332031 208.890625 57.332031 208.890625 C 57.332031 208.8125 57.855469 207.316406 58.152344 206.644531 C 58.378906 206.121094 58.753906 205.519531 58.753906 205.070312 C 58.675781 204.773438 58.453125 204.621094 58.078125 204.25 C 56.507812 202.601562 47.449219 196.164062 43.785156 193.171875 C 41.464844 191.300781 39.667969 189.804688 38.09375 188.382812 C 36.972656 187.332031 36.074219 186.511719 35.25 185.386719 C 34.429688 184.339844 33.753906 183.066406 33.15625 181.871094 C 32.632812 180.597656 32.257812 179.25 32.03125 177.902344 C 31.808594 176.554688 31.882812 173.789062 31.882812 173.789062 M 152.007812 331.109375 C 155.523438 328.191406 157.921875 326.09375 157.84375 325.871094 C 157.84375 325.871094 157.695312 325.871094 157.621094 325.945312 C 156.949219 326.167969 152.007812 331.109375 152.007812 331.109375 M 160.015625 49.320312 C 164.957031 55.910156 166.078125 55.382812 166.226562 54.933594 C 166.378906 53.886719 160.015625 49.320312 160.015625 49.320312 M 166.902344 82.179688 C 173.710938 88.539062 174.609375 88.089844 174.683594 87.640625 C 174.761719 86.667969 166.902344 82.179688 166.902344 82.179688 M 219.292969 70.128906 C 228.945312 84.871094 229.84375 85.847656 229.996094 85.769531 C 230.070312 85.769531 230.070312 85.695312 230.070312 85.546875 C 229.769531 84.347656 219.292969 70.128906 219.292969 70.128906 M 119.675781 310.078125 C 121.320312 311.875 121.320312 312.25 121.246094 312.25 C 121.097656 312.324219 119.675781 310.078125 119.675781 310.078125 " clip-rule="nonzero"/></clipPath><clipPath id="51520de330"><path d="M 0.613281 0 L 238.199219 0 L 238.199219 309.835938 L 0.613281 309.835938 Z M 0.613281 0 " clip-rule="nonzero"/></clipPath><clipPath id="6cd11fe49c"><path d="M 0.882812 149.789062 C 2.15625 144.398438 2.753906 143.125 3.503906 142.003906 C 4.25 140.878906 5.074219 139.757812 6.121094 138.785156 C 7.09375 137.886719 8.21875 137.0625 9.414062 136.316406 C 10.539062 135.640625 11.886719 135.117188 13.15625 134.742188 C 14.503906 134.371094 15.851562 134.144531 17.273438 134.070312 C 18.621094 133.996094 20.042969 134.144531 21.390625 134.445312 C 22.664062 134.667969 24.011719 135.117188 25.28125 135.714844 C 26.480469 136.316406 28.726562 137.960938 28.726562 137.960938 C 28.726562 137.960938 32.316406 140.507812 34.5625 142.527344 C 38.230469 145.746094 43.769531 151.058594 48.183594 155.847656 C 52.75 160.714844 58.140625 166.328125 61.507812 171.566406 C 64.351562 175.984375 66.445312 184.964844 67.71875 184.738281 C 68.992188 184.515625 68.917969 175.535156 69.140625 170.519531 C 69.441406 164.90625 69.289062 158.617188 69.140625 152.78125 C 68.992188 146.941406 68.242188 141.179688 68.242188 135.417969 C 68.242188 129.730469 68.839844 124.117188 69.140625 118.425781 C 69.441406 112.664062 69.964844 107.050781 70.113281 101.140625 C 70.261719 95.078125 70.488281 88.566406 70.039062 82.503906 C 69.664062 76.589844 68.09375 71.050781 67.644531 65.289062 C 67.269531 59.449219 65.546875 53.015625 67.570312 47.773438 C 69.664062 42.160156 81.117188 33.03125 81.042969 32.957031 C 80.964844 32.882812 68.46875 46.277344 68.316406 46.128906 C 68.167969 45.980469 74.828125 36.625 79.46875 32.882812 C 84.785156 28.691406 93.164062 26.445312 99.078125 22.777344 C 104.46875 19.484375 107.761719 15.441406 113.523438 12.074219 C 120.933594 7.734375 132.535156 0.625 140.46875 0.101562 C 146.453125 -0.347656 154.460938 2.945312 156.707031 4.589844 C 157.53125 5.1875 157.15625 5.789062 157.90625 6.460938 C 160.300781 8.40625 169.28125 11.25 174.820312 13.945312 C 180.285156 16.640625 190.539062 22.925781 190.835938 22.476562 C 190.910156 22.328125 188.890625 20.683594 188.890625 20.605469 C 188.964844 20.457031 197.496094 28.464844 202.289062 31.683594 C 207.152344 34.902344 212.914062 36.699219 217.855469 39.917969 C 222.796875 43.058594 228.707031 45.53125 232 50.769531 C 235.96875 57.054688 236.492188 69.03125 237.238281 76.890625 C 237.914062 83.25 237.238281 88.414062 237.238281 94.179688 C 237.238281 100.015625 237.164062 105.554688 237.164062 111.542969 C 237.164062 117.980469 237.316406 124.863281 237.238281 131.375 C 237.238281 137.511719 236.867188 143.425781 237.015625 149.414062 C 237.164062 155.324219 238.136719 161.238281 238.136719 167.074219 C 238.136719 172.839844 237.765625 178.300781 237.015625 184.066406 C 236.265625 190.277344 234.546875 196.789062 233.574219 202.925781 C 232.675781 208.839844 232.523438 214.527344 231.550781 220.441406 C 230.578125 226.578125 229.082031 232.863281 227.734375 238.925781 C 226.460938 244.765625 225.339844 250.453125 223.84375 256.214844 C 222.421875 261.976562 221.449219 267.890625 219.128906 273.355469 C 216.734375 278.96875 213.214844 284.582031 209.472656 289.371094 C 205.957031 293.9375 197.945312 301.871094 197.574219 301.570312 C 197.199219 301.195312 208.277344 288.097656 207.378906 287.125 C 206.328125 286.078125 192.933594 297.753906 187.394531 299.398438 C 184.027344 300.449219 179.761719 298.875 178.636719 299.847656 C 178.113281 300.296875 178.710938 301.121094 178.1875 301.644531 C 176.390625 303.367188 164.417969 304.9375 160.824219 305.3125 C 159.253906 305.460938 158.730469 305.011719 157.308594 305.3125 C 154.910156 305.761719 151.617188 308.53125 147.953125 309.054688 C 143.160156 309.804688 136.277344 307.707031 130.886719 307.632812 C 125.949219 307.632812 118.386719 308.082031 116.890625 308.605469 C 116.59375 308.753906 116.742188 308.832031 116.441406 308.980469 C 115.542969 309.203125 110.453125 309.054688 110.378906 309.054688 C 110.378906 309.054688 108.808594 308.90625 107.984375 308.753906 C 107.160156 308.679688 105.589844 308.457031 105.515625 308.457031 C 105.515625 308.457031 104.019531 307.933594 103.269531 307.632812 C 102.519531 307.332031 101.023438 306.734375 100.949219 306.734375 C 100.949219 306.734375 99.601562 305.835938 98.929688 305.386719 C 98.253906 304.863281 96.984375 303.964844 96.984375 303.964844 C 96.90625 303.964844 95.859375 302.769531 95.335938 302.167969 C 94.8125 301.496094 93.691406 300.296875 93.691406 300.296875 C 93.691406 300.296875 92.941406 298.875 92.566406 298.128906 C 92.191406 297.453125 91.445312 296.03125 91.445312 295.957031 C 91.445312 295.957031 91.070312 294.386719 90.84375 293.636719 C 90.621094 292.8125 90.246094 291.242188 90.246094 291.242188 C 90.246094 291.167969 90.246094 289.296875 90.246094 288.773438 C 90.246094 288.546875 90.246094 288.25 90.246094 288.25 C 90.246094 288.25 90.246094 287.648438 90.246094 287.648438 C 90.246094 287.648438 90.398438 286.902344 90.246094 286.453125 C 89.949219 285.480469 87.703125 282.710938 87.851562 282.636719 C 87.925781 282.558594 90.023438 285.480469 90.472656 285.402344 C 90.769531 285.328125 90.695312 284.507812 90.84375 283.980469 C 90.996094 283.308594 91.445312 281.660156 91.445312 281.585938 C 91.445312 281.585938 92.269531 280.839844 92.191406 280.089844 C 92.042969 278.070312 87.179688 272.679688 83.734375 268.714844 C 79.542969 263.699219 72.433594 258.234375 68.390625 252.847656 C 64.875 248.28125 61.957031 240.347656 60.160156 238.925781 C 59.636719 238.476562 58.8125 238.402344 58.8125 238.402344 C 58.738281 238.402344 57.539062 237.578125 56.867188 237.203125 C 56.191406 236.753906 54.996094 235.933594 54.921875 235.933594 C 54.921875 235.933594 53.871094 234.808594 53.347656 234.285156 C 52.824219 233.6875 51.851562 232.640625 51.777344 232.5625 C 51.777344 232.5625 51.027344 231.21875 50.65625 230.542969 C 50.28125 229.945312 49.53125 228.597656 49.53125 228.597656 C 49.457031 228.449219 37.480469 215.125 33.367188 208.613281 C 29.996094 203.226562 26.628906 196.191406 25.804688 192.824219 C 25.507812 191.324219 25.730469 189.527344 25.730469 189.527344 C 25.730469 189.453125 25.957031 187.957031 26.03125 187.210938 C 26.105469 186.386719 26.332031 184.890625 26.332031 184.890625 C 26.332031 184.8125 26.855469 183.316406 27.152344 182.644531 C 27.378906 182.121094 27.753906 181.519531 27.753906 181.070312 C 27.675781 180.773438 27.453125 180.621094 27.078125 180.25 C 25.507812 178.601562 16.449219 172.164062 12.785156 169.171875 C 10.464844 167.300781 8.667969 165.804688 7.09375 164.382812 C 5.972656 163.332031 5.074219 162.511719 4.25 161.386719 C 3.429688 160.339844 2.753906 159.066406 2.15625 157.871094 C 1.632812 156.597656 1.257812 155.25 1.03125 153.902344 C 0.808594 152.554688 0.882812 149.789062 0.882812 149.789062 M 121.007812 307.109375 C 124.523438 304.191406 126.921875 302.09375 126.84375 301.871094 C 126.84375 301.871094 126.695312 301.871094 126.621094 301.945312 C 125.949219 302.167969 121.007812 307.109375 121.007812 307.109375 M 129.015625 25.320312 C 133.957031 31.910156 135.078125 31.382812 135.226562 30.933594 C 135.378906 29.886719 129.015625 25.320312 129.015625 25.320312 M 135.902344 58.179688 C 142.710938 64.539062 143.609375 64.089844 143.683594 63.640625 C 143.761719 62.667969 135.902344 58.179688 135.902344 58.179688 M 188.292969 46.128906 C 197.945312 60.871094 198.84375 61.847656 198.996094 61.769531 C 199.070312 61.769531 199.070312 61.695312 199.070312 61.546875 C 198.769531 60.347656 188.292969 46.128906 188.292969 46.128906 M 88.675781 286.078125 C 90.320312 287.875 90.320312 288.25 90.246094 288.25 C 90.097656 288.324219 88.675781 286.078125 88.675781 286.078125 " clip-rule="nonzero"/></clipPath><clipPath id="bc305751eb"><rect x="0" width="239" y="0" height="310"/></clipPath><clipPath id="bf1b4f8cc2"><path d="M 145.949219 57.027344 L 179 57.027344 L 179 90.855469 L 145.949219 90.855469 Z M 145.949219 57.027344 " clip-rule="nonzero"/></clipPath><clipPath id="cf6f12f637"><path d="M 178.953125 69.007812 C 178.953125 79.558594 177.679688 82.328125 176.105469 84.347656 C 174.535156 86.445312 172.140625 88.242188 169.746094 89.363281 C 167.351562 90.410156 164.433594 90.933594 161.8125 90.785156 C 159.191406 90.636719 156.347656 89.738281 154.101562 88.390625 C 151.933594 87.042969 149.761719 84.949219 148.414062 82.703125 C 147.066406 80.457031 146.167969 77.613281 146.019531 74.992188 C 145.871094 72.375 146.394531 69.453125 147.515625 67.058594 C 148.566406 64.664062 150.4375 62.34375 152.457031 60.699219 C 154.550781 59.125 157.246094 57.855469 159.792969 57.40625 C 162.410156 56.957031 165.40625 57.105469 167.875 57.929688 C 170.34375 58.675781 174.761719 62.046875 174.761719 62.046875 " clip-rule="nonzero"/></clipPath><clipPath id="175ff47f55"><path d="M 0.949219 0.0273438 L 34 0.0273438 L 34 33.855469 L 0.949219 33.855469 Z M 0.949219 0.0273438 " clip-rule="nonzero"/></clipPath><clipPath id="254bfb9175"><path d="M 33.953125 12.007812 C 33.953125 22.558594 32.679688 25.328125 31.105469 27.347656 C 29.535156 29.445312 27.140625 31.242188 24.746094 32.363281 C 22.351562 33.410156 19.433594 33.933594 16.8125 33.785156 C 14.191406 33.636719 11.347656 32.738281 9.101562 31.390625 C 6.933594 30.042969 4.761719 27.949219 3.414062 25.703125 C 2.066406 23.457031 1.167969 20.613281 1.019531 17.992188 C 0.871094 15.375 1.394531 12.453125 2.515625 10.058594 C 3.566406 7.664062 5.4375 5.34375 7.457031 3.699219 C 9.550781 2.125 12.246094 0.855469 14.792969 0.40625 C 17.410156 -0.0429688 20.40625 0.105469 22.875 0.929688 C 25.34375 1.675781 29.761719 5.046875 29.761719 5.046875 " clip-rule="nonzero"/></clipPath><clipPath id="9ccdbb0968"><rect x="0" width="34" y="0" height="34"/></clipPath><clipPath id="cb6718c28f"><path d="M 145.949219 34.273438 L 179 34.273438 L 179 68.105469 L 145.949219 68.105469 Z M 145.949219 34.273438 " clip-rule="nonzero"/></clipPath><clipPath id="7955007104"><path d="M 178.953125 46.179688 C 178.953125 56.804688 177.679688 59.5 176.105469 61.597656 C 174.535156 63.617188 172.140625 65.488281 169.746094 66.535156 C 167.351562 67.660156 164.433594 68.183594 161.8125 68.03125 C 159.191406 67.882812 156.347656 66.984375 154.101562 65.636719 C 151.933594 64.289062 149.761719 62.121094 148.414062 59.875 C 147.066406 57.703125 146.167969 54.785156 146.019531 52.242188 C 145.871094 49.621094 146.394531 46.628906 147.515625 44.308594 C 148.566406 41.914062 150.4375 39.515625 152.457031 37.945312 C 154.550781 36.300781 157.246094 35.101562 159.792969 34.652344 C 162.410156 34.128906 165.40625 34.351562 167.875 35.101562 C 170.34375 35.925781 174.761719 39.292969 174.761719 39.292969 " clip-rule="nonzero"/></clipPath><clipPath id="0982ef8da2"><path d="M 0.949219 0.273438 L 34 0.273438 L 34 34.105469 L 0.949219 34.105469 Z M 0.949219 0.273438 " clip-rule="nonzero"/></clipPath><clipPath id="434ba998ff"><path d="M 33.953125 12.179688 C 33.953125 22.804688 32.679688 25.5 31.105469 27.597656 C 29.535156 29.617188 27.140625 31.488281 24.746094 32.535156 C 22.351562 33.660156 19.433594 34.183594 16.8125 34.03125 C 14.191406 33.882812 11.347656 32.984375 9.101562 31.636719 C 6.933594 30.289062 4.761719 28.121094 3.414062 25.875 C 2.066406 23.703125 1.167969 20.785156 1.019531 18.242188 C 0.871094 15.621094 1.394531 12.628906 2.515625 10.308594 C 3.566406 7.914062 5.4375 5.515625 7.457031 3.945312 C 9.550781 2.300781 12.246094 1.101562 14.792969 0.652344 C 17.410156 0.128906 20.40625 0.351562 22.875 1.101562 C 25.34375 1.925781 29.761719 5.292969 29.761719 5.292969 " clip-rule="nonzero"/></clipPath><clipPath id="919f1d634a"><rect x="0" width="34" y="0" height="35"/></clipPath><clipPath id="f40eeb812e"><path d="M 143.253906 19.679688 L 176.316406 19.679688 L 176.316406 53.511719 L 143.253906 53.511719 Z M 143.253906 19.679688 " clip-rule="nonzero"/></clipPath><clipPath id="0bf1faf52b"><path d="M 176.183594 31.585938 C 176.183594 42.210938 174.984375 44.980469 173.339844 47 C 171.765625 49.023438 169.371094 50.894531 167.050781 51.941406 C 164.65625 53.0625 161.738281 53.589844 159.117188 53.4375 C 156.5 53.289062 153.652344 52.390625 151.410156 51.042969 C 149.164062 49.695312 147.066406 47.527344 145.722656 45.355469 C 144.375 43.109375 143.476562 40.265625 143.324219 37.644531 C 143.175781 35.027344 143.699219 32.109375 144.746094 29.714844 C 145.796875 27.316406 147.667969 24.996094 149.761719 23.351562 C 151.78125 21.78125 154.550781 20.507812 157.097656 20.058594 C 159.640625 19.609375 162.636719 19.757812 165.105469 20.507812 C 167.648438 21.332031 171.992188 24.699219 171.992188 24.699219 " clip-rule="nonzero"/></clipPath><clipPath id="718ef2f30e"><path d="M 0.253906 0.679688 L 33.273438 0.679688 L 33.273438 34.511719 L 0.253906 34.511719 Z M 0.253906 0.679688 " clip-rule="nonzero"/></clipPath><clipPath id="e43dac4129"><path d="M 33.183594 12.585938 C 33.183594 23.210938 31.984375 25.980469 30.339844 28 C 28.765625 30.023438 26.371094 31.894531 24.050781 32.941406 C 21.65625 34.0625 18.738281 34.589844 16.117188 34.4375 C 13.5 34.289062 10.652344 33.390625 8.410156 32.042969 C 6.164062 30.695312 4.066406 28.527344 2.722656 26.355469 C 1.375 24.109375 0.476562 21.265625 0.324219 18.644531 C 0.175781 16.027344 0.699219 13.109375 1.746094 10.714844 C 2.796875 8.316406 4.667969 5.996094 6.761719 4.351562 C 8.78125 2.78125 11.550781 1.507812 14.097656 1.058594 C 16.640625 0.609375 19.636719 0.757812 22.105469 1.507812 C 24.648438 2.332031 28.992188 5.699219 28.992188 5.699219 " clip-rule="nonzero"/></clipPath><clipPath id="d22c15d732"><rect x="0" width="34" y="0" height="35"/></clipPath><clipPath id="04f3c6a967"><path d="M 156.828125 50.695312 L 190.828125 50.695312 L 190.828125 85.46875 L 156.828125 85.46875 Z M 156.828125 50.695312 " clip-rule="nonzero"/></clipPath><clipPath id="e78384032c"><path d="M 190.628906 67.582031 C 189.203125 75.667969 188.308594 77.3125 187.257812 78.734375 C 186.136719 80.15625 184.714844 81.503906 183.292969 82.476562 C 181.796875 83.527344 180.074219 84.273438 178.277344 84.796875 C 176.554688 85.246094 174.683594 85.472656 172.890625 85.398438 C 171.09375 85.246094 169.222656 84.871094 167.574219 84.199219 C 165.855469 83.527344 164.207031 82.550781 162.859375 81.355469 C 161.511719 80.234375 160.242188 78.734375 159.34375 77.238281 C 158.371094 75.667969 157.695312 73.871094 157.320312 72.148438 C 156.949219 70.351562 156.796875 68.480469 157.023438 66.6875 C 157.171875 64.890625 157.695312 63.019531 158.445312 61.445312 C 159.191406 59.800781 160.316406 58.226562 161.511719 56.882812 C 162.785156 55.609375 164.28125 54.410156 165.855469 53.589844 C 167.5 52.765625 169.296875 52.167969 171.09375 51.867188 C 172.8125 51.566406 174.761719 51.566406 176.554688 51.867188 C 178.277344 52.167969 180.148438 52.765625 181.71875 53.589844 C 183.292969 54.410156 184.789062 55.609375 186.0625 56.882812 C 187.257812 58.226562 188.382812 59.800781 189.128906 61.445312 C 189.878906 63.09375 190.402344 64.890625 190.550781 66.6875 C 190.777344 68.480469 190.703125 70.429688 190.253906 72.148438 C 189.878906 73.871094 189.203125 75.667969 188.230469 77.238281 C 187.332031 78.734375 186.0625 80.234375 184.714844 81.355469 C 183.367188 82.550781 181.71875 83.527344 180 84.199219 C 178.351562 84.871094 176.480469 85.246094 174.683594 85.398438 C 172.890625 85.472656 171.019531 85.246094 169.296875 84.796875 C 167.5 84.273438 165.777344 83.527344 164.28125 82.476562 C 162.859375 81.503906 161.4375 80.15625 160.316406 78.734375 C 159.265625 77.3125 158.371094 75.59375 157.769531 73.871094 C 157.246094 72.222656 156.949219 70.277344 156.871094 68.480469 C 156.871094 66.835938 156.871094 65.339844 157.394531 63.542969 C 158.070312 61.371094 159.417969 58.378906 161.136719 56.433594 C 162.933594 54.484375 165.777344 52.765625 167.800781 51.867188 C 169.222656 51.191406 170.195312 50.96875 171.765625 50.894531 C 173.9375 50.742188 177.304688 50.894531 179.773438 51.867188 C 182.246094 52.765625 184.863281 54.859375 186.4375 56.433594 C 187.484375 57.554688 188.082031 58.378906 188.679688 59.800781 C 189.578125 61.746094 190.628906 67.582031 190.628906 67.582031 " clip-rule="nonzero"/></clipPath><clipPath id="2be7cd0d74"><path d="M 0.828125 0.695312 L 34.828125 0.695312 L 34.828125 35.46875 L 0.828125 35.46875 Z M 0.828125 0.695312 " clip-rule="nonzero"/></clipPath><clipPath id="45a717706c"><path d="M 34.628906 17.582031 C 33.203125 25.667969 32.308594 27.3125 31.257812 28.734375 C 30.136719 30.15625 28.714844 31.503906 27.292969 32.476562 C 25.796875 33.527344 24.074219 34.273438 22.277344 34.796875 C 20.554688 35.246094 18.683594 35.472656 16.890625 35.398438 C 15.09375 35.246094 13.222656 34.871094 11.574219 34.199219 C 9.855469 33.527344 8.207031 32.550781 6.859375 31.355469 C 5.511719 30.234375 4.242188 28.734375 3.34375 27.238281 C 2.371094 25.667969 1.695312 23.871094 1.320312 22.148438 C 0.949219 20.351562 0.796875 18.480469 1.023438 16.6875 C 1.171875 14.890625 1.695312 13.019531 2.445312 11.445312 C 3.191406 9.800781 4.316406 8.226562 5.511719 6.882812 C 6.785156 5.609375 8.28125 4.410156 9.855469 3.589844 C 11.5 2.765625 13.296875 2.167969 15.09375 1.867188 C 16.8125 1.566406 18.761719 1.566406 20.554688 1.867188 C 22.277344 2.167969 24.148438 2.765625 25.71875 3.589844 C 27.292969 4.410156 28.789062 5.609375 30.0625 6.882812 C 31.257812 8.226562 32.382812 9.800781 33.128906 11.445312 C 33.878906 13.09375 34.402344 14.890625 34.550781 16.6875 C 34.777344 18.480469 34.703125 20.429688 34.253906 22.148438 C 33.878906 23.871094 33.203125 25.667969 32.230469 27.238281 C 31.332031 28.734375 30.0625 30.234375 28.714844 31.355469 C 27.367188 32.550781 25.71875 33.527344 24 34.199219 C 22.351562 34.871094 20.480469 35.246094 18.683594 35.398438 C 16.890625 35.472656 15.019531 35.246094 13.296875 34.796875 C 11.5 34.273438 9.777344 33.527344 8.28125 32.476562 C 6.859375 31.503906 5.4375 30.15625 4.316406 28.734375 C 3.265625 27.3125 2.371094 25.59375 1.769531 23.871094 C 1.246094 22.222656 0.949219 20.277344 0.871094 18.480469 C 0.871094 16.835938 0.871094 15.339844 1.394531 13.542969 C 2.070312 11.371094 3.417969 8.378906 5.136719 6.433594 C 6.933594 4.484375 9.777344 2.765625 11.800781 1.867188 C 13.222656 1.191406 14.195312 0.96875 15.765625 0.894531 C 17.9375 0.742188 21.304688 0.894531 23.773438 1.867188 C 26.246094 2.765625 28.863281 4.859375 30.4375 6.433594 C 31.484375 7.554688 32.082031 8.378906 32.679688 9.800781 C 33.578125 11.746094 34.628906 17.582031 34.628906 17.582031 " clip-rule="nonzero"/></clipPath><clipPath id="b057c6aa16"><rect x="0" width="35" y="0" height="36"/></clipPath><clipPath id="74223b3031"><path d="M 158.746094 77.082031 L 191.808594 77.082031 L 191.808594 110.914062 L 158.746094 110.914062 Z M 158.746094 77.082031 " clip-rule="nonzero"/></clipPath><clipPath id="10ac990829"><path d="M 191.675781 89.0625 C 191.675781 99.617188 190.476562 102.386719 188.832031 104.40625 C 187.257812 106.503906 184.863281 108.300781 182.542969 109.421875 C 180.148438 110.46875 177.230469 110.992188 174.609375 110.84375 C 171.992188 110.695312 169.148438 109.796875 166.902344 108.449219 C 164.65625 107.101562 162.5625 105.003906 161.214844 102.761719 C 159.867188 100.515625 158.96875 97.671875 158.820312 95.050781 C 158.667969 92.433594 159.191406 89.511719 160.242188 87.117188 C 161.363281 84.722656 163.160156 82.402344 165.253906 80.757812 C 167.277344 79.183594 170.046875 77.914062 172.589844 77.464844 C 175.132812 77.015625 178.128906 77.164062 180.597656 77.988281 C 183.144531 78.734375 187.558594 82.105469 187.558594 82.105469 " clip-rule="nonzero"/></clipPath><clipPath id="fecd77fd37"><path d="M 0.746094 0.0820312 L 33.808594 0.0820312 L 33.808594 33.914062 L 0.746094 33.914062 Z M 0.746094 0.0820312 " clip-rule="nonzero"/></clipPath><clipPath id="81ea75ddfd"><path d="M 33.675781 12.0625 C 33.675781 22.617188 32.476562 25.386719 30.832031 27.40625 C 29.257812 29.503906 26.863281 31.300781 24.542969 32.421875 C 22.148438 33.46875 19.230469 33.992188 16.609375 33.84375 C 13.992188 33.695312 11.148438 32.796875 8.902344 31.449219 C 6.65625 30.101562 4.5625 28.003906 3.214844 25.761719 C 1.867188 23.515625 0.96875 20.671875 0.820312 18.050781 C 0.667969 15.433594 1.191406 12.511719 2.242188 10.117188 C 3.363281 7.722656 5.160156 5.402344 7.253906 3.757812 C 9.277344 2.183594 12.046875 0.914062 14.589844 0.464844 C 17.132812 0.015625 20.128906 0.164062 22.597656 0.988281 C 25.144531 1.734375 29.558594 5.105469 29.558594 5.105469 " clip-rule="nonzero"/></clipPath><clipPath id="eff997a76d"><rect x="0" width="34" y="0" height="34"/></clipPath><clipPath id="2461456212"><path d="M 213.382812 295.851562 L 246.445312 295.851562 L 246.445312 329.683594 L 213.382812 329.683594 Z M 213.382812 295.851562 " clip-rule="nonzero"/></clipPath><clipPath id="3ae2a2d2f3"><path d="M 246.386719 307.757812 C 246.386719 318.386719 245.1875 321.15625 243.542969 323.175781 C 241.96875 325.195312 239.574219 327.066406 237.179688 328.113281 C 234.859375 329.238281 231.867188 329.761719 229.246094 329.613281 C 226.703125 329.460938 223.78125 328.5625 221.613281 327.21875 C 219.367188 325.871094 217.269531 323.699219 215.925781 321.527344 C 214.503906 319.285156 213.679688 316.4375 213.453125 313.820312 C 213.304688 311.199219 213.902344 308.28125 214.953125 305.886719 C 216 303.492188 217.871094 301.171875 219.890625 299.523438 C 221.988281 297.953125 224.679688 296.679688 227.300781 296.230469 C 229.84375 295.78125 232.839844 295.933594 235.308594 296.679688 C 237.777344 297.503906 242.195312 300.871094 242.195312 300.871094 " clip-rule="nonzero"/></clipPath><clipPath id="5eb8c76da3"><path d="M 0.382812 0.851562 L 33.445312 0.851562 L 33.445312 34.683594 L 0.382812 34.683594 Z M 0.382812 0.851562 " clip-rule="nonzero"/></clipPath><clipPath id="b0ebd0696d"><path d="M 33.386719 12.757812 C 33.386719 23.386719 32.1875 26.15625 30.542969 28.175781 C 28.96875 30.195312 26.574219 32.066406 24.179688 33.113281 C 21.859375 34.238281 18.867188 34.761719 16.246094 34.613281 C 13.703125 34.460938 10.78125 33.5625 8.613281 32.21875 C 6.367188 30.871094 4.269531 28.699219 2.925781 26.527344 C 1.503906 24.285156 0.679688 21.4375 0.453125 18.820312 C 0.304688 16.199219 0.902344 13.28125 1.953125 10.886719 C 3 8.492188 4.871094 6.171875 6.890625 4.523438 C 8.988281 2.953125 11.679688 1.679688 14.300781 1.230469 C 16.84375 0.78125 19.839844 0.933594 22.308594 1.679688 C 24.777344 2.503906 29.195312 5.871094 29.195312 5.871094 " clip-rule="nonzero"/></clipPath><clipPath id="f9bd53ef28"><rect x="0" width="34" y="0" height="35"/></clipPath></defs><g clip-path="url(#36a732cad8)"><g clip-path="url(#1b91a9ae3a)"><g transform="matrix(1, 0, 0, 1, 123, 314)"><g clip-path="url(#0160a3b8a9)"><g clip-path="url(#a7378f5a29)"><g clip-path="url(#6f32e338d5)"><rect x="-202.035" width="517.32" fill="#cba680" height="517.319981" y="-393.034997" fill-opacity="1"/></g></g></g></g></g></g><g clip-path="url(#25a108bf7a)"><g clip-path="url(#94e963a180)"><g transform="matrix(1, 0, 0, 1, 31, 24)"><g clip-path="url(#bc305751eb)"><g clip-path="url(#51520de330)"><g clip-path="url(#6cd11fe49c)"><rect x="-110.035" width="517.32" fill="#cba680" height="517.319981" y="-103.034997" fill-opacity="1"/></g></g></g></g></g></g><g clip-path="url(#bf1b4f8cc2)"><g clip-path="url(#cf6f12f637)"><g transform="matrix(1, 0, 0, 1, 145, 57)"><g clip-path="url(#9ccdbb0968)"><g clip-path="url(#175ff47f55)"><g clip-path="url(#254bfb9175)"><rect x="-224.035" width="517.32" fill="#cba680" height="517.319981" y="-136.034997" fill-opacity="1"/></g></g></g></g></g></g><g clip-path="url(#cb6718c28f)"><g clip-path="url(#7955007104)"><g transform="matrix(1, 0, 0, 1, 145, 34)"><g clip-path="url(#919f1d634a)"><g clip-path="url(#0982ef8da2)"><g clip-path="url(#434ba998ff)"><rect x="-224.035" width="517.32" fill="#cba680" height="517.319981" y="-113.034997" fill-opacity="1"/></g></g></g></g></g></g><g clip-path="url(#f40eeb812e)"><g clip-path="url(#0bf1faf52b)"><g transform="matrix(1, 0, 0, 1, 143, 19)"><g clip-path="url(#d22c15d732)"><g clip-path="url(#718ef2f30e)"><g clip-path="url(#e43dac4129)"><rect x="-222.035" width="517.32" fill="#cba680" height="517.319981" y="-98.034997" fill-opacity="1"/></g></g></g></g></g></g><g clip-path="url(#04f3c6a967)"><g clip-path="url(#e78384032c)"><g transform="matrix(1, 0, 0, 1, 156, 50)"><g clip-path="url(#b057c6aa16)"><g clip-path="url(#2be7cd0d74)"><g clip-path="url(#45a717706c)"><rect x="-235.035" width="517.32" fill="#cba680" height="517.319981" y="-129.034997" fill-opacity="1"/></g></g></g></g></g></g><g clip-path="url(#74223b3031)"><g clip-path="url(#10ac990829)"><g transform="matrix(1, 0, 0, 1, 158, 77)"><g clip-path="url(#eff997a76d)"><g clip-path="url(#fecd77fd37)"><g clip-path="url(#81ea75ddfd)"><rect x="-237.035" width="517.32" fill="#cba680" height="517.319981" y="-156.034997" fill-opacity="1"/></g></g></g></g></g></g><g clip-path="url(#2461456212)"><g clip-path="url(#3ae2a2d2f3)"><g transform="matrix(1, 0, 0, 1, 213, 295)"><g clip-path="url(#f9bd53ef28)"><g clip-path="url(#5eb8c76da3)"><g clip-path="url(#b0ebd0696d)"><rect x="-292.035" width="517.32" fill="#cba680" height="517.319981" y="-374.034997" fill-opacity="1"/></g></g></g></g></g></g><path fill="#000000" d="M -318.566406 -271.140625 C -321.359375 -268.347656 -321.59375 -266.855469 -322.265625 -247.558594 C -323.042969 -225.355469 -324.046875 -220.765625 -334.078125 -193.578125 C -342.464844 -170.847656 -342.726562 -167.285156 -342.324219 -82.070312 C -341.921875 2.042969 -342.4375 -3.078125 -333.425781 6.0625 C -326.570312 13.015625 -322.417969 14.636719 -311.394531 14.664062 L -301.5 14.691406 L -300.71875 20.589844 C -298.609375 36.480469 -283.328125 47.660156 -266.140625 45.878906 L -258.8125 45.117188 L -255.992188 50.9375 C -243.304688 77.148438 -197.875 67.878906 -197.875 39.082031 L -197.875 34.90625 L -191.09375 35.601562 C -181.484375 36.585938 -174.109375 34.207031 -167.292969 27.921875 C -156.707031 18.164062 -157.25 21.710938 -156.523438 -42.566406 L -155.878906 -99.828125 L -150.71875 -92.964844 C -126.308594 -60.519531 -94.800781 -58.515625 -85.75 -88.835938 C -81.691406 -102.429688 -82.894531 -105.53125 -106.878906 -143.292969 C -139.699219 -194.964844 -147.894531 -207.074219 -156.3125 -216.320312 C -169.820312 -231.15625 -175.226562 -242.414062 -176.757812 -258.917969 C -177.765625 -269.730469 -180.878906 -274.121094 -187.539062 -274.121094 C -206.789062 -274.121094 -198.5625 -232.382812 -173.753906 -204.195312 C -150.082031 -177.292969 -103.273438 -101.390625 -106.121094 -94.519531 C -111.996094 -80.339844 -156.523438 -119.191406 -156.523438 -138.492188 C -156.523438 -148.238281 -166.261719 -153.460938 -173.503906 -147.597656 L -176.554688 -145.128906 L -177.199219 -67.527344 C -177.925781 19.769531 -177.28125 14.632812 -187.539062 14.632812 C -197.515625 14.632812 -197.148438 16.632812 -197.875 -41.683594 L -198.523438 -93.441406 L -201.574219 -95.910156 C -202.039062 -96.289062 -202.53125 -96.628906 -203.054688 -96.921875 C -203.578125 -97.21875 -204.125 -97.464844 -204.691406 -97.667969 C -205.253906 -97.867188 -205.835938 -98.019531 -206.425781 -98.121094 C -207.015625 -98.226562 -207.613281 -98.277344 -208.214844 -98.277344 C -208.816406 -98.277344 -209.410156 -98.222656 -210.003906 -98.121094 C -210.59375 -98.019531 -211.171875 -97.867188 -211.738281 -97.667969 C -212.304688 -97.464844 -212.847656 -97.214844 -213.371094 -96.921875 C -213.894531 -96.625 -214.390625 -96.289062 -214.855469 -95.910156 L -217.90625 -93.441406 L -218.550781 -26.175781 C -219.28125 49.523438 -218.722656 45.644531 -228.890625 45.644531 C -239.058594 45.644531 -238.5 49.523438 -239.226562 -26.175781 L -239.875 -93.441406 L -242.925781 -95.910156 C -243.390625 -96.289062 -243.882812 -96.625 -244.40625 -96.921875 C -244.929688 -97.214844 -245.476562 -97.464844 -246.039062 -97.667969 C -246.605469 -97.867188 -247.183594 -98.019531 -247.777344 -98.121094 C -248.367188 -98.222656 -248.964844 -98.273438 -249.566406 -98.273438 C -250.164062 -98.273438 -250.761719 -98.222656 -251.355469 -98.121094 C -251.945312 -98.019531 -252.523438 -97.867188 -253.089844 -97.667969 C -253.65625 -97.464844 -254.199219 -97.214844 -254.722656 -96.921875 C -255.246094 -96.625 -255.742188 -96.289062 -256.207031 -95.910156 L -259.257812 -93.441406 L -259.902344 -36.511719 C -260.628906 27.589844 -260.191406 24.96875 -270.242188 24.96875 C -280.292969 24.96875 -279.851562 27.589844 -280.578125 -36.511719 L -281.226562 -93.441406 L -284.277344 -95.910156 C -284.742188 -96.289062 -285.234375 -96.625 -285.757812 -96.921875 C -286.28125 -97.214844 -286.824219 -97.464844 -287.390625 -97.667969 C -287.957031 -97.867188 -288.535156 -98.019531 -289.128906 -98.121094 C -289.71875 -98.222656 -290.316406 -98.277344 -290.917969 -98.277344 C -291.515625 -98.277344 -292.113281 -98.226562 -292.703125 -98.121094 C -293.296875 -98.019531 -293.875 -97.867188 -294.441406 -97.667969 C -295.007812 -97.464844 -295.550781 -97.21875 -296.074219 -96.921875 C -296.597656 -96.628906 -297.089844 -96.289062 -297.558594 -95.910156 L -300.609375 -93.441406 L -301.253906 -52.019531 C -301.984375 -5.277344 -301.8125 -6.042969 -311.59375 -6.042969 C -321.902344 -6.042969 -321.285156 -0.777344 -321.265625 -88.410156 L -321.246094 -166.222656 L -317.859375 -176.558594 C -315.992188 -182.246094 -312.367188 -192.597656 -309.792969 -199.5625 C -294.367188 -241.371094 -300.257812 -289.449219 -318.566406 -271.140625 M 8.667969 -272.351562 C -5.132812 -267.324219 -13.65625 -252.6875 -11.316406 -238.046875 L -10.527344 -233.101562 L -16.738281 -232.277344 C -32.945312 -230.125 -44.132812 -214.996094 -42.335938 -197.660156 L -41.578125 -190.328125 L -47.398438 -187.511719 C -73.464844 -174.890625 -64.363281 -129.394531 -35.773438 -129.394531 L -31.824219 -129.394531 L -31.800781 -119.378906 C -31.769531 -108.21875 -30.171875 -104.097656 -23.195312 -97.21875 C -14.238281 -88.390625 -16.988281 -88.753906 46.125 -88.042969 L 103.398438 -87.394531 L 94.347656 -80.515625 C 61.117188 -55.261719 63.847656 -19.15625 99.222656 -16.054688 C 110.625 -15.054688 182.394531 -56.960938 213.050781 -82.519531 C 236.875 -102.378906 245.066406 -106.660156 262.34375 -108.265625 C 273.277344 -109.28125 277.664062 -112.367188 277.664062 -119.054688 C 277.664062 -138.722656 238.15625 -130.664062 207.386719 -104.71875 C 194.796875 -94.101562 118.898438 -43.996094 106.210938 -37.929688 C 99.285156 -34.613281 91.507812 -39.832031 91.609375 -47.71875 C 91.691406 -54 134.203125 -88.042969 141.960938 -88.042969 C 152.277344 -88.042969 157.386719 -98.59375 150.4375 -105.542969 L 147.265625 -108.71875 L 71.109375 -108.71875 C -15.644531 -108.71875 -11.089844 -108.144531 -11.089844 -119.054688 C -11.089844 -129.625 -12.359375 -129.394531 45.261719 -129.394531 L 95.578125 -129.394531 L 98.746094 -132.566406 C 102.945312 -136.761719 102.945312 -142.699219 98.746094 -146.894531 L 95.578125 -150.070312 L 29.757812 -150.070312 C -45.335938 -150.070312 -42.105469 -149.601562 -42.105469 -160.40625 C -42.105469 -171.210938 -45.335938 -170.742188 29.757812 -170.742188 L 95.578125 -170.742188 L 98.746094 -173.917969 C 100.746094 -175.914062 101.917969 -178.566406 101.917969 -181.082031 C 101.917969 -183.597656 100.746094 -186.25 98.746094 -188.246094 L 95.578125 -191.417969 L 40.09375 -191.417969 C -23.347656 -191.417969 -21.429688 -191.097656 -21.429688 -201.757812 C -21.429688 -212.417969 -23.347656 -212.09375 40.09375 -212.09375 L 95.578125 -212.09375 L 98.746094 -215.269531 C 100.746094 -217.265625 101.917969 -219.914062 101.917969 -222.433594 C 101.917969 -224.949219 100.746094 -227.597656 98.746094 -229.597656 L 95.578125 -232.769531 L 55.601562 -232.769531 C 9.601562 -232.769531 9.582031 -232.773438 9.582031 -243.109375 C 9.582031 -254.21875 4.914062 -253.65625 92.785156 -253.152344 L 169.761719 -252.710938 L 180.097656 -249.339844 C 185.785156 -247.484375 197.125 -243.601562 205.296875 -240.714844 C 240.851562 -228.148438 277.664062 -229.367188 277.664062 -243.109375 C 277.664062 -251.34375 273.375 -253.445312 256.566406 -253.445312 C 237.519531 -253.445312 222.878906 -256.066406 205.621094 -262.570312 C 174.695312 -274.21875 183.679688 -273.324219 93.519531 -273.722656 C 29.265625 -274.003906 12.464844 -273.734375 8.667969 -272.351562 M 153.082031 7.03125 C 142.292969 10.984375 132.933594 22.914062 132.933594 32.710938 L 132.933594 36.65625 L 122.917969 36.683594 C 111.761719 36.710938 107.636719 38.3125 100.761719 45.289062 C 91.929688 54.246094 92.292969 51.496094 91.582031 114.59375 L 90.9375 171.851562 L 85.773438 164.988281 C 62.792969 134.4375 39.621094 130.359375 23.933594 154.105469 C 14.457031 168.449219 16.472656 175.160156 42.648438 216.433594 C 75.277344 267.878906 82.554688 278.566406 92.519531 289.675781 C 105.226562 303.839844 112.179688 319.785156 112.238281 334.898438 C 112.277344 344.828125 122.976562 349.761719 129.761719 342.972656 C 139.714844 333.019531 129.457031 301.011719 108.253906 275.867188 C 84.757812 248 38.546875 172.898438 41.101562 166.730469 C 47.058594 152.34375 91.582031 190.894531 91.582031 210.441406 C 91.582031 217.113281 96 222.09375 101.917969 222.09375 C 104.4375 222.09375 107.085938 220.921875 109.085938 218.917969 L 112.257812 215.75 L 112.257812 139.589844 C 112.257812 52.835938 111.683594 57.390625 122.59375 57.390625 C 133.164062 57.390625 132.933594 56.125 132.933594 113.746094 L 132.933594 164.058594 L 136.105469 167.230469 C 138.105469 169.230469 140.753906 170.402344 143.269531 170.402344 C 145.789062 170.402344 148.4375 169.230469 150.4375 167.230469 L 153.609375 164.058594 L 153.609375 98.238281 C 153.609375 23.148438 153.144531 26.378906 163.945312 26.378906 C 174.75 26.378906 174.285156 23.148438 174.285156 98.238281 L 174.285156 164.058594 L 177.457031 167.230469 C 181.652344 171.429688 187.589844 171.429688 191.789062 167.230469 L 194.960938 164.058594 L 194.960938 108.578125 C 194.960938 45.136719 194.636719 47.054688 205.296875 47.054688 C 215.957031 47.054688 215.636719 45.136719 215.636719 108.578125 L 215.636719 164.058594 L 218.808594 167.230469 C 223.003906 171.429688 228.941406 171.429688 233.136719 167.230469 L 236.3125 164.058594 L 236.3125 124.085938 C 236.3125 78.085938 236.316406 78.066406 246.648438 78.066406 C 257.515625 78.066406 256.988281 74.121094 256.988281 155.515625 C 256.988281 236.074219 256.667969 239.847656 247.9375 262.808594 C 238.480469 287.675781 237.394531 292.917969 236.660156 317.292969 L 235.992188 339.480469 L 239.324219 342.8125 C 250.105469 353.597656 256.429688 345.664062 257.332031 320.21875 C 258.105469 298.335938 259.105469 293.539062 267.964844 269.074219 C 277.773438 242 277.789062 241.804688 277.378906 154.78125 C 276.976562 69.90625 277.5 75.109375 268.484375 65.964844 C 261.628906 59.007812 257.472656 57.386719 246.449219 57.359375 L 236.558594 57.332031 L 235.777344 51.433594 C 233.667969 35.542969 218.386719 24.363281 201.199219 26.144531 L 193.871094 26.90625 L 191.050781 21.085938 C 184.710938 7.988281 167.675781 1.683594 153.082031 7.03125 M -177.902344 89.433594 C -180.066406 90.421875 -195.769531 100.203125 -212.792969 111.167969 C -229.820312 122.136719 -249.855469 134.96875 -257.320312 139.683594 C -264.78125 144.402344 -275.828125 152.441406 -281.871094 157.550781 C -302.222656 174.765625 -310.058594 178.6875 -327.289062 180.289062 C -338.222656 181.304688 -342.605469 184.394531 -342.605469 191.078125 C -342.605469 210.753906 -300.277344 201.96875 -271.542969 176.328125 C -246.804688 154.257812 -169.691406 106.890625 -163 109.660156 C -148.804688 115.542969 -187.605469 160.066406 -206.925781 160.066406 C -216.722656 160.066406 -221.960938 169.78125 -216.082031 177.042969 L -213.613281 180.09375 L -136.007812 180.742188 C -48.714844 181.46875 -53.851562 180.820312 -53.851562 191.078125 C -53.851562 201.054688 -51.851562 200.6875 -110.164062 201.417969 L -161.925781 202.0625 L -164.394531 205.113281 C -164.773438 205.578125 -165.113281 206.074219 -165.40625 206.597656 C -165.699219 207.121094 -165.949219 207.664062 -166.152344 208.230469 C -166.351562 208.796875 -166.503906 209.375 -166.605469 209.964844 C -166.707031 210.558594 -166.757812 211.152344 -166.757812 211.753906 C -166.757812 212.355469 -166.707031 212.949219 -166.605469 213.542969 C -166.503906 214.132812 -166.351562 214.714844 -166.148438 215.277344 C -165.949219 215.84375 -165.699219 216.390625 -165.40625 216.914062 C -165.109375 217.433594 -164.773438 217.929688 -164.394531 218.394531 L -161.925781 221.445312 L -94.660156 222.09375 C -18.960938 222.820312 -22.839844 222.261719 -22.839844 232.429688 C -22.839844 242.597656 -18.960938 242.039062 -94.660156 242.769531 L -161.925781 243.414062 L -164.394531 246.464844 C -164.773438 246.929688 -165.109375 247.425781 -165.40625 247.949219 C -165.699219 248.46875 -165.949219 249.015625 -166.148438 249.582031 C -166.351562 250.144531 -166.503906 250.726562 -166.605469 251.316406 C -166.707031 251.910156 -166.757812 252.503906 -166.757812 253.105469 C -166.757812 253.707031 -166.707031 254.300781 -166.605469 254.894531 C -166.503906 255.484375 -166.351562 256.0625 -166.148438 256.628906 C -165.949219 257.195312 -165.699219 257.738281 -165.40625 258.261719 C -165.109375 258.785156 -164.773438 259.28125 -164.394531 259.746094 L -161.925781 262.796875 L -104.996094 263.441406 C -40.890625 264.171875 -43.511719 263.730469 -43.511719 273.78125 C -43.511719 283.832031 -40.890625 283.390625 -104.996094 284.117188 L -161.925781 284.765625 L -164.394531 287.816406 C -164.773438 288.28125 -165.109375 288.773438 -165.40625 289.296875 C -165.699219 289.820312 -165.949219 290.367188 -166.148438 290.933594 C -166.351562 291.496094 -166.503906 292.074219 -166.605469 292.667969 C -166.707031 293.257812 -166.757812 293.855469 -166.757812 294.457031 C -166.757812 295.058594 -166.707031 295.652344 -166.605469 296.246094 C -166.503906 296.835938 -166.351562 297.414062 -166.152344 297.980469 C -165.949219 298.546875 -165.699219 299.089844 -165.40625 299.613281 C -165.113281 300.136719 -164.773438 300.632812 -164.394531 301.097656 L -161.925781 304.148438 L -120.503906 304.792969 C -73.761719 305.523438 -74.527344 305.351562 -74.527344 315.132812 C -74.527344 325.445312 -69.261719 324.828125 -156.894531 324.796875 L -234.703125 324.769531 L -245.042969 321.390625 C -250.726562 319.53125 -261.082031 315.90625 -268.046875 313.335938 C -303.082031 300.40625 -342.605469 301.359375 -342.605469 315.132812 C -342.605469 323.660156 -339.1875 325.03125 -316.027344 325.792969 C -293.832031 326.527344 -289.613281 327.449219 -262.097656 337.605469 C -239.785156 345.839844 -235.863281 346.148438 -153.449219 346.136719 C -59.226562 346.128906 -50.332031 343.050781 -53.558594 311.578125 C -54.207031 305.257812 -54.058594 304.792969 -51.4375 304.785156 C -34.664062 304.742188 -20.730469 287.78125 -22.605469 269.683594 L -23.367188 262.351562 L -17.546875 259.535156 C 8.523438 246.914062 -0.578125 201.417969 -29.171875 201.417969 L -33.117188 201.417969 L -33.144531 191.402344 C -33.171875 180.242188 -34.773438 176.121094 -41.746094 169.242188 C -50.703125 160.414062 -47.953125 160.777344 -111.070312 160.066406 L -168.34375 159.417969 L -159.289062 152.539062 C -140.34375 138.140625 -134.964844 129.664062 -136.191406 116.148438 C -138.027344 95.933594 -160.539062 81.511719 -177.902344 89.433594 " fill-opacity="1" fill-rule="evenodd"/></svg>