<svg xmlns="http://www.w3.org/2000/svg" xmlns:xlink="http://www.w3.org/1999/xlink" width="479" zoomAndPan="magnify" viewBox="0 0 359.25 359.249987" height="479" preserveAspectRatio="xMidYMid meet" version="1.0"><defs><clipPath id="69446cbf1c"><path d="M 36.515625 156.414062 L 252.261719 156.414062 L 252.261719 354.988281 L 36.515625 354.988281 Z M 36.515625 156.414062 " clip-rule="nonzero"/></clipPath><clipPath id="6f2e27bff9"><path d="M 68.03125 164.582031 C 83 187.859375 89.738281 201.179688 88.765625 201.855469 C 87.71875 202.527344 73.570312 186.359375 73.796875 186.136719 C 73.945312 185.988281 85.097656 194.894531 89.363281 199.832031 C 93.332031 204.472656 99.992188 213.230469 98.945312 214.726562 C 98.195312 215.773438 89.589844 212.183594 89.589844 212.105469 C 89.589844 212.03125 92.433594 212.332031 94.003906 213.003906 C 96.25 213.902344 99.542969 215.699219 101.5625 217.796875 C 103.582031 219.890625 105.230469 222.808594 106.054688 225.578125 C 106.875 228.347656 106.953125 231.714844 106.429688 234.558594 C 105.828125 237.40625 104.40625 240.398438 102.535156 242.644531 C 100.664062 244.890625 98.046875 246.835938 95.351562 248.03125 C 92.65625 249.15625 88.316406 251.101562 86.519531 249.453125 C 82.777344 245.9375 86.144531 214.128906 89.589844 211.582031 C 90.785156 210.683594 92.65625 211.957031 94.078125 212.480469 C 95.425781 212.929688 96.699219 213.378906 98.121094 214.425781 C 100.140625 215.847656 102.984375 218.84375 104.332031 220.863281 C 105.304688 222.359375 105.679688 223.332031 106.128906 225.054688 C 106.652344 227.449219 107.027344 231.191406 106.429688 234.035156 C 105.828125 236.878906 104.03125 240.097656 102.609375 242.121094 C 101.5625 243.542969 100.515625 244.363281 99.316406 245.261719 C 98.121094 246.160156 97.074219 246.910156 95.425781 247.507812 C 93.105469 248.332031 87.042969 249.902344 86.519531 248.929688 C 85.621094 247.132812 106.203125 235.832031 106.800781 229.472656 C 107.324219 224.308594 96.175781 214.425781 96.25 214.351562 C 96.324219 214.277344 110.992188 233.136719 110.542969 233.511719 C 110.09375 233.886719 95.800781 219.292969 95.949219 219.140625 C 96.097656 218.992188 111.066406 232.613281 111.21875 232.539062 C 111.292969 232.390625 98.792969 220.265625 98.71875 220.265625 C 98.644531 220.339844 108.074219 230.21875 113.988281 235.980469 C 121.695312 243.464844 134.121094 253.046875 141.378906 260.90625 C 146.992188 266.96875 151.632812 272.132812 154.777344 278.269531 C 157.621094 283.808594 160.839844 295.410156 159.867188 295.855469 C 158.894531 296.304688 148.566406 279.839844 148.566406 279.839844 C 148.566406 279.914062 160.242188 290.691406 160.765625 297.28125 C 161.289062 304.839844 146.769531 322.425781 147.667969 323.101562 C 148.414062 323.550781 157.996094 308.582031 160.015625 309.328125 C 161.960938 310.078125 161.960938 325.570312 160.164062 326.242188 C 158.21875 326.917969 148.789062 312.171875 148.566406 312.398438 C 148.265625 312.621094 161.4375 325.046875 161.0625 331.257812 C 160.691406 337.996094 147.21875 348.324219 144 351.242188 C 142.953125 352.214844 142.726562 352.589844 141.753906 352.886719 C 140.480469 353.261719 138.460938 352.964844 136.890625 352.664062 C 135.316406 352.4375 133.671875 351.988281 132.25 351.316406 C 130.753906 350.71875 129.328125 349.894531 128.058594 348.921875 C 126.710938 347.949219 125.511719 346.75 124.539062 345.554688 C 123.492188 344.28125 122.59375 342.859375 121.921875 341.4375 C 121.246094 340.015625 120.722656 338.367188 120.421875 336.796875 C 120.125 335.226562 119.972656 333.578125 120.050781 332.007812 C 120.125 330.359375 120.347656 328.714844 120.796875 327.21875 C 121.246094 325.644531 121.921875 324.148438 122.742188 322.726562 C 123.492188 321.378906 124.539062 320.03125 125.664062 318.835938 C 126.785156 317.710938 128.058594 316.664062 129.40625 315.839844 C 130.753906 314.941406 131.726562 314.269531 133.820312 313.746094 C 138.238281 312.546875 147.367188 311.425781 155.675781 311.722656 C 166.675781 312.097656 184.039062 318.386719 194.21875 317.863281 C 200.878906 317.488281 205.148438 314.34375 210.683594 313.296875 C 216.222656 312.25 226.703125 309.703125 227.523438 311.425781 C 228.421875 313.371094 212.03125 327.441406 210.984375 326.769531 C 210.386719 326.394531 212.105469 322.425781 213.082031 320.480469 C 214.128906 318.535156 215.550781 316.664062 217.121094 315.167969 C 218.695312 313.671875 220.640625 312.398438 222.660156 311.5 C 224.605469 310.527344 226.851562 309.929688 229.023438 309.703125 C 231.191406 309.480469 233.511719 309.628906 235.683594 310.078125 C 237.777344 310.527344 239.949219 311.425781 241.820312 312.546875 C 243.691406 313.671875 245.488281 315.167969 246.835938 316.8125 C 248.257812 318.535156 249.453125 320.480469 250.277344 322.578125 C 251.101562 324.597656 251.550781 326.84375 251.699219 329.011719 C 251.773438 331.183594 251.550781 333.503906 250.949219 335.597656 C 250.351562 337.695312 249.378906 339.867188 248.183594 341.660156 C 246.910156 343.457031 245.335938 345.105469 243.617188 346.453125 C 241.820312 347.800781 239.800781 348.847656 237.703125 349.519531 C 235.683594 350.269531 233.363281 350.644531 231.191406 350.644531 C 229.023438 350.644531 226.703125 350.269531 224.605469 349.519531 C 222.585938 348.847656 220.488281 347.722656 218.769531 346.375 C 217.046875 345.105469 215.398438 343.382812 214.203125 341.585938 C 213.003906 339.789062 212.03125 337.695312 211.433594 335.523438 C 210.835938 333.429688 210.609375 331.109375 210.761719 328.9375 C 210.835938 326.769531 211.359375 324.523438 212.183594 322.5 C 213.003906 320.480469 214.203125 318.460938 215.625 316.8125 C 217.046875 315.167969 218.769531 313.59375 220.640625 312.472656 C 222.511719 311.351562 224.679688 310.527344 226.851562 310.078125 C 228.945312 309.628906 231.265625 309.480469 233.4375 309.703125 C 235.609375 309.929688 237.851562 310.601562 239.875 311.5 C 241.820312 312.398438 243.765625 313.746094 245.335938 315.242188 C 246.910156 316.738281 248.332031 318.609375 249.378906 320.554688 C 250.351562 322.425781 251.101562 324.671875 251.476562 326.84375 C 251.773438 329.011719 252.597656 331.109375 251.476562 333.429688 C 249.378906 337.917969 240.171875 344.953125 233.363281 348.398438 C 226.402344 351.914062 218.695312 353.1875 210.085938 354.160156 C 199.757812 355.433594 184.9375 354.984375 175.507812 354.011719 C 168.773438 353.414062 164.132812 350.867188 158.445312 350.71875 C 152.832031 350.566406 145.644531 352.738281 141.753906 352.886719 C 139.660156 352.964844 138.460938 352.964844 136.890625 352.664062 C 135.316406 352.4375 133.671875 351.988281 132.25 351.316406 C 130.753906 350.71875 129.328125 349.894531 128.058594 348.921875 C 126.710938 347.949219 125.511719 346.75 124.539062 345.554688 C 123.492188 344.28125 122.59375 342.859375 121.921875 341.4375 C 121.246094 340.015625 120.722656 338.367188 120.421875 336.796875 C 120.125 335.226562 119.972656 333.578125 120.050781 332.007812 C 120.125 330.359375 120.347656 328.714844 120.796875 327.21875 C 121.246094 325.644531 121.921875 324.148438 122.742188 322.726562 C 123.492188 321.378906 124.539062 320.03125 125.664062 318.835938 C 126.785156 317.710938 128.058594 316.664062 129.40625 315.839844 C 130.753906 314.941406 132.25 314.269531 133.820312 313.746094 C 135.316406 313.222656 137.863281 311.949219 138.535156 312.773438 C 140.332031 314.941406 130.453125 341.886719 127.308594 341.8125 C 124.390625 341.660156 120.871094 324.671875 120.050781 317.113281 C 119.375 311.050781 119.226562 300.722656 121.171875 300.199219 C 123.191406 299.597656 132.398438 316.363281 132.625 316.214844 C 132.847656 316.066406 124.839844 302.144531 120.574219 296.457031 C 116.980469 291.667969 112.640625 288.449219 109.195312 283.957031 C 105.753906 279.542969 99.617188 269.886719 99.917969 269.660156 C 100.214844 269.4375 111.59375 283.359375 111.59375 283.359375 C 111.59375 283.359375 98.121094 267.265625 98.046875 267.34375 C 97.96875 267.417969 109.273438 280.8125 108.972656 281.113281 C 108.597656 281.414062 96.996094 270.710938 91.160156 263.601562 C 83.824219 254.84375 68.480469 240.699219 69.378906 231.566406 C 70.128906 223.78125 83.976562 212.855469 89.589844 211.582031 C 92.804688 210.835938 95.648438 212.855469 98.121094 214.425781 C 100.589844 215.925781 102.910156 218.394531 104.332031 220.863281 C 105.753906 223.410156 106.726562 226.625 106.800781 229.472656 C 106.953125 232.390625 106.277344 235.683594 105.003906 238.300781 C 103.734375 240.921875 101.636719 243.464844 99.316406 245.261719 C 96.996094 246.984375 93.480469 248.183594 91.085938 248.707031 C 89.363281 249.078125 87.566406 249.976562 86.519531 248.929688 C 83.601562 245.863281 85.398438 214.800781 89.589844 212.105469 C 91.609375 210.683594 95.949219 213.753906 98.046875 214.953125 C 99.617188 215.773438 100.441406 216.449219 101.5625 217.796875 C 103.132812 219.667969 105.230469 222.808594 106.054688 225.578125 C 106.875 228.347656 106.726562 232.089844 106.429688 234.558594 C 106.128906 236.207031 105.828125 237.253906 104.929688 238.828125 C 103.808594 240.921875 101.5625 243.992188 99.242188 245.710938 C 96.921875 247.507812 93.40625 248.707031 91.011719 249.230469 C 89.363281 249.605469 88.089844 249.976562 86.519531 249.453125 C 84.050781 248.554688 81.28125 245.1875 78.511719 242.269531 C 74.84375 238.453125 66.535156 228.347656 66.761719 228.199219 C 66.910156 227.972656 81.128906 243.019531 81.28125 242.941406 C 81.429688 242.71875 65.339844 224.230469 65.039062 224.457031 C 64.738281 224.679688 75.367188 239.5 75.667969 239.351562 C 75.964844 239.125 69.902344 227.824219 66.386719 222.359375 C 62.71875 216.746094 53.4375 206.570312 53.886719 206.195312 C 54.335938 205.820312 67.507812 218.992188 67.808594 218.695312 C 68.183594 218.320312 56.507812 206.042969 51.71875 199.984375 C 47.527344 194.742188 42.960938 188.832031 40.414062 184.714844 C 38.917969 182.167969 37.945312 180.222656 37.273438 178.351562 C 36.824219 176.855469 36.523438 175.882812 36.523438 174.3125 C 36.597656 172.066406 37.273438 168.398438 38.019531 166.304688 C 38.621094 164.878906 39.144531 163.984375 40.191406 162.859375 C 41.613281 161.214844 44.15625 158.894531 46.554688 157.84375 C 48.949219 156.796875 52.316406 156.421875 54.5625 156.421875 C 56.132812 156.421875 57.105469 156.648438 58.601562 157.171875 C 60.625 157.996094 63.839844 159.941406 65.488281 161.363281 C 66.6875 162.410156 68.03125 164.582031 68.03125 164.582031 " clip-rule="nonzero"/></clipPath><clipPath id="20a9d64081"><path d="M 0.515625 0.414062 L 216.261719 0.414062 L 216.261719 198.988281 L 0.515625 198.988281 Z M 0.515625 0.414062 " clip-rule="nonzero"/></clipPath><clipPath id="3e38620489"><path d="M 32.03125 8.582031 C 47 31.859375 53.738281 45.179688 52.765625 45.855469 C 51.71875 46.527344 37.570312 30.359375 37.796875 30.136719 C 37.945312 29.988281 49.097656 38.894531 53.363281 43.832031 C 57.332031 48.472656 63.992188 57.230469 62.945312 58.726562 C 62.195312 59.773438 53.589844 56.183594 53.589844 56.105469 C 53.589844 56.03125 56.433594 56.332031 58.003906 57.003906 C 60.25 57.902344 63.542969 59.699219 65.5625 61.796875 C 67.582031 63.890625 69.230469 66.808594 70.054688 69.578125 C 70.875 72.347656 70.953125 75.714844 70.429688 78.558594 C 69.828125 81.40625 68.40625 84.398438 66.535156 86.644531 C 64.664062 88.890625 62.046875 90.835938 59.351562 92.03125 C 56.65625 93.15625 52.316406 95.101562 50.519531 93.453125 C 46.777344 89.9375 50.144531 58.128906 53.589844 55.582031 C 54.785156 54.683594 56.65625 55.957031 58.078125 56.480469 C 59.425781 56.929688 60.699219 57.378906 62.121094 58.425781 C 64.140625 59.847656 66.984375 62.84375 68.332031 64.863281 C 69.304688 66.359375 69.679688 67.332031 70.128906 69.054688 C 70.652344 71.449219 71.027344 75.191406 70.429688 78.035156 C 69.828125 80.878906 68.03125 84.097656 66.609375 86.121094 C 65.5625 87.542969 64.515625 88.363281 63.316406 89.261719 C 62.121094 90.160156 61.074219 90.910156 59.425781 91.507812 C 57.105469 92.332031 51.042969 93.902344 50.519531 92.929688 C 49.621094 91.132812 70.203125 79.832031 70.800781 73.472656 C 71.324219 68.308594 60.175781 58.425781 60.25 58.351562 C 60.324219 58.277344 74.992188 77.136719 74.542969 77.511719 C 74.09375 77.886719 59.800781 63.292969 59.949219 63.140625 C 60.097656 62.992188 75.066406 76.613281 75.21875 76.539062 C 75.292969 76.390625 62.792969 64.265625 62.71875 64.265625 C 62.644531 64.339844 72.074219 74.21875 77.988281 79.980469 C 85.695312 87.464844 98.121094 97.046875 105.378906 104.90625 C 110.992188 110.96875 115.632812 116.132812 118.777344 122.269531 C 121.621094 127.808594 124.839844 139.410156 123.867188 139.855469 C 122.894531 140.304688 112.566406 123.839844 112.566406 123.839844 C 112.566406 123.914062 124.242188 134.691406 124.765625 141.28125 C 125.289062 148.839844 110.769531 166.425781 111.667969 167.101562 C 112.414062 167.550781 121.996094 152.582031 124.015625 153.328125 C 125.960938 154.078125 125.960938 169.570312 124.164062 170.242188 C 122.21875 170.917969 112.789062 156.171875 112.566406 156.398438 C 112.265625 156.621094 125.4375 169.046875 125.0625 175.257812 C 124.691406 181.996094 111.21875 192.324219 108 195.242188 C 106.953125 196.214844 106.726562 196.589844 105.753906 196.886719 C 104.480469 197.261719 102.460938 196.964844 100.890625 196.664062 C 99.316406 196.4375 97.671875 195.988281 96.25 195.316406 C 94.753906 194.71875 93.328125 193.894531 92.058594 192.921875 C 90.710938 191.949219 89.511719 190.75 88.539062 189.554688 C 87.492188 188.28125 86.59375 186.859375 85.921875 185.4375 C 85.246094 184.015625 84.722656 182.367188 84.421875 180.796875 C 84.125 179.226562 83.972656 177.578125 84.050781 176.007812 C 84.125 174.359375 84.347656 172.714844 84.796875 171.21875 C 85.246094 169.644531 85.921875 168.148438 86.742188 166.726562 C 87.492188 165.378906 88.539062 164.03125 89.664062 162.835938 C 90.785156 161.710938 92.058594 160.664062 93.40625 159.839844 C 94.753906 158.941406 95.726562 158.269531 97.820312 157.746094 C 102.238281 156.546875 111.367188 155.425781 119.675781 155.722656 C 130.675781 156.097656 148.039062 162.386719 158.21875 161.863281 C 164.878906 161.488281 169.148438 158.34375 174.683594 157.296875 C 180.222656 156.25 190.703125 153.703125 191.523438 155.425781 C 192.421875 157.371094 176.03125 171.441406 174.984375 170.769531 C 174.386719 170.394531 176.105469 166.425781 177.082031 164.480469 C 178.128906 162.535156 179.550781 160.664062 181.121094 159.167969 C 182.695312 157.671875 184.640625 156.398438 186.660156 155.5 C 188.605469 154.527344 190.851562 153.929688 193.023438 153.703125 C 195.191406 153.480469 197.511719 153.628906 199.683594 154.078125 C 201.777344 154.527344 203.949219 155.425781 205.820312 156.546875 C 207.691406 157.671875 209.488281 159.167969 210.835938 160.8125 C 212.257812 162.535156 213.453125 164.480469 214.277344 166.578125 C 215.101562 168.597656 215.550781 170.84375 215.699219 173.011719 C 215.773438 175.183594 215.550781 177.503906 214.949219 179.597656 C 214.351562 181.695312 213.378906 183.867188 212.183594 185.660156 C 210.910156 187.457031 209.335938 189.105469 207.617188 190.453125 C 205.820312 191.800781 203.800781 192.847656 201.703125 193.519531 C 199.683594 194.269531 197.363281 194.644531 195.191406 194.644531 C 193.023438 194.644531 190.703125 194.269531 188.605469 193.519531 C 186.585938 192.847656 184.488281 191.722656 182.769531 190.375 C 181.046875 189.105469 179.398438 187.382812 178.203125 185.585938 C 177.003906 183.789062 176.03125 181.695312 175.433594 179.523438 C 174.835938 177.429688 174.609375 175.109375 174.761719 172.9375 C 174.835938 170.769531 175.359375 168.523438 176.183594 166.5 C 177.003906 164.480469 178.203125 162.460938 179.625 160.8125 C 181.046875 159.167969 182.769531 157.59375 184.640625 156.472656 C 186.511719 155.351562 188.679688 154.527344 190.851562 154.078125 C 192.945312 153.628906 195.265625 153.480469 197.4375 153.703125 C 199.609375 153.929688 201.851562 154.601562 203.875 155.5 C 205.820312 156.398438 207.765625 157.746094 209.335938 159.242188 C 210.910156 160.738281 212.332031 162.609375 213.378906 164.554688 C 214.351562 166.425781 215.101562 168.671875 215.476562 170.84375 C 215.773438 173.011719 216.597656 175.109375 215.476562 177.429688 C 213.378906 181.917969 204.171875 188.953125 197.363281 192.398438 C 190.402344 195.914062 182.695312 197.1875 174.085938 198.160156 C 163.757812 199.433594 148.9375 198.984375 139.507812 198.011719 C 132.773438 197.414062 128.132812 194.867188 122.445312 194.71875 C 116.832031 194.566406 109.644531 196.738281 105.753906 196.886719 C 103.660156 196.964844 102.460938 196.964844 100.890625 196.664062 C 99.316406 196.4375 97.671875 195.988281 96.25 195.316406 C 94.753906 194.71875 93.328125 193.894531 92.058594 192.921875 C 90.710938 191.949219 89.511719 190.75 88.539062 189.554688 C 87.492188 188.28125 86.59375 186.859375 85.921875 185.4375 C 85.246094 184.015625 84.722656 182.367188 84.421875 180.796875 C 84.125 179.226562 83.972656 177.578125 84.050781 176.007812 C 84.125 174.359375 84.347656 172.714844 84.796875 171.21875 C 85.246094 169.644531 85.921875 168.148438 86.742188 166.726562 C 87.492188 165.378906 88.539062 164.03125 89.664062 162.835938 C 90.785156 161.710938 92.058594 160.664062 93.40625 159.839844 C 94.753906 158.941406 96.25 158.269531 97.820312 157.746094 C 99.316406 157.222656 101.863281 155.949219 102.535156 156.773438 C 104.332031 158.941406 94.453125 185.886719 91.308594 185.8125 C 88.390625 185.660156 84.871094 168.671875 84.050781 161.113281 C 83.375 155.050781 83.226562 144.722656 85.171875 144.199219 C 87.191406 143.597656 96.398438 160.363281 96.625 160.214844 C 96.847656 160.066406 88.839844 146.144531 84.574219 140.457031 C 80.980469 135.667969 76.640625 132.449219 73.195312 127.957031 C 69.753906 123.542969 63.617188 113.886719 63.917969 113.660156 C 64.214844 113.4375 75.59375 127.359375 75.59375 127.359375 C 75.59375 127.359375 62.121094 111.265625 62.046875 111.34375 C 61.96875 111.417969 73.273438 124.8125 72.972656 125.113281 C 72.597656 125.414062 60.996094 114.710938 55.160156 107.601562 C 47.824219 98.84375 32.480469 84.699219 33.378906 75.566406 C 34.128906 67.78125 47.976562 56.855469 53.589844 55.582031 C 56.804688 54.835938 59.648438 56.855469 62.121094 58.425781 C 64.589844 59.925781 66.910156 62.394531 68.332031 64.863281 C 69.753906 67.410156 70.726562 70.625 70.800781 73.472656 C 70.953125 76.390625 70.277344 79.683594 69.003906 82.300781 C 67.734375 84.921875 65.636719 87.464844 63.316406 89.261719 C 60.996094 90.984375 57.480469 92.183594 55.085938 92.707031 C 53.363281 93.078125 51.566406 93.976562 50.519531 92.929688 C 47.601562 89.863281 49.398438 58.800781 53.589844 56.105469 C 55.609375 54.683594 59.949219 57.753906 62.046875 58.953125 C 63.617188 59.773438 64.441406 60.449219 65.5625 61.796875 C 67.132812 63.667969 69.230469 66.808594 70.054688 69.578125 C 70.875 72.347656 70.726562 76.089844 70.429688 78.558594 C 70.128906 80.207031 69.828125 81.253906 68.929688 82.828125 C 67.808594 84.921875 65.5625 87.992188 63.242188 89.710938 C 60.921875 91.507812 57.40625 92.707031 55.011719 93.230469 C 53.363281 93.605469 52.089844 93.976562 50.519531 93.453125 C 48.050781 92.554688 45.28125 89.1875 42.511719 86.269531 C 38.84375 82.453125 30.535156 72.347656 30.761719 72.199219 C 30.910156 71.972656 45.128906 87.019531 45.28125 86.941406 C 45.429688 86.71875 29.339844 68.230469 29.039062 68.457031 C 28.738281 68.679688 39.367188 83.5 39.667969 83.351562 C 39.964844 83.125 33.902344 71.824219 30.386719 66.359375 C 26.71875 60.746094 17.4375 50.570312 17.886719 50.195312 C 18.335938 49.820312 31.507812 62.992188 31.808594 62.695312 C 32.183594 62.320312 20.507812 50.042969 15.71875 43.984375 C 11.527344 38.742188 6.960938 32.832031 4.414062 28.714844 C 2.917969 26.167969 1.945312 24.222656 1.273438 22.351562 C 0.824219 20.855469 0.523438 19.882812 0.523438 18.3125 C 0.597656 16.066406 1.273438 12.398438 2.019531 10.304688 C 2.621094 8.878906 3.144531 7.984375 4.191406 6.859375 C 5.613281 5.214844 8.15625 2.894531 10.554688 1.84375 C 12.949219 0.796875 16.316406 0.421875 18.5625 0.421875 C 20.132812 0.421875 21.105469 0.648438 22.601562 1.171875 C 24.625 1.996094 27.839844 3.941406 29.488281 5.363281 C 30.6875 6.410156 32.03125 8.582031 32.03125 8.582031 " clip-rule="nonzero"/></clipPath><clipPath id="55f8bbc391"><rect x="0" width="217" y="0" height="199"/></clipPath><clipPath id="7f15e41dde"><path d="M 92.421875 17.128906 L 268.882812 17.128906 L 268.882812 329.65625 L 92.421875 329.65625 Z M 92.421875 17.128906 " clip-rule="nonzero"/></clipPath><clipPath id="6ff3955bdf"><path d="M 92.582031 98.570312 C 100.964844 80.382812 100.964844 80.382812 100.964844 80.382812 C 100.964844 80.382812 100.515625 78.808594 100.289062 77.988281 C 100.066406 77.238281 99.691406 75.667969 99.617188 75.59375 C 99.617188 75.59375 99.617188 73.945312 99.617188 73.121094 C 99.542969 72.300781 99.542969 70.652344 99.542969 70.652344 C 99.542969 70.652344 99.839844 69.007812 100.066406 68.257812 C 100.214844 67.433594 100.589844 65.863281 100.589844 65.789062 C 100.589844 65.789062 101.261719 64.289062 101.636719 63.542969 C 102.011719 62.792969 102.761719 61.371094 102.761719 61.371094 C 102.761719 61.296875 103.808594 60.097656 104.332031 59.425781 C 104.855469 58.828125 105.902344 57.554688 105.902344 57.554688 C 105.980469 57.480469 107.25 56.582031 107.925781 56.058594 C 108.597656 55.609375 109.945312 54.636719 109.945312 54.636719 C 109.945312 54.5625 111.441406 53.960938 112.265625 53.664062 C 113.015625 53.363281 114.511719 52.691406 114.511719 52.691406 C 114.585938 52.691406 116.15625 52.464844 116.980469 52.316406 C 117.804688 52.242188 119.375 51.941406 119.449219 51.941406 C 119.449219 51.941406 121.097656 52.167969 121.921875 52.242188 C 122.742188 52.316406 124.390625 52.464844 124.390625 52.464844 C 124.390625 52.464844 125.960938 52.988281 126.710938 53.289062 C 127.535156 53.511719 129.03125 54.039062 129.105469 54.039062 C 129.105469 54.113281 130.453125 54.933594 131.125 55.382812 C 131.875 55.910156 133.222656 56.730469 133.222656 56.804688 C 133.296875 56.804688 134.34375 58.003906 134.941406 58.601562 C 135.542969 59.203125 136.589844 60.398438 136.664062 60.398438 C 136.664062 60.398438 137.414062 61.820312 137.863281 62.570312 C 138.238281 63.316406 139.058594 64.664062 139.058594 64.738281 C 139.058594 64.738281 139.285156 65.5625 139.210938 65.636719 C 139.210938 65.636719 139.058594 65.488281 139.058594 65.488281 C 138.535156 65.789062 138.3125 76.265625 138.238281 81.28125 C 138.238281 85.847656 137.710938 91.683594 138.683594 94.378906 C 139.132812 95.875 140.40625 97.445312 140.78125 97.296875 C 141.53125 97.074219 139.808594 88.765625 139.582031 83.824219 C 139.285156 77.988281 139.359375 70.878906 139.507812 64.441406 C 139.660156 58.003906 139.285156 49.621094 140.40625 45.054688 C 141.082031 42.4375 143.402344 40.714844 143.324219 39.21875 C 143.25 38.171875 141.980469 36.824219 141.679688 36.824219 C 141.53125 36.824219 141.378906 37.347656 141.304688 37.347656 C 141.230469 37.273438 141.378906 36.449219 141.378906 36.449219 C 141.378906 36.375 141.679688 34.800781 141.828125 33.980469 C 141.980469 33.15625 142.277344 31.585938 142.277344 31.507812 C 142.351562 31.507812 143.027344 30.011719 143.324219 29.265625 C 143.699219 28.515625 144.375 27.09375 144.449219 27.019531 C 144.449219 27.019531 145.421875 25.746094 145.945312 25.074219 C 146.46875 24.472656 147.515625 23.203125 147.515625 23.125 C 147.59375 23.125 148.863281 22.152344 149.539062 21.628906 C 150.136719 21.105469 151.484375 20.132812 151.484375 20.132812 C 151.558594 20.132812 152.980469 19.460938 153.804688 19.160156 C 154.550781 18.785156 156.050781 18.1875 156.050781 18.1875 C 156.125 18.113281 157.695312 17.886719 158.519531 17.738281 C 159.34375 17.589844 160.914062 17.289062 160.988281 17.289062 C 160.988281 17.289062 162.636719 17.4375 163.457031 17.511719 C 164.28125 17.589844 165.929688 17.664062 165.929688 17.664062 C 165.929688 17.664062 167.5 18.1875 168.324219 18.488281 C 169.070312 18.710938 170.644531 19.234375 170.644531 19.234375 C 170.71875 19.234375 172.066406 20.132812 172.738281 20.582031 C 173.488281 20.957031 174.835938 21.855469 174.910156 21.855469 C 174.910156 21.855469 176.03125 23.050781 176.632812 23.652344 C 177.230469 24.25 178.351562 25.371094 178.351562 25.445312 C 178.351562 25.445312 179.175781 26.867188 179.625 27.542969 C 180 28.289062 180.898438 29.714844 180.898438 29.714844 C 180.898438 29.789062 181.347656 31.285156 181.570312 32.109375 C 181.796875 32.929688 182.320312 34.429688 182.320312 34.503906 C 182.320312 34.503906 182.167969 35.699219 182.394531 36.148438 C 182.542969 36.523438 182.992188 36.523438 183.292969 37.121094 C 184.117188 38.695312 184.9375 47.078125 185.613281 47.226562 C 185.835938 47.226562 185.910156 46.703125 186.136719 46.402344 C 186.511719 45.878906 187.558594 44.382812 187.558594 44.382812 C 187.632812 44.308594 188.832031 43.257812 189.429688 42.734375 C 190.027344 42.136719 191.226562 41.089844 191.300781 41.089844 C 191.300781 41.015625 192.722656 40.265625 193.472656 39.890625 C 194.21875 39.515625 195.640625 38.769531 195.640625 38.769531 C 195.714844 38.769531 197.289062 38.394531 198.113281 38.171875 C 198.859375 37.945312 200.429688 37.570312 200.507812 37.570312 C 200.507812 37.570312 202.152344 37.570312 202.976562 37.570312 C 203.800781 37.570312 205.371094 37.570312 205.445312 37.570312 C 205.445312 37.570312 207.019531 37.945312 207.839844 38.171875 C 208.664062 38.394531 210.234375 38.769531 210.234375 38.769531 C 210.234375 38.769531 211.734375 39.515625 212.40625 39.890625 C 213.15625 40.265625 214.578125 41.015625 214.652344 41.089844 C 214.652344 41.089844 215.847656 42.136719 216.449219 42.734375 C 217.121094 43.257812 218.320312 44.308594 218.320312 44.382812 C 218.320312 44.382812 219.292969 45.730469 219.742188 46.402344 C 220.191406 47.078125 221.164062 48.425781 221.164062 48.425781 C 221.164062 48.425781 221.761719 49.996094 222.0625 50.742188 C 222.285156 51.492188 222.882812 52.988281 222.882812 53.0625 C 222.882812 53.0625 223.109375 54.710938 223.183594 55.535156 C 223.332031 56.355469 222.960938 57.253906 223.484375 58.003906 C 224.308594 59.125 226.703125 59.425781 229.171875 60.546875 C 233.4375 62.570312 241.96875 65.414062 247.058594 69.378906 C 252 73.273438 256.191406 78.660156 259.410156 83.824219 C 262.402344 88.691406 266.59375 99.019531 265.996094 99.316406 C 265.472656 99.691406 255.816406 85.171875 255.667969 85.246094 C 255.515625 85.398438 263.226562 94.453125 265.246094 100.140625 C 267.566406 106.429688 267.941406 114.734375 267.941406 121.546875 C 268.015625 127.683594 266.59375 133.445312 266.070312 139.285156 C 265.621094 145.046875 265.320312 150.660156 265.097656 156.421875 C 264.796875 162.335938 264.046875 168.398438 264.574219 174.3125 C 265.023438 180.296875 267.566406 186.136719 268.015625 192.050781 C 268.464844 197.960938 268.089844 203.875 267.417969 209.785156 C 266.667969 215.847656 264.722656 221.761719 263.675781 227.898438 C 262.550781 234.1875 261.730469 240.921875 260.90625 247.132812 C 260.15625 252.972656 259.933594 258.285156 258.808594 264.125 C 257.613281 270.335938 255.515625 277.070312 253.570312 283.207031 C 251.699219 289.121094 247.734375 298.253906 247.285156 300.421875 C 247.207031 300.945312 247.207031 301.097656 247.207031 301.320312 C 247.285156 301.546875 247.359375 301.917969 247.359375 301.996094 C 247.285156 301.996094 247.285156 301.695312 247.207031 301.695312 C 247.132812 301.695312 247.132812 302.667969 247.132812 302.894531 C 247.132812 302.96875 247.132812 302.96875 247.132812 303.117188 C 247.132812 303.265625 247.207031 303.867188 247.207031 304.164062 C 247.207031 304.390625 247.058594 304.464844 247.058594 304.6875 C 247.058594 304.914062 247.058594 305.363281 247.058594 305.363281 C 246.984375 305.4375 246.535156 307.007812 246.3125 307.757812 C 246.085938 308.582031 245.5625 310.152344 245.5625 310.152344 C 245.5625 310.152344 245.488281 310.378906 245.414062 310.453125 C 245.414062 310.527344 245.414062 310.527344 245.414062 310.601562 C 245.261719 310.824219 245.039062 311.050781 244.890625 311.351562 C 244.738281 311.648438 244.515625 311.949219 244.289062 312.324219 C 243.992188 312.921875 243.09375 314.417969 243.019531 314.492188 C 243.019531 314.492188 242.34375 315.167969 242.042969 315.464844 C 241.894531 315.691406 241.820312 315.914062 241.59375 316.140625 C 241.371094 316.363281 241.070312 316.515625 240.773438 316.738281 C 240.398438 317.113281 239.574219 318.011719 239.574219 318.011719 C 239.5 318.011719 237.851562 319.058594 237.40625 319.359375 C 237.253906 319.433594 237.253906 319.433594 237.105469 319.507812 C 236.878906 319.65625 236.507812 320.03125 236.207031 320.179688 C 236.058594 320.257812 235.980469 320.257812 235.832031 320.332031 C 235.683594 320.40625 235.308594 320.628906 235.308594 320.628906 C 235.308594 320.628906 233.738281 321.15625 232.914062 321.378906 C 232.164062 321.679688 230.59375 322.128906 230.59375 322.128906 C 230.519531 322.128906 230.292969 322.128906 230.144531 322.203125 C 230.070312 322.203125 229.996094 322.277344 229.921875 322.277344 C 229.695312 322.277344 229.246094 322.277344 228.945312 322.277344 C 228.648438 322.277344 228.421875 322.277344 228.050781 322.351562 C 227.449219 322.351562 225.652344 322.5 225.578125 322.5 C 225.578125 322.5 224.53125 322.277344 224.082031 322.277344 C 223.78125 322.203125 223.484375 322.277344 223.183594 322.203125 C 222.882812 322.203125 222.660156 321.976562 222.285156 321.902344 C 221.910156 321.828125 221.011719 321.679688 221.011719 321.679688 C 221.011719 321.679688 220.789062 321.679688 220.640625 321.679688 C 220.488281 321.605469 220.191406 321.453125 220.191406 321.453125 C 220.191406 321.453125 218.992188 320.855469 218.992188 320.929688 C 218.917969 320.929688 219.964844 321.230469 219.964844 321.527344 C 219.964844 322.128906 218.019531 323.625 216.074219 324.148438 C 212.105469 325.347656 202.601562 322.875 196.390625 323.773438 C 190.703125 324.671875 185.910156 328.339844 180.296875 329.164062 C 174.535156 329.984375 168.324219 329.164062 162.261719 328.488281 C 156.125 327.742188 148.566406 325.871094 143.773438 324.820312 C 140.78125 324.148438 138.535156 323.699219 136.515625 323.101562 C 134.941406 322.652344 133.820312 322.351562 132.625 321.753906 C 131.351562 321.15625 130.152344 320.40625 129.105469 319.507812 C 128.058594 318.683594 127.085938 317.636719 126.335938 316.515625 C 125.511719 315.464844 124.839844 314.195312 124.316406 312.921875 C 123.792969 311.722656 123.34375 310.300781 123.191406 308.953125 C 122.96875 307.609375 122.894531 306.1875 123.042969 304.839844 C 123.191406 303.492188 123.492188 302.144531 123.941406 300.871094 C 124.390625 299.523438 124.988281 298.253906 125.738281 297.128906 C 126.484375 296.007812 127.382812 294.882812 128.355469 293.984375 C 129.328125 293.011719 130.453125 292.191406 131.648438 291.515625 C 132.847656 290.84375 134.195312 290.320312 135.46875 289.945312 C 136.8125 289.570312 138.386719 289.347656 139.507812 289.347656 C 140.480469 289.269531 141.53125 290.09375 141.980469 289.570312 C 143.027344 288.371094 139.957031 276.621094 139.433594 276.324219 C 139.359375 276.324219 139.285156 276.398438 139.285156 276.398438 C 139.210938 276.398438 137.636719 276.621094 136.8125 276.699219 C 135.992188 276.773438 134.34375 276.921875 134.34375 276.921875 C 134.269531 276.921875 132.699219 276.699219 131.875 276.621094 C 131.050781 276.472656 129.40625 276.25 129.40625 276.25 C 129.328125 276.25 127.832031 275.648438 127.085938 275.351562 C 126.261719 275.050781 124.765625 274.453125 124.765625 274.453125 C 124.691406 274.453125 123.417969 273.480469 122.742188 273.03125 C 122.070312 272.507812 120.722656 271.609375 120.648438 271.53125 C 120.648438 271.53125 119.601562 270.261719 119.078125 269.660156 C 118.476562 269.0625 117.429688 267.789062 117.429688 267.789062 C 117.429688 267.714844 116.679688 266.292969 116.308594 265.546875 C 115.933594 264.796875 115.183594 263.375 115.183594 263.300781 C 115.183594 263.300781 114.808594 261.730469 114.585938 260.90625 C 114.4375 260.082031 114.0625 258.511719 114.0625 258.511719 C 114.0625 258.433594 114.0625 256.789062 114.0625 255.964844 C 114.0625 255.140625 114.136719 253.496094 114.136719 253.496094 C 114.136719 253.496094 114.511719 251.925781 114.734375 251.101562 C 114.960938 250.277344 115.335938 248.707031 115.410156 248.707031 C 115.410156 248.632812 116.15625 247.207031 116.53125 246.460938 C 116.90625 245.863281 117.804688 245.335938 117.578125 244.589844 C 117.054688 242.71875 107.625 241.070312 104.78125 236.878906 C 101.1875 231.640625 100.816406 220.566406 100.664062 213.378906 C 100.589844 207.242188 102.238281 202.152344 103.058594 196.316406 C 103.957031 190.101562 105.15625 183.367188 105.753906 177.082031 C 106.351562 171.167969 107.25 165.40625 106.726562 159.640625 C 106.203125 153.730469 104.183594 147.890625 102.386719 142.054688 C 100.441406 135.992188 97.148438 130.527344 95.574219 123.867188 C 93.703125 116.230469 92.582031 98.570312 92.582031 98.570312 M 223.183594 147.964844 C 226.402344 147.144531 229.097656 132.25 229.171875 131.351562 C 229.171875 131.277344 229.171875 131.277344 229.171875 131.277344 C 228.945312 131.277344 223.183594 147.964844 223.183594 147.964844 M 223.332031 103.507812 C 225.804688 110.992188 226.550781 111.367188 226.851562 112.117188 C 227.152344 112.789062 227.226562 114.285156 227.226562 114.285156 C 227.300781 114.285156 227.226562 114.136719 227.226562 114.0625 C 227.074219 113.164062 226.851562 105.15625 225.578125 103.882812 C 224.980469 103.285156 223.332031 103.507812 223.332031 103.507812 M 232.089844 104.929688 C 236.355469 109.273438 234.261719 105.679688 233.363281 105.15625 C 232.914062 104.855469 232.089844 104.929688 232.089844 104.929688 M 219.964844 321.527344 C 220.265625 321.378906 220.640625 321.605469 220.640625 321.679688 C 220.714844 321.679688 220.863281 321.605469 221.011719 321.679688 C 221.386719 321.902344 222.660156 323.175781 222.660156 323.175781 C 222.585938 323.25 219.964844 321.527344 219.964844 321.527344 " clip-rule="nonzero"/></clipPath><clipPath id="ca5521164e"><path d="M 0.445312 0.242188 L 176.480469 0.242188 L 176.480469 312.65625 L 0.445312 312.65625 Z M 0.445312 0.242188 " clip-rule="nonzero"/></clipPath><clipPath id="8b172473dc"><path d="M 0.582031 81.570312 C 8.964844 63.382812 8.964844 63.382812 8.964844 63.382812 C 8.964844 63.382812 8.515625 61.808594 8.289062 60.988281 C 8.066406 60.238281 7.691406 58.667969 7.617188 58.59375 C 7.617188 58.59375 7.617188 56.945312 7.617188 56.121094 C 7.542969 55.300781 7.542969 53.652344 7.542969 53.652344 C 7.542969 53.652344 7.839844 52.007812 8.066406 51.257812 C 8.214844 50.433594 8.589844 48.863281 8.589844 48.789062 C 8.589844 48.789062 9.261719 47.289062 9.636719 46.542969 C 10.011719 45.792969 10.761719 44.371094 10.761719 44.371094 C 10.761719 44.296875 11.808594 43.097656 12.332031 42.425781 C 12.855469 41.828125 13.902344 40.554688 13.902344 40.554688 C 13.980469 40.480469 15.25 39.582031 15.925781 39.058594 C 16.597656 38.609375 17.945312 37.636719 17.945312 37.636719 C 17.945312 37.5625 19.441406 36.960938 20.265625 36.664062 C 21.015625 36.363281 22.511719 35.691406 22.511719 35.691406 C 22.585938 35.691406 24.15625 35.464844 24.980469 35.316406 C 25.804688 35.242188 27.375 34.941406 27.449219 34.941406 C 27.449219 34.941406 29.097656 35.167969 29.921875 35.242188 C 30.742188 35.316406 32.390625 35.464844 32.390625 35.464844 C 32.390625 35.464844 33.960938 35.988281 34.710938 36.289062 C 35.535156 36.511719 37.03125 37.039062 37.105469 37.039062 C 37.105469 37.113281 38.453125 37.933594 39.125 38.382812 C 39.875 38.910156 41.222656 39.730469 41.222656 39.804688 C 41.296875 39.804688 42.34375 41.003906 42.941406 41.601562 C 43.542969 42.203125 44.589844 43.398438 44.664062 43.398438 C 44.664062 43.398438 45.414062 44.820312 45.863281 45.570312 C 46.238281 46.316406 47.058594 47.664062 47.058594 47.738281 C 47.058594 47.738281 47.285156 48.5625 47.210938 48.636719 C 47.210938 48.636719 47.058594 48.488281 47.058594 48.488281 C 46.535156 48.789062 46.3125 59.265625 46.238281 64.28125 C 46.238281 68.847656 45.710938 74.683594 46.683594 77.378906 C 47.132812 78.875 48.40625 80.445312 48.78125 80.296875 C 49.53125 80.074219 47.808594 71.765625 47.582031 66.824219 C 47.285156 60.988281 47.359375 53.878906 47.507812 47.441406 C 47.660156 41.003906 47.285156 32.621094 48.40625 28.054688 C 49.082031 25.4375 51.402344 23.714844 51.324219 22.21875 C 51.25 21.171875 49.980469 19.824219 49.679688 19.824219 C 49.53125 19.824219 49.378906 20.347656 49.304688 20.347656 C 49.230469 20.273438 49.378906 19.449219 49.378906 19.449219 C 49.378906 19.375 49.679688 17.800781 49.828125 16.980469 C 49.980469 16.15625 50.277344 14.585938 50.277344 14.507812 C 50.351562 14.507812 51.027344 13.011719 51.324219 12.265625 C 51.699219 11.515625 52.375 10.09375 52.449219 10.019531 C 52.449219 10.019531 53.421875 8.746094 53.945312 8.074219 C 54.46875 7.472656 55.515625 6.203125 55.515625 6.125 C 55.59375 6.125 56.863281 5.152344 57.539062 4.628906 C 58.136719 4.105469 59.484375 3.132812 59.484375 3.132812 C 59.558594 3.132812 60.980469 2.460938 61.804688 2.160156 C 62.550781 1.785156 64.050781 1.1875 64.050781 1.1875 C 64.125 1.113281 65.695312 0.886719 66.519531 0.738281 C 67.34375 0.589844 68.914062 0.289062 68.988281 0.289062 C 68.988281 0.289062 70.636719 0.4375 71.457031 0.511719 C 72.28125 0.589844 73.929688 0.664062 73.929688 0.664062 C 73.929688 0.664062 75.5 1.1875 76.324219 1.488281 C 77.070312 1.710938 78.644531 2.234375 78.644531 2.234375 C 78.71875 2.234375 80.066406 3.132812 80.738281 3.582031 C 81.488281 3.957031 82.835938 4.855469 82.910156 4.855469 C 82.910156 4.855469 84.03125 6.050781 84.632812 6.652344 C 85.230469 7.25 86.351562 8.371094 86.351562 8.445312 C 86.351562 8.445312 87.175781 9.867188 87.625 10.542969 C 88 11.289062 88.898438 12.714844 88.898438 12.714844 C 88.898438 12.789062 89.347656 14.285156 89.570312 15.109375 C 89.796875 15.929688 90.320312 17.429688 90.320312 17.503906 C 90.320312 17.503906 90.167969 18.699219 90.394531 19.148438 C 90.542969 19.523438 90.992188 19.523438 91.292969 20.121094 C 92.117188 21.695312 92.9375 30.078125 93.613281 30.226562 C 93.835938 30.226562 93.910156 29.703125 94.136719 29.402344 C 94.511719 28.878906 95.558594 27.382812 95.558594 27.382812 C 95.632812 27.308594 96.832031 26.257812 97.429688 25.734375 C 98.027344 25.136719 99.226562 24.089844 99.300781 24.089844 C 99.300781 24.015625 100.722656 23.265625 101.472656 22.890625 C 102.21875 22.515625 103.640625 21.769531 103.640625 21.769531 C 103.714844 21.769531 105.289062 21.394531 106.113281 21.171875 C 106.859375 20.945312 108.429688 20.570312 108.507812 20.570312 C 108.507812 20.570312 110.152344 20.570312 110.976562 20.570312 C 111.800781 20.570312 113.371094 20.570312 113.445312 20.570312 C 113.445312 20.570312 115.019531 20.945312 115.839844 21.171875 C 116.664062 21.394531 118.234375 21.769531 118.234375 21.769531 C 118.234375 21.769531 119.734375 22.515625 120.40625 22.890625 C 121.15625 23.265625 122.578125 24.015625 122.652344 24.089844 C 122.652344 24.089844 123.847656 25.136719 124.449219 25.734375 C 125.121094 26.257812 126.320312 27.308594 126.320312 27.382812 C 126.320312 27.382812 127.292969 28.730469 127.742188 29.402344 C 128.191406 30.078125 129.164062 31.425781 129.164062 31.425781 C 129.164062 31.425781 129.761719 32.996094 130.0625 33.742188 C 130.285156 34.492188 130.882812 35.988281 130.882812 36.0625 C 130.882812 36.0625 131.109375 37.710938 131.183594 38.535156 C 131.332031 39.355469 130.960938 40.253906 131.484375 41.003906 C 132.308594 42.125 134.703125 42.425781 137.171875 43.546875 C 141.4375 45.570312 149.96875 48.414062 155.058594 52.378906 C 160 56.273438 164.191406 61.660156 167.410156 66.824219 C 170.402344 71.691406 174.59375 82.019531 173.996094 82.316406 C 173.472656 82.691406 163.816406 68.171875 163.667969 68.246094 C 163.515625 68.398438 171.226562 77.453125 173.246094 83.140625 C 175.566406 89.429688 175.941406 97.734375 175.941406 104.546875 C 176.015625 110.683594 174.59375 116.445312 174.070312 122.285156 C 173.621094 128.046875 173.320312 133.660156 173.097656 139.421875 C 172.796875 145.335938 172.046875 151.398438 172.574219 157.3125 C 173.023438 163.296875 175.566406 169.136719 176.015625 175.050781 C 176.464844 180.960938 176.089844 186.875 175.417969 192.785156 C 174.667969 198.847656 172.722656 204.761719 171.675781 210.898438 C 170.550781 217.1875 169.730469 223.921875 168.90625 230.132812 C 168.15625 235.972656 167.933594 241.285156 166.808594 247.125 C 165.613281 253.335938 163.515625 260.070312 161.570312 266.207031 C 159.699219 272.121094 155.734375 281.253906 155.285156 283.421875 C 155.207031 283.945312 155.207031 284.097656 155.207031 284.320312 C 155.285156 284.546875 155.359375 284.917969 155.359375 284.996094 C 155.285156 284.996094 155.285156 284.695312 155.207031 284.695312 C 155.132812 284.695312 155.132812 285.667969 155.132812 285.894531 C 155.132812 285.96875 155.132812 285.96875 155.132812 286.117188 C 155.132812 286.265625 155.207031 286.867188 155.207031 287.164062 C 155.207031 287.390625 155.058594 287.464844 155.058594 287.6875 C 155.058594 287.914062 155.058594 288.363281 155.058594 288.363281 C 154.984375 288.4375 154.535156 290.007812 154.3125 290.757812 C 154.085938 291.582031 153.5625 293.152344 153.5625 293.152344 C 153.5625 293.152344 153.488281 293.378906 153.414062 293.453125 C 153.414062 293.527344 153.414062 293.527344 153.414062 293.601562 C 153.261719 293.824219 153.039062 294.050781 152.890625 294.351562 C 152.738281 294.648438 152.515625 294.949219 152.289062 295.324219 C 151.992188 295.921875 151.09375 297.417969 151.019531 297.492188 C 151.019531 297.492188 150.34375 298.167969 150.042969 298.464844 C 149.894531 298.691406 149.820312 298.914062 149.59375 299.140625 C 149.371094 299.363281 149.070312 299.515625 148.773438 299.738281 C 148.398438 300.113281 147.574219 301.011719 147.574219 301.011719 C 147.5 301.011719 145.851562 302.058594 145.40625 302.359375 C 145.253906 302.433594 145.253906 302.433594 145.105469 302.507812 C 144.878906 302.65625 144.507812 303.03125 144.207031 303.179688 C 144.058594 303.257812 143.980469 303.257812 143.832031 303.332031 C 143.683594 303.40625 143.308594 303.628906 143.308594 303.628906 C 143.308594 303.628906 141.738281 304.15625 140.914062 304.378906 C 140.164062 304.679688 138.59375 305.128906 138.59375 305.128906 C 138.519531 305.128906 138.292969 305.128906 138.144531 305.203125 C 138.070312 305.203125 137.996094 305.277344 137.921875 305.277344 C 137.695312 305.277344 137.246094 305.277344 136.945312 305.277344 C 136.648438 305.277344 136.421875 305.277344 136.050781 305.351562 C 135.449219 305.351562 133.652344 305.5 133.578125 305.5 C 133.578125 305.5 132.53125 305.277344 132.082031 305.277344 C 131.78125 305.203125 131.484375 305.277344 131.183594 305.203125 C 130.882812 305.203125 130.660156 304.976562 130.285156 304.902344 C 129.910156 304.828125 129.011719 304.679688 129.011719 304.679688 C 129.011719 304.679688 128.789062 304.679688 128.640625 304.679688 C 128.488281 304.605469 128.191406 304.453125 128.191406 304.453125 C 128.191406 304.453125 126.992188 303.855469 126.992188 303.929688 C 126.917969 303.929688 127.964844 304.230469 127.964844 304.527344 C 127.964844 305.128906 126.019531 306.625 124.074219 307.148438 C 120.105469 308.347656 110.601562 305.875 104.390625 306.773438 C 98.703125 307.671875 93.910156 311.339844 88.296875 312.164062 C 82.535156 312.984375 76.324219 312.164062 70.261719 311.488281 C 64.125 310.742188 56.566406 308.871094 51.773438 307.820312 C 48.78125 307.148438 46.535156 306.699219 44.515625 306.101562 C 42.941406 305.652344 41.820312 305.351562 40.625 304.753906 C 39.351562 304.15625 38.152344 303.40625 37.105469 302.507812 C 36.058594 301.683594 35.085938 300.636719 34.335938 299.515625 C 33.511719 298.464844 32.839844 297.195312 32.316406 295.921875 C 31.792969 294.722656 31.34375 293.300781 31.191406 291.953125 C 30.96875 290.609375 30.894531 289.1875 31.042969 287.839844 C 31.191406 286.492188 31.492188 285.144531 31.941406 283.871094 C 32.390625 282.523438 32.988281 281.253906 33.738281 280.128906 C 34.484375 279.007812 35.382812 277.882812 36.355469 276.984375 C 37.328125 276.011719 38.453125 275.191406 39.648438 274.515625 C 40.847656 273.84375 42.195312 273.320312 43.46875 272.945312 C 44.8125 272.570312 46.386719 272.347656 47.507812 272.347656 C 48.480469 272.269531 49.53125 273.09375 49.980469 272.570312 C 51.027344 271.371094 47.957031 259.621094 47.433594 259.324219 C 47.359375 259.324219 47.285156 259.398438 47.285156 259.398438 C 47.210938 259.398438 45.636719 259.621094 44.8125 259.699219 C 43.992188 259.773438 42.34375 259.921875 42.34375 259.921875 C 42.269531 259.921875 40.699219 259.699219 39.875 259.621094 C 39.050781 259.472656 37.40625 259.25 37.40625 259.25 C 37.328125 259.25 35.832031 258.648438 35.085938 258.351562 C 34.261719 258.050781 32.765625 257.453125 32.765625 257.453125 C 32.691406 257.453125 31.417969 256.480469 30.742188 256.03125 C 30.070312 255.507812 28.722656 254.609375 28.648438 254.53125 C 28.648438 254.53125 27.601562 253.261719 27.078125 252.660156 C 26.476562 252.0625 25.429688 250.789062 25.429688 250.789062 C 25.429688 250.714844 24.679688 249.292969 24.308594 248.546875 C 23.933594 247.796875 23.183594 246.375 23.183594 246.300781 C 23.183594 246.300781 22.808594 244.730469 22.585938 243.90625 C 22.4375 243.082031 22.0625 241.511719 22.0625 241.511719 C 22.0625 241.433594 22.0625 239.789062 22.0625 238.964844 C 22.0625 238.140625 22.136719 236.496094 22.136719 236.496094 C 22.136719 236.496094 22.511719 234.925781 22.734375 234.101562 C 22.960938 233.277344 23.335938 231.707031 23.410156 231.707031 C 23.410156 231.632812 24.15625 230.207031 24.53125 229.460938 C 24.90625 228.863281 25.804688 228.335938 25.578125 227.589844 C 25.054688 225.71875 15.625 224.070312 12.78125 219.878906 C 9.1875 214.640625 8.816406 203.566406 8.664062 196.378906 C 8.589844 190.242188 10.238281 185.152344 11.058594 179.316406 C 11.957031 173.101562 13.15625 166.367188 13.753906 160.082031 C 14.351562 154.167969 15.25 148.40625 14.726562 142.640625 C 14.203125 136.730469 12.183594 130.890625 10.386719 125.054688 C 8.441406 118.992188 5.148438 113.527344 3.574219 106.867188 C 1.703125 99.230469 0.582031 81.570312 0.582031 81.570312 M 131.183594 130.964844 C 134.402344 130.144531 137.097656 115.25 137.171875 114.351562 C 137.171875 114.277344 137.171875 114.277344 137.171875 114.277344 C 136.945312 114.277344 131.183594 130.964844 131.183594 130.964844 M 131.332031 86.507812 C 133.804688 93.992188 134.550781 94.367188 134.851562 95.117188 C 135.152344 95.789062 135.226562 97.285156 135.226562 97.285156 C 135.300781 97.285156 135.226562 97.136719 135.226562 97.0625 C 135.074219 96.164062 134.851562 88.15625 133.578125 86.882812 C 132.980469 86.285156 131.332031 86.507812 131.332031 86.507812 M 140.089844 87.929688 C 144.355469 92.273438 142.261719 88.679688 141.363281 88.15625 C 140.914062 87.855469 140.089844 87.929688 140.089844 87.929688 M 127.964844 304.527344 C 128.265625 304.378906 128.640625 304.605469 128.640625 304.679688 C 128.714844 304.679688 128.863281 304.605469 129.011719 304.679688 C 129.386719 304.902344 130.660156 306.175781 130.660156 306.175781 C 130.585938 306.25 127.964844 304.527344 127.964844 304.527344 " clip-rule="nonzero"/></clipPath><clipPath id="7d7dc0f6d0"><rect x="0" width="177" y="0" height="313"/></clipPath><clipPath id="7605966196"><path d="M 56.660156 200.125 L 89.722656 200.125 L 89.722656 233.957031 L 56.660156 233.957031 Z M 56.660156 200.125 " clip-rule="nonzero"/></clipPath><clipPath id="bed217d0f7"><path d="M 89.589844 212.105469 C 89.589844 222.660156 88.390625 225.429688 86.820312 227.449219 C 85.171875 229.546875 82.851562 231.34375 80.457031 232.464844 C 78.0625 233.511719 75.144531 234.035156 72.523438 233.886719 C 69.902344 233.738281 67.058594 232.839844 64.816406 231.492188 C 62.570312 230.144531 60.472656 228.050781 59.125 225.804688 C 57.78125 223.558594 56.882812 220.714844 56.730469 218.09375 C 56.582031 215.476562 57.105469 212.554688 58.152344 210.160156 C 59.277344 207.765625 61.074219 205.445312 63.167969 203.800781 C 65.1875 202.226562 67.957031 200.957031 70.503906 200.507812 C 73.046875 200.058594 76.042969 200.207031 78.511719 201.03125 C 81.054688 201.777344 85.472656 205.148438 85.472656 205.148438 " clip-rule="nonzero"/></clipPath><clipPath id="43f7bf3305"><path d="M 0.660156 0.125 L 33.722656 0.125 L 33.722656 33.957031 L 0.660156 33.957031 Z M 0.660156 0.125 " clip-rule="nonzero"/></clipPath><clipPath id="5475d3f464"><path d="M 33.589844 12.105469 C 33.589844 22.660156 32.390625 25.429688 30.820312 27.449219 C 29.171875 29.546875 26.851562 31.34375 24.457031 32.464844 C 22.0625 33.511719 19.144531 34.035156 16.523438 33.886719 C 13.902344 33.738281 11.058594 32.839844 8.816406 31.492188 C 6.570312 30.144531 4.472656 28.050781 3.125 25.804688 C 1.78125 23.558594 0.882812 20.714844 0.730469 18.09375 C 0.582031 15.476562 1.105469 12.554688 2.152344 10.160156 C 3.277344 7.765625 5.074219 5.445312 7.167969 3.800781 C 9.1875 2.226562 11.957031 0.957031 14.503906 0.507812 C 17.046875 0.0585938 20.042969 0.207031 22.511719 1.03125 C 25.054688 1.777344 29.472656 5.148438 29.472656 5.148438 " clip-rule="nonzero"/></clipPath><clipPath id="58f0544e94"><rect x="0" width="34" y="0" height="34"/></clipPath></defs><g clip-path="url(#69446cbf1c)"><g clip-path="url(#6f2e27bff9)"><g transform="matrix(1, 0, 0, 1, 36, 156)"><g clip-path="url(#55f8bbc391)"><g clip-path="url(#20a9d64081)"><g clip-path="url(#3e38620489)"><rect x="-115.035" width="517.32" fill="#a9744f" height="517.319981" y="-235.034997" fill-opacity="1"/></g></g></g></g></g></g><g clip-path="url(#7f15e41dde)"><g clip-path="url(#6ff3955bdf)"><g transform="matrix(1, 0, 0, 1, 92, 17)"><g clip-path="url(#7d7dc0f6d0)"><g clip-path="url(#ca5521164e)"><g clip-path="url(#8b172473dc)"><rect x="-171.035" width="517.32" fill="#a9744f" height="517.319981" y="-96.034997" fill-opacity="1"/></g></g></g></g></g></g><g clip-path="url(#7605966196)"><g clip-path="url(#bed217d0f7)"><g transform="matrix(1, 0, 0, 1, 56, 200)"><g clip-path="url(#58f0544e94)"><g clip-path="url(#43f7bf3305)"><g clip-path="url(#5475d3f464)"><rect x="-135.035" width="517.32" fill="#a9744f" height="517.319981" y="-279.034997" fill-opacity="1"/></g></g></g></g></g></g><path fill="#000000" d="M -318.566406 -271.140625 C -321.359375 -268.347656 -321.59375 -266.855469 -322.265625 -247.558594 C -323.042969 -225.355469 -324.046875 -220.765625 -334.078125 -193.578125 C -342.464844 -170.847656 -342.726562 -167.285156 -342.324219 -82.070312 C -341.921875 2.042969 -342.4375 -3.078125 -333.425781 6.0625 C -326.570312 13.015625 -322.417969 14.636719 -311.394531 14.664062 L -301.5 14.691406 L -300.71875 20.589844 C -298.609375 36.480469 -283.328125 47.660156 -266.140625 45.878906 L -258.8125 45.117188 L -255.992188 50.9375 C -243.304688 77.148438 -197.875 67.878906 -197.875 39.082031 L -197.875 34.90625 L -191.09375 35.601562 C -181.484375 36.585938 -174.109375 34.207031 -167.292969 27.921875 C -156.707031 18.164062 -157.25 21.710938 -156.523438 -42.566406 L -155.878906 -99.828125 L -150.71875 -92.964844 C -126.308594 -60.519531 -94.800781 -58.515625 -85.75 -88.835938 C -81.691406 -102.429688 -82.894531 -105.53125 -106.878906 -143.292969 C -139.699219 -194.964844 -147.894531 -207.074219 -156.3125 -216.320312 C -169.820312 -231.15625 -175.226562 -242.414062 -176.757812 -258.917969 C -177.765625 -269.730469 -180.878906 -274.121094 -187.539062 -274.121094 C -206.789062 -274.121094 -198.5625 -232.382812 -173.753906 -204.195312 C -150.082031 -177.292969 -103.273438 -101.390625 -106.121094 -94.519531 C -111.996094 -80.339844 -156.523438 -119.191406 -156.523438 -138.492188 C -156.523438 -148.238281 -166.261719 -153.460938 -173.503906 -147.597656 L -176.554688 -145.128906 L -177.199219 -67.527344 C -177.925781 19.769531 -177.28125 14.632812 -187.539062 14.632812 C -197.515625 14.632812 -197.148438 16.632812 -197.875 -41.683594 L -198.523438 -93.441406 L -201.574219 -95.910156 C -202.039062 -96.289062 -202.53125 -96.628906 -203.054688 -96.921875 C -203.578125 -97.21875 -204.125 -97.464844 -204.691406 -97.667969 C -205.253906 -97.867188 -205.835938 -98.019531 -206.425781 -98.121094 C -207.015625 -98.226562 -207.613281 -98.277344 -208.214844 -98.277344 C -208.816406 -98.277344 -209.410156 -98.222656 -210.003906 -98.121094 C -210.59375 -98.019531 -211.171875 -97.867188 -211.738281 -97.667969 C -212.304688 -97.464844 -212.847656 -97.214844 -213.371094 -96.921875 C -213.894531 -96.625 -214.390625 -96.289062 -214.855469 -95.910156 L -217.90625 -93.441406 L -218.550781 -26.175781 C -219.28125 49.523438 -218.722656 45.644531 -228.890625 45.644531 C -239.058594 45.644531 -238.5 49.523438 -239.226562 -26.175781 L -239.875 -93.441406 L -242.925781 -95.910156 C -243.390625 -96.289062 -243.882812 -96.625 -244.40625 -96.921875 C -244.929688 -97.214844 -245.476562 -97.464844 -246.039062 -97.667969 C -246.605469 -97.867188 -247.183594 -98.019531 -247.777344 -98.121094 C -248.367188 -98.222656 -248.964844 -98.273438 -249.566406 -98.273438 C -250.164062 -98.273438 -250.761719 -98.222656 -251.355469 -98.121094 C -251.945312 -98.019531 -252.523438 -97.867188 -253.089844 -97.667969 C -253.65625 -97.464844 -254.199219 -97.214844 -254.722656 -96.921875 C -255.246094 -96.625 -255.742188 -96.289062 -256.207031 -95.910156 L -259.257812 -93.441406 L -259.902344 -36.511719 C -260.628906 27.589844 -260.191406 24.96875 -270.242188 24.96875 C -280.292969 24.96875 -279.851562 27.589844 -280.578125 -36.511719 L -281.226562 -93.441406 L -284.277344 -95.910156 C -284.742188 -96.289062 -285.234375 -96.625 -285.757812 -96.921875 C -286.28125 -97.214844 -286.824219 -97.464844 -287.390625 -97.667969 C -287.957031 -97.867188 -288.535156 -98.019531 -289.128906 -98.121094 C -289.71875 -98.222656 -290.316406 -98.277344 -290.917969 -98.277344 C -291.515625 -98.277344 -292.113281 -98.226562 -292.703125 -98.121094 C -293.296875 -98.019531 -293.875 -97.867188 -294.441406 -97.667969 C -295.007812 -97.464844 -295.550781 -97.21875 -296.074219 -96.921875 C -296.597656 -96.628906 -297.089844 -96.289062 -297.558594 -95.910156 L -300.609375 -93.441406 L -301.253906 -52.019531 C -301.984375 -5.277344 -301.8125 -6.042969 -311.59375 -6.042969 C -321.902344 -6.042969 -321.285156 -0.777344 -321.265625 -88.410156 L -321.246094 -166.222656 L -317.859375 -176.558594 C -315.992188 -182.246094 -312.367188 -192.597656 -309.792969 -199.5625 C -294.367188 -241.371094 -300.257812 -289.449219 -318.566406 -271.140625 M 8.667969 -272.351562 C -5.132812 -267.324219 -13.65625 -252.6875 -11.316406 -238.046875 L -10.527344 -233.101562 L -16.738281 -232.277344 C -32.945312 -230.125 -44.132812 -214.996094 -42.335938 -197.660156 L -41.578125 -190.328125 L -47.398438 -187.511719 C -73.464844 -174.890625 -64.363281 -129.394531 -35.773438 -129.394531 L -31.824219 -129.394531 L -31.800781 -119.378906 C -31.769531 -108.21875 -30.171875 -104.097656 -23.195312 -97.21875 C -14.238281 -88.390625 -16.988281 -88.753906 46.125 -88.042969 L 103.398438 -87.394531 L 94.347656 -80.515625 C 61.117188 -55.261719 63.847656 -19.15625 99.222656 -16.054688 C 110.625 -15.054688 182.394531 -56.960938 213.050781 -82.519531 C 236.875 -102.378906 245.066406 -106.660156 262.34375 -108.265625 C 273.277344 -109.28125 277.664062 -112.367188 277.664062 -119.054688 C 277.664062 -138.722656 238.15625 -130.664062 207.386719 -104.71875 C 194.796875 -94.101562 118.898438 -43.996094 106.210938 -37.929688 C 99.285156 -34.613281 91.507812 -39.832031 91.609375 -47.71875 C 91.691406 -54 134.203125 -88.042969 141.960938 -88.042969 C 152.277344 -88.042969 157.386719 -98.59375 150.4375 -105.542969 L 147.265625 -108.71875 L 71.109375 -108.71875 C -15.644531 -108.71875 -11.089844 -108.144531 -11.089844 -119.054688 C -11.089844 -129.625 -12.359375 -129.394531 45.261719 -129.394531 L 95.578125 -129.394531 L 98.746094 -132.566406 C 102.945312 -136.761719 102.945312 -142.699219 98.746094 -146.894531 L 95.578125 -150.070312 L 29.757812 -150.070312 C -45.335938 -150.070312 -42.105469 -149.601562 -42.105469 -160.40625 C -42.105469 -171.210938 -45.335938 -170.742188 29.757812 -170.742188 L 95.578125 -170.742188 L 98.746094 -173.917969 C 100.746094 -175.914062 101.917969 -178.566406 101.917969 -181.082031 C 101.917969 -183.597656 100.746094 -186.25 98.746094 -188.246094 L 95.578125 -191.417969 L 40.09375 -191.417969 C -23.347656 -191.417969 -21.429688 -191.097656 -21.429688 -201.757812 C -21.429688 -212.417969 -23.347656 -212.09375 40.09375 -212.09375 L 95.578125 -212.09375 L 98.746094 -215.269531 C 100.746094 -217.265625 101.917969 -219.914062 101.917969 -222.433594 C 101.917969 -224.949219 100.746094 -227.597656 98.746094 -229.597656 L 95.578125 -232.769531 L 55.601562 -232.769531 C 9.601562 -232.769531 9.582031 -232.773438 9.582031 -243.109375 C 9.582031 -254.21875 4.914062 -253.65625 92.785156 -253.152344 L 169.761719 -252.710938 L 180.097656 -249.339844 C 185.785156 -247.484375 197.125 -243.601562 205.296875 -240.714844 C 240.851562 -228.148438 277.664062 -229.367188 277.664062 -243.109375 C 277.664062 -251.34375 273.375 -253.445312 256.566406 -253.445312 C 237.519531 -253.445312 222.878906 -256.066406 205.621094 -262.570312 C 174.695312 -274.21875 183.679688 -273.324219 93.519531 -273.722656 C 29.265625 -274.003906 12.464844 -273.734375 8.667969 -272.351562 M 153.082031 7.03125 C 142.292969 10.984375 132.933594 22.914062 132.933594 32.710938 L 132.933594 36.65625 L 122.917969 36.683594 C 111.761719 36.710938 107.636719 38.3125 100.761719 45.289062 C 91.929688 54.246094 92.292969 51.496094 91.582031 114.59375 L 90.9375 171.851562 L 85.773438 164.988281 C 62.792969 134.4375 39.621094 130.359375 23.933594 154.105469 C 14.457031 168.449219 16.472656 175.160156 42.648438 216.433594 C 75.277344 267.878906 82.554688 278.566406 92.519531 289.675781 C 105.226562 303.839844 112.179688 319.785156 112.238281 334.898438 C 112.277344 344.828125 122.976562 349.761719 129.761719 342.972656 C 139.714844 333.019531 129.457031 301.011719 108.253906 275.867188 C 84.757812 248 38.546875 172.898438 41.101562 166.730469 C 47.058594 152.34375 91.582031 190.894531 91.582031 210.441406 C 91.582031 217.113281 96 222.09375 101.917969 222.09375 C 104.4375 222.09375 107.085938 220.921875 109.085938 218.917969 L 112.257812 215.75 L 112.257812 139.589844 C 112.257812 52.835938 111.683594 57.390625 122.59375 57.390625 C 133.164062 57.390625 132.933594 56.125 132.933594 113.746094 L 132.933594 164.058594 L 136.105469 167.230469 C 138.105469 169.230469 140.753906 170.402344 143.269531 170.402344 C 145.789062 170.402344 148.4375 169.230469 150.4375 167.230469 L 153.609375 164.058594 L 153.609375 98.238281 C 153.609375 23.148438 153.144531 26.378906 163.945312 26.378906 C 174.75 26.378906 174.285156 23.148438 174.285156 98.238281 L 174.285156 164.058594 L 177.457031 167.230469 C 181.652344 171.429688 187.589844 171.429688 191.789062 167.230469 L 194.960938 164.058594 L 194.960938 108.578125 C 194.960938 45.136719 194.636719 47.054688 205.296875 47.054688 C 215.957031 47.054688 215.636719 45.136719 215.636719 108.578125 L 215.636719 164.058594 L 218.808594 167.230469 C 223.003906 171.429688 228.941406 171.429688 233.136719 167.230469 L 236.3125 164.058594 L 236.3125 124.085938 C 236.3125 78.085938 236.316406 78.066406 246.648438 78.066406 C 257.515625 78.066406 256.988281 74.121094 256.988281 155.515625 C 256.988281 236.074219 256.667969 239.847656 247.9375 262.808594 C 238.480469 287.675781 237.394531 292.917969 236.660156 317.292969 L 235.992188 339.480469 L 239.324219 342.8125 C 250.105469 353.597656 256.429688 345.664062 257.332031 320.21875 C 258.105469 298.335938 259.105469 293.539062 267.964844 269.074219 C 277.773438 242 277.789062 241.804688 277.378906 154.78125 C 276.976562 69.90625 277.5 75.109375 268.484375 65.964844 C 261.628906 59.007812 257.472656 57.386719 246.449219 57.359375 L 236.558594 57.332031 L 235.777344 51.433594 C 233.667969 35.542969 218.386719 24.363281 201.199219 26.144531 L 193.871094 26.90625 L 191.050781 21.085938 C 184.710938 7.988281 167.675781 1.683594 153.082031 7.03125 M -177.902344 89.433594 C -180.066406 90.421875 -195.769531 100.203125 -212.792969 111.167969 C -229.820312 122.136719 -249.855469 134.96875 -257.320312 139.683594 C -264.78125 144.402344 -275.828125 152.441406 -281.871094 157.550781 C -302.222656 174.765625 -310.058594 178.6875 -327.289062 180.289062 C -338.222656 181.304688 -342.605469 184.394531 -342.605469 191.078125 C -342.605469 210.753906 -300.277344 201.96875 -271.542969 176.328125 C -246.804688 154.257812 -169.691406 106.890625 -163 109.660156 C -148.804688 115.542969 -187.605469 160.066406 -206.925781 160.066406 C -216.722656 160.066406 -221.960938 169.78125 -216.082031 177.042969 L -213.613281 180.09375 L -136.007812 180.742188 C -48.714844 181.46875 -53.851562 180.820312 -53.851562 191.078125 C -53.851562 201.054688 -51.851562 200.6875 -110.164062 201.417969 L -161.925781 202.0625 L -164.394531 205.113281 C -164.773438 205.578125 -165.113281 206.074219 -165.40625 206.597656 C -165.699219 207.121094 -165.949219 207.664062 -166.152344 208.230469 C -166.351562 208.796875 -166.503906 209.375 -166.605469 209.964844 C -166.707031 210.558594 -166.757812 211.152344 -166.757812 211.753906 C -166.757812 212.355469 -166.707031 212.949219 -166.605469 213.542969 C -166.503906 214.132812 -166.351562 214.714844 -166.148438 215.277344 C -165.949219 215.84375 -165.699219 216.390625 -165.40625 216.914062 C -165.109375 217.433594 -164.773438 217.929688 -164.394531 218.394531 L -161.925781 221.445312 L -94.660156 222.09375 C -18.960938 222.820312 -22.839844 222.261719 -22.839844 232.429688 C -22.839844 242.597656 -18.960938 242.039062 -94.660156 242.769531 L -161.925781 243.414062 L -164.394531 246.464844 C -164.773438 246.929688 -165.109375 247.425781 -165.40625 247.949219 C -165.699219 248.46875 -165.949219 249.015625 -166.148438 249.582031 C -166.351562 250.144531 -166.503906 250.726562 -166.605469 251.316406 C -166.707031 251.910156 -166.757812 252.503906 -166.757812 253.105469 C -166.757812 253.707031 -166.707031 254.300781 -166.605469 254.894531 C -166.503906 255.484375 -166.351562 256.0625 -166.148438 256.628906 C -165.949219 257.195312 -165.699219 257.738281 -165.40625 258.261719 C -165.109375 258.785156 -164.773438 259.28125 -164.394531 259.746094 L -161.925781 262.796875 L -104.996094 263.441406 C -40.890625 264.171875 -43.511719 263.730469 -43.511719 273.78125 C -43.511719 283.832031 -40.890625 283.390625 -104.996094 284.117188 L -161.925781 284.765625 L -164.394531 287.816406 C -164.773438 288.28125 -165.109375 288.773438 -165.40625 289.296875 C -165.699219 289.820312 -165.949219 290.367188 -166.148438 290.933594 C -166.351562 291.496094 -166.503906 292.074219 -166.605469 292.667969 C -166.707031 293.257812 -166.757812 293.855469 -166.757812 294.457031 C -166.757812 295.058594 -166.707031 295.652344 -166.605469 296.246094 C -166.503906 296.835938 -166.351562 297.414062 -166.152344 297.980469 C -165.949219 298.546875 -165.699219 299.089844 -165.40625 299.613281 C -165.113281 300.136719 -164.773438 300.632812 -164.394531 301.097656 L -161.925781 304.148438 L -120.503906 304.792969 C -73.761719 305.523438 -74.527344 305.351562 -74.527344 315.132812 C -74.527344 325.445312 -69.261719 324.828125 -156.894531 324.796875 L -234.703125 324.769531 L -245.042969 321.390625 C -250.726562 319.53125 -261.082031 315.90625 -268.046875 313.335938 C -303.082031 300.40625 -342.605469 301.359375 -342.605469 315.132812 C -342.605469 323.660156 -339.1875 325.03125 -316.027344 325.792969 C -293.832031 326.527344 -289.613281 327.449219 -262.097656 337.605469 C -239.785156 345.839844 -235.863281 346.148438 -153.449219 346.136719 C -59.226562 346.128906 -50.332031 343.050781 -53.558594 311.578125 C -54.207031 305.257812 -54.058594 304.792969 -51.4375 304.785156 C -34.664062 304.742188 -20.730469 287.78125 -22.605469 269.683594 L -23.367188 262.351562 L -17.546875 259.535156 C 8.523438 246.914062 -0.578125 201.417969 -29.171875 201.417969 L -33.117188 201.417969 L -33.144531 191.402344 C -33.171875 180.242188 -34.773438 176.121094 -41.746094 169.242188 C -50.703125 160.414062 -47.953125 160.777344 -111.070312 160.066406 L -168.34375 159.417969 L -159.289062 152.539062 C -140.34375 138.140625 -134.964844 129.664062 -136.191406 116.148438 C -138.027344 95.933594 -160.539062 81.511719 -177.902344 89.433594 " fill-opacity="1" fill-rule="evenodd"/></svg>