<svg xmlns="http://www.w3.org/2000/svg" xmlns:xlink="http://www.w3.org/1999/xlink" width="479" zoomAndPan="magnify" viewBox="0 0 359.25 359.249987" height="479" preserveAspectRatio="xMidYMid meet" version="1.0"><defs><clipPath id="0e42024b08"><path d="M 114.671875 309.765625 L 251.320312 309.765625 L 251.320312 349.40625 L 114.671875 349.40625 Z M 114.671875 309.765625 " clip-rule="nonzero"/></clipPath><clipPath id="885e72f8f5"><path d="M 131.875 312.25 C 140.78125 313.371094 158.894531 327.140625 159.492188 326.46875 C 159.941406 325.792969 144.449219 314.492188 145.347656 312.695312 C 146.246094 310.976562 156.871094 315.542969 164.058594 315.542969 C 173.789062 315.542969 188.832031 311.351562 198.410156 310.601562 C 205.222656 310.078125 209.9375 309.554688 215.925781 310.300781 C 222.511719 311.125 235.457031 316.886719 236.207031 315.691406 C 236.65625 315.015625 231.792969 311.648438 232.089844 310.976562 C 232.464844 310.378906 236.28125 311.351562 238.226562 312.023438 C 240.171875 312.621094 242.042969 313.671875 243.691406 314.867188 C 245.261719 316.140625 246.761719 317.710938 247.957031 319.359375 C 249.078125 321.078125 249.976562 323.027344 250.503906 324.972656 C 251.101562 326.917969 251.324219 329.089844 251.175781 331.109375 C 251.101562 333.203125 250.578125 335.300781 249.828125 337.171875 C 249.078125 339.042969 247.957031 340.914062 246.683594 342.484375 C 245.335938 343.980469 243.691406 345.402344 241.96875 346.453125 C 240.25 347.5 238.226562 348.324219 236.207031 348.773438 C 234.261719 349.222656 232.089844 349.296875 230.070312 349.070312 C 228.050781 348.847656 225.953125 348.324219 224.082031 347.425781 C 222.285156 346.601562 220.488281 345.328125 218.992188 343.980469 C 217.496094 342.558594 216.222656 340.839844 215.25 339.042969 C 214.277344 337.246094 213.605469 335.226562 213.304688 333.203125 C 212.929688 331.183594 212.929688 329.011719 213.304688 326.992188 C 213.605469 324.972656 214.277344 322.949219 215.25 321.15625 C 216.222656 319.359375 217.496094 317.636719 218.992188 316.214844 C 220.488281 314.867188 222.285156 313.59375 224.082031 312.773438 C 225.953125 311.949219 228.050781 311.351562 230.070312 311.125 C 232.089844 310.902344 234.261719 311.050781 236.207031 311.425781 C 238.226562 311.875 240.25 312.695312 241.96875 313.746094 C 243.691406 314.792969 245.335938 316.214844 246.683594 317.710938 C 247.957031 319.285156 249.078125 321.15625 249.828125 323.027344 C 250.652344 324.898438 251.101562 327.066406 251.175781 329.089844 C 251.324219 331.109375 251.101562 333.277344 250.503906 335.226562 C 249.976562 337.171875 249.078125 339.117188 247.957031 340.839844 C 246.761719 342.484375 245.261719 344.058594 243.691406 345.328125 C 242.042969 346.527344 240.171875 347.574219 238.226562 348.171875 C 236.28125 348.847656 235.007812 349.070312 232.089844 349.222656 C 224.832031 349.519531 205.070312 346.300781 193.84375 346.527344 C 185.164062 346.675781 179.476562 348.921875 170.570312 349.070312 C 158.445312 349.222656 135.992188 348.023438 127.832031 345.703125 C 124.242188 344.65625 122.371094 343.234375 120.574219 341.886719 C 119.375 340.914062 118.703125 340.164062 117.878906 338.816406 C 116.757812 336.945312 115.410156 333.429688 115.035156 331.257812 C 114.734375 329.6875 114.734375 328.714844 115.035156 327.140625 C 115.410156 324.972656 116.757812 321.453125 117.878906 319.582031 C 118.703125 318.234375 119.375 317.488281 120.574219 316.515625 C 122.371094 315.09375 125.664062 313.371094 127.832031 312.695312 C 129.328125 312.25 131.875 312.25 131.875 312.25 " clip-rule="nonzero"/></clipPath><clipPath id="fd996ddb2d"><path d="M 0.71875 0.765625 L 137.320312 0.765625 L 137.320312 40.40625 L 0.71875 40.40625 Z M 0.71875 0.765625 " clip-rule="nonzero"/></clipPath><clipPath id="d2e3a3f1a7"><path d="M 17.875 3.25 C 26.78125 4.371094 44.894531 18.140625 45.492188 17.46875 C 45.941406 16.792969 30.449219 5.492188 31.347656 3.695312 C 32.246094 1.976562 42.871094 6.542969 50.058594 6.542969 C 59.789062 6.542969 74.832031 2.351562 84.410156 1.601562 C 91.222656 1.078125 95.9375 0.554688 101.925781 1.300781 C 108.511719 2.125 121.457031 7.886719 122.207031 6.691406 C 122.65625 6.015625 117.792969 2.648438 118.089844 1.976562 C 118.464844 1.378906 122.28125 2.351562 124.226562 3.023438 C 126.171875 3.621094 128.042969 4.671875 129.691406 5.867188 C 131.261719 7.140625 132.761719 8.710938 133.957031 10.359375 C 135.078125 12.078125 135.976562 14.027344 136.503906 15.972656 C 137.101562 17.917969 137.324219 20.089844 137.175781 22.109375 C 137.101562 24.203125 136.578125 26.300781 135.828125 28.171875 C 135.078125 30.042969 133.957031 31.914062 132.683594 33.484375 C 131.335938 34.980469 129.691406 36.402344 127.96875 37.453125 C 126.25 38.5 124.226562 39.324219 122.207031 39.773438 C 120.261719 40.222656 118.089844 40.296875 116.070312 40.070312 C 114.050781 39.847656 111.953125 39.324219 110.082031 38.425781 C 108.285156 37.601562 106.488281 36.328125 104.992188 34.980469 C 103.496094 33.558594 102.222656 31.839844 101.25 30.042969 C 100.277344 28.246094 99.605469 26.226562 99.304688 24.203125 C 98.929688 22.183594 98.929688 20.011719 99.304688 17.992188 C 99.605469 15.972656 100.277344 13.949219 101.25 12.15625 C 102.222656 10.359375 103.496094 8.636719 104.992188 7.214844 C 106.488281 5.867188 108.285156 4.59375 110.082031 3.773438 C 111.953125 2.949219 114.050781 2.351562 116.070312 2.125 C 118.089844 1.902344 120.261719 2.050781 122.207031 2.425781 C 124.226562 2.875 126.25 3.695312 127.96875 4.746094 C 129.691406 5.792969 131.335938 7.214844 132.683594 8.710938 C 133.957031 10.285156 135.078125 12.15625 135.828125 14.027344 C 136.652344 15.898438 137.101562 18.066406 137.175781 20.089844 C 137.324219 22.109375 137.101562 24.277344 136.503906 26.226562 C 135.976562 28.171875 135.078125 30.117188 133.957031 31.839844 C 132.761719 33.484375 131.261719 35.058594 129.691406 36.328125 C 128.042969 37.527344 126.171875 38.574219 124.226562 39.171875 C 122.28125 39.847656 121.007812 40.070312 118.089844 40.222656 C 110.832031 40.519531 91.070312 37.300781 79.84375 37.527344 C 71.164062 37.675781 65.476562 39.921875 56.570312 40.070312 C 44.445312 40.222656 21.992188 39.023438 13.832031 36.703125 C 10.242188 35.65625 8.371094 34.234375 6.574219 32.886719 C 5.375 31.914062 4.703125 31.164062 3.878906 29.816406 C 2.757812 27.945312 1.410156 24.429688 1.035156 22.257812 C 0.734375 20.6875 0.734375 19.714844 1.035156 18.140625 C 1.410156 15.972656 2.757812 12.453125 3.878906 10.582031 C 4.703125 9.234375 5.375 8.488281 6.574219 7.515625 C 8.371094 6.09375 11.664062 4.371094 13.832031 3.695312 C 15.328125 3.25 17.875 3.25 17.875 3.25 " clip-rule="nonzero"/></clipPath><clipPath id="5c2cf4f148"><rect x="0" width="138" y="0" height="41"/></clipPath><clipPath id="5e64b4f6ac"><path d="M 36 17 L 269.289062 17 L 269.289062 331.90625 L 36 331.90625 Z M 36 17 " clip-rule="nonzero"/></clipPath><clipPath id="e3e2e59a49"><path d="M 61.671875 160.164062 C 71.476562 165.929688 78.585938 170.867188 82.925781 175.957031 C 87.34375 181.121094 92.28125 187.035156 93.480469 194.144531 C 94.828125 202.75 92.65625 220.414062 87.117188 224.53125 C 82.550781 227.898438 72.222656 225.355469 66.460938 222.511719 C 60.699219 219.589844 54.039062 206.644531 52.613281 207.316406 C 51.71875 207.691406 54.039062 214.425781 53.511719 214.652344 C 53.0625 214.800781 51.566406 212.707031 50.742188 211.210938 C 49.621094 209.113281 48.273438 205.671875 48.050781 202.902344 C 47.898438 200.058594 48.722656 196.464844 49.546875 194.292969 C 50.144531 192.722656 50.742188 191.75 51.792969 190.476562 C 53.363281 188.679688 56.058594 186.210938 58.675781 185.015625 C 61.222656 183.890625 64.441406 183.21875 67.210938 183.367188 C 70.054688 183.515625 72.523438 184.265625 75.59375 185.910156 C 80.457031 188.605469 86.742188 196.464844 92.433594 200.582031 C 97.519531 204.171875 103.285156 205.671875 107.851562 209.488281 C 112.488281 213.453125 118.027344 218.617188 119.898438 224.15625 C 121.769531 229.472656 122.96875 237.628906 119.601562 241.96875 C 115.035156 247.882812 94.152344 250.128906 87.792969 250.949219 C 85.097656 251.324219 83.527344 251.773438 81.878906 250.875 C 79.859375 249.679688 77.988281 245.335938 77.089844 243.019531 C 76.414062 241.371094 76.191406 240.25 76.191406 238.453125 C 76.191406 235.90625 76.9375 231.714844 77.761719 229.394531 C 78.4375 227.675781 78.960938 226.703125 80.15625 225.355469 C 81.804688 223.484375 84.648438 220.863281 87.34375 219.667969 C 90.113281 218.394531 93.929688 217.945312 96.398438 217.945312 C 98.195312 217.871094 99.316406 218.09375 100.964844 218.695312 C 103.359375 219.589844 106.277344 220.789062 108.898438 223.410156 C 113.3125 227.75 119.078125 238.226562 122.292969 245.039062 C 124.914062 250.578125 128.804688 260.304688 127.757812 260.980469 C 126.636719 261.652344 115.257812 247.808594 115.183594 247.882812 C 115.109375 247.882812 122.742188 256.789062 127.160156 260.980469 C 131.726562 265.394531 138.609375 268.316406 142.425781 273.480469 C 146.167969 278.71875 151.109375 291.140625 149.6875 292.113281 C 148.414062 293.089844 135.542969 281.335938 135.691406 281.1875 C 135.765625 281.039062 150.359375 290.84375 150.136719 291.140625 C 149.988281 291.441406 134.867188 282.835938 134.71875 283.058594 C 134.496094 283.433594 151.859375 294.734375 152.007812 294.660156 C 152.082031 294.511719 135.917969 282.535156 135.691406 282.757812 C 135.542969 282.984375 144.222656 291.292969 149.464844 294.960938 C 155.375 299.152344 169.070312 306.859375 169.597656 306.035156 C 170.195312 305.289062 153.128906 293.984375 154.027344 291.066406 C 154.925781 288.296875 164.507812 288.898438 172.214844 288 C 185.386719 286.578125 224.230469 280.515625 226.179688 285.078125 C 227.523438 288.222656 208.589844 302.742188 207.914062 302.21875 C 207.390625 301.695312 219.589844 285.976562 219.441406 285.828125 C 219.21875 285.679688 207.09375 300.347656 207.390625 300.574219 C 207.617188 300.871094 224.308594 283.65625 224.308594 283.65625 C 224.308594 283.65625 209.710938 300.421875 208.289062 299.523438 C 206.941406 298.703125 213.527344 286.277344 215.324219 279.765625 C 216.972656 273.851562 217.195312 268.164062 218.992188 262.253906 C 220.863281 255.816406 226.027344 249.15625 226.476562 242.792969 C 226.925781 236.804688 222.511719 230.816406 222.511719 225.054688 C 222.511719 219.441406 225.28125 214.128906 226.179688 208.441406 C 227.074219 202.453125 227.824219 197.136719 227.898438 190.027344 C 227.972656 180.296875 225.804688 167.050781 225.128906 155.523438 C 224.53125 143.851562 222.660156 130.753906 224.230469 120.421875 C 225.503906 111.890625 230.742188 105.304688 231.941406 97.671875 C 233.136719 90.5625 233.136719 76.640625 231.792969 76.339844 C 230.894531 76.117188 227.75 85.398438 227.300781 85.246094 C 227 85.097656 227.523438 81.878906 227.898438 80.308594 C 228.347656 78.660156 228.945312 77.089844 229.695312 75.59375 C 230.519531 74.171875 231.492188 72.75 232.539062 71.476562 C 233.664062 70.277344 234.933594 69.15625 236.355469 68.183594 C 237.703125 67.285156 239.199219 66.460938 240.773438 65.9375 C 242.269531 65.339844 243.992188 64.964844 245.636719 64.738281 C 247.285156 64.589844 248.929688 64.589844 250.578125 64.738281 C 252.222656 64.964844 253.871094 65.414062 255.441406 66.011719 C 257.011719 66.609375 258.511719 67.359375 259.859375 68.332031 C 261.203125 69.304688 262.476562 70.429688 263.601562 71.699219 C 264.648438 72.898438 265.621094 74.320312 266.367188 75.816406 C 267.191406 77.238281 267.789062 78.886719 268.164062 80.457031 C 268.539062 82.105469 268.6875 83.226562 268.6875 85.398438 C 268.765625 90.113281 266.667969 100.214844 266.367188 106.953125 C 265.996094 112.9375 267.265625 118.101562 266.445312 123.867188 C 265.472656 130.078125 261.203125 136.589844 260.382812 143.027344 C 259.558594 149.386719 261.953125 155 261.203125 162.335938 C 260.15625 172.589844 254.09375 186.136719 252.296875 198.558594 C 250.503906 211.507812 251.550781 226.925781 250.652344 238.601562 C 249.976562 247.734375 249.679688 253.644531 247.957031 262.851562 C 245.5625 275.574219 238.75 300.421875 236.132812 307.457031 C 235.308594 309.777344 234.859375 310.601562 233.960938 311.949219 C 233.136719 313.371094 232.015625 314.644531 230.816406 315.765625 C 229.695312 316.964844 228.273438 317.9375 226.851562 318.757812 C 225.429688 319.582031 223.859375 320.257812 222.285156 320.707031 C 220.714844 321.15625 219.066406 321.453125 217.421875 321.453125 C 215.773438 321.527344 214.054688 321.378906 212.480469 321.078125 C 210.835938 320.707031 209.261719 320.179688 207.765625 319.507812 C 206.269531 318.757812 204.847656 317.863281 203.574219 316.8125 C 202.300781 315.765625 201.105469 314.566406 200.132812 313.222656 C 199.160156 311.949219 198.335938 310.453125 197.664062 308.953125 C 197.0625 307.457031 196.539062 305.8125 196.316406 304.164062 C 196.089844 302.519531 196.015625 300.871094 196.089844 299.226562 C 196.242188 297.578125 196.6875 294.359375 197.136719 294.359375 C 198.113281 294.359375 202.226562 314.792969 201.628906 315.015625 C 201.03125 315.167969 195.34375 301.996094 193.472656 295.632812 C 191.824219 289.796875 191.375 284.183594 190.550781 278.34375 C 189.804688 272.355469 189.355469 265.996094 188.90625 260.007812 C 188.457031 254.09375 187.859375 249.453125 187.78125 242.644531 C 187.707031 232.988281 189.355469 217.269531 189.578125 207.46875 C 189.804688 200.429688 189.804688 196.914062 189.578125 189.28125 C 189.28125 176.03125 187.933594 151.632812 186.886719 135.46875 C 185.910156 122.21875 184.339844 111.667969 183.742188 99.390625 C 183.066406 86.519531 182.917969 66.6875 183.292969 59.800781 C 183.367188 57.332031 183.441406 56.433594 183.890625 54.859375 C 184.265625 53.289062 184.863281 51.71875 185.613281 50.21875 C 186.359375 48.796875 187.332031 47.375 188.457031 46.179688 C 189.503906 44.90625 190.777344 43.785156 192.199219 42.886719 C 193.546875 41.914062 195.042969 41.089844 196.539062 40.566406 C 198.113281 39.964844 199.757812 39.515625 201.40625 39.367188 C 203.050781 39.144531 204.699219 39.144531 206.34375 39.367188 C 207.992188 39.515625 209.636719 39.964844 211.210938 40.566406 C 212.707031 41.089844 214.203125 41.914062 215.550781 42.886719 C 216.898438 43.785156 218.167969 44.90625 219.292969 46.179688 C 220.339844 47.375 221.3125 48.796875 222.136719 50.21875 C 222.882812 51.71875 223.484375 53.289062 223.859375 54.859375 C 224.230469 56.507812 224.308594 57.253906 224.457031 59.800781 C 224.90625 68.480469 222.960938 100.140625 223.332031 117.355469 C 223.632812 131.5 225.355469 145.421875 225.730469 155.824219 C 226.027344 162.933594 226.179688 166.527344 225.953125 173.710938 C 225.578125 184.863281 223.859375 204.398438 222.660156 216.148438 C 221.761719 224.679688 220.414062 229.695312 219.742188 237.929688 C 218.917969 248.632812 219.667969 263.523438 218.695312 274.828125 C 217.796875 284.332031 218.09375 294.511719 214.652344 301.246094 C 211.957031 306.636719 207.09375 310.003906 202.527344 313.371094 C 198.035156 316.664062 187.78125 321.679688 187.558594 321.304688 C 187.257812 320.855469 201.480469 310.601562 201.40625 310.601562 C 201.328125 310.527344 191.824219 321.753906 185.761719 321.976562 C 177.679688 322.203125 158.21875 301.84375 156.796875 303.265625 C 155.75 304.390625 168.472656 319.734375 168.097656 319.957031 C 167.726562 320.257812 152.53125 303.117188 152.90625 302.742188 C 153.207031 302.445312 166.304688 313.96875 166.152344 314.195312 C 166.003906 314.417969 155 308.804688 152.082031 304.238281 C 149.089844 299.449219 149.464844 291.890625 148.714844 285.828125 C 148.039062 280.066406 147.21875 274.300781 147.742188 268.613281 C 148.265625 262.925781 150.585938 257.6875 151.78125 251.625 C 153.207031 244.8125 153.503906 236.804688 155.523438 229.621094 C 157.472656 222.4375 164.207031 214.875 163.683594 208.515625 C 163.308594 203.125 157.246094 199.085938 155.300781 193.84375 C 153.429688 188.605469 151.109375 177.605469 152.230469 177.082031 C 153.503906 176.554688 163.085938 192.050781 163.085938 192.050781 C 163.085938 192.050781 154.179688 181.871094 151.632812 176.257812 C 149.164062 170.867188 148.714844 164.957031 147.59375 159.265625 C 146.46875 153.578125 145.421875 147.816406 144.824219 141.980469 C 144.222656 135.917969 144.148438 131.199219 143.925781 123.566406 C 143.625 110.695312 141.453125 85.246094 143.925781 71.851562 C 145.496094 62.867188 152.457031 56.132812 152.007812 50.070312 C 151.707031 45.503906 146.246094 41.835938 145.722656 38.46875 C 145.273438 36 146.09375 33.902344 146.769531 31.808594 C 147.515625 29.714844 148.566406 27.617188 149.910156 25.820312 C 151.257812 24.101562 152.980469 22.453125 154.851562 21.179688 C 156.648438 19.984375 158.820312 19.011719 160.914062 18.410156 C 163.085938 17.8125 165.40625 17.511719 167.648438 17.664062 C 169.820312 17.8125 172.140625 18.261719 174.234375 19.085938 C 176.257812 19.910156 178.277344 21.179688 180 22.601562 C 181.644531 24.023438 183.21875 25.820312 184.339844 27.691406 C 185.460938 29.636719 186.359375 31.808594 186.808594 33.980469 C 187.257812 36.148438 187.410156 38.46875 187.183594 40.714844 C 186.960938 42.886719 186.285156 45.128906 185.386719 47.152344 C 184.414062 49.171875 183.144531 51.117188 181.570312 52.765625 C 180.074219 54.335938 178.203125 55.757812 176.257812 56.804688 C 174.3125 57.855469 172.066406 58.601562 169.894531 58.976562 C 167.648438 59.351562 165.328125 59.351562 163.160156 58.976562 C 160.914062 58.601562 158.667969 57.855469 156.722656 56.804688 C 154.777344 55.757812 152.90625 54.335938 151.410156 52.765625 C 149.835938 51.117188 148.566406 49.171875 147.59375 47.152344 C 146.695312 45.128906 146.019531 42.886719 145.796875 40.714844 C 145.570312 38.46875 145.722656 36.148438 146.167969 33.980469 C 146.617188 31.808594 147.515625 29.636719 148.640625 27.691406 C 149.835938 25.820312 151.335938 24.023438 153.054688 22.601562 C 154.703125 21.105469 156.722656 19.910156 158.820312 19.085938 C 160.839844 18.261719 163.160156 17.8125 165.40625 17.664062 C 167.574219 17.511719 169.96875 17.8125 172.066406 18.410156 C 174.234375 19.011719 176.332031 19.984375 178.203125 21.253906 C 180 22.453125 181.71875 24.101562 183.066406 25.820312 C 184.414062 27.617188 185.539062 29.714844 186.210938 31.808594 C 186.960938 33.902344 187.109375 35.328125 187.332031 38.46875 C 187.707031 45.429688 185.761719 61.222656 185.460938 72.671875 C 185.164062 84.199219 186.660156 97.96875 185.460938 107.402344 C 184.566406 114.0625 181.273438 118.179688 181.121094 124.164062 C 180.898438 131.125 185.164062 139.734375 185.539062 146.769531 C 185.761719 152.90625 182.394531 158.59375 183.816406 164.058594 C 185.3125 169.96875 195.34375 180.746094 195.417969 180.746094 C 195.417969 180.671875 183.742188 162.636719 183.441406 162.785156 C 183.144531 163.007812 192.648438 176.554688 194.96875 184.265625 C 197.289062 192.125 197.136719 200.507812 197.136719 209.5625 C 197.214844 220.039062 195.714844 233.511719 194.21875 243.390625 C 193.097656 251.25 191.523438 257.613281 189.730469 264.273438 C 188.082031 270.484375 183.066406 276.398438 183.890625 282.234375 C 184.789062 288.523438 197.0625 299.75 196.316406 300.421875 C 195.492188 301.171875 180.449219 291.742188 177.15625 284.40625 C 173.261719 275.648438 177.378906 262.625 178.351562 249.605469 C 179.550781 232.765625 183.515625 205.746094 184.566406 191.898438 C 185.164062 184.191406 185.3125 179.699219 185.386719 173.710938 C 185.539062 168.023438 185.460938 163.683594 185.238281 156.871094 C 184.789062 146.46875 182.992188 131.800781 182.617188 117.355469 C 182.09375 99.992188 182.695312 68.480469 183.292969 59.800781 C 183.441406 57.253906 183.441406 56.507812 183.890625 54.859375 C 184.265625 53.289062 184.863281 51.71875 185.613281 50.21875 C 186.359375 48.796875 187.332031 47.375 188.457031 46.179688 C 189.503906 44.90625 190.777344 43.785156 192.199219 42.886719 C 193.546875 41.914062 195.042969 41.089844 196.539062 40.566406 C 198.113281 39.964844 199.757812 39.515625 201.40625 39.367188 C 203.050781 39.144531 204.699219 39.144531 206.34375 39.367188 C 207.992188 39.515625 209.636719 39.964844 211.132812 40.566406 C 212.707031 41.089844 214.203125 41.914062 215.550781 42.886719 C 216.898438 43.785156 218.167969 44.90625 219.292969 46.179688 C 220.339844 47.375 221.3125 48.796875 222.136719 50.21875 C 222.882812 51.71875 223.484375 53.289062 223.859375 54.859375 C 224.230469 56.433594 224.308594 57.554688 224.457031 59.800781 C 224.753906 64.589844 225.652344 75.816406 224.382812 82.628906 C 223.332031 88.539062 218.769531 92.957031 218.617188 98.644531 C 218.46875 105.003906 223.632812 112.191406 224.832031 119.078125 C 226.027344 125.8125 225.128906 132.625 225.953125 139.433594 C 226.851562 146.542969 229.097656 152.082031 229.996094 160.839844 C 231.34375 174.460938 231.492188 197.886719 230.894531 213.828125 C 230.367188 226.925781 227.074219 239.5 227.601562 249.527344 C 228.050781 257.011719 231.191406 262.550781 231.640625 268.765625 C 232.089844 274.601562 229.996094 279.839844 230.59375 285.828125 C 231.265625 292.640625 236.582031 303.042969 236.132812 307.457031 C 235.90625 309.554688 234.859375 310.601562 234.035156 311.949219 C 233.136719 313.371094 232.015625 314.644531 230.816406 315.765625 C 229.695312 316.964844 228.273438 317.9375 226.851562 318.757812 C 225.429688 319.582031 223.859375 320.257812 222.285156 320.707031 C 220.714844 321.15625 219.066406 321.453125 217.421875 321.453125 C 215.773438 321.527344 214.054688 321.378906 212.480469 321.078125 C 210.835938 320.707031 209.261719 320.179688 207.765625 319.507812 C 206.269531 318.757812 204.847656 317.863281 203.574219 316.8125 C 202.300781 315.765625 201.105469 314.566406 200.132812 313.222656 C 199.160156 311.949219 198.335938 310.453125 197.664062 308.953125 C 197.0625 307.457031 196.539062 305.8125 196.316406 304.164062 C 196.089844 302.519531 195.867188 301.246094 196.089844 299.226562 C 196.613281 295.558594 199.234375 290.320312 200.878906 284.257812 C 203.351562 274.902344 207.242188 258.136719 208.890625 248.40625 C 209.9375 241.746094 210.3125 238.078125 210.683594 231.417969 C 211.210938 221.988281 209.5625 208.8125 211.058594 196.988281 C 212.632812 184.039062 218.320312 170.121094 220.714844 157.097656 C 222.960938 144.824219 224.53125 130.753906 225.128906 120.871094 C 225.578125 114.210938 224.980469 110.019531 225.355469 103.882812 C 225.804688 96.625 226.777344 85.097656 227.898438 80.308594 C 228.421875 78.0625 228.945312 77.089844 229.695312 75.59375 C 230.519531 74.171875 231.492188 72.75 232.539062 71.550781 C 233.664062 70.277344 234.933594 69.15625 236.28125 68.257812 C 237.703125 67.285156 239.199219 66.535156 240.773438 65.9375 C 242.269531 65.339844 243.992188 64.964844 245.636719 64.738281 C 247.285156 64.589844 248.929688 64.589844 250.578125 64.738281 C 252.222656 64.964844 253.871094 65.414062 255.441406 66.011719 C 257.011719 66.609375 258.511719 67.359375 259.859375 68.332031 C 261.203125 69.304688 262.476562 70.429688 263.601562 71.625 C 264.648438 72.898438 265.621094 74.320312 266.367188 75.816406 C 267.117188 77.238281 267.714844 78.734375 268.164062 80.457031 C 268.6875 82.628906 269.136719 84.796875 269.214844 87.792969 C 269.289062 92.28125 268.238281 99.242188 267.191406 105.003906 C 266.21875 110.84375 263.375 116.679688 263.152344 122.667969 C 263 128.882812 266.367188 135.617188 266.445312 141.753906 C 266.519531 147.515625 263.972656 152.53125 264.125 158.445312 C 264.273438 165.105469 267.492188 172.664062 268.164062 179.773438 C 268.839844 186.886719 268.765625 194.519531 268.238281 201.253906 C 267.714844 207.316406 265.84375 212.554688 265.246094 218.394531 C 264.648438 224.382812 265.097656 230.742188 264.574219 236.730469 C 264.046875 242.492188 263.449219 247.058594 262.253906 253.644531 C 260.457031 263.226562 256.863281 278.71875 254.246094 288.371094 C 252.296875 295.558594 251.847656 301.171875 248.480469 306.785156 C 244.738281 313.070312 231.867188 323.847656 231.867188 323.847656 C 231.867188 323.847656 247.359375 307.308594 247.582031 307.609375 C 247.882812 307.832031 235.085938 323.773438 234.933594 323.625 C 234.785156 323.550781 245.785156 309.328125 245.1875 308.804688 C 244.515625 308.132812 225.730469 325.945312 225.652344 325.871094 C 225.652344 325.871094 239.199219 315.09375 238.601562 314.042969 C 237.703125 312.695312 220.191406 323.476562 208.214844 326.320312 C 192.648438 330.0625 165.253906 332.753906 152.082031 331.109375 C 144.746094 330.136719 140.480469 328.339844 135.242188 325.195312 C 129.480469 321.679688 119.375 310.527344 119.375 310.527344 C 119.375 310.527344 132.921875 322.425781 132.699219 322.726562 C 132.398438 323.027344 115.035156 310.226562 115.035156 310.078125 C 115.109375 310.003906 130.378906 321.078125 130.828125 320.554688 C 131.351562 319.882812 113.386719 301.621094 112.789062 302.070312 C 112.191406 302.519531 123.34375 318.609375 123.34375 318.609375 C 123.417969 318.535156 111.292969 300.648438 111.890625 300.199219 C 112.488281 299.75 126.261719 315.015625 126.1875 315.09375 C 126.1875 315.09375 114.0625 305.0625 110.09375 299.226562 C 106.503906 293.835938 106.578125 288.222656 102.984375 281.636719 C 97.671875 271.832031 82.925781 255.140625 79.035156 247.207031 C 77.164062 243.542969 76.414062 241.445312 76.191406 238.453125 C 75.964844 235.457031 76.9375 231.714844 77.761719 229.394531 C 78.4375 227.675781 78.960938 226.703125 80.15625 225.355469 C 81.804688 223.484375 85.171875 220.863281 87.34375 219.667969 C 88.914062 218.84375 90.035156 218.46875 91.757812 218.246094 C 94.304688 217.945312 98.570312 218.167969 100.964844 218.695312 C 102.6875 219.140625 103.882812 219.816406 105.230469 220.566406 C 106.578125 221.386719 109.046875 223.183594 108.898438 223.410156 C 108.746094 223.707031 103.957031 221.613281 103.808594 221.988281 C 103.507812 222.585938 119 229.996094 118.402344 232.089844 C 117.65625 234.785156 90.5625 230.144531 88.988281 233.664062 C 87.867188 236.429688 101.339844 246.460938 100.589844 247.433594 C 99.691406 248.480469 86.59375 240.621094 80.605469 237.03125 C 75.292969 233.886719 70.800781 230.894531 66.3125 227.226562 C 61.746094 223.484375 56.507812 218.46875 53.511719 214.652344 C 51.34375 211.957031 49.769531 209.414062 48.871094 207.167969 C 48.273438 205.597656 48.050781 204.546875 48.050781 202.902344 C 48.050781 200.507812 48.425781 196.839844 49.546875 194.292969 C 50.742188 191.675781 53.140625 188.980469 54.933594 187.332031 C 56.132812 186.210938 57.105469 185.6875 58.675781 185.015625 C 60.847656 184.191406 64.367188 183.21875 67.210938 183.367188 C 70.054688 183.515625 73.496094 184.863281 75.59375 185.910156 C 77.089844 186.734375 77.988281 187.410156 79.035156 188.605469 C 80.457031 190.179688 83.527344 193.023438 82.925781 195.042969 C 81.953125 198.335938 71.476562 204.398438 65.339844 203.949219 C 57.929688 203.425781 46.554688 192.347656 41.988281 187.707031 C 39.515625 185.238281 38.320312 183.441406 37.421875 180.972656 C 36.523438 178.425781 36.222656 175.433594 36.597656 172.8125 C 36.972656 170.195312 38.46875 167.125 39.59375 165.253906 C 40.414062 163.90625 41.164062 163.160156 42.363281 162.261719 C 44.15625 160.914062 47.078125 159.117188 49.695312 158.519531 C 52.242188 157.996094 55.609375 158.21875 57.855469 158.667969 C 59.351562 158.96875 61.671875 160.164062 61.671875 160.164062 " clip-rule="nonzero"/></clipPath><clipPath id="86f1e12240"><path d="M 0.164062 0.484375 L 233.289062 0.484375 L 233.289062 314.90625 L 0.164062 314.90625 Z M 0.164062 0.484375 " clip-rule="nonzero"/></clipPath><clipPath id="4196b8eedc"><path d="M 25.671875 143.164062 C 35.476562 148.929688 42.585938 153.867188 46.925781 158.957031 C 51.34375 164.121094 56.28125 170.035156 57.480469 177.144531 C 58.828125 185.75 56.65625 203.414062 51.117188 207.53125 C 46.550781 210.898438 36.222656 208.355469 30.460938 205.511719 C 24.699219 202.589844 18.039062 189.644531 16.613281 190.316406 C 15.71875 190.691406 18.039062 197.425781 17.511719 197.652344 C 17.0625 197.800781 15.566406 195.707031 14.742188 194.210938 C 13.621094 192.113281 12.273438 188.671875 12.050781 185.902344 C 11.898438 183.058594 12.722656 179.464844 13.546875 177.292969 C 14.144531 175.722656 14.742188 174.75 15.792969 173.476562 C 17.363281 171.679688 20.058594 169.210938 22.675781 168.015625 C 25.222656 166.890625 28.441406 166.21875 31.210938 166.367188 C 34.054688 166.515625 36.523438 167.265625 39.59375 168.910156 C 44.457031 171.605469 50.742188 179.464844 56.433594 183.582031 C 61.519531 187.171875 67.285156 188.671875 71.851562 192.488281 C 76.488281 196.453125 82.027344 201.617188 83.898438 207.15625 C 85.769531 212.472656 86.96875 220.628906 83.601562 224.96875 C 79.035156 230.882812 58.152344 233.128906 51.792969 233.949219 C 49.097656 234.324219 47.527344 234.773438 45.878906 233.875 C 43.859375 232.679688 41.988281 228.335938 41.089844 226.019531 C 40.414062 224.371094 40.191406 223.25 40.191406 221.453125 C 40.191406 218.90625 40.9375 214.714844 41.761719 212.394531 C 42.4375 210.675781 42.960938 209.703125 44.15625 208.355469 C 45.804688 206.484375 48.648438 203.863281 51.34375 202.667969 C 54.113281 201.394531 57.929688 200.945312 60.398438 200.945312 C 62.195312 200.871094 63.316406 201.09375 64.964844 201.695312 C 67.359375 202.589844 70.277344 203.789062 72.898438 206.410156 C 77.3125 210.75 83.078125 221.226562 86.292969 228.039062 C 88.914062 233.578125 92.804688 243.304688 91.757812 243.980469 C 90.636719 244.652344 79.257812 230.808594 79.183594 230.882812 C 79.109375 230.882812 86.742188 239.789062 91.160156 243.980469 C 95.726562 248.394531 102.609375 251.316406 106.425781 256.480469 C 110.167969 261.71875 115.109375 274.140625 113.6875 275.113281 C 112.414062 276.089844 99.542969 264.335938 99.691406 264.1875 C 99.765625 264.039062 114.359375 273.84375 114.136719 274.140625 C 113.988281 274.441406 98.867188 265.835938 98.71875 266.058594 C 98.496094 266.433594 115.859375 277.734375 116.007812 277.660156 C 116.082031 277.511719 99.917969 265.535156 99.691406 265.757812 C 99.542969 265.984375 108.222656 274.292969 113.464844 277.960938 C 119.375 282.152344 133.070312 289.859375 133.597656 289.035156 C 134.195312 288.289062 117.128906 276.984375 118.027344 274.066406 C 118.925781 271.296875 128.507812 271.898438 136.214844 271 C 149.386719 269.578125 188.230469 263.515625 190.179688 268.078125 C 191.523438 271.222656 172.589844 285.742188 171.914062 285.21875 C 171.390625 284.695312 183.589844 268.976562 183.441406 268.828125 C 183.21875 268.679688 171.09375 283.347656 171.390625 283.574219 C 171.617188 283.871094 188.308594 266.65625 188.308594 266.65625 C 188.308594 266.65625 173.710938 283.421875 172.289062 282.523438 C 170.941406 281.703125 177.527344 269.277344 179.324219 262.765625 C 180.972656 256.851562 181.195312 251.164062 182.992188 245.253906 C 184.863281 238.816406 190.027344 232.15625 190.476562 225.792969 C 190.925781 219.804688 186.511719 213.816406 186.511719 208.054688 C 186.511719 202.441406 189.28125 197.128906 190.179688 191.441406 C 191.074219 185.453125 191.824219 180.136719 191.898438 173.027344 C 191.972656 163.296875 189.804688 150.050781 189.128906 138.523438 C 188.53125 126.851562 186.660156 113.753906 188.230469 103.421875 C 189.503906 94.890625 194.742188 88.304688 195.941406 80.671875 C 197.136719 73.5625 197.136719 59.640625 195.792969 59.339844 C 194.894531 59.117188 191.75 68.398438 191.300781 68.246094 C 191 68.097656 191.523438 64.878906 191.898438 63.308594 C 192.347656 61.660156 192.945312 60.089844 193.695312 58.59375 C 194.519531 57.171875 195.492188 55.75 196.539062 54.476562 C 197.664062 53.277344 198.933594 52.15625 200.355469 51.183594 C 201.703125 50.285156 203.199219 49.460938 204.773438 48.9375 C 206.269531 48.339844 207.992188 47.964844 209.636719 47.738281 C 211.285156 47.589844 212.929688 47.589844 214.578125 47.738281 C 216.222656 47.964844 217.871094 48.414062 219.441406 49.011719 C 221.011719 49.609375 222.511719 50.359375 223.859375 51.332031 C 225.203125 52.304688 226.476562 53.429688 227.601562 54.699219 C 228.648438 55.898438 229.621094 57.320312 230.367188 58.816406 C 231.191406 60.238281 231.789062 61.886719 232.164062 63.457031 C 232.539062 65.105469 232.6875 66.226562 232.6875 68.398438 C 232.765625 73.113281 230.667969 83.214844 230.367188 89.953125 C 229.996094 95.9375 231.265625 101.101562 230.445312 106.867188 C 229.472656 113.078125 225.203125 119.589844 224.382812 126.027344 C 223.558594 132.386719 225.953125 138 225.203125 145.335938 C 224.15625 155.589844 218.09375 169.136719 216.296875 181.558594 C 214.503906 194.507812 215.550781 209.925781 214.652344 221.601562 C 213.976562 230.734375 213.679688 236.644531 211.957031 245.851562 C 209.5625 258.574219 202.75 283.421875 200.132812 290.457031 C 199.308594 292.777344 198.859375 293.601562 197.960938 294.949219 C 197.136719 296.371094 196.015625 297.644531 194.816406 298.765625 C 193.695312 299.964844 192.273438 300.9375 190.851562 301.757812 C 189.429688 302.582031 187.859375 303.257812 186.285156 303.707031 C 184.714844 304.15625 183.066406 304.453125 181.421875 304.453125 C 179.773438 304.527344 178.054688 304.378906 176.480469 304.078125 C 174.835938 303.707031 173.261719 303.179688 171.765625 302.507812 C 170.269531 301.757812 168.847656 300.863281 167.574219 299.8125 C 166.300781 298.765625 165.105469 297.566406 164.132812 296.222656 C 163.160156 294.949219 162.335938 293.453125 161.664062 291.953125 C 161.0625 290.457031 160.539062 288.8125 160.316406 287.164062 C 160.089844 285.519531 160.015625 283.871094 160.089844 282.226562 C 160.242188 280.578125 160.6875 277.359375 161.136719 277.359375 C 162.113281 277.359375 166.226562 297.792969 165.628906 298.015625 C 165.03125 298.167969 159.34375 284.996094 157.472656 278.632812 C 155.824219 272.796875 155.375 267.183594 154.550781 261.34375 C 153.804688 255.355469 153.355469 248.996094 152.90625 243.007812 C 152.457031 237.09375 151.859375 232.453125 151.78125 225.644531 C 151.707031 215.988281 153.355469 200.269531 153.578125 190.46875 C 153.804688 183.429688 153.804688 179.914062 153.578125 172.28125 C 153.28125 159.03125 151.933594 134.632812 150.886719 118.46875 C 149.910156 105.21875 148.339844 94.667969 147.742188 82.390625 C 147.066406 69.519531 146.917969 49.6875 147.292969 42.800781 C 147.367188 40.332031 147.441406 39.433594 147.890625 37.859375 C 148.265625 36.289062 148.863281 34.71875 149.613281 33.21875 C 150.359375 31.796875 151.332031 30.375 152.457031 29.179688 C 153.503906 27.90625 154.777344 26.785156 156.199219 25.886719 C 157.546875 24.914062 159.042969 24.089844 160.539062 23.566406 C 162.113281 22.964844 163.757812 22.515625 165.40625 22.367188 C 167.050781 22.144531 168.699219 22.144531 170.34375 22.367188 C 171.992188 22.515625 173.636719 22.964844 175.210938 23.566406 C 176.707031 24.089844 178.203125 24.914062 179.550781 25.886719 C 180.898438 26.785156 182.167969 27.90625 183.292969 29.179688 C 184.339844 30.375 185.3125 31.796875 186.136719 33.21875 C 186.882812 34.71875 187.484375 36.289062 187.859375 37.859375 C 188.230469 39.507812 188.308594 40.253906 188.457031 42.800781 C 188.90625 51.480469 186.960938 83.140625 187.332031 100.355469 C 187.632812 114.5 189.355469 128.421875 189.730469 138.824219 C 190.027344 145.933594 190.179688 149.527344 189.953125 156.710938 C 189.578125 167.863281 187.859375 187.398438 186.660156 199.148438 C 185.761719 207.679688 184.414062 212.695312 183.742188 220.929688 C 182.917969 231.632812 183.667969 246.523438 182.695312 257.828125 C 181.796875 267.332031 182.09375 277.511719 178.652344 284.246094 C 175.957031 289.636719 171.09375 293.003906 166.527344 296.371094 C 162.035156 299.664062 151.78125 304.679688 151.558594 304.304688 C 151.257812 303.855469 165.480469 293.601562 165.40625 293.601562 C 165.328125 293.527344 155.824219 304.753906 149.761719 304.976562 C 141.679688 305.203125 122.21875 284.84375 120.796875 286.265625 C 119.75 287.390625 132.472656 302.734375 132.097656 302.957031 C 131.726562 303.257812 116.53125 286.117188 116.90625 285.742188 C 117.207031 285.445312 130.304688 296.96875 130.152344 297.195312 C 130.003906 297.417969 119 291.804688 116.082031 287.238281 C 113.089844 282.449219 113.464844 274.890625 112.714844 268.828125 C 112.039062 263.066406 111.21875 257.300781 111.742188 251.613281 C 112.265625 245.925781 114.585938 240.6875 115.78125 234.625 C 117.207031 227.8125 117.503906 219.804688 119.523438 212.621094 C 121.472656 205.4375 128.207031 197.875 127.683594 191.515625 C 127.308594 186.125 121.246094 182.085938 119.300781 176.84375 C 117.429688 171.605469 115.109375 160.605469 116.230469 160.082031 C 117.503906 159.554688 127.085938 175.050781 127.085938 175.050781 C 127.085938 175.050781 118.179688 164.871094 115.632812 159.257812 C 113.164062 153.867188 112.714844 147.957031 111.59375 142.265625 C 110.46875 136.578125 109.421875 130.816406 108.824219 124.980469 C 108.222656 118.917969 108.148438 114.199219 107.925781 106.566406 C 107.625 93.695312 105.453125 68.246094 107.925781 54.851562 C 109.496094 45.867188 116.457031 39.132812 116.007812 33.070312 C 115.707031 28.503906 110.246094 24.835938 109.722656 21.46875 C 109.273438 19 110.09375 16.902344 110.769531 14.808594 C 111.515625 12.714844 112.566406 10.617188 113.910156 8.820312 C 115.257812 7.101562 116.980469 5.453125 118.851562 4.179688 C 120.648438 2.984375 122.820312 2.011719 124.914062 1.410156 C 127.085938 0.8125 129.40625 0.511719 131.648438 0.664062 C 133.820312 0.8125 136.140625 1.261719 138.234375 2.085938 C 140.257812 2.910156 142.277344 4.179688 144 5.601562 C 145.644531 7.023438 147.21875 8.820312 148.339844 10.691406 C 149.460938 12.636719 150.359375 14.808594 150.808594 16.980469 C 151.257812 19.148438 151.410156 21.46875 151.183594 23.714844 C 150.960938 25.886719 150.285156 28.128906 149.386719 30.152344 C 148.414062 32.171875 147.144531 34.117188 145.570312 35.765625 C 144.074219 37.335938 142.203125 38.757812 140.257812 39.804688 C 138.3125 40.855469 136.066406 41.601562 133.894531 41.976562 C 131.648438 42.351562 129.328125 42.351562 127.160156 41.976562 C 124.914062 41.601562 122.667969 40.855469 120.722656 39.804688 C 118.777344 38.757812 116.90625 37.335938 115.410156 35.765625 C 113.835938 34.117188 112.566406 32.171875 111.59375 30.152344 C 110.695312 28.128906 110.019531 25.886719 109.796875 23.714844 C 109.570312 21.46875 109.722656 19.148438 110.167969 16.980469 C 110.617188 14.808594 111.515625 12.636719 112.640625 10.691406 C 113.835938 8.820312 115.335938 7.023438 117.054688 5.601562 C 118.703125 4.105469 120.722656 2.910156 122.820312 2.085938 C 124.839844 1.261719 127.160156 0.8125 129.40625 0.664062 C 131.574219 0.511719 133.96875 0.8125 136.066406 1.410156 C 138.234375 2.011719 140.332031 2.984375 142.203125 4.253906 C 144 5.453125 145.71875 7.101562 147.066406 8.820312 C 148.414062 10.617188 149.539062 12.714844 150.210938 14.808594 C 150.960938 16.902344 151.109375 18.328125 151.332031 21.46875 C 151.707031 28.429688 149.761719 44.222656 149.460938 55.671875 C 149.164062 67.199219 150.660156 80.96875 149.460938 90.402344 C 148.566406 97.0625 145.273438 101.179688 145.121094 107.164062 C 144.898438 114.125 149.164062 122.734375 149.539062 129.769531 C 149.761719 135.90625 146.394531 141.59375 147.816406 147.058594 C 149.3125 152.96875 159.34375 163.746094 159.417969 163.746094 C 159.417969 163.671875 147.742188 145.636719 147.441406 145.785156 C 147.144531 146.007812 156.648438 159.554688 158.96875 167.265625 C 161.289062 175.125 161.136719 183.507812 161.136719 192.5625 C 161.214844 203.039062 159.714844 216.511719 158.21875 226.390625 C 157.097656 234.25 155.523438 240.613281 153.730469 247.273438 C 152.082031 253.484375 147.066406 259.398438 147.890625 265.234375 C 148.789062 271.523438 161.0625 282.75 160.316406 283.421875 C 159.492188 284.171875 144.449219 274.742188 141.15625 267.40625 C 137.261719 258.648438 141.378906 245.625 142.351562 232.605469 C 143.550781 215.765625 147.515625 188.746094 148.566406 174.898438 C 149.164062 167.191406 149.3125 162.699219 149.386719 156.710938 C 149.539062 151.023438 149.460938 146.683594 149.238281 139.871094 C 148.789062 129.46875 146.992188 114.800781 146.617188 100.355469 C 146.09375 82.992188 146.695312 51.480469 147.292969 42.800781 C 147.441406 40.253906 147.441406 39.507812 147.890625 37.859375 C 148.265625 36.289062 148.863281 34.71875 149.613281 33.21875 C 150.359375 31.796875 151.332031 30.375 152.457031 29.179688 C 153.503906 27.90625 154.777344 26.785156 156.199219 25.886719 C 157.546875 24.914062 159.042969 24.089844 160.539062 23.566406 C 162.113281 22.964844 163.757812 22.515625 165.40625 22.367188 C 167.050781 22.144531 168.699219 22.144531 170.34375 22.367188 C 171.992188 22.515625 173.636719 22.964844 175.132812 23.566406 C 176.707031 24.089844 178.203125 24.914062 179.550781 25.886719 C 180.898438 26.785156 182.167969 27.90625 183.292969 29.179688 C 184.339844 30.375 185.3125 31.796875 186.136719 33.21875 C 186.882812 34.71875 187.484375 36.289062 187.859375 37.859375 C 188.230469 39.433594 188.308594 40.554688 188.457031 42.800781 C 188.753906 47.589844 189.652344 58.816406 188.382812 65.628906 C 187.332031 71.539062 182.769531 75.957031 182.617188 81.644531 C 182.46875 88.003906 187.632812 95.191406 188.832031 102.078125 C 190.027344 108.8125 189.128906 115.625 189.953125 122.433594 C 190.851562 129.542969 193.097656 135.082031 193.996094 143.839844 C 195.34375 157.460938 195.492188 180.886719 194.894531 196.828125 C 194.367188 209.925781 191.074219 222.5 191.601562 232.527344 C 192.050781 240.011719 195.191406 245.550781 195.640625 251.765625 C 196.089844 257.601562 193.996094 262.839844 194.59375 268.828125 C 195.265625 275.640625 200.582031 286.042969 200.132812 290.457031 C 199.90625 292.554688 198.859375 293.601562 198.035156 294.949219 C 197.136719 296.371094 196.015625 297.644531 194.816406 298.765625 C 193.695312 299.964844 192.273438 300.9375 190.851562 301.757812 C 189.429688 302.582031 187.859375 303.257812 186.285156 303.707031 C 184.714844 304.15625 183.066406 304.453125 181.421875 304.453125 C 179.773438 304.527344 178.054688 304.378906 176.480469 304.078125 C 174.835938 303.707031 173.261719 303.179688 171.765625 302.507812 C 170.269531 301.757812 168.847656 300.863281 167.574219 299.8125 C 166.300781 298.765625 165.105469 297.566406 164.132812 296.222656 C 163.160156 294.949219 162.335938 293.453125 161.664062 291.953125 C 161.0625 290.457031 160.539062 288.8125 160.316406 287.164062 C 160.089844 285.519531 159.867188 284.246094 160.089844 282.226562 C 160.613281 278.558594 163.234375 273.320312 164.878906 267.257812 C 167.351562 257.902344 171.242188 241.136719 172.890625 231.40625 C 173.9375 224.746094 174.3125 221.078125 174.683594 214.417969 C 175.210938 204.988281 173.5625 191.8125 175.058594 179.988281 C 176.632812 167.039062 182.320312 153.121094 184.714844 140.097656 C 186.960938 127.824219 188.53125 113.753906 189.128906 103.871094 C 189.578125 97.210938 188.980469 93.019531 189.355469 86.882812 C 189.804688 79.625 190.777344 68.097656 191.898438 63.308594 C 192.421875 61.0625 192.945312 60.089844 193.695312 58.59375 C 194.519531 57.171875 195.492188 55.75 196.539062 54.550781 C 197.664062 53.277344 198.933594 52.15625 200.28125 51.257812 C 201.703125 50.285156 203.199219 49.535156 204.773438 48.9375 C 206.269531 48.339844 207.992188 47.964844 209.636719 47.738281 C 211.285156 47.589844 212.929688 47.589844 214.578125 47.738281 C 216.222656 47.964844 217.871094 48.414062 219.441406 49.011719 C 221.011719 49.609375 222.511719 50.359375 223.859375 51.332031 C 225.203125 52.304688 226.476562 53.429688 227.601562 54.625 C 228.648438 55.898438 229.621094 57.320312 230.367188 58.816406 C 231.117188 60.238281 231.714844 61.734375 232.164062 63.457031 C 232.6875 65.628906 233.136719 67.796875 233.214844 70.792969 C 233.289062 75.28125 232.238281 82.242188 231.191406 88.003906 C 230.21875 93.84375 227.375 99.679688 227.152344 105.667969 C 227 111.882812 230.367188 118.617188 230.445312 124.753906 C 230.519531 130.515625 227.972656 135.53125 228.125 141.445312 C 228.273438 148.105469 231.492188 155.664062 232.164062 162.773438 C 232.839844 169.886719 232.765625 177.519531 232.238281 184.253906 C 231.714844 190.316406 229.84375 195.554688 229.246094 201.394531 C 228.648438 207.382812 229.097656 213.742188 228.574219 219.730469 C 228.046875 225.492188 227.449219 230.058594 226.253906 236.644531 C 224.457031 246.226562 220.863281 261.71875 218.246094 271.371094 C 216.296875 278.558594 215.847656 284.171875 212.480469 289.785156 C 208.738281 296.070312 195.867188 306.847656 195.867188 306.847656 C 195.867188 306.847656 211.359375 290.308594 211.582031 290.609375 C 211.882812 290.832031 199.085938 306.773438 198.933594 306.625 C 198.785156 306.550781 209.785156 292.328125 209.1875 291.804688 C 208.515625 291.132812 189.730469 308.945312 189.652344 308.871094 C 189.652344 308.871094 203.199219 298.09375 202.601562 297.042969 C 201.703125 295.695312 184.191406 306.476562 172.214844 309.320312 C 156.648438 313.0625 129.253906 315.753906 116.082031 314.109375 C 108.746094 313.136719 104.480469 311.339844 99.242188 308.195312 C 93.480469 304.679688 83.375 293.527344 83.375 293.527344 C 83.375 293.527344 96.921875 305.425781 96.699219 305.726562 C 96.398438 306.027344 79.035156 293.226562 79.035156 293.078125 C 79.109375 293.003906 94.378906 304.078125 94.828125 303.554688 C 95.351562 302.882812 77.386719 284.621094 76.789062 285.070312 C 76.191406 285.519531 87.34375 301.609375 87.34375 301.609375 C 87.417969 301.535156 75.292969 283.648438 75.890625 283.199219 C 76.488281 282.75 90.261719 298.015625 90.1875 298.09375 C 90.1875 298.09375 78.0625 288.0625 74.09375 282.226562 C 70.503906 276.835938 70.578125 271.222656 66.984375 264.636719 C 61.671875 254.832031 46.925781 238.140625 43.035156 230.207031 C 41.164062 226.542969 40.414062 224.445312 40.191406 221.453125 C 39.964844 218.457031 40.9375 214.714844 41.761719 212.394531 C 42.4375 210.675781 42.960938 209.703125 44.15625 208.355469 C 45.804688 206.484375 49.171875 203.863281 51.34375 202.667969 C 52.914062 201.84375 54.035156 201.46875 55.757812 201.246094 C 58.304688 200.945312 62.570312 201.167969 64.964844 201.695312 C 66.6875 202.140625 67.882812 202.816406 69.230469 203.566406 C 70.578125 204.386719 73.046875 206.183594 72.898438 206.410156 C 72.746094 206.707031 67.957031 204.613281 67.808594 204.988281 C 67.507812 205.585938 83 212.996094 82.402344 215.089844 C 81.65625 217.785156 54.5625 213.144531 52.988281 216.664062 C 51.867188 219.429688 65.339844 229.460938 64.589844 230.433594 C 63.691406 231.480469 50.59375 223.621094 44.605469 220.03125 C 39.292969 216.886719 34.800781 213.894531 30.3125 210.226562 C 25.746094 206.484375 20.507812 201.46875 17.511719 197.652344 C 15.34375 194.957031 13.769531 192.414062 12.871094 190.167969 C 12.273438 188.597656 12.050781 187.546875 12.050781 185.902344 C 12.050781 183.507812 12.425781 179.839844 13.546875 177.292969 C 14.742188 174.675781 17.140625 171.980469 18.933594 170.332031 C 20.132812 169.210938 21.105469 168.6875 22.675781 168.015625 C 24.847656 167.191406 28.367188 166.21875 31.210938 166.367188 C 34.054688 166.515625 37.496094 167.863281 39.59375 168.910156 C 41.089844 169.734375 41.988281 170.410156 43.035156 171.605469 C 44.457031 173.179688 47.527344 176.023438 46.925781 178.042969 C 45.953125 181.335938 35.476562 187.398438 29.339844 186.949219 C 21.929688 186.425781 10.554688 175.347656 5.988281 170.707031 C 3.515625 168.238281 2.320312 166.441406 1.421875 163.972656 C 0.523438 161.425781 0.222656 158.433594 0.597656 155.8125 C 0.972656 153.195312 2.46875 150.125 3.59375 148.253906 C 4.414062 146.90625 5.164062 146.160156 6.363281 145.261719 C 8.15625 143.914062 11.078125 142.117188 13.695312 141.519531 C 16.242188 140.996094 19.609375 141.21875 21.855469 141.667969 C 23.351562 141.96875 25.671875 143.164062 25.671875 143.164062 " clip-rule="nonzero"/></clipPath><clipPath id="01a22b61a2"><rect x="0" width="234" y="0" height="315"/></clipPath><clipPath id="593769d072"><path d="M 103.25 48.550781 L 171.351562 48.550781 L 171.351562 304.214844 L 103.25 304.214844 Z M 103.25 48.550781 " clip-rule="nonzero"/></clipPath><clipPath id="cec1275cda"><path d="M 103.359375 87.117188 C 104.855469 68.109375 104.78125 67.136719 104.855469 65.789062 C 104.929688 64.441406 105.003906 63.019531 105.378906 61.746094 C 105.679688 60.398438 106.203125 59.125 106.800781 57.929688 C 107.476562 56.730469 108.222656 55.535156 109.121094 54.5625 C 110.019531 53.511719 111.066406 52.613281 112.191406 51.792969 C 113.3125 51.042969 114.585938 50.371094 115.785156 49.921875 C 117.054688 49.398438 118.476562 49.097656 119.824219 48.949219 C 121.171875 48.796875 122.519531 48.796875 123.867188 48.949219 C 125.214844 49.097656 126.5625 49.398438 127.832031 49.921875 C 129.105469 50.371094 130.378906 51.042969 131.5 51.792969 C 132.625 52.613281 133.671875 53.511719 134.570312 54.5625 C 135.46875 55.535156 136.214844 56.730469 136.890625 57.929688 C 137.488281 59.125 138.011719 60.398438 138.3125 61.746094 C 138.609375 63.019531 138.835938 65.789062 138.835938 65.789062 C 138.835938 65.789062 139.058594 67.957031 138.910156 69.980469 C 138.535156 74.917969 133.894531 88.316406 134.496094 95.949219 C 135.019531 102.160156 138.910156 106.800781 140.03125 112.414062 C 141.15625 118.027344 141.082031 123.492188 141.304688 129.40625 C 141.53125 135.917969 141.082031 143.925781 141.230469 149.761719 C 141.304688 154.328125 140.929688 161.214844 141.679688 161.738281 C 141.828125 161.886719 142.054688 161.664062 142.351562 161.585938 C 142.800781 161.363281 143.773438 160.839844 144.375 160.691406 C 144.824219 160.613281 145.121094 160.691406 145.496094 160.613281 C 145.871094 160.539062 146.167969 160.316406 146.542969 160.316406 C 147.144531 160.242188 148.039062 160.390625 148.789062 160.390625 C 149.539062 160.390625 150.359375 160.164062 151.035156 160.242188 C 151.410156 160.242188 151.707031 160.464844 152.082031 160.464844 C 152.457031 160.539062 152.757812 160.464844 153.207031 160.539062 C 153.804688 160.613281 154.550781 161.0625 155.300781 161.289062 C 155.972656 161.511719 157.097656 161.585938 157.394531 161.886719 C 157.546875 161.960938 157.546875 162.113281 157.695312 162.1875 C 157.996094 162.410156 158.742188 162.484375 159.417969 162.859375 C 160.691406 163.609375 163.085938 165.40625 164.507812 167.050781 C 166.003906 168.699219 167.199219 170.644531 168.097656 172.664062 C 168.921875 174.683594 169.445312 176.929688 169.597656 179.101562 C 169.746094 181.273438 169.296875 184.640625 168.996094 185.6875 C 168.921875 186.0625 168.773438 186.0625 168.699219 186.4375 C 168.621094 187.707031 170.941406 191.523438 171.167969 194.894531 C 171.542969 199.609375 169.296875 206.417969 168.699219 212.183594 C 168.097656 218.019531 167.875 223.933594 167.726562 229.769531 C 167.5 235.535156 167.800781 241.296875 167.648438 246.984375 C 167.5 252.671875 167.050781 258.210938 166.675781 263.898438 C 166.226562 269.738281 166.675781 275.800781 165.105469 281.488281 C 163.535156 287.324219 161.738281 294.808594 157.023438 298.476562 C 151.484375 302.667969 138.835938 305.4375 132.398438 303.265625 C 126.636719 301.320312 122.445312 293.761719 119.226562 288.449219 C 116.230469 283.507812 115.035156 278.121094 113.164062 272.507812 C 111.066406 266.21875 108.671875 258.882812 107.476562 252.296875 C 106.351562 246.3125 106.054688 240.472656 105.753906 234.636719 C 105.53125 228.945312 105.53125 223.558594 105.753906 217.796875 C 106.054688 211.882812 107.550781 205.671875 107.324219 199.683594 C 107.175781 193.695312 105.304688 187.859375 104.707031 181.945312 C 104.109375 175.882812 103.808594 169.671875 103.660156 163.683594 C 103.582031 157.84375 103.957031 152.15625 104.03125 146.394531 C 104.109375 140.707031 104.03125 135.167969 104.183594 129.40625 C 104.332031 123.492188 105.003906 117.730469 104.929688 111.21875 C 104.855469 103.808594 103.359375 87.117188 103.359375 87.117188 " clip-rule="nonzero"/></clipPath><clipPath id="8d8093dfff"><path d="M 0.25 0.617188 L 68.351562 0.617188 L 68.351562 256.214844 L 0.25 256.214844 Z M 0.25 0.617188 " clip-rule="nonzero"/></clipPath><clipPath id="44eba420c2"><path d="M 0.359375 39.117188 C 1.855469 20.109375 1.78125 19.136719 1.855469 17.789062 C 1.929688 16.441406 2.003906 15.019531 2.378906 13.746094 C 2.679688 12.398438 3.203125 11.125 3.800781 9.929688 C 4.476562 8.730469 5.222656 7.535156 6.121094 6.5625 C 7.019531 5.511719 8.066406 4.613281 9.191406 3.792969 C 10.3125 3.042969 11.585938 2.371094 12.785156 1.921875 C 14.054688 1.398438 15.476562 1.097656 16.824219 0.949219 C 18.171875 0.796875 19.519531 0.796875 20.867188 0.949219 C 22.214844 1.097656 23.5625 1.398438 24.832031 1.921875 C 26.105469 2.371094 27.378906 3.042969 28.5 3.792969 C 29.625 4.613281 30.671875 5.511719 31.570312 6.5625 C 32.46875 7.535156 33.214844 8.730469 33.890625 9.929688 C 34.488281 11.125 35.011719 12.398438 35.3125 13.746094 C 35.609375 15.019531 35.835938 17.789062 35.835938 17.789062 C 35.835938 17.789062 36.058594 19.957031 35.910156 21.980469 C 35.535156 26.917969 30.894531 40.316406 31.496094 47.949219 C 32.019531 54.160156 35.910156 58.800781 37.03125 64.414062 C 38.15625 70.027344 38.082031 75.492188 38.304688 81.40625 C 38.53125 87.917969 38.082031 95.925781 38.230469 101.761719 C 38.304688 106.328125 37.929688 113.214844 38.679688 113.738281 C 38.828125 113.886719 39.054688 113.664062 39.351562 113.585938 C 39.800781 113.363281 40.773438 112.839844 41.375 112.691406 C 41.824219 112.613281 42.121094 112.691406 42.496094 112.613281 C 42.871094 112.539062 43.167969 112.316406 43.542969 112.316406 C 44.144531 112.242188 45.039062 112.390625 45.789062 112.390625 C 46.539062 112.390625 47.359375 112.164062 48.035156 112.242188 C 48.410156 112.242188 48.707031 112.464844 49.082031 112.464844 C 49.457031 112.539062 49.757812 112.464844 50.207031 112.539062 C 50.804688 112.613281 51.550781 113.0625 52.300781 113.289062 C 52.972656 113.511719 54.097656 113.585938 54.394531 113.886719 C 54.546875 113.960938 54.546875 114.113281 54.695312 114.1875 C 54.996094 114.410156 55.742188 114.484375 56.417969 114.859375 C 57.691406 115.609375 60.085938 117.40625 61.507812 119.050781 C 63.003906 120.699219 64.199219 122.644531 65.097656 124.664062 C 65.921875 126.683594 66.445312 128.929688 66.597656 131.101562 C 66.746094 133.273438 66.296875 136.640625 65.996094 137.6875 C 65.921875 138.0625 65.773438 138.0625 65.699219 138.4375 C 65.621094 139.707031 67.941406 143.523438 68.167969 146.894531 C 68.542969 151.609375 66.296875 158.417969 65.699219 164.183594 C 65.097656 170.019531 64.875 175.933594 64.726562 181.769531 C 64.5 187.535156 64.800781 193.296875 64.648438 198.984375 C 64.5 204.671875 64.050781 210.210938 63.675781 215.898438 C 63.226562 221.738281 63.675781 227.800781 62.105469 233.488281 C 60.535156 239.324219 58.738281 246.808594 54.023438 250.476562 C 48.484375 254.667969 35.835938 257.4375 29.398438 255.265625 C 23.636719 253.320312 19.445312 245.761719 16.226562 240.449219 C 13.230469 235.507812 12.035156 230.121094 10.164062 224.507812 C 8.066406 218.21875 5.671875 210.882812 4.476562 204.296875 C 3.351562 198.3125 3.054688 192.472656 2.753906 186.636719 C 2.53125 180.945312 2.53125 175.558594 2.753906 169.796875 C 3.054688 163.882812 4.550781 157.671875 4.324219 151.683594 C 4.175781 145.695312 2.304688 139.859375 1.707031 133.945312 C 1.109375 127.882812 0.808594 121.671875 0.660156 115.683594 C 0.582031 109.84375 0.957031 104.15625 1.03125 98.394531 C 1.109375 92.707031 1.03125 87.167969 1.183594 81.40625 C 1.332031 75.492188 2.003906 69.730469 1.929688 63.21875 C 1.855469 55.808594 0.359375 39.117188 0.359375 39.117188 " clip-rule="nonzero"/></clipPath><clipPath id="bc22b0681e"><rect x="0" width="69" y="0" height="257"/></clipPath><clipPath id="0e96c12744"><path d="M 213.382812 295.851562 L 246.445312 295.851562 L 246.445312 329.683594 L 213.382812 329.683594 Z M 213.382812 295.851562 " clip-rule="nonzero"/></clipPath><clipPath id="17e400d109"><path d="M 246.386719 307.757812 C 246.386719 318.386719 245.1875 321.15625 243.542969 323.175781 C 241.96875 325.195312 239.574219 327.066406 237.179688 328.113281 C 234.859375 329.238281 231.867188 329.761719 229.246094 329.613281 C 226.703125 329.460938 223.78125 328.5625 221.613281 327.21875 C 219.367188 325.871094 217.269531 323.699219 215.925781 321.527344 C 214.503906 319.285156 213.679688 316.4375 213.453125 313.820312 C 213.304688 311.199219 213.902344 308.28125 214.953125 305.886719 C 216 303.492188 217.871094 301.171875 219.890625 299.523438 C 221.988281 297.953125 224.679688 296.679688 227.300781 296.230469 C 229.84375 295.78125 232.839844 295.933594 235.308594 296.679688 C 237.777344 297.503906 242.195312 300.871094 242.195312 300.871094 " clip-rule="nonzero"/></clipPath><clipPath id="e556a1da8d"><path d="M 0.382812 0.851562 L 33.445312 0.851562 L 33.445312 34.683594 L 0.382812 34.683594 Z M 0.382812 0.851562 " clip-rule="nonzero"/></clipPath><clipPath id="e8d809518c"><path d="M 33.386719 12.757812 C 33.386719 23.386719 32.1875 26.15625 30.542969 28.175781 C 28.96875 30.195312 26.574219 32.066406 24.179688 33.113281 C 21.859375 34.238281 18.867188 34.761719 16.246094 34.613281 C 13.703125 34.460938 10.78125 33.5625 8.613281 32.21875 C 6.367188 30.871094 4.269531 28.699219 2.925781 26.527344 C 1.503906 24.285156 0.679688 21.4375 0.453125 18.820312 C 0.304688 16.199219 0.902344 13.28125 1.953125 10.886719 C 3 8.492188 4.871094 6.171875 6.890625 4.523438 C 8.988281 2.953125 11.679688 1.679688 14.300781 1.230469 C 16.84375 0.78125 19.839844 0.933594 22.308594 1.679688 C 24.777344 2.503906 29.195312 5.871094 29.195312 5.871094 " clip-rule="nonzero"/></clipPath><clipPath id="d577fa9edf"><rect x="0" width="34" y="0" height="35"/></clipPath><clipPath id="6481b18354"><path d="M 116.835938 288.515625 L 149.898438 288.515625 L 149.898438 322.347656 L 116.835938 322.347656 Z M 116.835938 288.515625 " clip-rule="nonzero"/></clipPath><clipPath id="d64f5a8317"><path d="M 149.761719 300.496094 C 149.761719 311.125 148.566406 313.820312 146.917969 315.914062 C 145.347656 317.9375 142.953125 319.808594 140.632812 320.855469 C 138.238281 321.902344 135.242188 322.425781 132.699219 322.277344 C 130.078125 322.128906 127.234375 321.230469 124.988281 319.882812 C 122.742188 318.535156 120.648438 316.4375 119.300781 314.195312 C 117.953125 311.949219 117.054688 309.105469 116.90625 306.484375 C 116.679688 303.941406 117.28125 300.945312 118.328125 298.550781 C 119.375 296.230469 121.246094 293.835938 123.269531 292.265625 C 125.363281 290.617188 128.058594 289.421875 130.675781 288.898438 C 133.222656 288.449219 136.214844 288.671875 138.683594 289.421875 C 141.15625 290.167969 145.570312 293.613281 145.570312 293.613281 " clip-rule="nonzero"/></clipPath><clipPath id="b337d1e547"><path d="M 0.835938 0.515625 L 33.898438 0.515625 L 33.898438 34.347656 L 0.835938 34.347656 Z M 0.835938 0.515625 " clip-rule="nonzero"/></clipPath><clipPath id="f0a2c61ae2"><path d="M 33.761719 12.496094 C 33.761719 23.125 32.566406 25.820312 30.917969 27.914062 C 29.347656 29.9375 26.953125 31.808594 24.632812 32.855469 C 22.238281 33.902344 19.242188 34.425781 16.699219 34.277344 C 14.078125 34.128906 11.234375 33.230469 8.988281 31.882812 C 6.742188 30.535156 4.648438 28.4375 3.300781 26.195312 C 1.953125 23.949219 1.054688 21.105469 0.90625 18.484375 C 0.679688 15.941406 1.28125 12.945312 2.328125 10.550781 C 3.375 8.230469 5.246094 5.835938 7.269531 4.265625 C 9.363281 2.617188 12.058594 1.421875 14.675781 0.898438 C 17.222656 0.449219 20.214844 0.671875 22.683594 1.421875 C 25.15625 2.167969 29.570312 5.613281 29.570312 5.613281 " clip-rule="nonzero"/></clipPath><clipPath id="24eac657b7"><rect x="0" width="34" y="0" height="35"/></clipPath><clipPath id="ada3b04ede"><path d="M 170.570312 144.519531 L 203.632812 144.519531 L 203.632812 178.351562 L 170.570312 178.351562 Z M 170.570312 144.519531 " clip-rule="nonzero"/></clipPath><clipPath id="fa093bfc9f"><path d="M 203.574219 156.5 C 203.574219 167.050781 202.300781 169.820312 200.730469 171.839844 C 199.085938 173.9375 196.765625 175.808594 194.371094 176.855469 C 191.972656 177.902344 189.054688 178.425781 186.4375 178.277344 C 183.816406 178.128906 180.972656 177.230469 178.726562 175.882812 C 176.480469 174.535156 174.386719 172.441406 173.039062 170.195312 C 171.691406 167.949219 170.792969 165.105469 170.644531 162.484375 C 170.492188 159.867188 171.019531 156.949219 172.140625 154.550781 C 173.1875 152.15625 175.058594 149.835938 177.082031 148.191406 C 179.101562 146.617188 181.871094 145.421875 184.414062 144.898438 C 186.960938 144.449219 189.953125 144.597656 192.5 145.421875 C 194.96875 146.167969 199.382812 149.613281 199.382812 149.613281 " clip-rule="nonzero"/></clipPath><clipPath id="63f54987d2"><path d="M 0.570312 0.519531 L 33.574219 0.519531 L 33.574219 34.351562 L 0.570312 34.351562 Z M 0.570312 0.519531 " clip-rule="nonzero"/></clipPath><clipPath id="3ac2705669"><path d="M 33.574219 12.5 C 33.574219 23.050781 32.300781 25.820312 30.730469 27.839844 C 29.085938 29.9375 26.765625 31.808594 24.371094 32.855469 C 21.972656 33.902344 19.054688 34.425781 16.4375 34.277344 C 13.816406 34.128906 10.972656 33.230469 8.726562 31.882812 C 6.480469 30.535156 4.386719 28.441406 3.039062 26.195312 C 1.691406 23.949219 0.792969 21.105469 0.644531 18.484375 C 0.492188 15.867188 1.019531 12.949219 2.140625 10.550781 C 3.1875 8.15625 5.058594 5.835938 7.082031 4.191406 C 9.101562 2.617188 11.871094 1.421875 14.414062 0.898438 C 16.960938 0.449219 19.953125 0.597656 22.5 1.421875 C 24.96875 2.167969 29.382812 5.613281 29.382812 5.613281 " clip-rule="nonzero"/></clipPath><clipPath id="2efbce0d47"><rect x="0" width="34" y="0" height="35"/></clipPath></defs><g clip-path="url(#0e42024b08)"><g clip-path="url(#885e72f8f5)"><g transform="matrix(1, 0, 0, 1, 114, 309)"><g clip-path="url(#5c2cf4f148)"><g clip-path="url(#fd996ddb2d)"><g clip-path="url(#d2e3a3f1a7)"><rect x="-193.035" width="517.32" fill="#f6d7b0" height="517.319981" y="-388.034997" fill-opacity="1"/></g></g></g></g></g></g><g clip-path="url(#5e64b4f6ac)"><g clip-path="url(#e3e2e59a49)"><g transform="matrix(1, 0, 0, 1, 36, 17)"><g clip-path="url(#01a22b61a2)"><g clip-path="url(#86f1e12240)"><g clip-path="url(#4196b8eedc)"><rect x="-115.035" width="517.32" fill="#f6d7b0" height="517.319981" y="-96.034997" fill-opacity="1"/></g></g></g></g></g></g><g clip-path="url(#593769d072)"><g clip-path="url(#cec1275cda)"><g transform="matrix(1, 0, 0, 1, 103, 48)"><g clip-path="url(#bc22b0681e)"><g clip-path="url(#8d8093dfff)"><g clip-path="url(#44eba420c2)"><rect x="-182.035" width="517.32" fill="#f6d7b0" height="517.319981" y="-127.034997" fill-opacity="1"/></g></g></g></g></g></g><g clip-path="url(#0e96c12744)"><g clip-path="url(#17e400d109)"><g transform="matrix(1, 0, 0, 1, 213, 295)"><g clip-path="url(#d577fa9edf)"><g clip-path="url(#e556a1da8d)"><g clip-path="url(#e8d809518c)"><rect x="-292.035" width="517.32" fill="#f6d7b0" height="517.319981" y="-374.034997" fill-opacity="1"/></g></g></g></g></g></g><g clip-path="url(#6481b18354)"><g clip-path="url(#d64f5a8317)"><g transform="matrix(1, 0, 0, 1, 116, 288)"><g clip-path="url(#24eac657b7)"><g clip-path="url(#b337d1e547)"><g clip-path="url(#f0a2c61ae2)"><rect x="-195.035" width="517.32" fill="#f6d7b0" height="517.319981" y="-367.034997" fill-opacity="1"/></g></g></g></g></g></g><g clip-path="url(#ada3b04ede)"><g clip-path="url(#fa093bfc9f)"><g transform="matrix(1, 0, 0, 1, 170, 144)"><g clip-path="url(#2efbce0d47)"><g clip-path="url(#63f54987d2)"><g clip-path="url(#3ac2705669)"><rect x="-249.035" width="517.32" fill="#f6d7b0" height="517.319981" y="-223.034997" fill-opacity="1"/></g></g></g></g></g></g><path fill="#000000" d="M -318.566406 -271.140625 C -321.359375 -268.347656 -321.59375 -266.855469 -322.265625 -247.558594 C -323.042969 -225.355469 -324.046875 -220.765625 -334.078125 -193.578125 C -342.464844 -170.847656 -342.726562 -167.285156 -342.324219 -82.070312 C -341.921875 2.042969 -342.4375 -3.078125 -333.425781 6.0625 C -326.570312 13.015625 -322.417969 14.636719 -311.394531 14.664062 L -301.5 14.691406 L -300.71875 20.589844 C -298.609375 36.480469 -283.328125 47.660156 -266.140625 45.878906 L -258.8125 45.117188 L -255.992188 50.9375 C -243.304688 77.148438 -197.875 67.878906 -197.875 39.082031 L -197.875 34.90625 L -191.09375 35.601562 C -181.484375 36.585938 -174.109375 34.207031 -167.292969 27.921875 C -156.707031 18.164062 -157.25 21.710938 -156.523438 -42.566406 L -155.878906 -99.828125 L -150.71875 -92.964844 C -126.308594 -60.519531 -94.800781 -58.515625 -85.75 -88.835938 C -81.691406 -102.429688 -82.894531 -105.53125 -106.878906 -143.292969 C -139.699219 -194.964844 -147.894531 -207.074219 -156.3125 -216.320312 C -169.820312 -231.15625 -175.226562 -242.414062 -176.757812 -258.917969 C -177.765625 -269.730469 -180.878906 -274.121094 -187.539062 -274.121094 C -206.789062 -274.121094 -198.5625 -232.382812 -173.753906 -204.195312 C -150.082031 -177.292969 -103.273438 -101.390625 -106.121094 -94.519531 C -111.996094 -80.339844 -156.523438 -119.191406 -156.523438 -138.492188 C -156.523438 -148.238281 -166.261719 -153.460938 -173.503906 -147.597656 L -176.554688 -145.128906 L -177.199219 -67.527344 C -177.925781 19.769531 -177.28125 14.632812 -187.539062 14.632812 C -197.515625 14.632812 -197.148438 16.632812 -197.875 -41.683594 L -198.523438 -93.441406 L -201.574219 -95.910156 C -202.039062 -96.289062 -202.53125 -96.628906 -203.054688 -96.921875 C -203.578125 -97.21875 -204.125 -97.464844 -204.691406 -97.667969 C -205.253906 -97.867188 -205.835938 -98.019531 -206.425781 -98.121094 C -207.015625 -98.226562 -207.613281 -98.277344 -208.214844 -98.277344 C -208.816406 -98.277344 -209.410156 -98.222656 -210.003906 -98.121094 C -210.59375 -98.019531 -211.171875 -97.867188 -211.738281 -97.667969 C -212.304688 -97.464844 -212.847656 -97.214844 -213.371094 -96.921875 C -213.894531 -96.625 -214.390625 -96.289062 -214.855469 -95.910156 L -217.90625 -93.441406 L -218.550781 -26.175781 C -219.28125 49.523438 -218.722656 45.644531 -228.890625 45.644531 C -239.058594 45.644531 -238.5 49.523438 -239.226562 -26.175781 L -239.875 -93.441406 L -242.925781 -95.910156 C -243.390625 -96.289062 -243.882812 -96.625 -244.40625 -96.921875 C -244.929688 -97.214844 -245.476562 -97.464844 -246.039062 -97.667969 C -246.605469 -97.867188 -247.183594 -98.019531 -247.777344 -98.121094 C -248.367188 -98.222656 -248.964844 -98.273438 -249.566406 -98.273438 C -250.164062 -98.273438 -250.761719 -98.222656 -251.355469 -98.121094 C -251.945312 -98.019531 -252.523438 -97.867188 -253.089844 -97.667969 C -253.65625 -97.464844 -254.199219 -97.214844 -254.722656 -96.921875 C -255.246094 -96.625 -255.742188 -96.289062 -256.207031 -95.910156 L -259.257812 -93.441406 L -259.902344 -36.511719 C -260.628906 27.589844 -260.191406 24.96875 -270.242188 24.96875 C -280.292969 24.96875 -279.851562 27.589844 -280.578125 -36.511719 L -281.226562 -93.441406 L -284.277344 -95.910156 C -284.742188 -96.289062 -285.234375 -96.625 -285.757812 -96.921875 C -286.28125 -97.214844 -286.824219 -97.464844 -287.390625 -97.667969 C -287.957031 -97.867188 -288.535156 -98.019531 -289.128906 -98.121094 C -289.71875 -98.222656 -290.316406 -98.277344 -290.917969 -98.277344 C -291.515625 -98.277344 -292.113281 -98.226562 -292.703125 -98.121094 C -293.296875 -98.019531 -293.875 -97.867188 -294.441406 -97.667969 C -295.007812 -97.464844 -295.550781 -97.21875 -296.074219 -96.921875 C -296.597656 -96.628906 -297.089844 -96.289062 -297.558594 -95.910156 L -300.609375 -93.441406 L -301.253906 -52.019531 C -301.984375 -5.277344 -301.8125 -6.042969 -311.59375 -6.042969 C -321.902344 -6.042969 -321.285156 -0.777344 -321.265625 -88.410156 L -321.246094 -166.222656 L -317.859375 -176.558594 C -315.992188 -182.246094 -312.367188 -192.597656 -309.792969 -199.5625 C -294.367188 -241.371094 -300.257812 -289.449219 -318.566406 -271.140625 M 8.667969 -272.351562 C -5.132812 -267.324219 -13.65625 -252.6875 -11.316406 -238.046875 L -10.527344 -233.101562 L -16.738281 -232.277344 C -32.945312 -230.125 -44.132812 -214.996094 -42.335938 -197.660156 L -41.578125 -190.328125 L -47.398438 -187.511719 C -73.464844 -174.890625 -64.363281 -129.394531 -35.773438 -129.394531 L -31.824219 -129.394531 L -31.800781 -119.378906 C -31.769531 -108.21875 -30.171875 -104.097656 -23.195312 -97.21875 C -14.238281 -88.390625 -16.988281 -88.753906 46.125 -88.042969 L 103.398438 -87.394531 L 94.347656 -80.515625 C 61.117188 -55.261719 63.847656 -19.15625 99.222656 -16.054688 C 110.625 -15.054688 182.394531 -56.960938 213.050781 -82.519531 C 236.875 -102.378906 245.066406 -106.660156 262.34375 -108.265625 C 273.277344 -109.28125 277.664062 -112.367188 277.664062 -119.054688 C 277.664062 -138.722656 238.15625 -130.664062 207.386719 -104.71875 C 194.796875 -94.101562 118.898438 -43.996094 106.210938 -37.929688 C 99.285156 -34.613281 91.507812 -39.832031 91.609375 -47.71875 C 91.691406 -54 134.203125 -88.042969 141.960938 -88.042969 C 152.277344 -88.042969 157.386719 -98.59375 150.4375 -105.542969 L 147.265625 -108.71875 L 71.109375 -108.71875 C -15.644531 -108.71875 -11.089844 -108.144531 -11.089844 -119.054688 C -11.089844 -129.625 -12.359375 -129.394531 45.261719 -129.394531 L 95.578125 -129.394531 L 98.746094 -132.566406 C 102.945312 -136.761719 102.945312 -142.699219 98.746094 -146.894531 L 95.578125 -150.070312 L 29.757812 -150.070312 C -45.335938 -150.070312 -42.105469 -149.601562 -42.105469 -160.40625 C -42.105469 -171.210938 -45.335938 -170.742188 29.757812 -170.742188 L 95.578125 -170.742188 L 98.746094 -173.917969 C 100.746094 -175.914062 101.917969 -178.566406 101.917969 -181.082031 C 101.917969 -183.597656 100.746094 -186.25 98.746094 -188.246094 L 95.578125 -191.417969 L 40.09375 -191.417969 C -23.347656 -191.417969 -21.429688 -191.097656 -21.429688 -201.757812 C -21.429688 -212.417969 -23.347656 -212.09375 40.09375 -212.09375 L 95.578125 -212.09375 L 98.746094 -215.269531 C 100.746094 -217.265625 101.917969 -219.914062 101.917969 -222.433594 C 101.917969 -224.949219 100.746094 -227.597656 98.746094 -229.597656 L 95.578125 -232.769531 L 55.601562 -232.769531 C 9.601562 -232.769531 9.582031 -232.773438 9.582031 -243.109375 C 9.582031 -254.21875 4.914062 -253.65625 92.785156 -253.152344 L 169.761719 -252.710938 L 180.097656 -249.339844 C 185.785156 -247.484375 197.125 -243.601562 205.296875 -240.714844 C 240.851562 -228.148438 277.664062 -229.367188 277.664062 -243.109375 C 277.664062 -251.34375 273.375 -253.445312 256.566406 -253.445312 C 237.519531 -253.445312 222.878906 -256.066406 205.621094 -262.570312 C 174.695312 -274.21875 183.679688 -273.324219 93.519531 -273.722656 C 29.265625 -274.003906 12.464844 -273.734375 8.667969 -272.351562 M 153.082031 7.03125 C 142.292969 10.984375 132.933594 22.914062 132.933594 32.710938 L 132.933594 36.65625 L 122.917969 36.683594 C 111.761719 36.710938 107.636719 38.3125 100.761719 45.289062 C 91.929688 54.246094 92.292969 51.496094 91.582031 114.59375 L 90.9375 171.851562 L 85.773438 164.988281 C 62.792969 134.4375 39.621094 130.359375 23.933594 154.105469 C 14.457031 168.449219 16.472656 175.160156 42.648438 216.433594 C 75.277344 267.878906 82.554688 278.566406 92.519531 289.675781 C 105.226562 303.839844 112.179688 319.785156 112.238281 334.898438 C 112.277344 344.828125 122.976562 349.761719 129.761719 342.972656 C 139.714844 333.019531 129.457031 301.011719 108.253906 275.867188 C 84.757812 248 38.546875 172.898438 41.101562 166.730469 C 47.058594 152.34375 91.582031 190.894531 91.582031 210.441406 C 91.582031 217.113281 96 222.09375 101.917969 222.09375 C 104.4375 222.09375 107.085938 220.921875 109.085938 218.917969 L 112.257812 215.75 L 112.257812 139.589844 C 112.257812 52.835938 111.683594 57.390625 122.59375 57.390625 C 133.164062 57.390625 132.933594 56.125 132.933594 113.746094 L 132.933594 164.058594 L 136.105469 167.230469 C 138.105469 169.230469 140.753906 170.402344 143.269531 170.402344 C 145.789062 170.402344 148.4375 169.230469 150.4375 167.230469 L 153.609375 164.058594 L 153.609375 98.238281 C 153.609375 23.148438 153.144531 26.378906 163.945312 26.378906 C 174.75 26.378906 174.285156 23.148438 174.285156 98.238281 L 174.285156 164.058594 L 177.457031 167.230469 C 181.652344 171.429688 187.589844 171.429688 191.789062 167.230469 L 194.960938 164.058594 L 194.960938 108.578125 C 194.960938 45.136719 194.636719 47.054688 205.296875 47.054688 C 215.957031 47.054688 215.636719 45.136719 215.636719 108.578125 L 215.636719 164.058594 L 218.808594 167.230469 C 223.003906 171.429688 228.941406 171.429688 233.136719 167.230469 L 236.3125 164.058594 L 236.3125 124.085938 C 236.3125 78.085938 236.316406 78.066406 246.648438 78.066406 C 257.515625 78.066406 256.988281 74.121094 256.988281 155.515625 C 256.988281 236.074219 256.667969 239.847656 247.9375 262.808594 C 238.480469 287.675781 237.394531 292.917969 236.660156 317.292969 L 235.992188 339.480469 L 239.324219 342.8125 C 250.105469 353.597656 256.429688 345.664062 257.332031 320.21875 C 258.105469 298.335938 259.105469 293.539062 267.964844 269.074219 C 277.773438 242 277.789062 241.804688 277.378906 154.78125 C 276.976562 69.90625 277.5 75.109375 268.484375 65.964844 C 261.628906 59.007812 257.472656 57.386719 246.449219 57.359375 L 236.558594 57.332031 L 235.777344 51.433594 C 233.667969 35.542969 218.386719 24.363281 201.199219 26.144531 L 193.871094 26.90625 L 191.050781 21.085938 C 184.710938 7.988281 167.675781 1.683594 153.082031 7.03125 M -177.902344 89.433594 C -180.066406 90.421875 -195.769531 100.203125 -212.792969 111.167969 C -229.820312 122.136719 -249.855469 134.96875 -257.320312 139.683594 C -264.78125 144.402344 -275.828125 152.441406 -281.871094 157.550781 C -302.222656 174.765625 -310.058594 178.6875 -327.289062 180.289062 C -338.222656 181.304688 -342.605469 184.394531 -342.605469 191.078125 C -342.605469 210.753906 -300.277344 201.96875 -271.542969 176.328125 C -246.804688 154.257812 -169.691406 106.890625 -163 109.660156 C -148.804688 115.542969 -187.605469 160.066406 -206.925781 160.066406 C -216.722656 160.066406 -221.960938 169.78125 -216.082031 177.042969 L -213.613281 180.09375 L -136.007812 180.742188 C -48.714844 181.46875 -53.851562 180.820312 -53.851562 191.078125 C -53.851562 201.054688 -51.851562 200.6875 -110.164062 201.417969 L -161.925781 202.0625 L -164.394531 205.113281 C -164.773438 205.578125 -165.113281 206.074219 -165.40625 206.597656 C -165.699219 207.121094 -165.949219 207.664062 -166.152344 208.230469 C -166.351562 208.796875 -166.503906 209.375 -166.605469 209.964844 C -166.707031 210.558594 -166.757812 211.152344 -166.757812 211.753906 C -166.757812 212.355469 -166.707031 212.949219 -166.605469 213.542969 C -166.503906 214.132812 -166.351562 214.714844 -166.148438 215.277344 C -165.949219 215.84375 -165.699219 216.390625 -165.40625 216.914062 C -165.109375 217.433594 -164.773438 217.929688 -164.394531 218.394531 L -161.925781 221.445312 L -94.660156 222.09375 C -18.960938 222.820312 -22.839844 222.261719 -22.839844 232.429688 C -22.839844 242.597656 -18.960938 242.039062 -94.660156 242.769531 L -161.925781 243.414062 L -164.394531 246.464844 C -164.773438 246.929688 -165.109375 247.425781 -165.40625 247.949219 C -165.699219 248.46875 -165.949219 249.015625 -166.148438 249.582031 C -166.351562 250.144531 -166.503906 250.726562 -166.605469 251.316406 C -166.707031 251.910156 -166.757812 252.503906 -166.757812 253.105469 C -166.757812 253.707031 -166.707031 254.300781 -166.605469 254.894531 C -166.503906 255.484375 -166.351562 256.0625 -166.148438 256.628906 C -165.949219 257.195312 -165.699219 257.738281 -165.40625 258.261719 C -165.109375 258.785156 -164.773438 259.28125 -164.394531 259.746094 L -161.925781 262.796875 L -104.996094 263.441406 C -40.890625 264.171875 -43.511719 263.730469 -43.511719 273.78125 C -43.511719 283.832031 -40.890625 283.390625 -104.996094 284.117188 L -161.925781 284.765625 L -164.394531 287.816406 C -164.773438 288.28125 -165.109375 288.773438 -165.40625 289.296875 C -165.699219 289.820312 -165.949219 290.367188 -166.148438 290.933594 C -166.351562 291.496094 -166.503906 292.074219 -166.605469 292.667969 C -166.707031 293.257812 -166.757812 293.855469 -166.757812 294.457031 C -166.757812 295.058594 -166.707031 295.652344 -166.605469 296.246094 C -166.503906 296.835938 -166.351562 297.414062 -166.152344 297.980469 C -165.949219 298.546875 -165.699219 299.089844 -165.40625 299.613281 C -165.113281 300.136719 -164.773438 300.632812 -164.394531 301.097656 L -161.925781 304.148438 L -120.503906 304.792969 C -73.761719 305.523438 -74.527344 305.351562 -74.527344 315.132812 C -74.527344 325.445312 -69.261719 324.828125 -156.894531 324.796875 L -234.703125 324.769531 L -245.042969 321.390625 C -250.726562 319.53125 -261.082031 315.90625 -268.046875 313.335938 C -303.082031 300.40625 -342.605469 301.359375 -342.605469 315.132812 C -342.605469 323.660156 -339.1875 325.03125 -316.027344 325.792969 C -293.832031 326.527344 -289.613281 327.449219 -262.097656 337.605469 C -239.785156 345.839844 -235.863281 346.148438 -153.449219 346.136719 C -59.226562 346.128906 -50.332031 343.050781 -53.558594 311.578125 C -54.207031 305.257812 -54.058594 304.792969 -51.4375 304.785156 C -34.664062 304.742188 -20.730469 287.78125 -22.605469 269.683594 L -23.367188 262.351562 L -17.546875 259.535156 C 8.523438 246.914062 -0.578125 201.417969 -29.171875 201.417969 L -33.117188 201.417969 L -33.144531 191.402344 C -33.171875 180.242188 -34.773438 176.121094 -41.746094 169.242188 C -50.703125 160.414062 -47.953125 160.777344 -111.070312 160.066406 L -168.34375 159.417969 L -159.289062 152.539062 C -140.34375 138.140625 -134.964844 129.664062 -136.191406 116.148438 C -138.027344 95.933594 -160.539062 81.511719 -177.902344 89.433594 " fill-opacity="1" fill-rule="evenodd"/></svg>