<svg xmlns="http://www.w3.org/2000/svg" xmlns:xlink="http://www.w3.org/1999/xlink" width="479" zoomAndPan="magnify" viewBox="0 0 359.25 359.249987" height="479" preserveAspectRatio="xMidYMid meet" version="1.0"><defs><clipPath id="e07756216b"><path d="M 34.722656 36.21875 L 274 36.21875 L 274 334.300781 L 34.722656 334.300781 Z M 34.722656 36.21875 " clip-rule="nonzero"/></clipPath><clipPath id="cb36286c47"><path d="M 63.691406 161.289062 C 70.128906 168.398438 77.6875 181.644531 77.164062 182.019531 C 76.714844 182.320312 65.339844 168.546875 65.5625 168.324219 C 65.789062 168.097656 77.761719 180.074219 77.835938 180 C 77.914062 179.847656 64.367188 166.152344 64.367188 166.152344 C 64.367188 166.152344 78.960938 180.597656 78.734375 180.746094 C 78.585938 180.972656 63.691406 167.726562 63.691406 167.726562 C 63.691406 167.648438 72.824219 174.683594 76.9375 178.875 C 81.355469 183.441406 85.621094 188.605469 89.214844 194.292969 C 93.105469 200.355469 96.472656 207.914062 99.167969 214.351562 C 101.488281 220.039062 101.414062 223.933594 104.855469 230.96875 C 111.890625 245.1875 147.066406 290.691406 145.496094 292.039062 C 144.671875 292.714844 131.800781 279.464844 131.648438 279.617188 C 131.425781 279.839844 143.101562 290.542969 147.667969 296.230469 C 151.78125 301.394531 158.667969 311.800781 158.144531 312.25 C 157.546875 312.773438 139.359375 293.910156 139.660156 293.613281 C 139.882812 293.386719 154.628906 305.886719 154.628906 305.8125 C 154.703125 305.8125 139.808594 296.90625 140.332031 293.761719 C 140.78125 290.617188 151.335938 288.597656 157.097656 286.875 C 162.785156 285.15625 168.472656 283.582031 174.535156 283.507812 C 180.972656 283.507812 187.707031 285.378906 194.667969 287.175781 C 202.675781 289.269531 218.84375 291.816406 219.667969 295.855469 C 220.339844 299.152344 206.71875 308.507812 206.269531 308.132812 C 205.746094 307.609375 224.90625 286.277344 224.082031 285.378906 C 223.410156 284.628906 210.234375 296.382812 209.414062 295.558594 C 208.515625 294.734375 218.394531 285.753906 220.566406 278.570312 C 223.558594 268.988281 218.84375 251.699219 221.386719 241.894531 C 223.257812 234.558594 229.472656 230.367188 230.816406 224.007812 C 232.164062 217.644531 229.546875 210.535156 229.472656 203.648438 C 229.394531 196.390625 229.769531 189.054688 230.445312 181.570312 C 231.117188 173.5625 234.109375 164.433594 233.738281 157.097656 C 233.4375 151.035156 230.816406 146.320312 229.769531 140.632812 C 228.574219 134.644531 227.523438 128.132812 227.074219 122.144531 C 226.703125 116.382812 226.402344 110.84375 227.300781 105.15625 C 228.199219 99.316406 230.292969 87.71875 232.765625 87.492188 C 235.457031 87.269531 237.777344 105.53125 243.242188 108.148438 C 248.707031 110.769531 261.28125 100.738281 265.320312 103.734375 C 269.214844 106.578125 266.292969 118.179688 267.566406 124.765625 C 268.765625 130.753906 271.683594 135.839844 272.355469 141.605469 C 273.105469 147.515625 273.253906 154.027344 271.832031 159.640625 C 270.484375 165.253906 267.34375 169.96875 264.347656 175.359375 C 260.980469 181.496094 253.871094 187.78125 252.375 194.292969 C 251.027344 200.207031 254.394531 206.492188 254.617188 212.554688 C 254.769531 218.394531 254.394531 224.082031 253.644531 229.921875 C 252.820312 235.90625 251.175781 240.621094 249.976562 247.882812 C 248.105469 258.882812 248.855469 279.464844 244.214844 289.71875 C 240.847656 297.203125 236.058594 304.988281 229.921875 306.335938 C 222.585938 307.90625 203.277344 292.191406 202.078125 293.835938 C 201.105469 295.109375 214.800781 308.132812 214.425781 308.507812 C 213.976562 308.953125 201.929688 300.125 198.113281 294.882812 C 194.59375 290.019531 192.648438 284.332031 191.375 278.644531 C 190.101562 272.957031 190.550781 267.117188 190.550781 260.753906 C 190.550781 253.570312 191.449219 246.234375 191.523438 237.703125 C 191.675781 227 191.300781 213.679688 190.851562 201.628906 C 190.402344 189.578125 189.730469 177.453125 188.757812 165.40625 C 187.859375 153.429688 185.910156 141.53125 185.164062 129.480469 C 184.414062 117.28125 183.515625 103.058594 184.191406 92.65625 C 184.714844 84.949219 187.707031 78.734375 187.484375 72.523438 C 187.332031 67.136719 184.265625 61.597656 184.117188 57.554688 C 184.039062 54.933594 184.488281 53.0625 185.238281 50.96875 C 185.910156 48.871094 187.035156 46.851562 188.382812 45.054688 C 189.652344 43.335938 191.375 41.761719 193.171875 40.492188 C 195.042969 39.292969 197.136719 38.246094 199.234375 37.722656 C 201.40625 37.121094 203.726562 36.824219 205.894531 36.972656 C 208.066406 37.121094 210.386719 37.570312 212.40625 38.394531 C 214.425781 39.21875 216.449219 40.414062 218.167969 41.835938 C 219.816406 43.257812 221.3125 45.054688 222.4375 46.925781 C 223.632812 48.796875 224.457031 50.96875 224.90625 53.140625 C 225.429688 55.308594 225.503906 57.628906 225.28125 59.800781 C 225.054688 61.96875 224.457031 64.214844 223.484375 66.238281 C 222.585938 68.257812 221.238281 70.203125 219.742188 71.773438 C 218.246094 73.347656 216.375 74.769531 214.425781 75.816406 C 212.480469 76.863281 210.3125 77.613281 208.140625 77.914062 C 205.96875 78.285156 203.574219 78.285156 201.40625 77.914062 C 199.234375 77.613281 197.0625 76.863281 195.117188 75.816406 C 193.171875 74.769531 191.300781 73.347656 189.804688 71.773438 C 188.308594 70.203125 186.960938 68.257812 186.0625 66.238281 C 185.089844 64.214844 184.488281 61.96875 184.265625 59.800781 C 184.039062 57.628906 184.117188 55.308594 184.640625 53.140625 C 185.089844 50.96875 185.988281 48.796875 187.109375 46.925781 C 188.230469 45.054688 189.730469 43.257812 191.449219 41.835938 C 193.097656 40.414062 195.117188 39.21875 197.136719 38.394531 C 199.160156 37.570312 201.480469 37.121094 203.648438 36.972656 C 205.894531 36.824219 208.214844 37.121094 210.3125 37.722656 C 212.40625 38.246094 214.578125 39.292969 216.375 40.492188 C 218.167969 41.761719 219.890625 43.335938 221.238281 45.054688 C 222.511719 46.851562 223.632812 48.949219 224.308594 50.96875 C 225.054688 53.0625 225.953125 57.332031 225.429688 57.554688 C 224.832031 57.855469 221.011719 51.191406 220.414062 51.492188 C 219.367188 52.015625 225.578125 66.011719 226.328125 72.824219 C 226.925781 78.886719 225.355469 84.421875 225.355469 90.1875 C 225.355469 95.875 226.328125 101.488281 226.253906 107.25 C 226.179688 113.164062 224.753906 118.101562 224.980469 125.140625 C 225.28125 135.316406 228.648438 148.789062 229.921875 162.1875 C 231.34375 177.902344 232.390625 197.960938 232.613281 213.753906 C 232.839844 227.152344 232.6875 240.621094 231.714844 250.949219 C 231.117188 258.359375 227.152344 264.199219 228.796875 269.960938 C 230.519531 276.023438 243.765625 284.105469 242.417969 286.128906 C 240.699219 288.820312 211.582031 284.105469 206.269531 276.324219 C 201.03125 268.6875 208.664062 250.277344 210.085938 240.25 C 211.058594 233.0625 212.40625 229.097656 213.378906 221.835938 C 214.652344 211.65625 214.425781 194.742188 216.222656 184.9375 C 217.496094 178.277344 218.542969 173.789062 221.164062 168.472656 C 223.933594 162.636719 231.714844 158.59375 232.839844 151.484375 C 234.410156 141.902344 224.082031 125.363281 222.359375 115.035156 C 221.164062 107.699219 219.742188 101.863281 221.460938 95.726562 C 223.332031 88.914062 228.871094 80.832031 234.261719 76.339844 C 239.125 72.222656 246.160156 68.257812 251.699219 68.78125 C 257.238281 69.378906 263.972656 74.992188 267.492188 79.785156 C 270.785156 84.273438 272.957031 90.636719 272.730469 96.097656 C 272.582031 101.710938 266.667969 107.101562 265.996094 113.015625 C 265.320312 119.226562 270.261719 132.097656 269.136719 132.472656 C 268.164062 132.847656 260.679688 117.28125 260.53125 117.355469 C 260.382812 117.429688 271.683594 136.738281 270.710938 137.414062 C 269.8125 138.011719 255.066406 121.398438 255.066406 121.320312 C 255.140625 121.320312 266.59375 130.226562 269.660156 135.839844 C 272.65625 141.230469 273.179688 147.964844 273.703125 154.027344 C 274.152344 159.941406 273.402344 164.28125 272.804688 171.691406 C 271.683594 184.566406 268.988281 208.664062 266.367188 224.230469 C 264.273438 236.730469 261.054688 246.609375 259.035156 257.910156 C 257.011719 269.136719 256.789062 282.3125 254.320312 291.890625 C 252.449219 299.152344 251.175781 305.660156 247.207031 310.75 C 243.390625 315.765625 231.34375 322.5 231.042969 322.128906 C 230.816406 321.828125 245.636719 306.710938 247.058594 307.609375 C 248.332031 308.429688 244.589844 320.707031 240.847656 324.671875 C 237.253906 328.488281 230.667969 330.359375 225.28125 331.332031 C 219.890625 332.304688 213.976562 330.882812 208.363281 330.359375 C 202.75 329.835938 197.136719 329.386719 191.601562 328.265625 C 186.0625 326.992188 180.746094 322.949219 175.132812 323.175781 C 168.996094 323.324219 162.335938 328.5625 156.125 330.359375 C 150.359375 331.933594 144.296875 335.074219 139.058594 333.652344 C 133.296875 332.007812 123.34375 319.734375 123.34375 319.734375 C 123.34375 319.734375 137.1875 331.332031 136.8125 331.855469 C 136.441406 332.382812 124.539062 327.140625 121.023438 322.800781 C 117.578125 318.535156 118.703125 311.273438 115.785156 306.335938 C 112.640625 301.023438 102.6875 291.964844 102.460938 292.113281 C 102.238281 292.339844 112.789062 305.738281 112.9375 305.660156 C 113.015625 305.585938 106.503906 295.558594 102.6875 291.066406 C 98.945312 286.652344 93.480469 283.507812 90.261719 278.867188 C 87.042969 274.226562 86.371094 268.539062 83.449219 263.226562 C 80.007812 257.011719 73.496094 250.800781 70.578125 244.066406 C 67.882812 237.703125 67.882812 230.445312 66.085938 223.933594 C 64.289062 217.71875 62.644531 211.285156 59.800781 205.820312 C 57.105469 200.507812 49.171875 191.898438 49.695312 191.449219 C 50.21875 191 62.496094 202.601562 62.496094 202.601562 C 62.496094 202.675781 44.605469 186.808594 44.457031 186.960938 C 44.308594 187.109375 58.078125 200.507812 58.152344 200.429688 C 58.304688 200.355469 42.511719 184.640625 42.8125 184.339844 C 43.035156 184.117188 58.976562 197.363281 58.601562 197.886719 C 58.304688 198.335938 47 192.199219 43.257812 189.128906 C 40.492188 186.886719 38.46875 184.191406 37.121094 182.09375 C 36.222656 180.746094 35.851562 179.699219 35.402344 178.351562 C 35.027344 177.082031 34.726562 175.957031 34.726562 174.386719 C 34.726562 172.140625 35.402344 168.398438 36.148438 166.378906 C 36.75 164.878906 37.273438 164.058594 38.246094 162.859375 C 39.742188 161.214844 42.285156 158.894531 44.683594 157.84375 C 47.078125 156.722656 50.070312 156.199219 52.691406 156.347656 C 55.308594 156.5 58.453125 157.769531 60.472656 158.820312 C 61.820312 159.492188 63.691406 161.289062 63.691406 161.289062 " clip-rule="nonzero"/></clipPath><clipPath id="0c4184ddb1"><path d="M 0.726562 0.644531 L 240 0.644531 L 240 298.300781 L 0.726562 298.300781 Z M 0.726562 0.644531 " clip-rule="nonzero"/></clipPath><clipPath id="461cc89c23"><path d="M 29.691406 125.289062 C 36.128906 132.398438 43.6875 145.644531 43.164062 146.019531 C 42.714844 146.320312 31.339844 132.546875 31.5625 132.324219 C 31.789062 132.097656 43.761719 144.074219 43.835938 144 C 43.914062 143.847656 30.367188 130.152344 30.367188 130.152344 C 30.367188 130.152344 44.960938 144.597656 44.734375 144.746094 C 44.585938 144.972656 29.691406 131.726562 29.691406 131.726562 C 29.691406 131.648438 38.824219 138.683594 42.9375 142.875 C 47.355469 147.441406 51.621094 152.605469 55.214844 158.292969 C 59.105469 164.355469 62.472656 171.914062 65.167969 178.351562 C 67.488281 184.039062 67.414062 187.933594 70.855469 194.96875 C 77.890625 209.1875 113.066406 254.691406 111.496094 256.039062 C 110.671875 256.714844 97.800781 243.464844 97.648438 243.617188 C 97.425781 243.839844 109.101562 254.542969 113.667969 260.230469 C 117.78125 265.394531 124.667969 275.800781 124.144531 276.25 C 123.546875 276.773438 105.359375 257.910156 105.660156 257.613281 C 105.882812 257.386719 120.628906 269.886719 120.628906 269.8125 C 120.703125 269.8125 105.808594 260.90625 106.332031 257.761719 C 106.78125 254.617188 117.335938 252.597656 123.097656 250.875 C 128.785156 249.15625 134.472656 247.582031 140.535156 247.507812 C 146.972656 247.507812 153.707031 249.378906 160.667969 251.175781 C 168.675781 253.269531 184.84375 255.816406 185.667969 259.855469 C 186.339844 263.152344 172.71875 272.507812 172.269531 272.132812 C 171.746094 271.609375 190.90625 250.277344 190.082031 249.378906 C 189.410156 248.628906 176.234375 260.382812 175.414062 259.558594 C 174.515625 258.734375 184.394531 249.753906 186.566406 242.570312 C 189.558594 232.988281 184.84375 215.699219 187.386719 205.894531 C 189.257812 198.558594 195.472656 194.367188 196.816406 188.007812 C 198.164062 181.644531 195.546875 174.535156 195.472656 167.648438 C 195.394531 160.390625 195.769531 153.054688 196.445312 145.570312 C 197.117188 137.5625 200.109375 128.433594 199.738281 121.097656 C 199.4375 115.035156 196.816406 110.320312 195.769531 104.632812 C 194.574219 98.644531 193.523438 92.132812 193.074219 86.144531 C 192.703125 80.382812 192.402344 74.84375 193.300781 69.15625 C 194.199219 63.316406 196.292969 51.71875 198.765625 51.492188 C 201.457031 51.269531 203.777344 69.53125 209.242188 72.148438 C 214.707031 74.769531 227.28125 64.738281 231.320312 67.734375 C 235.214844 70.578125 232.292969 82.179688 233.566406 88.765625 C 234.765625 94.753906 237.683594 99.839844 238.355469 105.605469 C 239.105469 111.515625 239.253906 118.027344 237.832031 123.640625 C 236.484375 129.253906 233.34375 133.96875 230.347656 139.359375 C 226.980469 145.496094 219.871094 151.78125 218.375 158.292969 C 217.027344 164.207031 220.394531 170.492188 220.617188 176.554688 C 220.769531 182.394531 220.394531 188.082031 219.644531 193.921875 C 218.820312 199.90625 217.175781 204.621094 215.976562 211.882812 C 214.105469 222.882812 214.855469 243.464844 210.214844 253.71875 C 206.847656 261.203125 202.058594 268.988281 195.921875 270.335938 C 188.585938 271.90625 169.277344 256.191406 168.078125 257.835938 C 167.105469 259.109375 180.800781 272.132812 180.425781 272.507812 C 179.976562 272.953125 167.929688 264.125 164.113281 258.882812 C 160.59375 254.019531 158.648438 248.332031 157.375 242.644531 C 156.101562 236.957031 156.550781 231.117188 156.550781 224.753906 C 156.550781 217.570312 157.449219 210.234375 157.523438 201.703125 C 157.675781 191 157.300781 177.679688 156.851562 165.628906 C 156.402344 153.578125 155.730469 141.453125 154.757812 129.40625 C 153.859375 117.429688 151.910156 105.53125 151.164062 93.480469 C 150.414062 81.28125 149.515625 67.058594 150.191406 56.65625 C 150.714844 48.949219 153.707031 42.734375 153.484375 36.523438 C 153.332031 31.136719 150.265625 25.597656 150.117188 21.554688 C 150.039062 18.933594 150.488281 17.0625 151.238281 14.96875 C 151.910156 12.871094 153.035156 10.851562 154.382812 9.054688 C 155.652344 7.335938 157.375 5.761719 159.171875 4.492188 C 161.042969 3.292969 163.136719 2.246094 165.234375 1.722656 C 167.40625 1.121094 169.726562 0.824219 171.894531 0.972656 C 174.066406 1.121094 176.386719 1.570312 178.40625 2.394531 C 180.425781 3.21875 182.449219 4.414062 184.167969 5.835938 C 185.816406 7.257812 187.3125 9.054688 188.4375 10.925781 C 189.632812 12.796875 190.457031 14.96875 190.90625 17.140625 C 191.429688 19.308594 191.503906 21.628906 191.28125 23.800781 C 191.054688 25.96875 190.457031 28.214844 189.484375 30.238281 C 188.585938 32.257812 187.238281 34.203125 185.742188 35.773438 C 184.246094 37.347656 182.375 38.769531 180.425781 39.816406 C 178.480469 40.863281 176.3125 41.613281 174.140625 41.914062 C 171.96875 42.285156 169.574219 42.285156 167.40625 41.914062 C 165.234375 41.613281 163.0625 40.863281 161.117188 39.816406 C 159.171875 38.769531 157.300781 37.347656 155.804688 35.773438 C 154.308594 34.203125 152.960938 32.257812 152.0625 30.238281 C 151.089844 28.214844 150.488281 25.96875 150.265625 23.800781 C 150.039062 21.628906 150.117188 19.308594 150.640625 17.140625 C 151.089844 14.96875 151.988281 12.796875 153.109375 10.925781 C 154.230469 9.054688 155.730469 7.257812 157.449219 5.835938 C 159.097656 4.414062 161.117188 3.21875 163.136719 2.394531 C 165.160156 1.570312 167.480469 1.121094 169.648438 0.972656 C 171.894531 0.824219 174.214844 1.121094 176.3125 1.722656 C 178.40625 2.246094 180.578125 3.292969 182.375 4.492188 C 184.167969 5.761719 185.890625 7.335938 187.238281 9.054688 C 188.511719 10.851562 189.632812 12.949219 190.308594 14.96875 C 191.054688 17.0625 191.953125 21.332031 191.429688 21.554688 C 190.832031 21.855469 187.011719 15.191406 186.414062 15.492188 C 185.367188 16.015625 191.578125 30.011719 192.328125 36.824219 C 192.925781 42.886719 191.355469 48.421875 191.355469 54.1875 C 191.355469 59.875 192.328125 65.488281 192.253906 71.25 C 192.179688 77.164062 190.753906 82.101562 190.980469 89.140625 C 191.28125 99.316406 194.648438 112.789062 195.921875 126.1875 C 197.34375 141.902344 198.390625 161.960938 198.613281 177.753906 C 198.839844 191.152344 198.6875 204.621094 197.714844 214.949219 C 197.117188 222.359375 193.152344 228.199219 194.796875 233.960938 C 196.519531 240.023438 209.765625 248.105469 208.417969 250.128906 C 206.699219 252.820312 177.582031 248.105469 172.269531 240.324219 C 167.03125 232.6875 174.664062 214.277344 176.085938 204.25 C 177.058594 197.0625 178.40625 193.097656 179.378906 185.835938 C 180.652344 175.65625 180.425781 158.742188 182.222656 148.9375 C 183.496094 142.277344 184.542969 137.789062 187.164062 132.472656 C 189.933594 126.636719 197.714844 122.59375 198.839844 115.484375 C 200.410156 105.902344 190.082031 89.363281 188.359375 79.035156 C 187.164062 71.699219 185.742188 65.863281 187.460938 59.726562 C 189.332031 52.914062 194.871094 44.832031 200.261719 40.339844 C 205.125 36.222656 212.160156 32.257812 217.699219 32.78125 C 223.238281 33.378906 229.972656 38.992188 233.492188 43.785156 C 236.785156 48.273438 238.957031 54.636719 238.730469 60.097656 C 238.582031 65.710938 232.667969 71.101562 231.996094 77.015625 C 231.320312 83.226562 236.261719 96.097656 235.136719 96.472656 C 234.164062 96.847656 226.679688 81.28125 226.53125 81.355469 C 226.382812 81.429688 237.683594 100.738281 236.710938 101.414062 C 235.8125 102.011719 221.066406 85.398438 221.066406 85.320312 C 221.140625 85.320312 232.59375 94.226562 235.660156 99.839844 C 238.65625 105.230469 239.179688 111.964844 239.703125 118.027344 C 240.152344 123.941406 239.402344 128.28125 238.804688 135.691406 C 237.683594 148.566406 234.988281 172.664062 232.367188 188.230469 C 230.273438 200.730469 227.054688 210.609375 225.035156 221.910156 C 223.011719 233.136719 222.789062 246.3125 220.320312 255.890625 C 218.449219 263.152344 217.175781 269.660156 213.207031 274.75 C 209.390625 279.765625 197.34375 286.5 197.042969 286.128906 C 196.816406 285.828125 211.636719 270.710938 213.058594 271.609375 C 214.332031 272.429688 210.589844 284.707031 206.847656 288.671875 C 203.253906 292.488281 196.667969 294.359375 191.28125 295.332031 C 185.890625 296.304688 179.976562 294.882812 174.363281 294.359375 C 168.75 293.835938 163.136719 293.386719 157.601562 292.265625 C 152.0625 290.992188 146.746094 286.949219 141.132812 287.175781 C 134.996094 287.324219 128.335938 292.5625 122.125 294.359375 C 116.359375 295.933594 110.296875 299.074219 105.058594 297.652344 C 99.296875 296.007812 89.34375 283.734375 89.34375 283.734375 C 89.34375 283.734375 103.1875 295.332031 102.8125 295.855469 C 102.441406 296.382812 90.539062 291.140625 87.023438 286.800781 C 83.578125 282.535156 84.703125 275.273438 81.785156 270.335938 C 78.640625 265.023438 68.6875 255.964844 68.460938 256.113281 C 68.238281 256.339844 78.789062 269.738281 78.9375 269.660156 C 79.015625 269.585938 72.503906 259.558594 68.6875 255.066406 C 64.945312 250.652344 59.480469 247.507812 56.261719 242.867188 C 53.042969 238.226562 52.371094 232.539062 49.449219 227.226562 C 46.007812 221.011719 39.496094 214.800781 36.578125 208.066406 C 33.882812 201.703125 33.882812 194.445312 32.085938 187.933594 C 30.289062 181.71875 28.644531 175.285156 25.800781 169.820312 C 23.105469 164.507812 15.171875 155.898438 15.695312 155.449219 C 16.21875 155 28.496094 166.601562 28.496094 166.601562 C 28.496094 166.675781 10.605469 150.808594 10.457031 150.960938 C 10.308594 151.109375 24.078125 164.507812 24.152344 164.429688 C 24.304688 164.355469 8.511719 148.640625 8.8125 148.339844 C 9.035156 148.117188 24.976562 161.363281 24.601562 161.886719 C 24.304688 162.335938 13 156.199219 9.257812 153.128906 C 6.492188 150.886719 4.46875 148.191406 3.121094 146.09375 C 2.222656 144.746094 1.851562 143.699219 1.402344 142.351562 C 1.027344 141.082031 0.726562 139.957031 0.726562 138.386719 C 0.726562 136.140625 1.402344 132.398438 2.148438 130.378906 C 2.75 128.878906 3.273438 128.058594 4.246094 126.859375 C 5.742188 125.214844 8.285156 122.894531 10.683594 121.84375 C 13.078125 120.722656 16.070312 120.199219 18.691406 120.347656 C 21.308594 120.5 24.453125 121.769531 26.472656 122.820312 C 27.820312 123.492188 29.691406 125.289062 29.691406 125.289062 " clip-rule="nonzero"/></clipPath><clipPath id="734944e9db"><rect x="0" width="240" y="0" height="299"/></clipPath><clipPath id="10c96df6ad"><path d="M 97.277344 45.035156 L 141.984375 45.035156 L 141.984375 262.582031 L 97.277344 262.582031 Z M 97.277344 45.035156 " clip-rule="nonzero"/></clipPath><clipPath id="93c717a901"><path d="M 137.863281 60.25 C 144.296875 109.570312 140.40625 118.179688 140.109375 126.113281 C 139.882812 132.699219 141.453125 137.9375 141.605469 144.375 C 141.828125 151.410156 142.054688 159.417969 141.003906 166.828125 C 139.957031 174.085938 135.542969 181.644531 135.542969 188.308594 C 135.46875 194.21875 139.507812 198.113281 139.582031 204.921875 C 139.734375 215.625 135.09375 245.785156 130.378906 246.609375 C 126.636719 247.207031 121.695312 224.90625 116.007812 222.960938 C 111.816406 221.460938 102.3125 228.648438 101.9375 228.050781 C 101.710938 227.601562 105.003906 224.90625 106.800781 223.78125 C 108.597656 222.660156 110.695312 221.835938 112.789062 221.3125 C 114.808594 220.863281 117.128906 220.714844 119.226562 220.9375 C 121.320312 221.089844 123.492188 221.6875 125.4375 222.585938 C 127.382812 223.410156 129.253906 224.679688 130.828125 226.101562 C 132.398438 227.601562 133.820312 229.394531 134.792969 231.265625 C 135.839844 233.0625 136.589844 235.234375 136.964844 237.328125 C 137.339844 239.425781 137.339844 241.671875 137.039062 243.765625 C 136.664062 245.863281 135.992188 248.03125 135.019531 249.902344 C 134.046875 251.847656 132.699219 253.644531 131.199219 255.140625 C 129.628906 256.5625 127.757812 257.910156 125.886719 258.808594 C 123.941406 259.707031 121.769531 260.304688 119.675781 260.605469 C 117.578125 260.832031 115.257812 260.753906 113.238281 260.304688 C 111.144531 259.859375 109.046875 259.109375 107.175781 257.988281 C 105.378906 256.9375 103.582031 255.441406 102.238281 253.871094 C 100.816406 252.296875 99.617188 250.351562 98.792969 248.40625 C 98.046875 246.386719 97.519531 244.214844 97.371094 242.121094 C 97.222656 239.949219 97.445312 237.703125 97.96875 235.683594 C 98.570312 233.585938 99.46875 231.566406 100.664062 229.769531 C 101.789062 227.972656 103.359375 226.328125 105.003906 225.054688 C 106.726562 223.707031 108.671875 222.660156 110.695312 221.910156 C 112.714844 221.238281 114.960938 220.863281 117.054688 220.789062 C 119.152344 220.789062 121.398438 221.164062 123.417969 221.761719 C 125.4375 222.4375 127.457031 223.484375 129.179688 224.753906 C 130.902344 226.027344 132.472656 227.675781 133.671875 229.394531 C 134.867188 231.117188 135.839844 233.214844 136.441406 235.234375 C 137.039062 237.253906 137.339844 239.5 137.1875 241.671875 C 137.113281 243.765625 136.664062 246.011719 135.917969 247.957031 C 135.167969 249.976562 134.570312 251.773438 132.625 253.496094 C 129.253906 256.640625 120.050781 263.972656 114.886719 262.253906 C 107.699219 259.859375 97.445312 237.628906 97.445312 228.273438 C 97.445312 221.6875 105.230469 217.71875 106.054688 211.433594 C 107.027344 204.023438 101.1875 195.714844 100.738281 186.511719 C 100.140625 175.132812 105.003906 158.96875 105.15625 148.117188 C 105.230469 140.109375 102.085938 133.671875 103.285156 127.308594 C 104.480469 121.320312 111.066406 116.832031 111.816406 110.84375 C 112.640625 104.183594 108 96.847656 106.800781 88.988281 C 105.304688 80.082031 103.660156 65.113281 104.03125 59.949219 C 104.183594 57.929688 104.40625 57.40625 105.082031 55.910156 C 105.980469 53.960938 108.222656 50.820312 109.796875 49.320312 C 110.917969 48.199219 111.742188 47.601562 113.164062 47 C 115.183594 46.105469 118.476562 45.128906 121.097656 45.128906 C 123.714844 45.128906 126.933594 46.253906 128.957031 47.152344 C 130.378906 47.824219 131.199219 48.425781 132.324219 49.546875 C 133.894531 51.117188 135.992188 54.261719 136.890625 56.28125 C 137.488281 57.703125 137.863281 60.25 137.863281 60.25 " clip-rule="nonzero"/></clipPath><clipPath id="a207460c8f"><path d="M 0.277344 0.0351562 L 44.984375 0.0351562 L 44.984375 217.582031 L 0.277344 217.582031 Z M 0.277344 0.0351562 " clip-rule="nonzero"/></clipPath><clipPath id="4a964c07d0"><path d="M 40.863281 15.25 C 47.296875 64.570312 43.40625 73.179688 43.109375 81.113281 C 42.882812 87.699219 44.453125 92.9375 44.605469 99.375 C 44.828125 106.410156 45.054688 114.417969 44.003906 121.828125 C 42.957031 129.085938 38.542969 136.644531 38.542969 143.308594 C 38.46875 149.21875 42.507812 153.113281 42.582031 159.921875 C 42.734375 170.625 38.09375 200.785156 33.378906 201.609375 C 29.636719 202.207031 24.695312 179.90625 19.007812 177.960938 C 14.816406 176.460938 5.3125 183.648438 4.9375 183.050781 C 4.710938 182.601562 8.003906 179.90625 9.800781 178.78125 C 11.597656 177.660156 13.695312 176.835938 15.789062 176.3125 C 17.808594 175.863281 20.128906 175.714844 22.226562 175.9375 C 24.320312 176.089844 26.492188 176.6875 28.4375 177.585938 C 30.382812 178.410156 32.253906 179.679688 33.828125 181.101562 C 35.398438 182.601562 36.820312 184.394531 37.792969 186.265625 C 38.839844 188.0625 39.589844 190.234375 39.964844 192.328125 C 40.339844 194.425781 40.339844 196.671875 40.039062 198.765625 C 39.664062 200.863281 38.992188 203.03125 38.019531 204.902344 C 37.046875 206.847656 35.699219 208.644531 34.199219 210.140625 C 32.628906 211.5625 30.757812 212.910156 28.886719 213.808594 C 26.941406 214.707031 24.769531 215.304688 22.675781 215.605469 C 20.578125 215.832031 18.257812 215.753906 16.238281 215.304688 C 14.144531 214.859375 12.046875 214.109375 10.175781 212.988281 C 8.378906 211.9375 6.582031 210.441406 5.238281 208.871094 C 3.816406 207.296875 2.617188 205.351562 1.792969 203.40625 C 1.046875 201.386719 0.519531 199.214844 0.371094 197.121094 C 0.222656 194.949219 0.445312 192.703125 0.96875 190.683594 C 1.570312 188.585938 2.46875 186.566406 3.664062 184.769531 C 4.789062 182.972656 6.359375 181.328125 8.003906 180.054688 C 9.726562 178.707031 11.671875 177.660156 13.695312 176.910156 C 15.714844 176.238281 17.960938 175.863281 20.054688 175.789062 C 22.152344 175.789062 24.398438 176.164062 26.417969 176.761719 C 28.4375 177.4375 30.457031 178.484375 32.179688 179.753906 C 33.902344 181.027344 35.472656 182.675781 36.671875 184.394531 C 37.867188 186.117188 38.839844 188.214844 39.441406 190.234375 C 40.039062 192.253906 40.339844 194.5 40.1875 196.671875 C 40.113281 198.765625 39.664062 201.011719 38.917969 202.957031 C 38.167969 204.976562 37.570312 206.773438 35.625 208.496094 C 32.253906 211.640625 23.050781 218.972656 17.886719 217.253906 C 10.699219 214.859375 0.445312 192.628906 0.445312 183.273438 C 0.445312 176.6875 8.230469 172.71875 9.054688 166.433594 C 10.027344 159.023438 4.1875 150.714844 3.738281 141.511719 C 3.140625 130.132812 8.003906 113.96875 8.15625 103.117188 C 8.230469 95.109375 5.085938 88.671875 6.285156 82.308594 C 7.480469 76.320312 14.066406 71.832031 14.816406 65.84375 C 15.640625 59.183594 11 51.847656 9.800781 43.988281 C 8.304688 35.082031 6.660156 20.113281 7.03125 14.949219 C 7.183594 12.929688 7.40625 12.40625 8.082031 10.910156 C 8.980469 8.960938 11.222656 5.820312 12.796875 4.320312 C 13.917969 3.199219 14.742188 2.601562 16.164062 2 C 18.183594 1.105469 21.476562 0.128906 24.097656 0.128906 C 26.714844 0.128906 29.933594 1.253906 31.957031 2.152344 C 33.378906 2.824219 34.199219 3.425781 35.324219 4.546875 C 36.894531 6.117188 38.992188 9.261719 39.890625 11.28125 C 40.488281 12.703125 40.863281 15.25 40.863281 15.25 " clip-rule="nonzero"/></clipPath><clipPath id="1ecfd1a8a3"><rect x="0" width="45" y="0" height="218"/></clipPath><clipPath id="1a50a6e2f9"><path d="M 49.324219 182.839844 L 82.386719 182.839844 L 82.386719 216.667969 L 49.324219 216.667969 Z M 49.324219 182.839844 " clip-rule="nonzero"/></clipPath><clipPath id="3be0a44c24"><path d="M 82.328125 194.742188 C 82.328125 205.371094 81.128906 208.066406 79.484375 210.160156 C 77.914062 212.183594 75.515625 214.054688 73.121094 215.101562 C 70.800781 216.222656 67.808594 216.746094 65.1875 216.597656 C 62.644531 216.449219 59.726562 215.550781 57.554688 214.203125 C 55.308594 212.855469 53.140625 210.683594 51.792969 208.441406 C 50.445312 206.269531 49.621094 203.351562 49.398438 200.804688 C 49.246094 198.1875 49.847656 195.265625 50.894531 192.871094 C 51.941406 190.476562 53.8125 188.082031 55.832031 186.511719 C 57.929688 184.863281 60.625 183.667969 63.167969 183.21875 C 65.789062 182.769531 68.78125 182.917969 71.25 183.667969 C 73.722656 184.488281 78.136719 187.859375 78.136719 187.859375 " clip-rule="nonzero"/></clipPath><clipPath id="95724c72ab"><path d="M 0.324219 0.839844 L 33.386719 0.839844 L 33.386719 34.667969 L 0.324219 34.667969 Z M 0.324219 0.839844 " clip-rule="nonzero"/></clipPath><clipPath id="4de99d2fca"><path d="M 33.328125 12.742188 C 33.328125 23.371094 32.128906 26.066406 30.484375 28.160156 C 28.914062 30.183594 26.515625 32.054688 24.121094 33.101562 C 21.800781 34.222656 18.808594 34.746094 16.1875 34.597656 C 13.644531 34.449219 10.726562 33.550781 8.554688 32.203125 C 6.308594 30.855469 4.140625 28.683594 2.792969 26.441406 C 1.445312 24.269531 0.621094 21.351562 0.398438 18.804688 C 0.246094 16.1875 0.847656 13.265625 1.894531 10.871094 C 2.941406 8.476562 4.8125 6.082031 6.832031 4.511719 C 8.929688 2.863281 11.625 1.667969 14.167969 1.21875 C 16.789062 0.769531 19.78125 0.917969 22.25 1.667969 C 24.722656 2.488281 29.136719 5.859375 29.136719 5.859375 " clip-rule="nonzero"/></clipPath><clipPath id="ece8f4ddc5"><rect x="0" width="34" y="0" height="35"/></clipPath><clipPath id="33987327a5"><path d="M 110 15.542969 L 215.574219 15.542969 L 215.574219 305 L 110 305 Z M 110 15.542969 " clip-rule="nonzero"/></clipPath><clipPath id="90ad38aeb2"><path d="M 110.394531 250.652344 C 121.472656 231.867188 123.269531 232.613281 123.492188 231.792969 C 123.941406 230.519531 119.898438 227.824219 119.226562 224.90625 C 118.253906 220.414062 118.777344 211.285156 121.320312 207.09375 C 123.34375 203.648438 131.125 200.355469 131.125 200.207031 C 131.050781 200.207031 122.070312 207.167969 121.695312 206.792969 C 121.246094 206.34375 129.253906 200.355469 129.929688 196.6875 C 130.527344 193.097656 126.1875 189.28125 125.8125 184.9375 C 125.363281 179.847656 126.335938 173.113281 128.65625 167.800781 C 131.125 162.113281 140.632812 151.933594 140.855469 152.082031 C 141.082031 152.230469 128.207031 168.472656 129.253906 169.597656 C 130.453125 170.792969 148.566406 161.886719 150.660156 156.347656 C 152.308594 151.933594 146.84375 146.769531 145.796875 140.929688 C 144.597656 133.746094 144.449219 123.714844 144.972656 116.308594 C 145.421875 110.171875 147.144531 105.378906 147.964844 99.691406 C 148.863281 93.929688 149.164062 87.867188 150.0625 81.878906 C 150.960938 75.890625 153.128906 69.902344 153.207031 63.765625 C 153.28125 57.480469 151.410156 48.949219 150.210938 44.683594 C 149.613281 42.511719 148.714844 41.464844 148.191406 39.890625 C 147.667969 38.542969 147.21875 37.273438 146.992188 36 C 146.769531 34.652344 146.695312 33.230469 146.769531 31.882812 C 146.84375 30.535156 147.066406 29.113281 147.515625 27.84375 C 147.890625 26.496094 148.488281 25.222656 149.238281 24.101562 C 149.910156 22.902344 150.808594 21.78125 151.78125 20.882812 C 152.757812 19.910156 153.878906 19.011719 155 18.335938 C 156.199219 17.664062 157.472656 17.0625 158.742188 16.691406 C 160.089844 16.242188 161.4375 16.015625 162.785156 15.941406 C 164.207031 15.867188 165.554688 15.941406 166.902344 16.242188 C 168.25 16.464844 169.597656 16.914062 170.867188 17.4375 C 172.066406 18.039062 173.261719 18.785156 174.3125 19.609375 C 175.433594 20.433594 176.40625 21.480469 177.230469 22.527344 C 178.054688 23.574219 179.324219 26.046875 179.324219 26.046875 C 179.324219 26.046875 180.671875 28.515625 181.496094 30.6875 C 183.292969 35.027344 187.183594 44.53125 188.308594 51.117188 C 189.355469 56.957031 190.027344 62.496094 188.832031 68.109375 C 187.484375 74.171875 181.195312 80.082031 180 86.144531 C 178.953125 91.832031 181.046875 97.597656 181.421875 103.359375 C 181.871094 109.273438 182.394531 115.257812 182.695312 121.171875 C 182.917969 126.933594 182.394531 132.625 182.992188 138.238281 C 183.515625 143.925781 183.515625 149.835938 185.910156 155 C 188.53125 160.691406 198.035156 167.125 198.933594 170.492188 C 199.308594 171.839844 197.8125 172.589844 198.335938 173.710938 C 199.234375 175.734375 205.371094 176.707031 207.992188 179.773438 C 211.210938 183.515625 214.652344 189.953125 215.101562 195.566406 C 215.550781 201.703125 212.332031 210.460938 209.785156 215.25 C 207.992188 218.617188 204.773438 219.21875 203.277344 222.808594 C 200.878906 228.496094 203.425781 242.417969 201.40625 248.105469 C 200.28125 251.476562 196.316406 255.066406 196.464844 255.441406 C 196.464844 255.441406 196.464844 255.441406 196.539062 255.441406 C 196.765625 255.515625 197.214844 255.890625 197.511719 256.039062 C 197.8125 256.265625 198.1875 256.265625 198.558594 256.488281 C 199.085938 256.789062 199.683594 257.460938 200.355469 257.835938 C 200.957031 258.285156 201.777344 258.660156 202.226562 259.109375 C 202.527344 259.332031 202.675781 259.707031 202.902344 259.933594 C 203.199219 260.230469 203.5 260.304688 203.800781 260.679688 C 204.171875 261.128906 204.546875 261.953125 204.996094 262.550781 C 205.445312 263.152344 206.121094 263.75 206.417969 264.273438 C 206.644531 264.648438 206.644531 265.023438 206.792969 265.394531 C 206.941406 265.695312 207.242188 265.917969 207.390625 266.292969 C 207.617188 266.894531 207.765625 267.789062 207.914062 268.464844 C 208.140625 269.214844 208.589844 269.960938 208.738281 270.636719 C 208.8125 271.007812 208.738281 271.382812 208.738281 271.757812 C 208.8125 272.132812 208.964844 272.355469 209.039062 272.804688 C 209.113281 273.402344 208.890625 274.300781 208.8125 275.050781 C 208.8125 275.800781 208.964844 276.699219 208.890625 277.296875 C 208.8125 277.746094 208.664062 278.042969 208.589844 278.34375 C 208.515625 278.71875 208.589844 279.09375 208.515625 279.464844 C 208.363281 280.066406 207.839844 280.886719 207.617188 281.5625 C 207.316406 282.234375 207.167969 283.359375 206.941406 283.734375 C 206.792969 283.882812 206.644531 283.882812 206.570312 284.03125 C 206.269531 284.332031 206.269531 285.003906 205.820312 285.679688 C 204.996094 286.949219 203.050781 289.269531 201.328125 290.691406 C 199.609375 292.039062 197.585938 293.164062 195.492188 293.984375 C 193.472656 294.734375 191.152344 295.183594 188.90625 295.257812 C 186.734375 295.257812 183.816406 294.808594 182.320312 294.285156 C 181.421875 294.0625 181.121094 293.460938 180.375 293.386719 C 179.476562 293.238281 178.054688 294.210938 177.15625 293.910156 C 176.183594 293.613281 176.03125 291.667969 174.835938 291.589844 C 172.066406 291.367188 165.328125 301.695312 159.191406 303.566406 C 152.382812 305.585938 141.828125 304.839844 135.46875 301.917969 C 129.777344 299.300781 125.738281 293.6875 121.996094 288.296875 C 118.101562 282.535156 112.191406 268.914062 113.015625 268.316406 C 113.914062 267.789062 125.585938 282.460938 125.585938 282.460938 C 125.664062 282.460938 115.410156 273.253906 112.863281 267.714844 C 110.542969 262.550781 110.394531 250.652344 110.394531 250.652344 M 167.277344 172.589844 C 168.699219 171.542969 169.148438 169.820312 169.070312 169.820312 C 168.996094 169.746094 167.277344 172.589844 167.277344 172.589844 M 180.449219 293.386719 C 180.449219 293.386719 180.523438 293.386719 180.523438 293.386719 C 180.523438 293.386719 180.449219 293.386719 180.449219 293.386719 " clip-rule="nonzero"/></clipPath><clipPath id="05b8155bbf"><path d="M 0.171875 0.808594 L 105.550781 0.808594 L 105.550781 290 L 0.171875 290 Z M 0.171875 0.808594 " clip-rule="nonzero"/></clipPath><clipPath id="81c77cc14c"><path d="M 0.394531 235.652344 C 11.472656 216.867188 13.269531 217.613281 13.492188 216.792969 C 13.941406 215.519531 9.898438 212.824219 9.226562 209.90625 C 8.253906 205.414062 8.777344 196.285156 11.320312 192.09375 C 13.34375 188.648438 21.125 185.355469 21.125 185.207031 C 21.050781 185.207031 12.070312 192.167969 11.695312 191.792969 C 11.246094 191.34375 19.253906 185.355469 19.929688 181.6875 C 20.527344 178.097656 16.1875 174.28125 15.8125 169.9375 C 15.363281 164.847656 16.335938 158.113281 18.65625 152.800781 C 21.125 147.113281 30.632812 136.933594 30.855469 137.082031 C 31.082031 137.230469 18.207031 153.472656 19.253906 154.597656 C 20.453125 155.792969 38.566406 146.886719 40.660156 141.347656 C 42.308594 136.933594 36.84375 131.769531 35.796875 125.929688 C 34.597656 118.746094 34.449219 108.714844 34.972656 101.308594 C 35.421875 95.171875 37.144531 90.378906 37.964844 84.691406 C 38.863281 78.929688 39.164062 72.867188 40.0625 66.878906 C 40.960938 60.890625 43.128906 54.902344 43.207031 48.765625 C 43.28125 42.480469 41.410156 33.949219 40.210938 29.683594 C 39.613281 27.511719 38.714844 26.464844 38.191406 24.890625 C 37.667969 23.542969 37.21875 22.273438 36.992188 21 C 36.769531 19.652344 36.695312 18.230469 36.769531 16.882812 C 36.84375 15.535156 37.066406 14.113281 37.515625 12.84375 C 37.890625 11.496094 38.488281 10.222656 39.238281 9.101562 C 39.910156 7.902344 40.808594 6.78125 41.78125 5.882812 C 42.757812 4.910156 43.878906 4.011719 45 3.335938 C 46.199219 2.664062 47.472656 2.0625 48.742188 1.691406 C 50.089844 1.242188 51.4375 1.015625 52.785156 0.941406 C 54.207031 0.867188 55.554688 0.941406 56.902344 1.242188 C 58.25 1.464844 59.597656 1.914062 60.867188 2.4375 C 62.066406 3.039062 63.261719 3.785156 64.3125 4.609375 C 65.433594 5.433594 66.40625 6.480469 67.230469 7.527344 C 68.054688 8.574219 69.324219 11.046875 69.324219 11.046875 C 69.324219 11.046875 70.671875 13.515625 71.496094 15.6875 C 73.292969 20.027344 77.183594 29.53125 78.308594 36.117188 C 79.355469 41.957031 80.027344 47.496094 78.832031 53.109375 C 77.484375 59.171875 71.195312 65.082031 70 71.144531 C 68.953125 76.832031 71.046875 82.597656 71.421875 88.359375 C 71.871094 94.273438 72.394531 100.257812 72.695312 106.171875 C 72.917969 111.933594 72.394531 117.625 72.992188 123.238281 C 73.515625 128.925781 73.515625 134.835938 75.910156 140 C 78.53125 145.691406 88.035156 152.125 88.933594 155.492188 C 89.308594 156.839844 87.8125 157.589844 88.335938 158.710938 C 89.234375 160.734375 95.371094 161.707031 97.992188 164.773438 C 101.210938 168.515625 104.652344 174.953125 105.101562 180.566406 C 105.550781 186.703125 102.332031 195.460938 99.785156 200.25 C 97.992188 203.617188 94.773438 204.21875 93.277344 207.808594 C 90.878906 213.496094 93.425781 227.417969 91.40625 233.105469 C 90.28125 236.476562 86.316406 240.066406 86.464844 240.441406 C 86.464844 240.441406 86.464844 240.441406 86.539062 240.441406 C 86.765625 240.515625 87.214844 240.890625 87.511719 241.039062 C 87.8125 241.265625 88.1875 241.265625 88.558594 241.488281 C 89.085938 241.789062 89.683594 242.460938 90.355469 242.835938 C 90.957031 243.285156 91.777344 243.660156 92.226562 244.109375 C 92.527344 244.332031 92.675781 244.707031 92.902344 244.933594 C 93.199219 245.230469 93.5 245.304688 93.800781 245.679688 C 94.171875 246.128906 94.546875 246.953125 94.996094 247.550781 C 95.445312 248.152344 96.121094 248.75 96.417969 249.273438 C 96.644531 249.648438 96.644531 250.023438 96.792969 250.394531 C 96.941406 250.695312 97.242188 250.917969 97.390625 251.292969 C 97.617188 251.894531 97.765625 252.789062 97.914062 253.464844 C 98.140625 254.214844 98.589844 254.960938 98.738281 255.636719 C 98.8125 256.007812 98.738281 256.382812 98.738281 256.757812 C 98.8125 257.132812 98.964844 257.355469 99.039062 257.804688 C 99.113281 258.402344 98.890625 259.300781 98.8125 260.050781 C 98.8125 260.800781 98.964844 261.699219 98.890625 262.296875 C 98.8125 262.746094 98.664062 263.042969 98.589844 263.34375 C 98.515625 263.71875 98.589844 264.09375 98.515625 264.464844 C 98.363281 265.066406 97.839844 265.886719 97.617188 266.5625 C 97.316406 267.234375 97.167969 268.359375 96.941406 268.734375 C 96.792969 268.882812 96.644531 268.882812 96.570312 269.03125 C 96.269531 269.332031 96.269531 270.003906 95.820312 270.679688 C 94.996094 271.949219 93.050781 274.269531 91.328125 275.691406 C 89.609375 277.039062 87.585938 278.164062 85.492188 278.984375 C 83.472656 279.734375 81.152344 280.183594 78.90625 280.257812 C 76.734375 280.257812 73.816406 279.808594 72.320312 279.285156 C 71.421875 279.0625 71.121094 278.460938 70.375 278.386719 C 69.476562 278.238281 68.054688 279.210938 67.15625 278.910156 C 66.183594 278.613281 66.03125 276.667969 64.835938 276.589844 C 62.066406 276.367188 55.328125 286.695312 49.191406 288.566406 C 42.382812 290.585938 31.828125 289.839844 25.46875 286.917969 C 19.777344 284.300781 15.738281 278.6875 11.996094 273.296875 C 8.101562 267.535156 2.191406 253.914062 3.015625 253.316406 C 3.914062 252.789062 15.585938 267.460938 15.585938 267.460938 C 15.664062 267.460938 5.410156 258.253906 2.863281 252.714844 C 0.542969 247.550781 0.394531 235.652344 0.394531 235.652344 M 57.277344 157.589844 C 58.699219 156.542969 59.148438 154.820312 59.070312 154.820312 C 58.996094 154.746094 57.277344 157.589844 57.277344 157.589844 M 70.449219 278.386719 C 70.449219 278.386719 70.523438 278.386719 70.523438 278.386719 C 70.523438 278.386719 70.449219 278.386719 70.449219 278.386719 " clip-rule="nonzero"/></clipPath><clipPath id="80b1d40716"><rect x="0" width="106" y="0" height="290"/></clipPath><clipPath id="9b1e6c7e6e"><path d="M 149.617188 164.574219 L 182.679688 164.574219 L 182.679688 198.40625 L 149.617188 198.40625 Z M 149.617188 164.574219 " clip-rule="nonzero"/></clipPath><clipPath id="9b0900438d"><path d="M 182.542969 176.554688 C 182.617188 187.109375 181.347656 189.878906 179.773438 191.898438 C 178.128906 193.996094 175.808594 195.792969 173.414062 196.914062 C 171.019531 197.960938 168.097656 198.484375 165.480469 198.335938 C 162.859375 198.1875 160.015625 197.289062 157.769531 195.941406 C 155.523438 194.59375 153.429688 192.5 152.082031 190.253906 C 150.734375 188.007812 149.835938 185.164062 149.6875 182.542969 C 149.539062 179.925781 150.0625 177.003906 151.109375 174.609375 C 152.230469 172.214844 154.027344 169.894531 156.125 168.25 C 158.144531 166.675781 160.914062 165.40625 163.457031 164.957031 C 166.003906 164.507812 168.996094 164.65625 171.542969 165.480469 C 174.011719 166.226562 178.425781 169.597656 178.425781 169.597656 " clip-rule="nonzero"/></clipPath><clipPath id="528ad036bd"><path d="M 0.617188 0.574219 L 33.679688 0.574219 L 33.679688 34.40625 L 0.617188 34.40625 Z M 0.617188 0.574219 " clip-rule="nonzero"/></clipPath><clipPath id="5e097ba345"><path d="M 33.542969 12.554688 C 33.617188 23.109375 32.347656 25.878906 30.773438 27.898438 C 29.128906 29.996094 26.808594 31.792969 24.414062 32.914062 C 22.019531 33.960938 19.097656 34.484375 16.480469 34.335938 C 13.859375 34.1875 11.015625 33.289062 8.769531 31.941406 C 6.523438 30.59375 4.429688 28.5 3.082031 26.253906 C 1.734375 24.007812 0.835938 21.164062 0.6875 18.542969 C 0.539062 15.925781 1.0625 13.003906 2.109375 10.609375 C 3.230469 8.214844 5.027344 5.894531 7.125 4.25 C 9.144531 2.675781 11.914062 1.40625 14.457031 0.957031 C 17.003906 0.507812 19.996094 0.65625 22.542969 1.480469 C 25.011719 2.226562 29.425781 5.597656 29.425781 5.597656 " clip-rule="nonzero"/></clipPath><clipPath id="ea0d9c6cf3"><rect x="0" width="34" y="0" height="35"/></clipPath><clipPath id="80c19756a6"><path d="M 121.917969 311.777344 L 248.398438 311.777344 L 248.398438 351 L 121.917969 351 Z M 121.917969 311.777344 " clip-rule="nonzero"/></clipPath><clipPath id="0aff036580"><path d="M 140.332031 312.996094 C 171.992188 313.59375 177.53125 313.222656 183.515625 314.644531 C 190.179688 316.289062 203.574219 323.25 203.574219 323.25 C 203.574219 323.25 187.484375 318.011719 187.707031 316.363281 C 187.859375 314.792969 203.425781 311.722656 204.25 313.371094 C 205.296875 315.242188 189.953125 329.3125 189.503906 328.9375 C 189.203125 328.640625 195.34375 316.738281 200.058594 313.96875 C 204.621094 311.273438 211.882812 312.546875 217.121094 312.25 C 221.539062 311.949219 226.027344 311.800781 229.394531 312.023438 C 231.792969 312.25 233.511719 312.398438 235.457031 313.070312 C 237.328125 313.671875 239.277344 314.71875 240.847656 315.914062 C 242.492188 317.113281 243.914062 318.683594 245.113281 320.40625 C 246.234375 322.050781 247.132812 324 247.65625 325.945312 C 248.183594 327.890625 248.40625 330.0625 248.332031 332.007812 C 248.183594 334.027344 247.734375 336.125 246.984375 338.070312 C 246.234375 339.941406 245.113281 341.738281 243.839844 343.308594 C 242.492188 344.804688 240.921875 346.226562 239.125 347.273438 C 237.40625 348.324219 235.457031 349.070312 233.4375 349.519531 C 231.492188 349.96875 229.320312 350.042969 227.300781 349.894531 C 225.355469 349.671875 223.257812 349.070312 221.460938 348.246094 C 219.589844 347.351562 217.796875 346.152344 216.375 344.804688 C 214.875 343.382812 213.605469 341.660156 212.632812 339.867188 C 211.65625 338.144531 210.984375 336.046875 210.683594 334.101562 C 210.386719 332.082031 210.386719 329.910156 210.683594 327.964844 C 210.984375 325.945312 211.65625 323.921875 212.632812 322.128906 C 213.605469 320.332031 214.875 318.609375 216.375 317.261719 C 217.796875 315.839844 219.589844 314.644531 221.460938 313.820312 C 223.257812 312.996094 225.355469 312.398438 227.375 312.171875 C 229.320312 311.949219 231.492188 312.097656 233.4375 312.472656 C 235.457031 312.921875 237.40625 313.746094 239.199219 314.792969 C 240.921875 315.839844 242.570312 317.1875 243.839844 318.757812 C 245.113281 320.257812 246.234375 322.128906 246.984375 324 C 247.734375 325.871094 248.183594 327.964844 248.332031 329.984375 C 248.40625 332.007812 248.183594 334.175781 247.65625 336.125 C 247.132812 338.070312 246.234375 340.015625 245.113281 341.660156 C 243.914062 343.308594 242.492188 344.878906 240.847656 346.078125 C 239.277344 347.351562 237.328125 348.324219 235.457031 348.996094 C 233.511719 349.59375 232.015625 349.820312 229.394531 349.96875 C 224.605469 350.34375 210.160156 352.140625 209.1875 349.671875 C 208.140625 347.125 223.859375 335.300781 223.484375 334.851562 C 223.183594 334.476562 212.78125 345.703125 205.96875 348.246094 C 198.785156 350.941406 190.179688 349.894531 181.121094 349.894531 C 170.417969 349.96875 154.476562 348.621094 145.871094 347.875 C 140.855469 347.425781 136.738281 347.273438 133.96875 346.453125 C 132.324219 346.003906 131.5 345.628906 130.152344 344.730469 C 128.355469 343.457031 125.738281 341.210938 124.390625 338.890625 C 123.042969 336.648438 122.144531 333.726562 121.996094 331.035156 C 121.84375 328.414062 122.445312 325.347656 123.566406 322.949219 C 124.613281 320.554688 126.933594 318.011719 128.65625 316.515625 C 129.855469 315.464844 130.675781 314.941406 132.175781 314.417969 C 134.269531 313.59375 140.332031 312.996094 140.332031 312.996094 " clip-rule="nonzero"/></clipPath><clipPath id="3c2aea504e"><path d="M 0.917969 0.777344 L 127.398438 0.777344 L 127.398438 40 L 0.917969 40 Z M 0.917969 0.777344 " clip-rule="nonzero"/></clipPath><clipPath id="32f0dc4073"><path d="M 19.332031 1.996094 C 50.992188 2.59375 56.53125 2.222656 62.515625 3.644531 C 69.179688 5.289062 82.574219 12.25 82.574219 12.25 C 82.574219 12.25 66.484375 7.011719 66.707031 5.363281 C 66.859375 3.792969 82.425781 0.722656 83.25 2.371094 C 84.296875 4.242188 68.953125 18.3125 68.503906 17.9375 C 68.203125 17.640625 74.34375 5.738281 79.058594 2.96875 C 83.621094 0.273438 90.882812 1.546875 96.121094 1.25 C 100.539062 0.949219 105.027344 0.800781 108.394531 1.023438 C 110.792969 1.25 112.511719 1.398438 114.457031 2.070312 C 116.328125 2.671875 118.277344 3.71875 119.847656 4.914062 C 121.492188 6.113281 122.914062 7.683594 124.113281 9.40625 C 125.234375 11.050781 126.132812 13 126.65625 14.945312 C 127.183594 16.890625 127.40625 19.0625 127.332031 21.007812 C 127.183594 23.027344 126.734375 25.125 125.984375 27.070312 C 125.234375 28.941406 124.113281 30.738281 122.839844 32.308594 C 121.492188 33.804688 119.921875 35.226562 118.125 36.273438 C 116.40625 37.324219 114.457031 38.070312 112.4375 38.519531 C 110.492188 38.96875 108.320312 39.042969 106.300781 38.894531 C 104.355469 38.671875 102.257812 38.070312 100.460938 37.246094 C 98.589844 36.351562 96.796875 35.152344 95.375 33.804688 C 93.875 32.382812 92.605469 30.660156 91.632812 28.867188 C 90.65625 27.144531 89.984375 25.046875 89.683594 23.101562 C 89.386719 21.082031 89.386719 18.910156 89.683594 16.964844 C 89.984375 14.945312 90.65625 12.921875 91.632812 11.128906 C 92.605469 9.332031 93.875 7.609375 95.375 6.261719 C 96.796875 4.839844 98.589844 3.644531 100.460938 2.820312 C 102.257812 1.996094 104.355469 1.398438 106.375 1.171875 C 108.320312 0.949219 110.492188 1.097656 112.4375 1.472656 C 114.457031 1.921875 116.40625 2.746094 118.199219 3.792969 C 119.921875 4.839844 121.570312 6.1875 122.839844 7.757812 C 124.113281 9.257812 125.234375 11.128906 125.984375 13 C 126.734375 14.871094 127.183594 16.964844 127.332031 18.984375 C 127.40625 21.007812 127.183594 23.175781 126.65625 25.125 C 126.132812 27.070312 125.234375 29.015625 124.113281 30.660156 C 122.914062 32.308594 121.492188 33.878906 119.847656 35.078125 C 118.277344 36.351562 116.328125 37.324219 114.457031 37.996094 C 112.511719 38.59375 111.015625 38.820312 108.394531 38.96875 C 103.605469 39.34375 89.160156 41.140625 88.1875 38.671875 C 87.140625 36.125 102.859375 24.300781 102.484375 23.851562 C 102.183594 23.476562 91.78125 34.703125 84.96875 37.246094 C 77.785156 39.941406 69.179688 38.894531 60.121094 38.894531 C 49.417969 38.96875 33.476562 37.621094 24.871094 36.875 C 19.855469 36.425781 15.738281 36.273438 12.96875 35.453125 C 11.324219 35.003906 10.5 34.628906 9.152344 33.730469 C 7.355469 32.457031 4.738281 30.210938 3.390625 27.890625 C 2.042969 25.648438 1.144531 22.726562 0.996094 20.035156 C 0.84375 17.414062 1.445312 14.347656 2.566406 11.949219 C 3.613281 9.554688 5.933594 7.011719 7.65625 5.515625 C 8.855469 4.464844 9.675781 3.941406 11.175781 3.417969 C 13.269531 2.59375 19.332031 1.996094 19.332031 1.996094 " clip-rule="nonzero"/></clipPath><clipPath id="e99ff315ef"><rect x="0" width="128" y="0" height="40"/></clipPath><clipPath id="a06283607c"><path d="M 192.425781 316 L 225.488281 316 L 225.488281 349.742188 L 192.425781 349.742188 Z M 192.425781 316 " clip-rule="nonzero"/></clipPath><clipPath id="38d54d2a8e"><path d="M 225.429688 327.816406 C 225.429688 338.445312 224.230469 341.136719 222.585938 343.234375 C 221.011719 345.253906 218.617188 347.125 216.222656 348.171875 C 213.902344 349.296875 210.910156 349.820312 208.289062 349.671875 C 205.746094 349.519531 202.828125 348.621094 200.65625 347.273438 C 198.410156 345.929688 196.242188 343.757812 194.894531 341.511719 C 193.546875 339.339844 192.648438 336.421875 192.5 333.878906 C 192.347656 331.257812 192.871094 328.339844 193.996094 325.945312 C 195.042969 323.550781 196.914062 321.15625 198.933594 319.582031 C 201.03125 317.9375 203.726562 316.738281 206.269531 316.289062 C 208.890625 315.839844 211.882812 315.992188 214.351562 316.738281 C 216.824219 317.5625 221.238281 320.929688 221.238281 320.929688 " clip-rule="nonzero"/></clipPath><clipPath id="96db38be29"><path d="M 0.425781 0 L 33.488281 0 L 33.488281 33.742188 L 0.425781 33.742188 Z M 0.425781 0 " clip-rule="nonzero"/></clipPath><clipPath id="e2b06b3c72"><path d="M 33.429688 11.816406 C 33.429688 22.445312 32.230469 25.136719 30.585938 27.234375 C 29.011719 29.253906 26.617188 31.125 24.222656 32.171875 C 21.902344 33.296875 18.910156 33.820312 16.289062 33.671875 C 13.746094 33.519531 10.828125 32.621094 8.65625 31.273438 C 6.410156 29.929688 4.242188 27.757812 2.894531 25.511719 C 1.546875 23.339844 0.648438 20.421875 0.5 17.878906 C 0.347656 15.257812 0.871094 12.339844 1.996094 9.945312 C 3.042969 7.550781 4.914062 5.15625 6.933594 3.582031 C 9.03125 1.9375 11.726562 0.738281 14.269531 0.289062 C 16.890625 -0.160156 19.882812 -0.0078125 22.351562 0.738281 C 24.824219 1.5625 29.238281 4.929688 29.238281 4.929688 " clip-rule="nonzero"/></clipPath><clipPath id="15efb8624b"><rect x="0" width="34" y="0" height="34"/></clipPath></defs><g clip-path="url(#e07756216b)"><g clip-path="url(#cb36286c47)"><g transform="matrix(1, 0, 0, 1, 34, 36)"><g clip-path="url(#734944e9db)"><g clip-path="url(#0c4184ddb1)"><g clip-path="url(#461cc89c23)"><rect x="-113.035" width="517.32" fill="#5c3a21" height="517.319981" y="-115.034997" fill-opacity="1"/></g></g></g></g></g></g><g clip-path="url(#10c96df6ad)"><g clip-path="url(#93c717a901)"><g transform="matrix(1, 0, 0, 1, 97, 45)"><g clip-path="url(#1ecfd1a8a3)"><g clip-path="url(#a207460c8f)"><g clip-path="url(#4a964c07d0)"><rect x="-176.035" width="517.32" fill="#5c3a21" height="517.319981" y="-124.034997" fill-opacity="1"/></g></g></g></g></g></g><g clip-path="url(#1a50a6e2f9)"><g clip-path="url(#3be0a44c24)"><g transform="matrix(1, 0, 0, 1, 49, 182)"><g clip-path="url(#ece8f4ddc5)"><g clip-path="url(#95724c72ab)"><g clip-path="url(#4de99d2fca)"><rect x="-128.035" width="517.32" fill="#5c3a21" height="517.319981" y="-261.034997" fill-opacity="1"/></g></g></g></g></g></g><g clip-path="url(#33987327a5)"><g clip-path="url(#90ad38aeb2)"><g transform="matrix(1, 0, 0, 1, 110, 15)"><g clip-path="url(#80b1d40716)"><g clip-path="url(#05b8155bbf)"><g clip-path="url(#81c77cc14c)"><rect x="-189.035" width="517.32" fill="#5c3a21" height="517.319981" y="-94.034997" fill-opacity="1"/></g></g></g></g></g></g><g clip-path="url(#9b1e6c7e6e)"><g clip-path="url(#9b0900438d)"><g transform="matrix(1, 0, 0, 1, 149, 164)"><g clip-path="url(#ea0d9c6cf3)"><g clip-path="url(#528ad036bd)"><g clip-path="url(#5e097ba345)"><rect x="-228.035" width="517.32" fill="#5c3a21" height="517.319981" y="-243.034997" fill-opacity="1"/></g></g></g></g></g></g><g clip-path="url(#80c19756a6)"><g clip-path="url(#0aff036580)"><g transform="matrix(1, 0, 0, 1, 121, 311)"><g clip-path="url(#e99ff315ef)"><g clip-path="url(#3c2aea504e)"><g clip-path="url(#32f0dc4073)"><rect x="-200.035" width="517.32" fill="#5c3a21" height="517.319981" y="-390.034997" fill-opacity="1"/></g></g></g></g></g></g><g clip-path="url(#a06283607c)"><g clip-path="url(#38d54d2a8e)"><g transform="matrix(1, 0, 0, 1, 192, 316)"><g clip-path="url(#15efb8624b)"><g clip-path="url(#96db38be29)"><g clip-path="url(#e2b06b3c72)"><rect x="-271.035" width="517.32" fill="#5c3a21" height="517.319981" y="-395.034997" fill-opacity="1"/></g></g></g></g></g></g><path fill="#000000" d="M -318.566406 -271.140625 C -321.359375 -268.347656 -321.59375 -266.855469 -322.265625 -247.558594 C -323.042969 -225.355469 -324.046875 -220.765625 -334.078125 -193.578125 C -342.464844 -170.847656 -342.726562 -167.285156 -342.324219 -82.070312 C -341.921875 2.042969 -342.4375 -3.078125 -333.425781 6.0625 C -326.570312 13.015625 -322.417969 14.636719 -311.394531 14.664062 L -301.5 14.691406 L -300.71875 20.589844 C -298.609375 36.480469 -283.328125 47.660156 -266.140625 45.878906 L -258.8125 45.117188 L -255.992188 50.9375 C -243.304688 77.148438 -197.875 67.878906 -197.875 39.082031 L -197.875 34.90625 L -191.09375 35.601562 C -181.484375 36.585938 -174.109375 34.207031 -167.292969 27.921875 C -156.707031 18.164062 -157.25 21.710938 -156.523438 -42.566406 L -155.878906 -99.828125 L -150.71875 -92.964844 C -126.308594 -60.519531 -94.800781 -58.515625 -85.75 -88.835938 C -81.691406 -102.429688 -82.894531 -105.53125 -106.878906 -143.292969 C -139.699219 -194.964844 -147.894531 -207.074219 -156.3125 -216.320312 C -169.820312 -231.15625 -175.226562 -242.414062 -176.757812 -258.917969 C -177.765625 -269.730469 -180.878906 -274.121094 -187.539062 -274.121094 C -206.789062 -274.121094 -198.5625 -232.382812 -173.753906 -204.195312 C -150.082031 -177.292969 -103.273438 -101.390625 -106.121094 -94.519531 C -111.996094 -80.339844 -156.523438 -119.191406 -156.523438 -138.492188 C -156.523438 -148.238281 -166.261719 -153.460938 -173.503906 -147.597656 L -176.554688 -145.128906 L -177.199219 -67.527344 C -177.925781 19.769531 -177.28125 14.632812 -187.539062 14.632812 C -197.515625 14.632812 -197.148438 16.632812 -197.875 -41.683594 L -198.523438 -93.441406 L -201.574219 -95.910156 C -202.039062 -96.289062 -202.53125 -96.628906 -203.054688 -96.921875 C -203.578125 -97.21875 -204.125 -97.464844 -204.691406 -97.667969 C -205.253906 -97.867188 -205.835938 -98.019531 -206.425781 -98.121094 C -207.015625 -98.226562 -207.613281 -98.277344 -208.214844 -98.277344 C -208.816406 -98.277344 -209.410156 -98.222656 -210.003906 -98.121094 C -210.59375 -98.019531 -211.171875 -97.867188 -211.738281 -97.667969 C -212.304688 -97.464844 -212.847656 -97.214844 -213.371094 -96.921875 C -213.894531 -96.625 -214.390625 -96.289062 -214.855469 -95.910156 L -217.90625 -93.441406 L -218.550781 -26.175781 C -219.28125 49.523438 -218.722656 45.644531 -228.890625 45.644531 C -239.058594 45.644531 -238.5 49.523438 -239.226562 -26.175781 L -239.875 -93.441406 L -242.925781 -95.910156 C -243.390625 -96.289062 -243.882812 -96.625 -244.40625 -96.921875 C -244.929688 -97.214844 -245.476562 -97.464844 -246.039062 -97.667969 C -246.605469 -97.867188 -247.183594 -98.019531 -247.777344 -98.121094 C -248.367188 -98.222656 -248.964844 -98.273438 -249.566406 -98.273438 C -250.164062 -98.273438 -250.761719 -98.222656 -251.355469 -98.121094 C -251.945312 -98.019531 -252.523438 -97.867188 -253.089844 -97.667969 C -253.65625 -97.464844 -254.199219 -97.214844 -254.722656 -96.921875 C -255.246094 -96.625 -255.742188 -96.289062 -256.207031 -95.910156 L -259.257812 -93.441406 L -259.902344 -36.511719 C -260.628906 27.589844 -260.191406 24.96875 -270.242188 24.96875 C -280.292969 24.96875 -279.851562 27.589844 -280.578125 -36.511719 L -281.226562 -93.441406 L -284.277344 -95.910156 C -284.742188 -96.289062 -285.234375 -96.625 -285.757812 -96.921875 C -286.28125 -97.214844 -286.824219 -97.464844 -287.390625 -97.667969 C -287.957031 -97.867188 -288.535156 -98.019531 -289.128906 -98.121094 C -289.71875 -98.222656 -290.316406 -98.277344 -290.917969 -98.277344 C -291.515625 -98.277344 -292.113281 -98.226562 -292.703125 -98.121094 C -293.296875 -98.019531 -293.875 -97.867188 -294.441406 -97.667969 C -295.007812 -97.464844 -295.550781 -97.21875 -296.074219 -96.921875 C -296.597656 -96.628906 -297.089844 -96.289062 -297.558594 -95.910156 L -300.609375 -93.441406 L -301.253906 -52.019531 C -301.984375 -5.277344 -301.8125 -6.042969 -311.59375 -6.042969 C -321.902344 -6.042969 -321.285156 -0.777344 -321.265625 -88.410156 L -321.246094 -166.222656 L -317.859375 -176.558594 C -315.992188 -182.246094 -312.367188 -192.597656 -309.792969 -199.5625 C -294.367188 -241.371094 -300.257812 -289.449219 -318.566406 -271.140625 M 8.667969 -272.351562 C -5.132812 -267.324219 -13.65625 -252.6875 -11.316406 -238.046875 L -10.527344 -233.101562 L -16.738281 -232.277344 C -32.945312 -230.125 -44.132812 -214.996094 -42.335938 -197.660156 L -41.578125 -190.328125 L -47.398438 -187.511719 C -73.464844 -174.890625 -64.363281 -129.394531 -35.773438 -129.394531 L -31.824219 -129.394531 L -31.800781 -119.378906 C -31.769531 -108.21875 -30.171875 -104.097656 -23.195312 -97.21875 C -14.238281 -88.390625 -16.988281 -88.753906 46.125 -88.042969 L 103.398438 -87.394531 L 94.347656 -80.515625 C 61.117188 -55.261719 63.847656 -19.15625 99.222656 -16.054688 C 110.625 -15.054688 182.394531 -56.960938 213.050781 -82.519531 C 236.875 -102.378906 245.066406 -106.660156 262.34375 -108.265625 C 273.277344 -109.28125 277.664062 -112.367188 277.664062 -119.054688 C 277.664062 -138.722656 238.15625 -130.664062 207.386719 -104.71875 C 194.796875 -94.101562 118.898438 -43.996094 106.210938 -37.929688 C 99.285156 -34.613281 91.507812 -39.832031 91.609375 -47.71875 C 91.691406 -54 134.203125 -88.042969 141.960938 -88.042969 C 152.277344 -88.042969 157.386719 -98.59375 150.4375 -105.542969 L 147.265625 -108.71875 L 71.109375 -108.71875 C -15.644531 -108.71875 -11.089844 -108.144531 -11.089844 -119.054688 C -11.089844 -129.625 -12.359375 -129.394531 45.261719 -129.394531 L 95.578125 -129.394531 L 98.746094 -132.566406 C 102.945312 -136.761719 102.945312 -142.699219 98.746094 -146.894531 L 95.578125 -150.070312 L 29.757812 -150.070312 C -45.335938 -150.070312 -42.105469 -149.601562 -42.105469 -160.40625 C -42.105469 -171.210938 -45.335938 -170.742188 29.757812 -170.742188 L 95.578125 -170.742188 L 98.746094 -173.917969 C 100.746094 -175.914062 101.917969 -178.566406 101.917969 -181.082031 C 101.917969 -183.597656 100.746094 -186.25 98.746094 -188.246094 L 95.578125 -191.417969 L 40.09375 -191.417969 C -23.347656 -191.417969 -21.429688 -191.097656 -21.429688 -201.757812 C -21.429688 -212.417969 -23.347656 -212.09375 40.09375 -212.09375 L 95.578125 -212.09375 L 98.746094 -215.269531 C 100.746094 -217.265625 101.917969 -219.914062 101.917969 -222.433594 C 101.917969 -224.949219 100.746094 -227.597656 98.746094 -229.597656 L 95.578125 -232.769531 L 55.601562 -232.769531 C 9.601562 -232.769531 9.582031 -232.773438 9.582031 -243.109375 C 9.582031 -254.21875 4.914062 -253.65625 92.785156 -253.152344 L 169.761719 -252.710938 L 180.097656 -249.339844 C 185.785156 -247.484375 197.125 -243.601562 205.296875 -240.714844 C 240.851562 -228.148438 277.664062 -229.367188 277.664062 -243.109375 C 277.664062 -251.34375 273.375 -253.445312 256.566406 -253.445312 C 237.519531 -253.445312 222.878906 -256.066406 205.621094 -262.570312 C 174.695312 -274.21875 183.679688 -273.324219 93.519531 -273.722656 C 29.265625 -274.003906 12.464844 -273.734375 8.667969 -272.351562 M 153.082031 7.03125 C 142.292969 10.984375 132.933594 22.914062 132.933594 32.710938 L 132.933594 36.65625 L 122.917969 36.683594 C 111.761719 36.710938 107.636719 38.3125 100.761719 45.289062 C 91.929688 54.246094 92.292969 51.496094 91.582031 114.59375 L 90.9375 171.851562 L 85.773438 164.988281 C 62.792969 134.4375 39.621094 130.359375 23.933594 154.105469 C 14.457031 168.449219 16.472656 175.160156 42.648438 216.433594 C 75.277344 267.878906 82.554688 278.566406 92.519531 289.675781 C 105.226562 303.839844 112.179688 319.785156 112.238281 334.898438 C 112.277344 344.828125 122.976562 349.761719 129.761719 342.972656 C 139.714844 333.019531 129.457031 301.011719 108.253906 275.867188 C 84.757812 248 38.546875 172.898438 41.101562 166.730469 C 47.058594 152.34375 91.582031 190.894531 91.582031 210.441406 C 91.582031 217.113281 96 222.09375 101.917969 222.09375 C 104.4375 222.09375 107.085938 220.921875 109.085938 218.917969 L 112.257812 215.75 L 112.257812 139.589844 C 112.257812 52.835938 111.683594 57.390625 122.59375 57.390625 C 133.164062 57.390625 132.933594 56.125 132.933594 113.746094 L 132.933594 164.058594 L 136.105469 167.230469 C 138.105469 169.230469 140.753906 170.402344 143.269531 170.402344 C 145.789062 170.402344 148.4375 169.230469 150.4375 167.230469 L 153.609375 164.058594 L 153.609375 98.238281 C 153.609375 23.148438 153.144531 26.378906 163.945312 26.378906 C 174.75 26.378906 174.285156 23.148438 174.285156 98.238281 L 174.285156 164.058594 L 177.457031 167.230469 C 181.652344 171.429688 187.589844 171.429688 191.789062 167.230469 L 194.960938 164.058594 L 194.960938 108.578125 C 194.960938 45.136719 194.636719 47.054688 205.296875 47.054688 C 215.957031 47.054688 215.636719 45.136719 215.636719 108.578125 L 215.636719 164.058594 L 218.808594 167.230469 C 223.003906 171.429688 228.941406 171.429688 233.136719 167.230469 L 236.3125 164.058594 L 236.3125 124.085938 C 236.3125 78.085938 236.316406 78.066406 246.648438 78.066406 C 257.515625 78.066406 256.988281 74.121094 256.988281 155.515625 C 256.988281 236.074219 256.667969 239.847656 247.9375 262.808594 C 238.480469 287.675781 237.394531 292.917969 236.660156 317.292969 L 235.992188 339.480469 L 239.324219 342.8125 C 250.105469 353.597656 256.429688 345.664062 257.332031 320.21875 C 258.105469 298.335938 259.105469 293.539062 267.964844 269.074219 C 277.773438 242 277.789062 241.804688 277.378906 154.78125 C 276.976562 69.90625 277.5 75.109375 268.484375 65.964844 C 261.628906 59.007812 257.472656 57.386719 246.449219 57.359375 L 236.558594 57.332031 L 235.777344 51.433594 C 233.667969 35.542969 218.386719 24.363281 201.199219 26.144531 L 193.871094 26.90625 L 191.050781 21.085938 C 184.710938 7.988281 167.675781 1.683594 153.082031 7.03125 M -177.902344 89.433594 C -180.066406 90.421875 -195.769531 100.203125 -212.792969 111.167969 C -229.820312 122.136719 -249.855469 134.96875 -257.320312 139.683594 C -264.78125 144.402344 -275.828125 152.441406 -281.871094 157.550781 C -302.222656 174.765625 -310.058594 178.6875 -327.289062 180.289062 C -338.222656 181.304688 -342.605469 184.394531 -342.605469 191.078125 C -342.605469 210.753906 -300.277344 201.96875 -271.542969 176.328125 C -246.804688 154.257812 -169.691406 106.890625 -163 109.660156 C -148.804688 115.542969 -187.605469 160.066406 -206.925781 160.066406 C -216.722656 160.066406 -221.960938 169.78125 -216.082031 177.042969 L -213.613281 180.09375 L -136.007812 180.742188 C -48.714844 181.46875 -53.851562 180.820312 -53.851562 191.078125 C -53.851562 201.054688 -51.851562 200.6875 -110.164062 201.417969 L -161.925781 202.0625 L -164.394531 205.113281 C -164.773438 205.578125 -165.113281 206.074219 -165.40625 206.597656 C -165.699219 207.121094 -165.949219 207.664062 -166.152344 208.230469 C -166.351562 208.796875 -166.503906 209.375 -166.605469 209.964844 C -166.707031 210.558594 -166.757812 211.152344 -166.757812 211.753906 C -166.757812 212.355469 -166.707031 212.949219 -166.605469 213.542969 C -166.503906 214.132812 -166.351562 214.714844 -166.148438 215.277344 C -165.949219 215.84375 -165.699219 216.390625 -165.40625 216.914062 C -165.109375 217.433594 -164.773438 217.929688 -164.394531 218.394531 L -161.925781 221.445312 L -94.660156 222.09375 C -18.960938 222.820312 -22.839844 222.261719 -22.839844 232.429688 C -22.839844 242.597656 -18.960938 242.039062 -94.660156 242.769531 L -161.925781 243.414062 L -164.394531 246.464844 C -164.773438 246.929688 -165.109375 247.425781 -165.40625 247.949219 C -165.699219 248.46875 -165.949219 249.015625 -166.148438 249.582031 C -166.351562 250.144531 -166.503906 250.726562 -166.605469 251.316406 C -166.707031 251.910156 -166.757812 252.503906 -166.757812 253.105469 C -166.757812 253.707031 -166.707031 254.300781 -166.605469 254.894531 C -166.503906 255.484375 -166.351562 256.0625 -166.148438 256.628906 C -165.949219 257.195312 -165.699219 257.738281 -165.40625 258.261719 C -165.109375 258.785156 -164.773438 259.28125 -164.394531 259.746094 L -161.925781 262.796875 L -104.996094 263.441406 C -40.890625 264.171875 -43.511719 263.730469 -43.511719 273.78125 C -43.511719 283.832031 -40.890625 283.390625 -104.996094 284.117188 L -161.925781 284.765625 L -164.394531 287.816406 C -164.773438 288.28125 -165.109375 288.773438 -165.40625 289.296875 C -165.699219 289.820312 -165.949219 290.367188 -166.148438 290.933594 C -166.351562 291.496094 -166.503906 292.074219 -166.605469 292.667969 C -166.707031 293.257812 -166.757812 293.855469 -166.757812 294.457031 C -166.757812 295.058594 -166.707031 295.652344 -166.605469 296.246094 C -166.503906 296.835938 -166.351562 297.414062 -166.152344 297.980469 C -165.949219 298.546875 -165.699219 299.089844 -165.40625 299.613281 C -165.113281 300.136719 -164.773438 300.632812 -164.394531 301.097656 L -161.925781 304.148438 L -120.503906 304.792969 C -73.761719 305.523438 -74.527344 305.351562 -74.527344 315.132812 C -74.527344 325.445312 -69.261719 324.828125 -156.894531 324.796875 L -234.703125 324.769531 L -245.042969 321.390625 C -250.726562 319.53125 -261.082031 315.90625 -268.046875 313.335938 C -303.082031 300.40625 -342.605469 301.359375 -342.605469 315.132812 C -342.605469 323.660156 -339.1875 325.03125 -316.027344 325.792969 C -293.832031 326.527344 -289.613281 327.449219 -262.097656 337.605469 C -239.785156 345.839844 -235.863281 346.148438 -153.449219 346.136719 C -59.226562 346.128906 -50.332031 343.050781 -53.558594 311.578125 C -54.207031 305.257812 -54.058594 304.792969 -51.4375 304.785156 C -34.664062 304.742188 -20.730469 287.78125 -22.605469 269.683594 L -23.367188 262.351562 L -17.546875 259.535156 C 8.523438 246.914062 -0.578125 201.417969 -29.171875 201.417969 L -33.117188 201.417969 L -33.144531 191.402344 C -33.171875 180.242188 -34.773438 176.121094 -41.746094 169.242188 C -50.703125 160.414062 -47.953125 160.777344 -111.070312 160.066406 L -168.34375 159.417969 L -159.289062 152.539062 C -140.34375 138.140625 -134.964844 129.664062 -136.191406 116.148438 C -138.027344 95.933594 -160.539062 81.511719 -177.902344 89.433594 " fill-opacity="1" fill-rule="evenodd"/></svg>