<svg xmlns="http://www.w3.org/2000/svg" xmlns:xlink="http://www.w3.org/1999/xlink" width="479" zoomAndPan="magnify" viewBox="0 0 360 194.87999" height="250" preserveAspectRatio="xMidYMid meet" version="1.0"><defs><g/><clipPath id="ceaabdd352"><path d="M 96 0 L 231 0 L 231 187.382812 L 96 187.382812 Z M 96 0 " clip-rule="nonzero"/></clipPath><clipPath id="993257cc74"><rect x="0" width="135" y="0" height="188"/></clipPath><clipPath id="cb529aaa10"><path d="M 172 0 L 359.140625 0 L 359.140625 187.382812 L 172 187.382812 Z M 172 0 " clip-rule="nonzero"/></clipPath><clipPath id="fab177e6db"><rect x="0" width="188" y="0" height="188"/></clipPath><clipPath id="8b70d83071"><path d="M 0.109375 0 L 127 0 L 127 187.382812 L 0.109375 187.382812 Z M 0.109375 0 " clip-rule="nonzero"/></clipPath><clipPath id="50f1b8fa03"><rect x="0" width="127" y="0" height="188"/></clipPath></defs><g clip-path="url(#ceaabdd352)"><g transform="matrix(1, 0, 0, 1, 96, 0)"><g clip-path="url(#993257cc74)"><g fill="#2b2828" fill-opacity="0.302"><g transform="translate(16.814568, 156.508048)"><g><path d="M 108.078125 4.09375 L 81.53125 3.09375 L 82.09375 -11.8125 L 81.703125 -11.828125 C 74.222656 -0.285156 63.285156 5.210938 48.890625 4.671875 C 37.722656 4.242188 29.066406 0.617188 22.921875 -6.203125 C 16.773438 -13.023438 13.945312 -22.828125 14.4375 -35.609375 L 17.0625 -105.046875 L 44.859375 -104 L 42.375 -38.546875 C 42.125 -31.835938 43.488281 -26.851562 46.46875 -23.59375 C 49.457031 -20.34375 53.851562 -18.609375 59.65625 -18.390625 C 65.925781 -18.160156 71.140625 -20.046875 75.296875 -24.046875 C 79.453125 -28.054688 81.675781 -33.90625 81.96875 -41.59375 L 84.28125 -102.5 L 112.078125 -101.453125 Z M 96.96875 -117.4375 L 72.46875 -118.359375 L 73.34375 -141.21875 L 97.84375 -140.296875 Z M 57.75 -118.921875 L 33.25 -119.859375 L 34.125 -142.71875 L 58.625 -141.78125 Z M 57.75 -118.921875 "/></g></g></g><g fill="#2b2828" fill-opacity="0.502"><g transform="translate(9.784783, 160.70381)"><g><path d="M 108.078125 4.09375 L 81.53125 3.09375 L 82.09375 -11.8125 L 81.703125 -11.828125 C 74.222656 -0.285156 63.285156 5.210938 48.890625 4.671875 C 37.722656 4.242188 29.066406 0.617188 22.921875 -6.203125 C 16.773438 -13.023438 13.945312 -22.828125 14.4375 -35.609375 L 17.0625 -105.046875 L 44.859375 -104 L 42.375 -38.546875 C 42.125 -31.835938 43.488281 -26.851562 46.46875 -23.59375 C 49.457031 -20.34375 53.851562 -18.609375 59.65625 -18.390625 C 65.925781 -18.160156 71.140625 -20.046875 75.296875 -24.046875 C 79.453125 -28.054688 81.675781 -33.90625 81.96875 -41.59375 L 84.28125 -102.5 L 112.078125 -101.453125 Z M 96.96875 -117.4375 L 72.46875 -118.359375 L 73.34375 -141.21875 L 97.84375 -140.296875 Z M 57.75 -118.921875 L 33.25 -119.859375 L 34.125 -142.71875 L 58.625 -141.78125 Z M 57.75 -118.921875 "/></g></g></g><g fill="#2b2828" fill-opacity="1"><g transform="translate(2.755006, 164.899577)"><g><path d="M 108.078125 4.09375 L 81.53125 3.09375 L 82.09375 -11.8125 L 81.703125 -11.828125 C 74.222656 -0.285156 63.285156 5.210938 48.890625 4.671875 C 37.722656 4.242188 29.066406 0.617188 22.921875 -6.203125 C 16.773438 -13.023438 13.945312 -22.828125 14.4375 -35.609375 L 17.0625 -105.046875 L 44.859375 -104 L 42.375 -38.546875 C 42.125 -31.835938 43.488281 -26.851562 46.46875 -23.59375 C 49.457031 -20.34375 53.851562 -18.609375 59.65625 -18.390625 C 65.925781 -18.160156 71.140625 -20.046875 75.296875 -24.046875 C 79.453125 -28.054688 81.675781 -33.90625 81.96875 -41.59375 L 84.28125 -102.5 L 112.078125 -101.453125 Z M 96.96875 -117.4375 L 72.46875 -118.359375 L 73.34375 -141.21875 L 97.84375 -140.296875 Z M 57.75 -118.921875 L 33.25 -119.859375 L 34.125 -142.71875 L 58.625 -141.78125 Z M 57.75 -118.921875 "/></g></g></g></g></g></g><g clip-path="url(#cb529aaa10)"><g transform="matrix(1, 0, 0, 1, 172, 0)"><g clip-path="url(#fab177e6db)"><g fill="#2b2828" fill-opacity="0.302"><g transform="translate(21.526056, 160.108333)"><g><path d="M 164.59375 -4.703125 L 136.8125 -3.90625 L 134.96875 -68.4375 C 134.789062 -74.570312 133.425781 -79.457031 130.875 -83.09375 C 128.320312 -86.738281 124.304688 -88.484375 118.828125 -88.328125 C 113.335938 -88.171875 108.960938 -86.332031 105.703125 -82.8125 C 102.453125 -79.300781 100.925781 -74.09375 101.125 -67.1875 L 102.953125 -2.9375 L 75.1875 -2.140625 L 73.3125 -67.9375 C 73.125 -74.519531 71.660156 -79.304688 68.921875 -82.296875 C 66.191406 -85.285156 61.921875 -86.695312 56.109375 -86.53125 C 50.316406 -86.363281 46.046875 -84.515625 43.296875 -80.984375 C 40.554688 -77.453125 39.285156 -72.269531 39.484375 -65.4375 L 41.3125 -1.1875 L 13.546875 -0.390625 L 10.53125 -105.859375 L 37.140625 -106.609375 L 37.578125 -91.140625 L 37.96875 -91.15625 C 43.820312 -103.445312 53.84375 -109.796875 68.03125 -110.203125 C 80.9375 -110.566406 90.640625 -105.226562 97.140625 -94.1875 C 103.859375 -105.613281 113.085938 -111.492188 124.828125 -111.828125 C 135.660156 -112.140625 144.566406 -109.3125 151.546875 -103.34375 C 158.535156 -97.382812 162.191406 -88.820312 162.515625 -77.65625 Z M 164.59375 -4.703125 "/></g></g></g><g fill="#2b2828" fill-opacity="0.502"><g transform="translate(14.797295, 164.756576)"><g><path d="M 164.59375 -4.703125 L 136.8125 -3.90625 L 134.96875 -68.4375 C 134.789062 -74.570312 133.425781 -79.457031 130.875 -83.09375 C 128.320312 -86.738281 124.304688 -88.484375 118.828125 -88.328125 C 113.335938 -88.171875 108.960938 -86.332031 105.703125 -82.8125 C 102.453125 -79.300781 100.925781 -74.09375 101.125 -67.1875 L 102.953125 -2.9375 L 75.1875 -2.140625 L 73.3125 -67.9375 C 73.125 -74.519531 71.660156 -79.304688 68.921875 -82.296875 C 66.191406 -85.285156 61.921875 -86.695312 56.109375 -86.53125 C 50.316406 -86.363281 46.046875 -84.515625 43.296875 -80.984375 C 40.554688 -77.453125 39.285156 -72.269531 39.484375 -65.4375 L 41.3125 -1.1875 L 13.546875 -0.390625 L 10.53125 -105.859375 L 37.140625 -106.609375 L 37.578125 -91.140625 L 37.96875 -91.15625 C 43.820312 -103.445312 53.84375 -109.796875 68.03125 -110.203125 C 80.9375 -110.566406 90.640625 -105.226562 97.140625 -94.1875 C 103.859375 -105.613281 113.085938 -111.492188 124.828125 -111.828125 C 135.660156 -112.140625 144.566406 -109.3125 151.546875 -103.34375 C 158.535156 -97.382812 162.191406 -88.820312 162.515625 -77.65625 Z M 164.59375 -4.703125 "/></g></g></g><g fill="#2b2828" fill-opacity="1"><g transform="translate(8.068534, 169.404822)"><g><path d="M 164.59375 -4.703125 L 136.8125 -3.90625 L 134.96875 -68.4375 C 134.789062 -74.570312 133.425781 -79.457031 130.875 -83.09375 C 128.320312 -86.738281 124.304688 -88.484375 118.828125 -88.328125 C 113.335938 -88.171875 108.960938 -86.332031 105.703125 -82.8125 C 102.453125 -79.300781 100.925781 -74.09375 101.125 -67.1875 L 102.953125 -2.9375 L 75.1875 -2.140625 L 73.3125 -67.9375 C 73.125 -74.519531 71.660156 -79.304688 68.921875 -82.296875 C 66.191406 -85.285156 61.921875 -86.695312 56.109375 -86.53125 C 50.316406 -86.363281 46.046875 -84.515625 43.296875 -80.984375 C 40.554688 -77.453125 39.285156 -72.269531 39.484375 -65.4375 L 41.3125 -1.1875 L 13.546875 -0.390625 L 10.53125 -105.859375 L 37.140625 -106.609375 L 37.578125 -91.140625 L 37.96875 -91.15625 C 43.820312 -103.445312 53.84375 -109.796875 68.03125 -110.203125 C 80.9375 -110.566406 90.640625 -105.226562 97.140625 -94.1875 C 103.859375 -105.613281 113.085938 -111.492188 124.828125 -111.828125 C 135.660156 -112.140625 144.566406 -109.3125 151.546875 -103.34375 C 158.535156 -97.382812 162.191406 -88.820312 162.515625 -77.65625 Z M 164.59375 -4.703125 "/></g></g></g></g></g></g><g clip-path="url(#8b70d83071)"><g transform="matrix(1, 0, 0, 1, 0.000000000000000028, 0)"><g clip-path="url(#50f1b8fa03)"><g fill="#2b2828" fill-opacity="0.302"><g transform="translate(10.602951, 160.737209)"><g><path d="M 108.703125 -6.671875 L 80.96875 -4.96875 L 76.953125 -70.375 C 76.554688 -76.820312 74.789062 -81.5625 71.65625 -84.59375 C 68.53125 -87.632812 63.90625 -88.96875 57.78125 -88.59375 C 50.894531 -88.175781 45.691406 -85.5625 42.171875 -80.75 C 38.648438 -75.945312 37.109375 -70.003906 37.546875 -62.921875 L 41.25 -2.53125 L 13.515625 -0.828125 L 4.8125 -142.859375 L 32.546875 -144.5625 L 35.609375 -94.421875 L 36 -94.4375 C 41.65625 -105.582031 51.597656 -111.585938 65.828125 -112.453125 C 76.785156 -113.128906 85.765625 -110.460938 92.765625 -104.453125 C 99.765625 -98.453125 103.585938 -90.140625 104.234375 -79.515625 Z M 108.703125 -6.671875 "/></g></g></g><g fill="#2b2828" fill-opacity="0.502"><g transform="translate(4.029674, 165.60286)"><g><path d="M 108.703125 -6.671875 L 80.96875 -4.96875 L 76.953125 -70.375 C 76.554688 -76.820312 74.789062 -81.5625 71.65625 -84.59375 C 68.53125 -87.632812 63.90625 -88.96875 57.78125 -88.59375 C 50.894531 -88.175781 45.691406 -85.5625 42.171875 -80.75 C 38.648438 -75.945312 37.109375 -70.003906 37.546875 -62.921875 L 41.25 -2.53125 L 13.515625 -0.828125 L 4.8125 -142.859375 L 32.546875 -144.5625 L 35.609375 -94.421875 L 36 -94.4375 C 41.65625 -105.582031 51.597656 -111.585938 65.828125 -112.453125 C 76.785156 -113.128906 85.765625 -110.460938 92.765625 -104.453125 C 99.765625 -98.453125 103.585938 -90.140625 104.234375 -79.515625 Z M 108.703125 -6.671875 "/></g></g></g><g fill="#2b2828" fill-opacity="1"><g transform="translate(-2.5436, 170.46851)"><g><path d="M 108.703125 -6.671875 L 80.96875 -4.96875 L 76.953125 -70.375 C 76.554688 -76.820312 74.789062 -81.5625 71.65625 -84.59375 C 68.53125 -87.632812 63.90625 -88.96875 57.78125 -88.59375 C 50.894531 -88.175781 45.691406 -85.5625 42.171875 -80.75 C 38.648438 -75.945312 37.109375 -70.003906 37.546875 -62.921875 L 41.25 -2.53125 L 13.515625 -0.828125 L 4.8125 -142.859375 L 32.546875 -144.5625 L 35.609375 -94.421875 L 36 -94.4375 C 41.65625 -105.582031 51.597656 -111.585938 65.828125 -112.453125 C 76.785156 -113.128906 85.765625 -110.460938 92.765625 -104.453125 C 99.765625 -98.453125 103.585938 -90.140625 104.234375 -79.515625 Z M 108.703125 -6.671875 "/></g></g></g></g></g></g></svg>