<svg xmlns="http://www.w3.org/2000/svg" xmlns:xlink="http://www.w3.org/1999/xlink" width="479" zoomAndPan="magnify" viewBox="0 0 360 194.87999" height="250" preserveAspectRatio="xMidYMid meet" version="1.0"><defs><g/><clipPath id="a7cb4adee7"><path d="M 96 0 L 230 0 L 230 187.382812 L 96 187.382812 Z M 96 0 " clip-rule="nonzero"/></clipPath><clipPath id="f111455065"><rect x="0" width="134" y="0" height="188"/></clipPath><clipPath id="76027c9138"><path d="M 172 0 L 359.140625 0 L 359.140625 187.382812 L 172 187.382812 Z M 172 0 " clip-rule="nonzero"/></clipPath><clipPath id="3d1a02cda9"><rect x="0" width="188" y="0" height="188"/></clipPath><clipPath id="9de99ba80b"><path d="M 0.109375 0 L 127 0 L 127 187.382812 L 0.109375 187.382812 Z M 0.109375 0 " clip-rule="nonzero"/></clipPath><clipPath id="65ae965153"><rect x="0" width="127" y="0" height="188"/></clipPath></defs><g clip-path="url(#a7cb4adee7)"><g transform="matrix(1, 0, 0, 1, 96, 0)"><g clip-path="url(#f111455065)"><g fill="#f9f0d6" fill-opacity="0.302"><g transform="translate(16.467953, 156.093796)"><g><path d="M 107.84375 4.078125 L 81.375 3.078125 L 81.9375 -11.796875 L 81.546875 -11.8125 C 74.078125 -0.289062 63.160156 5.195312 48.796875 4.65625 C 37.648438 4.226562 29.007812 0.613281 22.875 -6.1875 C 16.75 -13 13.925781 -22.785156 14.40625 -35.546875 L 17.03125 -104.84375 L 44.765625 -103.796875 L 42.296875 -38.453125 C 42.046875 -31.765625 43.40625 -26.796875 46.375 -23.546875 C 49.351562 -20.304688 53.738281 -18.578125 59.53125 -18.359375 C 65.789062 -18.117188 70.992188 -20 75.140625 -24 C 79.285156 -28.007812 81.503906 -33.847656 81.796875 -41.515625 L 84.09375 -102.3125 L 111.828125 -101.265625 Z M 96.78125 -117.21875 L 72.328125 -118.140625 L 73.1875 -140.9375 L 97.640625 -140.015625 Z M 57.640625 -118.6875 L 33.1875 -119.625 L 34.046875 -142.421875 L 58.5 -141.484375 Z M 57.640625 -118.6875 "/></g></g></g><g fill="#f9f0d6" fill-opacity="0.502"><g transform="translate(9.45242, 160.281065)"><g><path d="M 107.84375 4.078125 L 81.375 3.078125 L 81.9375 -11.796875 L 81.546875 -11.8125 C 74.078125 -0.289062 63.160156 5.195312 48.796875 4.65625 C 37.648438 4.226562 29.007812 0.613281 22.875 -6.1875 C 16.75 -13 13.925781 -22.785156 14.40625 -35.546875 L 17.03125 -104.84375 L 44.765625 -103.796875 L 42.296875 -38.453125 C 42.046875 -31.765625 43.40625 -26.796875 46.375 -23.546875 C 49.351562 -20.304688 53.738281 -18.578125 59.53125 -18.359375 C 65.789062 -18.117188 70.992188 -20 75.140625 -24 C 79.285156 -28.007812 81.503906 -33.847656 81.796875 -41.515625 L 84.09375 -102.3125 L 111.828125 -101.265625 Z M 96.78125 -117.21875 L 72.328125 -118.140625 L 73.1875 -140.9375 L 97.640625 -140.015625 Z M 57.640625 -118.6875 L 33.1875 -119.625 L 34.046875 -142.421875 L 58.5 -141.484375 Z M 57.640625 -118.6875 "/></g></g></g><g fill="#f9f0d6" fill-opacity="1"><g transform="translate(2.436872, 164.468335)"><g><path d="M 107.84375 4.078125 L 81.375 3.078125 L 81.9375 -11.796875 L 81.546875 -11.8125 C 74.078125 -0.289062 63.160156 5.195312 48.796875 4.65625 C 37.648438 4.226562 29.007812 0.613281 22.875 -6.1875 C 16.75 -13 13.925781 -22.785156 14.40625 -35.546875 L 17.03125 -104.84375 L 44.765625 -103.796875 L 42.296875 -38.453125 C 42.046875 -31.765625 43.40625 -26.796875 46.375 -23.546875 C 49.351562 -20.304688 53.738281 -18.578125 59.53125 -18.359375 C 65.789062 -18.117188 70.992188 -20 75.140625 -24 C 79.285156 -28.007812 81.503906 -33.847656 81.796875 -41.515625 L 84.09375 -102.3125 L 111.828125 -101.265625 Z M 96.78125 -117.21875 L 72.328125 -118.140625 L 73.1875 -140.9375 L 97.640625 -140.015625 Z M 57.640625 -118.6875 L 33.1875 -119.625 L 34.046875 -142.421875 L 58.5 -141.484375 Z M 57.640625 -118.6875 "/></g></g></g></g></g></g><g clip-path="url(#76027c9138)"><g transform="matrix(1, 0, 0, 1, 172, 0)"><g clip-path="url(#3d1a02cda9)"><g fill="#f9f0d6" fill-opacity="0.302"><g transform="translate(21.016028, 159.6869)"><g><path d="M 164.265625 -4.6875 L 136.546875 -3.90625 L 134.703125 -68.3125 C 134.523438 -74.4375 133.160156 -79.3125 130.609375 -82.9375 C 128.066406 -86.570312 124.054688 -88.3125 118.578125 -88.15625 C 113.109375 -88 108.75 -86.164062 105.5 -82.65625 C 102.25 -79.144531 100.722656 -73.945312 100.921875 -67.0625 L 102.75 -2.9375 L 75.03125 -2.140625 L 73.15625 -67.8125 C 72.96875 -74.375 71.507812 -79.148438 68.78125 -82.140625 C 66.050781 -85.128906 61.789062 -86.539062 56 -86.375 C 50.207031 -86.207031 45.941406 -84.359375 43.203125 -80.828125 C 40.472656 -77.296875 39.207031 -72.117188 39.40625 -65.296875 L 41.234375 -1.171875 L 13.53125 -0.390625 L 10.53125 -105.65625 L 37.078125 -106.40625 L 37.515625 -90.953125 L 37.90625 -90.96875 C 43.738281 -103.25 53.738281 -109.59375 67.90625 -110 C 80.78125 -110.363281 90.460938 -105.035156 96.953125 -94.015625 C 103.660156 -105.410156 112.875 -111.273438 124.59375 -111.609375 C 135.40625 -111.921875 144.289062 -109.097656 151.25 -103.140625 C 158.21875 -97.191406 161.863281 -88.644531 162.1875 -77.5 Z M 164.265625 -4.6875 "/></g></g></g><g fill="#f9f0d6" fill-opacity="0.502"><g transform="translate(14.300896, 164.325732)"><g><path d="M 164.265625 -4.6875 L 136.546875 -3.90625 L 134.703125 -68.3125 C 134.523438 -74.4375 133.160156 -79.3125 130.609375 -82.9375 C 128.066406 -86.570312 124.054688 -88.3125 118.578125 -88.15625 C 113.109375 -88 108.75 -86.164062 105.5 -82.65625 C 102.25 -79.144531 100.722656 -73.945312 100.921875 -67.0625 L 102.75 -2.9375 L 75.03125 -2.140625 L 73.15625 -67.8125 C 72.96875 -74.375 71.507812 -79.148438 68.78125 -82.140625 C 66.050781 -85.128906 61.789062 -86.539062 56 -86.375 C 50.207031 -86.207031 45.941406 -84.359375 43.203125 -80.828125 C 40.472656 -77.296875 39.207031 -72.117188 39.40625 -65.296875 L 41.234375 -1.171875 L 13.53125 -0.390625 L 10.53125 -105.65625 L 37.078125 -106.40625 L 37.515625 -90.953125 L 37.90625 -90.96875 C 43.738281 -103.25 53.738281 -109.59375 67.90625 -110 C 80.78125 -110.363281 90.460938 -105.035156 96.953125 -94.015625 C 103.660156 -105.410156 112.875 -111.273438 124.59375 -111.609375 C 135.40625 -111.921875 144.289062 -109.097656 151.25 -103.140625 C 158.21875 -97.191406 161.863281 -88.644531 162.1875 -77.5 Z M 164.265625 -4.6875 "/></g></g></g><g fill="#f9f0d6" fill-opacity="1"><g transform="translate(7.585749, 168.964569)"><g><path d="M 164.265625 -4.6875 L 136.546875 -3.90625 L 134.703125 -68.3125 C 134.523438 -74.4375 133.160156 -79.3125 130.609375 -82.9375 C 128.066406 -86.570312 124.054688 -88.3125 118.578125 -88.15625 C 113.109375 -88 108.75 -86.164062 105.5 -82.65625 C 102.25 -79.144531 100.722656 -73.945312 100.921875 -67.0625 L 102.75 -2.9375 L 75.03125 -2.140625 L 73.15625 -67.8125 C 72.96875 -74.375 71.507812 -79.148438 68.78125 -82.140625 C 66.050781 -85.128906 61.789062 -86.539062 56 -86.375 C 50.207031 -86.207031 45.941406 -84.359375 43.203125 -80.828125 C 40.472656 -77.296875 39.207031 -72.117188 39.40625 -65.296875 L 41.234375 -1.171875 L 13.53125 -0.390625 L 10.53125 -105.65625 L 37.078125 -106.40625 L 37.515625 -90.953125 L 37.90625 -90.96875 C 43.738281 -103.25 53.738281 -109.59375 67.90625 -110 C 80.78125 -110.363281 90.460938 -105.035156 96.953125 -94.015625 C 103.660156 -105.410156 112.875 -111.273438 124.59375 -111.609375 C 135.40625 -111.921875 144.289062 -109.097656 151.25 -103.140625 C 158.21875 -97.191406 161.863281 -88.644531 162.1875 -77.5 Z M 164.265625 -4.6875 "/></g></g></g></g></g></g><g clip-path="url(#9de99ba80b)"><g transform="matrix(1, 0, 0, 1, 0.000000000000000028, 0)"><g clip-path="url(#65ae965153)"><g fill="#f9f0d6" fill-opacity="0.302"><g transform="translate(10.463342, 160.314478)"><g><path d="M 108.484375 -6.65625 L 80.796875 -4.953125 L 76.796875 -70.234375 C 76.398438 -76.660156 74.640625 -81.394531 71.515625 -84.4375 C 68.398438 -87.476562 63.785156 -88.8125 57.671875 -88.4375 C 50.804688 -88.007812 45.613281 -85.394531 42.09375 -80.59375 C 38.582031 -75.800781 37.046875 -69.867188 37.484375 -62.796875 L 41.171875 -2.53125 L 13.5 -0.828125 L 4.8125 -142.578125 L 32.484375 -144.28125 L 35.546875 -94.234375 L 35.9375 -94.25 C 41.582031 -105.375 51.503906 -111.375 65.703125 -112.25 C 76.628906 -112.914062 85.582031 -110.25 92.5625 -104.25 C 99.550781 -98.257812 103.375 -89.960938 104.03125 -79.359375 Z M 108.484375 -6.65625 "/></g></g></g><g fill="#f9f0d6" fill-opacity="0.502"><g transform="translate(3.903375, 165.170273)"><g><path d="M 108.484375 -6.65625 L 80.796875 -4.953125 L 76.796875 -70.234375 C 76.398438 -76.660156 74.640625 -81.394531 71.515625 -84.4375 C 68.398438 -87.476562 63.785156 -88.8125 57.671875 -88.4375 C 50.804688 -88.007812 45.613281 -85.394531 42.09375 -80.59375 C 38.582031 -75.800781 37.046875 -69.867188 37.484375 -62.796875 L 41.171875 -2.53125 L 13.5 -0.828125 L 4.8125 -142.578125 L 32.484375 -144.28125 L 35.546875 -94.234375 L 35.9375 -94.25 C 41.582031 -105.375 51.503906 -111.375 65.703125 -112.25 C 76.628906 -112.914062 85.582031 -110.25 92.5625 -104.25 C 99.550781 -98.257812 103.375 -89.960938 104.03125 -79.359375 Z M 108.484375 -6.65625 "/></g></g></g><g fill="#f9f0d6" fill-opacity="1"><g transform="translate(-2.656587, 170.026066)"><g><path d="M 108.484375 -6.65625 L 80.796875 -4.953125 L 76.796875 -70.234375 C 76.398438 -76.660156 74.640625 -81.394531 71.515625 -84.4375 C 68.398438 -87.476562 63.785156 -88.8125 57.671875 -88.4375 C 50.804688 -88.007812 45.613281 -85.394531 42.09375 -80.59375 C 38.582031 -75.800781 37.046875 -69.867188 37.484375 -62.796875 L 41.171875 -2.53125 L 13.5 -0.828125 L 4.8125 -142.578125 L 32.484375 -144.28125 L 35.546875 -94.234375 L 35.9375 -94.25 C 41.582031 -105.375 51.503906 -111.375 65.703125 -112.25 C 76.628906 -112.914062 85.582031 -110.25 92.5625 -104.25 C 99.550781 -98.257812 103.375 -89.960938 104.03125 -79.359375 Z M 108.484375 -6.65625 "/></g></g></g></g></g></g></svg>