<svg xmlns="http://www.w3.org/2000/svg" xmlns:xlink="http://www.w3.org/1999/xlink" width="479" zoomAndPan="magnify" viewBox="0 0 360 194.87999" height="250" preserveAspectRatio="xMidYMid meet" version="1.0"><defs><g/><clipPath id="e4caf8d531"><path d="M 0.109375 0 L 359.140625 0 L 359.140625 187.382812 L 0.109375 187.382812 Z M 0.109375 0 " clip-rule="nonzero"/></clipPath><clipPath id="5a735d5e69"><path d="M 7 0 L 359.140625 0 L 359.140625 187.382812 L 7 187.382812 Z M 7 0 " clip-rule="nonzero"/></clipPath><clipPath id="8cac725621"><rect x="0" width="353" y="0" height="188"/></clipPath></defs><g clip-path="url(#e4caf8d531)"><path fill="#ffffff" d="M 0.109375 0 L 359.140625 0 L 359.140625 187.382812 L 0.109375 187.382812 Z M 0.109375 0 " fill-opacity="1" fill-rule="nonzero"/><path fill="#f9f0d6" d="M 0.109375 0 L 359.140625 0 L 359.140625 187.382812 L 0.109375 187.382812 Z M 0.109375 0 " fill-opacity="1" fill-rule="nonzero"/></g><g clip-path="url(#5a735d5e69)"><g transform="matrix(1, 0, 0, 1, 7, 0)"><g clip-path="url(#8cac725621)"><g fill="#000000" fill-opacity="1"><g transform="translate(0.248064, 157.42061)"><g><path d="M 83.6875 0 C 79.894531 0 77.285156 -1.316406 75.859375 -3.953125 C 74.441406 -6.597656 73.734375 -9.75 73.734375 -13.40625 C 73.734375 -17.0625 73.765625 -19.9375 73.828125 -22.03125 C 73.898438 -24.132812 74.003906 -26.03125 74.140625 -27.71875 C 74.273438 -29.414062 74.34375 -31.378906 74.34375 -33.609375 C 74.34375 -35.847656 74.273438 -39 74.140625 -43.0625 L 73.53125 -59.3125 C 72.988281 -63.644531 72.410156 -66.992188 71.796875 -69.359375 C 71.191406 -71.734375 70.414062 -73.460938 69.46875 -74.546875 C 68.113281 -75.765625 66.691406 -77.1875 65.203125 -78.8125 C 63.710938 -80.4375 62.222656 -81.382812 60.734375 -81.65625 L 52.203125 -83.6875 C 49.628906 -83.6875 46.851562 -82.769531 43.875 -80.9375 C 40.894531 -79.113281 38.523438 -77.253906 36.765625 -75.359375 C 34.597656 -73.054688 33.207031 -70.3125 32.59375 -67.125 C 31.988281 -63.945312 31.6875 -60.734375 31.6875 -57.484375 C 31.6875 -51.796875 32.054688 -45.566406 32.796875 -38.796875 C 33.546875 -32.023438 33.921875 -26.269531 33.921875 -21.53125 C 33.921875 -18.6875 33.71875 -15.875 33.3125 -13.09375 C 32.90625 -10.320312 32.125 -8.019531 30.96875 -6.1875 C 29.820312 -4.363281 28.097656 -3.453125 25.796875 -3.453125 C 24.304688 -3.453125 22.476562 -3.992188 20.3125 -5.078125 C 18.007812 -6.296875 16.484375 -8.054688 15.734375 -10.359375 C 14.992188 -12.660156 14.625 -15.128906 14.625 -17.765625 C 14.625 -20.410156 14.554688 -22.816406 14.421875 -24.984375 L 13.8125 -42.859375 L 10.15625 -146.25 C 10.15625 -148.820312 10.898438 -150.882812 12.390625 -152.4375 C 13.878906 -154 15.570312 -155.050781 17.46875 -155.59375 C 19.363281 -156.132812 20.851562 -156.203125 21.9375 -155.796875 C 25.050781 -155.117188 27.046875 -153.492188 27.921875 -150.921875 C 28.804688 -148.347656 29.316406 -145.707031 29.453125 -143 C 29.722656 -135.144531 30.023438 -127.289062 30.359375 -119.4375 C 30.703125 -111.582031 30.941406 -103.726562 31.078125 -95.875 C 34.328125 -98.039062 37.78125 -99.628906 41.4375 -100.640625 C 45.09375 -101.660156 48.816406 -102.171875 52.609375 -102.171875 C 56.941406 -102.171875 61.273438 -101.457031 65.609375 -100.03125 C 69.941406 -98.613281 73.867188 -96.414062 77.390625 -93.4375 C 82.671875 -89.238281 86.394531 -84.328125 88.5625 -78.703125 C 90.726562 -73.085938 92.046875 -67.128906 92.515625 -60.828125 C 92.992188 -54.535156 93.300781 -48.273438 93.4375 -42.046875 L 93.4375 -22.546875 C 93.570312 -18.347656 93.671875 -15.265625 93.734375 -13.296875 C 93.804688 -11.335938 93.738281 -9.847656 93.53125 -8.828125 C 93.332031 -7.816406 92.894531 -6.632812 92.21875 -5.28125 C 91.269531 -3.519531 90.050781 -2.195312 88.5625 -1.3125 C 87.070312 -0.4375 85.445312 0 83.6875 0 Z M 83.6875 0 "/></g></g></g><g fill="#000000" fill-opacity="1"><g transform="translate(99.169432, 157.42061)"><g><path d="M 24.984375 -101.15625 C 19.972656 -101.15625 16.28125 -102.742188 13.90625 -105.921875 C 11.539062 -109.109375 10.359375 -112.53125 10.359375 -116.1875 C 10.359375 -119.707031 11.335938 -122.820312 13.296875 -125.53125 C 15.265625 -128.238281 18.144531 -129.59375 21.9375 -129.59375 C 23.289062 -129.59375 24.78125 -129.390625 26.40625 -128.984375 C 26.945312 -129.117188 27.453125 -129.1875 27.921875 -129.1875 C 28.398438 -129.1875 28.910156 -129.1875 29.453125 -129.1875 C 33.378906 -129.1875 36.320312 -127.929688 38.28125 -125.421875 C 40.25 -122.921875 41.234375 -120.113281 41.234375 -117 C 41.234375 -113.207031 39.878906 -109.617188 37.171875 -106.234375 C 34.460938 -102.847656 30.398438 -101.15625 24.984375 -101.15625 Z M 80.03125 -101.15625 C 75.019531 -101.15625 71.328125 -102.742188 68.953125 -105.921875 C 66.585938 -109.109375 65.40625 -112.53125 65.40625 -116.1875 C 65.40625 -119.707031 66.382812 -122.820312 68.34375 -125.53125 C 70.3125 -128.238281 73.191406 -129.59375 76.984375 -129.59375 C 78.335938 -129.59375 79.828125 -129.390625 81.453125 -128.984375 C 81.992188 -129.117188 82.5 -129.1875 82.96875 -129.1875 C 83.445312 -129.1875 83.957031 -129.1875 84.5 -129.1875 C 88.425781 -129.1875 91.367188 -127.929688 93.328125 -125.421875 C 95.296875 -122.921875 96.28125 -120.113281 96.28125 -117 C 96.28125 -113.207031 94.925781 -109.617188 92.21875 -106.234375 C 89.507812 -102.847656 85.445312 -101.15625 80.03125 -101.15625 Z M 44.078125 1.625 C 35.273438 1.625 27.960938 -1.453125 22.140625 -7.609375 C 16.316406 -13.773438 12.523438 -22.410156 10.765625 -33.515625 C 10.359375 -36.222656 9.984375 -39.773438 9.640625 -44.171875 C 9.304688 -48.578125 9.070312 -53.082031 8.9375 -57.6875 C 8.800781 -62.289062 8.695312 -66.351562 8.625 -69.875 C 8.5625 -73.394531 8.53125 -75.5625 8.53125 -76.375 C 8.53125 -82.738281 9.679688 -87.476562 11.984375 -90.59375 C 14.015625 -93.300781 16.859375 -94.65625 20.515625 -94.65625 C 23.222656 -94.65625 25.625 -93.875 27.71875 -92.3125 C 29.820312 -90.757812 31.144531 -88.628906 31.6875 -85.921875 C 31.820312 -85.242188 31.921875 -84.53125 31.984375 -83.78125 C 32.054688 -83.039062 32.09375 -82.265625 32.09375 -81.453125 C 32.09375 -79.554688 31.988281 -77.660156 31.78125 -75.765625 C 31.582031 -73.867188 31.414062 -72.039062 31.28125 -70.28125 C 31.28125 -67.4375 31.28125 -64.660156 31.28125 -61.953125 C 31.28125 -59.242188 31.347656 -56.535156 31.484375 -53.828125 C 31.617188 -50.578125 31.785156 -46.75 31.984375 -42.34375 C 32.191406 -37.945312 32.90625 -33.816406 34.125 -29.953125 C 35.34375 -26.097656 37.578125 -23.222656 40.828125 -21.328125 C 46.109375 -21.191406 50.472656 -22.101562 53.921875 -24.0625 C 57.378906 -26.03125 60.597656 -29.046875 63.578125 -33.109375 C 69.535156 -41.367188 72.515625 -50.644531 72.515625 -60.9375 C 72.515625 -65.132812 72.242188 -68.144531 71.703125 -69.96875 C 71.160156 -71.800781 70.582031 -73.359375 69.96875 -74.640625 C 69.363281 -75.929688 69.0625 -77.726562 69.0625 -80.03125 C 69.0625 -82.195312 69.804688 -84.226562 71.296875 -86.125 C 73.597656 -89.238281 76.578125 -90.796875 80.234375 -90.796875 C 82.535156 -90.796875 84.664062 -90.082031 86.625 -88.65625 C 88.59375 -87.238281 90.050781 -85.3125 91 -82.875 C 93.4375 -76.78125 94.65625 -69.804688 94.65625 -61.953125 C 94.65625 -54.640625 93.503906 -47.222656 91.203125 -39.703125 C 88.898438 -32.191406 85.546875 -25.320312 81.140625 -19.09375 C 76.742188 -12.863281 71.429688 -7.851562 65.203125 -4.0625 C 58.972656 -0.269531 51.929688 1.625 44.078125 1.625 Z M 44.078125 1.625 "/></g></g></g><g fill="#000000" fill-opacity="1"><g transform="translate(197.278172, 157.42061)"><g><path d="M 29.859375 0 C 28.367188 0 26.8125 -0.40625 25.1875 -1.21875 C 23.019531 -2.570312 21.53125 -4.535156 20.71875 -7.109375 C 19.90625 -9.679688 19.429688 -12.390625 19.296875 -15.234375 C 19.160156 -18.078125 18.890625 -20.582031 18.484375 -22.75 C 17.941406 -27.082031 17.265625 -32.429688 16.453125 -38.796875 C 15.640625 -45.160156 14.859375 -52 14.109375 -59.3125 C 13.367188 -66.625 12.625 -73.867188 11.875 -81.046875 C 11.132812 -88.222656 10.5625 -94.789062 10.15625 -100.75 C 10.019531 -103.457031 11 -105.722656 13.09375 -107.546875 C 15.195312 -109.378906 17.535156 -110.296875 20.109375 -110.296875 C 22.953125 -110.296875 25.050781 -109.445312 26.40625 -107.75 C 27.757812 -106.0625 28.640625 -104 29.046875 -101.5625 C 29.453125 -99.125 29.722656 -96.753906 29.859375 -94.453125 C 34.597656 -98.785156 39.84375 -101.796875 45.59375 -103.484375 C 51.351562 -105.179688 57.007812 -105.351562 62.5625 -104 C 68.113281 -102.644531 72.851562 -99.394531 76.78125 -94.25 C 81.25 -98.582031 86.5625 -102.335938 92.71875 -105.515625 C 98.882812 -108.703125 105.148438 -110.296875 111.515625 -110.296875 C 118.015625 -110.296875 123.054688 -108.703125 126.640625 -105.515625 C 130.234375 -102.335938 132.910156 -98.3125 134.671875 -93.4375 C 136.429688 -88.5625 137.785156 -83.6875 138.734375 -78.8125 C 141.035156 -68.65625 142.285156 -58.363281 142.484375 -47.9375 C 142.691406 -37.507812 142.117188 -27.757812 140.765625 -18.6875 C 140.492188 -16.519531 140.050781 -14.148438 139.4375 -11.578125 C 138.832031 -9.003906 137.816406 -6.800781 136.390625 -4.96875 C 134.972656 -3.144531 132.84375 -2.234375 130 -2.234375 C 129.59375 -2.234375 129.148438 -2.265625 128.671875 -2.328125 C 128.203125 -2.398438 127.695312 -2.503906 127.15625 -2.640625 C 124.582031 -3.316406 122.851562 -4.5 121.96875 -6.1875 C 121.09375 -7.882812 120.65625 -9.816406 120.65625 -11.984375 C 120.65625 -13.472656 120.789062 -14.925781 121.0625 -16.34375 C 121.332031 -17.769531 121.535156 -19.09375 121.671875 -20.3125 C 122.890625 -27.894531 123.460938 -36.019531 123.390625 -44.6875 C 123.328125 -53.351562 122.550781 -61.613281 121.0625 -69.46875 C 120.519531 -72.71875 119.875 -76.269531 119.125 -80.125 C 118.382812 -83.988281 117.066406 -87.34375 115.171875 -90.1875 L 112.53125 -91 C 111.988281 -91 111.34375 -90.960938 110.59375 -90.890625 C 109.851562 -90.828125 109.210938 -90.796875 108.671875 -90.796875 C 106.234375 -90.796875 103.660156 -90.082031 100.953125 -88.65625 C 98.242188 -87.238281 95.738281 -85.582031 93.4375 -83.6875 C 91.132812 -81.789062 89.304688 -80.0625 87.953125 -78.5 C 86.597656 -76.945312 85.988281 -76.101562 86.125 -75.96875 C 86.125 -74.34375 86.5625 -72.3125 87.4375 -69.875 C 88.320312 -67.4375 89.203125 -64.929688 90.078125 -62.359375 C 90.960938 -59.785156 91.40625 -57.484375 91.40625 -55.453125 C 91.40625 -52.203125 90.390625 -49.726562 88.359375 -48.03125 C 86.328125 -46.34375 84.160156 -45.5 81.859375 -45.5 C 80.097656 -45.5 78.4375 -45.9375 76.875 -46.8125 C 75.320312 -47.695312 74.140625 -49.019531 73.328125 -50.78125 C 72.109375 -53.082031 71.296875 -55.6875 70.890625 -58.59375 C 70.484375 -61.507812 69.875 -64.253906 69.0625 -66.828125 C 67.707031 -67.640625 66.625 -68.820312 65.8125 -70.375 C 65 -71.9375 64.59375 -73.53125 64.59375 -75.15625 C 64.59375 -77.457031 63.78125 -79.722656 62.15625 -81.953125 C 60.53125 -84.191406 58.363281 -85.648438 55.65625 -86.328125 C 53.625 -86.867188 51.285156 -86.359375 48.640625 -84.796875 C 46.003906 -83.242188 43.46875 -81.179688 41.03125 -78.609375 C 38.59375 -76.035156 36.59375 -73.425781 35.03125 -70.78125 C 33.476562 -68.144531 32.703125 -66.015625 32.703125 -64.390625 C 33.515625 -58.160156 34.191406 -52 34.734375 -45.90625 C 35.273438 -39.8125 36.019531 -33.988281 36.96875 -28.4375 C 37.375 -25.457031 37.878906 -22.34375 38.484375 -19.09375 C 39.097656 -15.84375 39.40625 -12.660156 39.40625 -9.546875 C 39.40625 -6.835938 38.457031 -4.566406 36.5625 -2.734375 C 34.664062 -0.910156 32.429688 0 29.859375 0 Z M 29.859375 0 "/></g></g></g></g></g></g></svg>