<svg style="background:transparent;" xmlns="http://www.w3.org/2000/svg" xmlns:xlink="http://www.w3.org/1999/xlink" width="1000" zoomAndPan="magnify" viewBox="0 0 750 461.03998" height="604" preserveAspectRatio="xMidYMid meet" version="1.0"><defs><clipPath id="fd4c0b6321"><path d="M 173.128906 94.503906 L 385.191406 94.503906 L 385.191406 206.960938 L 173.128906 206.960938 Z M 173.128906 94.503906 " clip-rule="nonzero"/></clipPath><clipPath id="8987c83fe2"><path d="M 178.085938 151.109375 C 183.921875 142.652344 212.8125 120.722656 213.113281 121.023438 C 213.410156 121.398438 180.332031 152.605469 179.433594 151.785156 C 178.609375 151.035156 202.183594 121.996094 202.484375 122.21875 C 202.707031 122.371094 179.804688 153.207031 180.179688 153.582031 C 180.628906 153.878906 196.121094 132.398438 205.925781 122.894531 C 216.253906 112.941406 231.75 98.195312 240.953125 95.351562 C 245.894531 93.855469 249.785156 95.5 253.527344 96.324219 C 256.820312 97.074219 259.664062 98.195312 262.433594 99.617188 C 265.203125 101.039062 267.898438 102.910156 270.21875 104.929688 C 272.539062 107.027344 274.707031 109.421875 276.503906 111.96875 C 278.300781 114.585938 279.875 117.429688 280.996094 120.347656 C 282.117188 123.269531 282.867188 126.410156 283.242188 129.480469 C 283.691406 132.625 283.691406 135.84375 283.316406 138.910156 C 282.941406 142.054688 282.191406 145.199219 281.144531 148.117188 C 280.023438 151.035156 278.527344 153.953125 276.804688 156.5 C 275.007812 159.117188 272.835938 161.515625 270.515625 163.609375 C 268.199219 165.703125 265.578125 167.574219 262.808594 169.074219 C 260.039062 170.496094 257.046875 171.691406 253.976562 172.441406 C 250.984375 173.1875 245.667969 175.210938 244.621094 173.636719 C 242.449219 170.34375 266.402344 139.058594 265.128906 138.164062 C 263.78125 137.113281 231.222656 174.761719 231.300781 174.910156 C 231.449219 174.984375 264.457031 151.710938 264.53125 139.957031 C 264.605469 127.984375 228.15625 110.917969 230.773438 103.734375 C 233.46875 96.324219 267.597656 93.78125 283.015625 96.996094 C 296.9375 99.917969 306.890625 115.632812 319.988281 119.003906 C 332.414062 122.296875 359.132812 119.675781 359.359375 117.953125 C 359.507812 116.757812 342.59375 112.863281 342.742188 112.492188 C 342.816406 112.117188 351.949219 113.238281 356.289062 114.660156 C 360.554688 116.15625 364.820312 118.402344 368.339844 121.097656 C 371.929688 123.867188 375.300781 127.382812 377.769531 131.050781 C 380.3125 134.792969 382.335938 139.210938 383.53125 143.550781 C 384.730469 147.890625 385.253906 152.683594 385.027344 157.171875 C 384.804688 161.664062 383.757812 166.378906 382.109375 170.570312 C 380.390625 174.761719 377.917969 178.878906 375 182.320312 C 372.082031 185.761719 368.414062 188.832031 364.523438 191.226562 C 360.703125 193.546875 356.214844 195.269531 351.796875 196.242188 C 347.382812 197.214844 342.59375 197.515625 338.101562 196.988281 C 333.609375 196.539062 328.972656 195.195312 324.929688 193.324219 C 320.8125 191.453125 316.847656 188.757812 313.554688 185.613281 C 310.261719 182.542969 307.339844 178.652344 305.246094 174.6875 C 303.148438 170.71875 301.578125 166.152344 300.902344 161.664062 C 300.15625 157.246094 300.15625 152.457031 300.902344 147.96875 C 301.578125 143.550781 303.148438 138.984375 305.246094 135.019531 C 307.414062 130.976562 310.335938 127.160156 313.554688 124.089844 C 316.847656 120.949219 320.8125 118.253906 324.929688 116.382812 C 329.046875 114.511719 333.6875 113.238281 338.175781 112.714844 C 342.667969 112.265625 347.457031 112.492188 351.875 113.464844 C 356.214844 114.4375 360.703125 116.234375 364.597656 118.554688 C 368.414062 120.875 372.082031 124.015625 375 127.460938 C 377.917969 130.902344 380.464844 135.019531 382.109375 139.210938 C 383.757812 143.402344 384.804688 148.117188 385.027344 152.605469 C 385.253906 157.097656 384.730469 161.886719 383.53125 166.230469 C 382.335938 170.570312 380.3125 174.910156 377.769531 178.652344 C 375.222656 182.394531 371.929688 185.914062 368.339844 188.605469 C 364.746094 191.375 360.480469 193.621094 356.214844 195.042969 C 351.949219 196.464844 346.632812 197.140625 342.667969 197.214844 C 339.75 197.363281 338.402344 197.140625 334.808594 196.464844 C 327.101562 195.117188 310.261719 192.199219 298.507812 187.261719 C 286.085938 182.019531 263.332031 173.863281 262.507812 165.179688 C 261.609375 155.898438 298.507812 132.847656 298.359375 132.699219 C 298.210938 132.550781 267.074219 159.566406 267.074219 159.566406 C 267.074219 159.566406 297.535156 133.148438 297.6875 133.296875 C 297.835938 133.523438 260.789062 167.351562 260.5625 167.050781 C 260.339844 166.828125 291.472656 136.367188 291.472656 136.441406 C 291.546875 136.441406 259.214844 166.679688 260.113281 167.726562 C 260.863281 168.699219 292.296875 145.421875 292.523438 145.722656 C 292.746094 146.019531 270.070312 167.203125 257.34375 172.292969 C 245.371094 177.082031 227.929688 183.070312 218.726562 176.855469 C 206.601562 168.773438 194.328125 126.1875 200.988281 112.640625 C 206.601562 101.339844 234.890625 96.472656 244.171875 95.203125 C 248.363281 94.679688 250.535156 95.574219 253.527344 96.324219 C 256.597656 97.074219 259.664062 98.195312 262.433594 99.617188 C 265.203125 101.039062 267.898438 102.910156 270.21875 104.929688 C 272.539062 107.027344 274.707031 109.421875 276.503906 111.96875 C 278.300781 114.585938 279.796875 117.429688 280.996094 120.347656 C 282.117188 123.269531 282.867188 126.410156 283.242188 129.480469 C 283.691406 132.625 283.691406 135.84375 283.316406 138.910156 C 282.941406 142.054688 282.191406 145.199219 281.144531 148.117188 C 280.023438 151.035156 278.527344 153.953125 276.804688 156.5 C 275.007812 159.117188 272.835938 161.515625 270.515625 163.609375 C 268.199219 165.703125 265.578125 167.574219 262.808594 169.074219 C 260.039062 170.496094 257.046875 171.691406 253.976562 172.441406 C 250.984375 173.1875 246.042969 171.84375 244.621094 173.636719 C 243.050781 175.585938 246.566406 180.824219 245.742188 184.265625 C 244.769531 187.933594 241.027344 192.050781 238.410156 194.894531 C 236.238281 197.363281 233.992188 199.160156 231.523438 200.730469 C 228.980469 202.378906 226.210938 203.800781 223.367188 204.773438 C 220.597656 205.746094 217.527344 206.421875 214.535156 206.71875 C 211.539062 207.019531 208.472656 206.945312 205.476562 206.496094 C 202.558594 206.121094 199.566406 205.296875 196.796875 204.175781 C 193.953125 203.050781 191.257812 201.480469 188.863281 199.757812 C 186.394531 197.960938 184.148438 195.867188 182.203125 193.621094 C 180.253906 191.300781 178.609375 188.683594 177.261719 185.988281 C 175.914062 183.292969 174.867188 180.375 174.269531 177.457031 C 173.59375 174.535156 173.296875 171.46875 173.371094 168.472656 C 173.445312 165.480469 173.894531 162.410156 174.640625 159.492188 C 175.464844 156.648438 178.085938 151.109375 178.085938 151.109375 " clip-rule="nonzero"/></clipPath><clipPath id="7dd23b7e3c"><path d="M 0.21875 0.503906 L 212.191406 0.503906 L 212.191406 112.960938 L 0.21875 112.960938 Z M 0.21875 0.503906 " clip-rule="nonzero"/></clipPath><clipPath id="23707da3b5"><path d="M 5.085938 57.109375 C 10.921875 48.652344 39.8125 26.722656 40.113281 27.023438 C 40.410156 27.398438 7.332031 58.605469 6.433594 57.785156 C 5.609375 57.035156 29.183594 27.996094 29.484375 28.21875 C 29.707031 28.371094 6.804688 59.207031 7.179688 59.582031 C 7.628906 59.878906 23.121094 38.398438 32.925781 28.894531 C 43.253906 18.941406 58.75 4.195312 67.953125 1.351562 C 72.894531 -0.144531 76.785156 1.5 80.527344 2.324219 C 83.820312 3.074219 86.664062 4.195312 89.433594 5.617188 C 92.203125 7.039062 94.898438 8.910156 97.21875 10.929688 C 99.539062 13.027344 101.707031 15.421875 103.503906 17.96875 C 105.300781 20.585938 106.875 23.429688 107.996094 26.347656 C 109.117188 29.269531 109.867188 32.410156 110.242188 35.480469 C 110.691406 38.625 110.691406 41.84375 110.316406 44.910156 C 109.941406 48.054688 109.191406 51.199219 108.144531 54.117188 C 107.023438 57.035156 105.527344 59.953125 103.804688 62.5 C 102.007812 65.117188 99.835938 67.515625 97.515625 69.609375 C 95.199219 71.703125 92.578125 73.574219 89.808594 75.074219 C 87.039062 76.496094 84.046875 77.691406 80.976562 78.441406 C 77.984375 79.1875 72.667969 81.210938 71.621094 79.636719 C 69.449219 76.34375 93.402344 45.058594 92.128906 44.164062 C 90.78125 43.113281 58.222656 80.761719 58.300781 80.910156 C 58.449219 80.984375 91.457031 57.710938 91.53125 45.957031 C 91.605469 33.984375 55.15625 16.917969 57.773438 9.734375 C 60.46875 2.324219 94.597656 -0.21875 110.015625 2.996094 C 123.9375 5.917969 133.890625 21.632812 146.988281 25.003906 C 159.414062 28.296875 186.132812 25.675781 186.359375 23.953125 C 186.507812 22.757812 169.59375 18.863281 169.742188 18.492188 C 169.816406 18.117188 178.949219 19.238281 183.289062 20.660156 C 187.554688 22.15625 191.820312 24.402344 195.339844 27.097656 C 198.929688 29.867188 202.300781 33.382812 204.769531 37.050781 C 207.3125 40.792969 209.335938 45.210938 210.53125 49.550781 C 211.730469 53.890625 212.253906 58.683594 212.027344 63.171875 C 211.804688 67.664062 210.757812 72.378906 209.109375 76.570312 C 207.390625 80.761719 204.917969 84.878906 202 88.320312 C 199.082031 91.761719 195.414062 94.832031 191.523438 97.226562 C 187.703125 99.546875 183.214844 101.269531 178.796875 102.242188 C 174.382812 103.214844 169.59375 103.515625 165.101562 102.988281 C 160.609375 102.539062 155.972656 101.195312 151.929688 99.324219 C 147.8125 97.453125 143.847656 94.757812 140.554688 91.613281 C 137.261719 88.542969 134.339844 84.652344 132.246094 80.6875 C 130.148438 76.71875 128.578125 72.152344 127.902344 67.664062 C 127.15625 63.246094 127.15625 58.457031 127.902344 53.96875 C 128.578125 49.550781 130.148438 44.984375 132.246094 41.019531 C 134.414062 36.976562 137.335938 33.160156 140.554688 30.089844 C 143.847656 26.949219 147.8125 24.253906 151.929688 22.382812 C 156.046875 20.511719 160.6875 19.238281 165.175781 18.714844 C 169.667969 18.265625 174.457031 18.492188 178.875 19.464844 C 183.214844 20.4375 187.703125 22.234375 191.597656 24.554688 C 195.414062 26.875 199.082031 30.015625 202 33.460938 C 204.917969 36.902344 207.464844 41.019531 209.109375 45.210938 C 210.757812 49.402344 211.804688 54.117188 212.027344 58.605469 C 212.253906 63.097656 211.730469 67.886719 210.53125 72.230469 C 209.335938 76.570312 207.3125 80.910156 204.769531 84.652344 C 202.222656 88.394531 198.929688 91.914062 195.339844 94.605469 C 191.746094 97.375 187.480469 99.621094 183.214844 101.042969 C 178.949219 102.464844 173.632812 103.140625 169.667969 103.214844 C 166.75 103.363281 165.402344 103.140625 161.808594 102.464844 C 154.101562 101.117188 137.261719 98.199219 125.507812 93.261719 C 113.085938 88.019531 90.332031 79.863281 89.507812 71.179688 C 88.609375 61.898438 125.507812 38.847656 125.359375 38.699219 C 125.210938 38.550781 94.074219 65.566406 94.074219 65.566406 C 94.074219 65.566406 124.535156 39.148438 124.6875 39.296875 C 124.835938 39.523438 87.789062 73.351562 87.5625 73.050781 C 87.339844 72.828125 118.472656 42.367188 118.472656 42.441406 C 118.546875 42.441406 86.214844 72.679688 87.113281 73.726562 C 87.863281 74.699219 119.296875 51.421875 119.523438 51.722656 C 119.746094 52.019531 97.070312 73.203125 84.34375 78.292969 C 72.371094 83.082031 54.929688 89.070312 45.726562 82.855469 C 33.601562 74.773438 21.328125 32.1875 27.988281 18.640625 C 33.601562 7.339844 61.890625 2.472656 71.171875 1.203125 C 75.363281 0.679688 77.535156 1.574219 80.527344 2.324219 C 83.597656 3.074219 86.664062 4.195312 89.433594 5.617188 C 92.203125 7.039062 94.898438 8.910156 97.21875 10.929688 C 99.539062 13.027344 101.707031 15.421875 103.503906 17.96875 C 105.300781 20.585938 106.796875 23.429688 107.996094 26.347656 C 109.117188 29.269531 109.867188 32.410156 110.242188 35.480469 C 110.691406 38.625 110.691406 41.84375 110.316406 44.910156 C 109.941406 48.054688 109.191406 51.199219 108.144531 54.117188 C 107.023438 57.035156 105.527344 59.953125 103.804688 62.5 C 102.007812 65.117188 99.835938 67.515625 97.515625 69.609375 C 95.199219 71.703125 92.578125 73.574219 89.808594 75.074219 C 87.039062 76.496094 84.046875 77.691406 80.976562 78.441406 C 77.984375 79.1875 73.042969 77.84375 71.621094 79.636719 C 70.050781 81.585938 73.566406 86.824219 72.742188 90.265625 C 71.769531 93.933594 68.027344 98.050781 65.410156 100.894531 C 63.238281 103.363281 60.992188 105.160156 58.523438 106.730469 C 55.980469 108.378906 53.210938 109.800781 50.367188 110.773438 C 47.597656 111.746094 44.527344 112.421875 41.535156 112.71875 C 38.539062 113.019531 35.472656 112.945312 32.476562 112.496094 C 29.558594 112.121094 26.566406 111.296875 23.796875 110.175781 C 20.953125 109.050781 18.257812 107.480469 15.863281 105.757812 C 13.394531 103.960938 11.148438 101.867188 9.203125 99.621094 C 7.253906 97.300781 5.609375 94.683594 4.261719 91.988281 C 2.914062 89.292969 1.867188 86.375 1.269531 83.457031 C 0.59375 80.535156 0.296875 77.46875 0.371094 74.472656 C 0.445312 71.480469 0.894531 68.410156 1.640625 65.492188 C 2.464844 62.648438 5.085938 57.109375 5.085938 57.109375 " clip-rule="nonzero"/></clipPath><clipPath id="6febad90ed"><rect x="0" width="213" y="0" height="113"/></clipPath><clipPath id="a65af135d1"><path d="M 182 117.226562 L 255.21875 117.226562 L 255.21875 192.375 L 182 192.375 Z M 182 117.226562 " clip-rule="nonzero"/></clipPath><clipPath id="2624ea9e2c"><path d="M 255.175781 143.699219 C 255.25 167.277344 252.480469 173.414062 248.960938 177.90625 C 245.371094 182.46875 240.128906 186.585938 234.816406 188.980469 C 229.578125 191.375 222.992188 192.574219 217.230469 192.199219 C 211.464844 191.902344 205.105469 189.878906 200.089844 186.886719 C 195.148438 183.890625 190.433594 179.175781 187.441406 174.238281 C 184.445312 169.222656 182.5 162.9375 182.125 157.097656 C 181.753906 151.335938 182.949219 144.75 185.34375 139.507812 C 187.738281 134.195312 191.855469 128.957031 196.421875 125.363281 C 200.988281 121.847656 207.050781 119.078125 212.738281 118.027344 C 218.425781 116.980469 225.085938 117.429688 230.625 119.152344 C 236.164062 120.875 245.96875 128.433594 245.96875 128.433594 " clip-rule="nonzero"/></clipPath><clipPath id="410905e994"><path d="M 0 0.226562 L 73.21875 0.226562 L 73.21875 75.375 L 0 75.375 Z M 0 0.226562 " clip-rule="nonzero"/></clipPath><clipPath id="2c8ff530ad"><path d="M 73.175781 26.699219 C 73.25 50.277344 70.480469 56.414062 66.960938 60.90625 C 63.371094 65.46875 58.128906 69.585938 52.816406 71.980469 C 47.578125 74.375 40.992188 75.574219 35.230469 75.199219 C 29.464844 74.902344 23.105469 72.878906 18.089844 69.886719 C 13.148438 66.890625 8.433594 62.175781 5.441406 57.238281 C 2.445312 52.222656 0.5 45.9375 0.125 40.097656 C -0.246094 34.335938 0.949219 27.75 3.34375 22.507812 C 5.738281 17.195312 9.855469 11.957031 14.421875 8.363281 C 18.988281 4.847656 25.050781 2.078125 30.738281 1.027344 C 36.425781 -0.0195312 43.085938 0.429688 48.625 2.152344 C 54.164062 3.875 63.96875 11.433594 63.96875 11.433594 " clip-rule="nonzero"/></clipPath><clipPath id="5a928c596b"><rect x="0" width="74" y="0" height="76"/></clipPath><clipPath id="c9be7a8a70"><path d="M 79 181.0625 L 197.859375 181.0625 L 197.859375 332.816406 L 79 332.816406 Z M 79 181.0625 " clip-rule="nonzero"/></clipPath><clipPath id="e941033a14"><path d="M 163.042969 256.941406 C 153.160156 260.980469 144.179688 294.960938 140.960938 294.289062 C 137.667969 293.613281 133.105469 253.722656 139.390625 249.753906 C 145.453125 245.863281 175.988281 269.8125 176.664062 268.691406 C 177.261719 267.71875 146.425781 246.3125 146.800781 245.714844 C 147.324219 245.039062 189.761719 272.058594 189.835938 271.984375 C 189.910156 271.832031 154.882812 252 155.558594 250.203125 C 155.929688 249.15625 164.539062 250.953125 168.65625 252.375 C 172.847656 253.722656 176.960938 255.890625 180.40625 258.585938 C 183.921875 261.207031 187.140625 264.574219 189.535156 268.242188 C 192.007812 271.832031 193.953125 276.101562 195.148438 280.292969 C 196.347656 284.484375 196.796875 289.121094 196.570312 293.539062 C 196.347656 297.878906 195.375 302.445312 193.726562 306.488281 C 192.082031 310.527344 189.6875 314.570312 186.839844 317.863281 C 183.996094 321.230469 180.480469 324.226562 176.738281 326.46875 C 172.996094 328.714844 168.65625 330.4375 164.386719 331.410156 C 160.121094 332.308594 155.480469 332.605469 151.140625 332.082031 C 146.726562 331.632812 142.234375 330.363281 138.269531 328.566406 C 134.300781 326.695312 130.484375 324.074219 127.265625 321.082031 C 124.121094 318.085938 121.277344 314.34375 119.257812 310.527344 C 117.238281 306.636719 115.738281 302.21875 114.992188 297.878906 C 114.316406 293.613281 114.316406 288.898438 114.992188 284.632812 C 115.738281 280.292969 117.238281 275.875 119.257812 271.984375 C 121.277344 268.167969 124.121094 264.425781 127.339844 261.429688 C 130.484375 258.4375 134.375 255.816406 138.34375 253.945312 C 142.308594 252.148438 146.800781 250.878906 151.140625 250.429688 C 155.480469 249.980469 160.121094 250.203125 164.386719 251.175781 C 168.65625 252.074219 172.996094 253.796875 176.738281 256.042969 C 180.480469 258.363281 184.074219 261.355469 186.917969 264.648438 C 189.6875 268.015625 192.082031 271.984375 193.726562 276.101562 C 195.375 280.140625 196.347656 284.707031 196.570312 289.046875 C 196.796875 293.464844 196.347656 298.03125 195.148438 302.296875 C 193.953125 306.488281 192.007812 310.753906 189.535156 314.34375 C 187.066406 317.9375 183.921875 321.378906 180.40625 324 C 176.886719 326.621094 172.769531 328.789062 168.65625 330.210938 C 164.539062 331.632812 160.046875 332.457031 155.558594 332.382812 C 150.839844 332.234375 146.875 331.109375 141.039062 329.238281 C 131.53125 326.246094 114.09375 321.753906 104.589844 313.671875 C 95.234375 305.738281 83.40625 282.085938 84.082031 281.5625 C 84.828125 281.039062 112.371094 313.746094 111.699219 314.34375 C 111.097656 314.945312 88.644531 300.273438 83.40625 288.675781 C 77.195312 274.679688 76.96875 247.433594 83.03125 233.363281 C 88.121094 221.6875 100.546875 215.402344 111.25 207.316406 C 123.300781 198.1875 141.933594 185.089844 152.339844 182.171875 C 157.953125 180.671875 162.292969 181.722656 166.335938 182.320312 C 169.628906 182.84375 172.246094 183.742188 175.015625 184.941406 C 177.785156 186.0625 180.480469 187.632812 182.875 189.503906 C 185.269531 191.300781 187.515625 193.472656 189.386719 195.792969 C 191.257812 198.113281 192.902344 200.730469 194.175781 203.425781 C 195.449219 206.195312 196.421875 209.113281 197.019531 212.035156 C 197.621094 215.027344 197.84375 218.097656 197.695312 221.089844 C 197.621094 224.082031 197.09375 227.152344 196.273438 230.070312 C 195.375 232.914062 194.175781 235.757812 192.679688 238.378906 C 191.183594 240.921875 189.238281 243.46875 187.214844 245.5625 C 185.121094 247.734375 182.652344 249.679688 180.105469 251.328125 C 177.636719 252.898438 174.792969 254.246094 171.949219 255.144531 C 169.105469 256.117188 163.042969 256.941406 163.042969 256.941406 " clip-rule="nonzero"/></clipPath><clipPath id="76cc6942cd"><path d="M 1 0.0625 L 118.859375 0.0625 L 118.859375 151.667969 L 1 151.667969 Z M 1 0.0625 " clip-rule="nonzero"/></clipPath><clipPath id="44a7207610"><path d="M 84.042969 75.941406 C 74.160156 79.980469 65.179688 113.960938 61.960938 113.289062 C 58.667969 112.613281 54.105469 72.722656 60.390625 68.753906 C 66.453125 64.863281 96.988281 88.8125 97.664062 87.691406 C 98.261719 86.71875 67.425781 65.3125 67.800781 64.714844 C 68.324219 64.039062 110.761719 91.058594 110.835938 90.984375 C 110.910156 90.832031 75.882812 71 76.558594 69.203125 C 76.929688 68.15625 85.539062 69.953125 89.65625 71.375 C 93.847656 72.722656 97.960938 74.890625 101.40625 77.585938 C 104.921875 80.207031 108.140625 83.574219 110.535156 87.242188 C 113.007812 90.832031 114.953125 95.101562 116.148438 99.292969 C 117.347656 103.484375 117.796875 108.121094 117.570312 112.539062 C 117.347656 116.878906 116.375 121.445312 114.726562 125.488281 C 113.082031 129.527344 110.6875 133.570312 107.839844 136.863281 C 104.996094 140.230469 101.480469 143.226562 97.738281 145.46875 C 93.996094 147.714844 89.65625 149.4375 85.386719 150.410156 C 81.121094 151.308594 76.480469 151.605469 72.140625 151.082031 C 67.726562 150.632812 63.234375 149.363281 59.269531 147.566406 C 55.300781 145.695312 51.484375 143.074219 48.265625 140.082031 C 45.121094 137.085938 42.277344 133.34375 40.257812 129.527344 C 38.238281 125.636719 36.738281 121.21875 35.992188 116.878906 C 35.316406 112.613281 35.316406 107.898438 35.992188 103.632812 C 36.738281 99.292969 38.238281 94.875 40.257812 90.984375 C 42.277344 87.167969 45.121094 83.425781 48.339844 80.429688 C 51.484375 77.4375 55.375 74.816406 59.34375 72.945312 C 63.308594 71.148438 67.800781 69.878906 72.140625 69.429688 C 76.480469 68.980469 81.121094 69.203125 85.386719 70.175781 C 89.65625 71.074219 93.996094 72.796875 97.738281 75.042969 C 101.480469 77.363281 105.074219 80.355469 107.917969 83.648438 C 110.6875 87.015625 113.082031 90.984375 114.726562 95.101562 C 116.375 99.140625 117.347656 103.707031 117.570312 108.046875 C 117.796875 112.464844 117.347656 117.03125 116.148438 121.296875 C 114.953125 125.488281 113.007812 129.753906 110.535156 133.34375 C 108.066406 136.9375 104.921875 140.378906 101.40625 143 C 97.886719 145.621094 93.769531 147.789062 89.65625 149.210938 C 85.539062 150.632812 81.046875 151.457031 76.558594 151.382812 C 71.839844 151.234375 67.875 150.109375 62.039062 148.238281 C 52.53125 145.246094 35.09375 140.753906 25.589844 132.671875 C 16.234375 124.738281 4.40625 101.085938 5.082031 100.5625 C 5.828125 100.039062 33.371094 132.746094 32.699219 133.34375 C 32.097656 133.945312 9.644531 119.273438 4.40625 107.675781 C -1.804688 93.679688 -2.03125 66.433594 4.03125 52.363281 C 9.121094 40.6875 21.546875 34.402344 32.25 26.316406 C 44.300781 17.1875 62.933594 4.089844 73.339844 1.171875 C 78.953125 -0.328125 83.292969 0.722656 87.335938 1.320312 C 90.628906 1.84375 93.246094 2.742188 96.015625 3.941406 C 98.785156 5.0625 101.480469 6.632812 103.875 8.503906 C 106.269531 10.300781 108.515625 12.472656 110.386719 14.792969 C 112.257812 17.113281 113.902344 19.730469 115.175781 22.425781 C 116.449219 25.195312 117.421875 28.113281 118.019531 31.035156 C 118.621094 34.027344 118.84375 37.097656 118.695312 40.089844 C 118.621094 43.082031 118.09375 46.152344 117.273438 49.070312 C 116.375 51.914062 115.175781 54.757812 113.679688 57.378906 C 112.183594 59.921875 110.238281 62.46875 108.214844 64.5625 C 106.121094 66.734375 103.652344 68.679688 101.105469 70.328125 C 98.636719 71.898438 95.792969 73.246094 92.949219 74.144531 C 90.105469 75.117188 84.042969 75.941406 84.042969 75.941406 " clip-rule="nonzero"/></clipPath><clipPath id="06c7a0b390"><rect x="0" width="119" y="0" height="152"/></clipPath><clipPath id="7f79620763"><path d="M 104.1875 182.492188 L 177.457031 182.492188 L 177.457031 257.640625 L 104.1875 257.640625 Z M 104.1875 182.492188 " clip-rule="nonzero"/></clipPath><clipPath id="c856d65706"><path d="M 177.410156 208.964844 C 177.484375 232.539062 174.71875 238.601562 171.199219 243.167969 C 167.605469 247.734375 162.367188 251.851562 157.054688 254.246094 C 151.816406 256.640625 145.226562 257.839844 139.464844 257.464844 C 133.703125 257.089844 127.339844 255.144531 122.324219 252.148438 C 117.386719 249.15625 112.671875 244.441406 109.675781 239.425781 C 106.683594 234.488281 104.738281 228.125 104.363281 222.363281 C 103.988281 216.597656 105.1875 210.011719 107.582031 204.773438 C 109.976562 199.460938 114.09375 194.21875 118.660156 190.628906 C 123.222656 187.035156 129.285156 184.339844 134.976562 183.292969 C 140.664062 182.246094 147.324219 182.621094 152.863281 184.339844 C 158.402344 186.136719 168.207031 193.621094 168.207031 193.621094 " clip-rule="nonzero"/></clipPath><clipPath id="c5bf92a83b"><path d="M 0.1875 0.492188 L 73.457031 0.492188 L 73.457031 75.640625 L 0.1875 75.640625 Z M 0.1875 0.492188 " clip-rule="nonzero"/></clipPath><clipPath id="ea6102285b"><path d="M 73.410156 26.964844 C 73.484375 50.539062 70.71875 56.601562 67.199219 61.167969 C 63.605469 65.734375 58.367188 69.851562 53.054688 72.246094 C 47.816406 74.640625 41.226562 75.839844 35.464844 75.464844 C 29.703125 75.089844 23.339844 73.144531 18.324219 70.148438 C 13.386719 67.15625 8.671875 62.441406 5.675781 57.425781 C 2.683594 52.488281 0.738281 46.125 0.363281 40.363281 C -0.0117188 34.597656 1.1875 28.011719 3.582031 22.773438 C 5.976562 17.460938 10.09375 12.21875 14.660156 8.628906 C 19.222656 5.035156 25.285156 2.339844 30.976562 1.292969 C 36.664062 0.246094 43.324219 0.621094 48.863281 2.339844 C 54.402344 4.136719 64.207031 11.621094 64.207031 11.621094 " clip-rule="nonzero"/></clipPath><clipPath id="9412771891"><rect x="0" width="74" y="0" height="76"/></clipPath><clipPath id="dc5e9aa046"><path d="M 89.667969 198.285156 L 163 198.285156 L 163 273.433594 L 89.667969 273.433594 Z M 89.667969 198.285156 " clip-rule="nonzero"/></clipPath><clipPath id="d9804c9751"><path d="M 162.964844 224.757812 C 162.964844 248.332031 160.273438 254.46875 156.679688 258.960938 C 153.085938 263.527344 147.847656 267.644531 142.609375 270.039062 C 137.296875 272.433594 130.707031 273.628906 124.945312 273.257812 C 119.183594 272.957031 112.820312 270.9375 107.882812 267.941406 C 102.867188 264.949219 98.226562 260.234375 95.15625 255.292969 C 92.164062 250.277344 90.21875 243.992188 89.84375 238.152344 C 89.542969 232.390625 90.742188 225.804688 93.0625 220.566406 C 95.457031 215.25 99.574219 210.011719 104.140625 206.421875 C 108.703125 202.902344 114.765625 200.132812 120.453125 199.085938 C 126.21875 198.039062 132.804688 198.488281 138.34375 200.207031 C 143.882812 201.929688 153.6875 209.488281 153.6875 209.488281 " clip-rule="nonzero"/></clipPath><clipPath id="a95addf8cd"><path d="M 0.667969 0.285156 L 74 0.285156 L 74 75.433594 L 0.667969 75.433594 Z M 0.667969 0.285156 " clip-rule="nonzero"/></clipPath><clipPath id="c4452faa5e"><path d="M 73.964844 26.757812 C 73.964844 50.332031 71.273438 56.46875 67.679688 60.960938 C 64.085938 65.527344 58.847656 69.644531 53.609375 72.039062 C 48.296875 74.433594 41.707031 75.628906 35.945312 75.257812 C 30.183594 74.957031 23.820312 72.9375 18.882812 69.941406 C 13.867188 66.949219 9.226562 62.234375 6.15625 57.292969 C 3.164062 52.277344 1.21875 45.992188 0.84375 40.152344 C 0.542969 34.390625 1.742188 27.804688 4.0625 22.566406 C 6.457031 17.25 10.574219 12.011719 15.140625 8.421875 C 19.703125 4.902344 25.765625 2.132812 31.453125 1.085938 C 37.21875 0.0390625 43.804688 0.488281 49.34375 2.207031 C 54.882812 3.929688 64.6875 11.488281 64.6875 11.488281 " clip-rule="nonzero"/></clipPath><clipPath id="734c5f6276"><rect x="0" width="74" y="0" height="76"/></clipPath><clipPath id="44e1fb86b1"><path d="M 159.058594 299.4375 L 361.996094 299.4375 L 361.996094 423.929688 L 159.058594 423.929688 Z M 159.058594 299.4375 " clip-rule="nonzero"/></clipPath><clipPath id="596c2d6ea6"><path d="M 229.578125 318.460938 C 260.339844 363.367188 296.339844 352.742188 296.339844 352.890625 C 296.339844 352.964844 249.488281 360.972656 248.4375 357.753906 C 247.464844 354.984375 271.191406 345.707031 280.472656 338.144531 C 289.230469 331.035156 295.890625 318.3125 303 314.046875 C 307.492188 311.351562 311.53125 310.976562 315.949219 310.527344 C 320.363281 310.003906 325.078125 310.304688 329.417969 311.277344 C 333.761719 312.25 338.101562 314.046875 341.917969 316.292969 C 345.660156 318.613281 349.253906 321.679688 352.171875 325.046875 C 355.015625 328.492188 357.410156 332.53125 359.058594 336.648438 C 360.628906 340.765625 361.675781 345.40625 361.902344 349.820312 C 362.125 354.238281 361.601562 358.953125 360.40625 363.21875 C 359.132812 367.484375 357.1875 371.75 354.640625 375.417969 C 352.171875 379.085938 348.878906 382.453125 345.363281 385.148438 C 341.84375 387.765625 337.652344 390.011719 333.460938 391.359375 C 329.269531 392.78125 324.554688 393.53125 320.140625 393.53125 C 315.722656 393.53125 311.082031 392.707031 306.890625 391.285156 C 302.625 389.863281 298.507812 387.617188 294.992188 384.921875 C 291.472656 382.230469 288.253906 378.785156 285.785156 375.117188 C 283.316406 371.453125 281.296875 367.109375 280.171875 362.84375 C 278.976562 358.578125 278.527344 353.863281 278.75 349.449219 C 278.976562 345.03125 280.023438 340.464844 281.667969 336.347656 C 283.390625 332.234375 285.785156 328.191406 288.703125 324.824219 C 291.546875 321.457031 295.214844 318.386719 298.957031 316.140625 C 302.773438 313.894531 307.191406 312.175781 311.53125 311.203125 C 315.875 310.304688 320.589844 310.003906 325.003906 310.527344 C 329.34375 311.050781 333.910156 312.324219 337.953125 314.195312 C 341.917969 316.066406 345.886719 318.761719 349.027344 321.828125 C 352.246094 324.824219 355.089844 328.640625 357.1875 332.53125 C 359.207031 336.5 360.703125 340.988281 361.378906 345.332031 C 362.125 349.671875 362.050781 354.460938 361.378906 358.804688 C 360.628906 363.144531 359.058594 367.632812 357.039062 371.527344 C 354.941406 375.417969 352.023438 379.234375 348.804688 382.230469 C 345.585938 385.296875 337.429688 389.488281 337.652344 389.714844 C 337.726562 389.9375 343.339844 387.019531 343.414062 387.242188 C 343.714844 387.84375 319.839844 405.207031 306.070312 411.117188 C 291.546875 417.480469 273.210938 423.320312 258.167969 423.46875 C 244.769531 423.617188 231.523438 420.101562 220.074219 414.410156 C 208.398438 408.574219 197.769531 398.394531 188.9375 388.589844 C 180.332031 379.011719 166.785156 357.15625 167.53125 356.558594 C 168.355469 355.957031 198.59375 390.238281 198.21875 390.6875 C 197.769531 391.0625 173.144531 369.355469 167.082031 360.972656 C 163.640625 356.109375 162.292969 351.992188 161.019531 348.023438 C 160.046875 344.808594 159.671875 342.113281 159.523438 339.042969 C 159.375 336.050781 159.597656 332.980469 160.199219 330.0625 C 160.796875 327.070312 161.769531 324.148438 163.042969 321.457031 C 164.3125 318.6875 165.960938 316.066406 167.832031 313.746094 C 169.703125 311.425781 171.949219 309.257812 174.34375 307.460938 C 176.738281 305.664062 179.433594 304.089844 182.203125 302.894531 C 184.96875 301.695312 187.890625 300.796875 190.882812 300.347656 C 193.800781 299.824219 196.945312 299.675781 199.941406 299.902344 C 202.933594 300.125 206 300.722656 208.847656 301.695312 C 211.691406 302.59375 214.460938 303.941406 217.003906 305.515625 C 219.546875 307.160156 222.019531 309.105469 224.039062 311.203125 C 226.136719 313.371094 229.578125 318.460938 229.578125 318.460938 " clip-rule="nonzero"/></clipPath><clipPath id="b134dcb49e"><path d="M 0.328125 0.617188 L 202.996094 0.617188 L 202.996094 124.679688 L 0.328125 124.679688 Z M 0.328125 0.617188 " clip-rule="nonzero"/></clipPath><clipPath id="da54173961"><path d="M 70.578125 19.460938 C 101.339844 64.367188 137.339844 53.742188 137.339844 53.890625 C 137.339844 53.964844 90.488281 61.972656 89.4375 58.753906 C 88.464844 55.984375 112.191406 46.707031 121.472656 39.144531 C 130.230469 32.035156 136.890625 19.3125 144 15.046875 C 148.492188 12.351562 152.53125 11.976562 156.949219 11.527344 C 161.363281 11.003906 166.078125 11.304688 170.417969 12.277344 C 174.761719 13.25 179.101562 15.046875 182.917969 17.292969 C 186.660156 19.613281 190.253906 22.679688 193.171875 26.046875 C 196.015625 29.492188 198.410156 33.53125 200.058594 37.648438 C 201.628906 41.765625 202.675781 46.40625 202.902344 50.820312 C 203.125 55.238281 202.601562 59.953125 201.40625 64.21875 C 200.132812 68.484375 198.1875 72.75 195.640625 76.417969 C 193.171875 80.085938 189.878906 83.453125 186.363281 86.148438 C 182.84375 88.765625 178.652344 91.011719 174.460938 92.359375 C 170.269531 93.78125 165.554688 94.53125 161.140625 94.53125 C 156.722656 94.53125 152.082031 93.707031 147.890625 92.285156 C 143.625 90.863281 139.507812 88.617188 135.992188 85.921875 C 132.472656 83.230469 129.253906 79.785156 126.785156 76.117188 C 124.316406 72.453125 122.296875 68.109375 121.171875 63.84375 C 119.976562 59.578125 119.527344 54.863281 119.75 50.449219 C 119.976562 46.03125 121.023438 41.464844 122.667969 37.347656 C 124.390625 33.234375 126.785156 29.191406 129.703125 25.824219 C 132.546875 22.457031 136.214844 19.386719 139.957031 17.140625 C 143.773438 14.894531 148.191406 13.175781 152.53125 12.203125 C 156.875 11.304688 161.589844 11.003906 166.003906 11.527344 C 170.34375 12.050781 174.910156 13.324219 178.953125 15.195312 C 182.917969 17.066406 186.886719 19.761719 190.027344 22.828125 C 193.246094 25.824219 196.089844 29.640625 198.1875 33.53125 C 200.207031 37.5 201.703125 41.988281 202.378906 46.332031 C 203.125 50.671875 203.050781 55.460938 202.378906 59.804688 C 201.628906 64.144531 200.058594 68.632812 198.039062 72.527344 C 195.941406 76.417969 193.023438 80.234375 189.804688 83.230469 C 186.585938 86.296875 178.429688 90.488281 178.652344 90.714844 C 178.726562 90.9375 184.339844 88.019531 184.414062 88.242188 C 184.714844 88.84375 160.839844 106.207031 147.070312 112.117188 C 132.546875 118.480469 114.210938 124.320312 99.167969 124.46875 C 85.769531 124.617188 72.523438 121.101562 61.074219 115.410156 C 49.398438 109.574219 38.769531 99.394531 29.9375 89.589844 C 21.332031 80.011719 7.785156 58.15625 8.53125 57.558594 C 9.355469 56.957031 39.59375 91.238281 39.21875 91.6875 C 38.769531 92.0625 14.144531 70.355469 8.082031 61.972656 C 4.640625 57.109375 3.292969 52.992188 2.019531 49.023438 C 1.046875 45.808594 0.671875 43.113281 0.523438 40.042969 C 0.375 37.050781 0.597656 33.980469 1.199219 31.0625 C 1.796875 28.070312 2.769531 25.148438 4.042969 22.457031 C 5.3125 19.6875 6.960938 17.066406 8.832031 14.746094 C 10.703125 12.425781 12.949219 10.257812 15.34375 8.460938 C 17.738281 6.664062 20.433594 5.089844 23.203125 3.894531 C 25.96875 2.695312 28.890625 1.796875 31.882812 1.347656 C 34.800781 0.824219 37.945312 0.675781 40.941406 0.902344 C 43.933594 1.125 47 1.722656 49.847656 2.695312 C 52.691406 3.59375 55.460938 4.941406 58.003906 6.515625 C 60.546875 8.160156 63.019531 10.105469 65.039062 12.203125 C 67.136719 14.371094 70.578125 19.460938 70.578125 19.460938 " clip-rule="nonzero"/></clipPath><clipPath id="57e58f38f5"><rect x="0" width="203" y="0" height="125"/></clipPath><clipPath id="d4da5afe75"><path d="M 350.5 276.898438 L 554.160156 276.898438 L 554.160156 419.808594 L 350.5 419.808594 Z M 350.5 276.898438 " clip-rule="nonzero"/></clipPath><clipPath id="c11c0151cd"><path d="M 414.816406 313.449219 C 457.851562 351.09375 477.984375 328.417969 477.535156 323.101562 C 477.386719 320.558594 471.175781 320.632812 470.050781 318.085938 C 468.78125 315.019531 471.023438 308.957031 472.523438 304.765625 C 474.019531 300.574219 476.339844 296.382812 479.109375 292.863281 C 481.953125 289.347656 485.46875 286.203125 489.210938 283.734375 C 492.953125 281.265625 497.296875 279.394531 501.636719 278.269531 C 505.976562 277.148438 510.691406 276.773438 515.183594 277.074219 C 519.597656 277.371094 524.238281 278.496094 528.355469 280.214844 C 532.472656 282.011719 536.511719 284.558594 539.882812 287.476562 C 543.25 290.46875 546.242188 294.136719 548.488281 298.03125 C 550.734375 301.921875 552.378906 306.335938 553.277344 310.753906 C 554.101562 315.09375 554.328125 319.882812 553.726562 324.300781 C 553.128906 328.714844 551.78125 333.28125 549.835938 337.324219 C 547.890625 341.363281 545.121094 345.257812 541.976562 348.398438 C 538.832031 351.617188 535.015625 354.386719 530.976562 356.40625 C 527.007812 358.429688 522.441406 359.851562 518.027344 360.523438 C 513.613281 361.121094 508.820312 361.046875 504.480469 360.226562 C 500.066406 359.402344 495.574219 357.828125 491.683594 355.660156 C 487.789062 353.488281 484.046875 350.496094 480.980469 347.203125 C 477.984375 343.910156 475.441406 339.941406 473.644531 335.824219 C 471.847656 331.710938 470.652344 327.144531 470.203125 322.652344 C 469.828125 318.238281 470.203125 313.449219 471.25 309.105469 C 472.296875 304.765625 474.167969 300.347656 476.488281 296.605469 C 478.882812 292.789062 482.027344 289.199219 485.542969 286.429688 C 488.988281 283.585938 493.105469 281.191406 497.296875 279.617188 C 501.488281 278.046875 506.125 277.148438 510.617188 277 C 515.109375 276.847656 519.824219 277.445312 524.089844 278.71875 C 528.355469 279.992188 532.695312 282.085938 536.289062 284.632812 C 539.957031 287.25 543.398438 290.621094 546.019531 294.210938 C 548.636719 297.804688 550.808594 302.070312 552.15625 306.335938 C 553.503906 310.601562 554.175781 315.992188 554.027344 319.808594 C 553.953125 322.578125 553.503906 323.851562 552.605469 327.144531 C 550.660156 334.628906 546.84375 351.691406 540.78125 362.769531 C 534.417969 374.296875 525.4375 386.71875 514.808594 394.652344 C 504.179688 402.660156 490.035156 406.554688 476.9375 410.667969 C 463.539062 414.785156 447.972656 421.222656 435.101562 419.128906 C 422.675781 417.03125 412.046875 406.703125 400.820312 398.996094 C 388.996094 390.835938 373.878906 378.9375 366.019531 371.300781 C 361.378906 366.8125 358.382812 363.21875 355.988281 359.476562 C 354.191406 356.632812 353.144531 354.085938 352.246094 351.242188 C 351.347656 348.398438 350.824219 345.332031 350.601562 342.335938 C 350.449219 339.34375 350.601562 336.199219 351.199219 333.28125 C 351.722656 330.289062 352.621094 327.292969 353.894531 324.597656 C 355.089844 321.828125 356.738281 319.210938 358.535156 316.816406 C 360.40625 314.496094 362.652344 312.25 364.972656 310.453125 C 367.367188 308.582031 369.984375 306.9375 372.753906 305.738281 C 375.449219 304.464844 378.441406 303.566406 381.4375 303.042969 C 384.355469 302.519531 387.425781 302.296875 390.417969 302.445312 C 393.488281 302.667969 396.480469 303.195312 399.398438 304.089844 C 402.242188 304.988281 405.085938 306.261719 407.632812 307.835938 C 410.25 309.40625 414.816406 313.449219 414.816406 313.449219 " clip-rule="nonzero"/></clipPath><clipPath id="764029e9ae"><path d="M 0.5 0.898438 L 204.160156 0.898438 L 204.160156 143.808594 L 0.5 143.808594 Z M 0.5 0.898438 " clip-rule="nonzero"/></clipPath><clipPath id="7bf385ec71"><path d="M 64.816406 37.449219 C 107.851562 75.09375 127.984375 52.417969 127.535156 47.101562 C 127.386719 44.558594 121.175781 44.632812 120.050781 42.085938 C 118.78125 39.019531 121.023438 32.957031 122.523438 28.765625 C 124.019531 24.574219 126.339844 20.382812 129.109375 16.863281 C 131.953125 13.347656 135.46875 10.203125 139.210938 7.734375 C 142.953125 5.265625 147.296875 3.394531 151.636719 2.269531 C 155.976562 1.148438 160.691406 0.773438 165.183594 1.074219 C 169.597656 1.371094 174.238281 2.496094 178.355469 4.214844 C 182.472656 6.011719 186.511719 8.558594 189.882812 11.476562 C 193.25 14.46875 196.242188 18.136719 198.488281 22.03125 C 200.734375 25.921875 202.378906 30.335938 203.277344 34.753906 C 204.101562 39.09375 204.328125 43.882812 203.726562 48.300781 C 203.128906 52.714844 201.78125 57.28125 199.835938 61.324219 C 197.890625 65.363281 195.121094 69.257812 191.976562 72.398438 C 188.832031 75.617188 185.015625 78.386719 180.976562 80.40625 C 177.007812 82.429688 172.441406 83.851562 168.027344 84.523438 C 163.613281 85.121094 158.820312 85.046875 154.480469 84.226562 C 150.066406 83.402344 145.574219 81.828125 141.683594 79.660156 C 137.789062 77.488281 134.046875 74.496094 130.980469 71.203125 C 127.984375 67.910156 125.441406 63.941406 123.644531 59.824219 C 121.847656 55.710938 120.652344 51.144531 120.203125 46.652344 C 119.828125 42.238281 120.203125 37.449219 121.25 33.105469 C 122.296875 28.765625 124.167969 24.347656 126.488281 20.605469 C 128.882812 16.789062 132.027344 13.199219 135.542969 10.429688 C 138.988281 7.585938 143.105469 5.191406 147.296875 3.617188 C 151.488281 2.046875 156.125 1.148438 160.617188 1 C 165.109375 0.847656 169.824219 1.445312 174.089844 2.71875 C 178.355469 3.992188 182.695312 6.085938 186.289062 8.632812 C 189.957031 11.25 193.398438 14.621094 196.019531 18.210938 C 198.636719 21.804688 200.808594 26.070312 202.15625 30.335938 C 203.503906 34.601562 204.175781 39.992188 204.027344 43.808594 C 203.953125 46.578125 203.503906 47.851562 202.605469 51.144531 C 200.660156 58.628906 196.84375 75.691406 190.78125 86.769531 C 184.417969 98.296875 175.4375 110.71875 164.808594 118.652344 C 154.179688 126.660156 140.035156 130.554688 126.9375 134.667969 C 113.539062 138.785156 97.972656 145.222656 85.101562 143.128906 C 72.675781 141.03125 62.046875 130.703125 50.820312 122.996094 C 38.996094 114.835938 23.878906 102.9375 16.019531 95.300781 C 11.378906 90.8125 8.382812 87.21875 5.988281 83.476562 C 4.191406 80.632812 3.144531 78.085938 2.246094 75.242188 C 1.347656 72.398438 0.824219 69.332031 0.601562 66.335938 C 0.449219 63.34375 0.601562 60.199219 1.199219 57.28125 C 1.722656 54.289062 2.621094 51.292969 3.894531 48.597656 C 5.089844 45.828125 6.738281 43.210938 8.535156 40.816406 C 10.40625 38.496094 12.652344 36.25 14.972656 34.453125 C 17.367188 32.582031 19.984375 30.9375 22.753906 29.738281 C 25.449219 28.464844 28.441406 27.566406 31.4375 27.042969 C 34.355469 26.519531 37.425781 26.296875 40.417969 26.445312 C 43.488281 26.667969 46.480469 27.195312 49.398438 28.089844 C 52.242188 28.988281 55.085938 30.261719 57.632812 31.835938 C 60.25 33.40625 64.816406 37.449219 64.816406 37.449219 " clip-rule="nonzero"/></clipPath><clipPath id="499f00cd81"><rect x="0" width="205" y="0" height="144"/></clipPath><clipPath id="392269b3e8"><path d="M 533 223.242188 L 692.515625 223.242188 L 692.515625 351 L 533 351 Z M 533 223.242188 " clip-rule="nonzero"/></clipPath><clipPath id="30d25e3654"><path d="M 533.144531 286.054688 C 534.492188 274.078125 535.464844 271.085938 536.8125 268.390625 C 538.085938 265.695312 539.808594 263.078125 541.679688 260.757812 C 543.625 258.4375 545.871094 256.265625 548.265625 254.46875 C 550.660156 252.675781 553.355469 251.175781 556.121094 249.980469 C 558.890625 248.855469 561.886719 247.957031 564.878906 247.507812 C 567.796875 247.058594 570.941406 246.910156 573.9375 247.210938 C 576.929688 247.433594 579.921875 248.109375 582.765625 249.082031 C 585.613281 249.980469 588.828125 251.625 591 252.972656 C 592.496094 253.945312 594.070312 256.191406 594.59375 255.96875 C 594.96875 255.816406 594.667969 254.546875 594.890625 253.871094 C 595.042969 253.121094 595.566406 252.523438 595.789062 251.851562 C 596.015625 251.101562 595.941406 250.429688 596.3125 249.605469 C 596.761719 248.484375 597.886719 247.136719 598.558594 245.789062 C 599.308594 244.441406 599.757812 242.71875 600.503906 241.746094 C 600.953125 241 601.554688 240.699219 602.003906 240.101562 C 602.453125 239.5 602.601562 238.828125 603.199219 238.152344 C 603.949219 237.257812 605.519531 236.28125 606.566406 235.308594 C 607.691406 234.261719 608.664062 232.765625 609.636719 232.015625 C 610.386719 231.492188 611.058594 231.417969 611.65625 230.96875 C 612.257812 230.59375 612.628906 229.996094 613.378906 229.546875 C 614.425781 228.875 616.148438 228.5 617.496094 227.902344 C 618.84375 227.226562 620.339844 226.179688 621.460938 225.804688 C 622.285156 225.503906 622.957031 225.582031 623.707031 225.429688 C 624.378906 225.207031 624.90625 224.757812 625.800781 224.605469 C 626.925781 224.308594 628.722656 224.53125 630.21875 224.382812 C 631.714844 224.160156 632.988281 223.785156 634.632812 223.632812 C 636.878906 223.484375 640.621094 223.183594 642.566406 223.785156 C 643.988281 224.160156 644.515625 225.132812 645.785156 225.730469 C 647.507812 226.476562 649.753906 226.402344 652 227.453125 C 655.214844 228.949219 660.980469 232.988281 663 234.9375 C 664.046875 235.910156 663.898438 236.507812 664.945312 237.40625 C 666.890625 239.203125 671.683594 239.949219 674.976562 243.542969 C 680.886719 250.203125 690.542969 267.269531 691.890625 279.617188 C 693.164062 291.519531 690.394531 306.859375 683.730469 316.214844 C 676.996094 325.648438 663.226562 330.289062 651.699219 335.902344 C 639.425781 341.886719 625.128906 351.019531 612.105469 350.871094 C 599.308594 350.644531 585.910156 342.261719 574.160156 335.375 C 562.183594 328.265625 545.871094 314.644531 540.929688 308.730469 C 539.058594 306.5625 538.984375 305.363281 538.085938 303.34375 C 536.886719 300.875 535.390625 297.878906 534.566406 294.960938 C 533.746094 292.117188 533.144531 286.054688 533.144531 286.054688 " clip-rule="nonzero"/></clipPath><clipPath id="4a51ff383f"><path d="M 0 0.242188 L 159.515625 0.242188 L 159.515625 128 L 0 128 Z M 0 0.242188 " clip-rule="nonzero"/></clipPath><clipPath id="bf77378fd4"><path d="M 0.144531 63.054688 C 1.492188 51.078125 2.464844 48.085938 3.8125 45.390625 C 5.085938 42.695312 6.808594 40.078125 8.679688 37.757812 C 10.625 35.4375 12.871094 33.265625 15.265625 31.46875 C 17.660156 29.675781 20.355469 28.175781 23.121094 26.980469 C 25.890625 25.855469 28.886719 24.957031 31.878906 24.507812 C 34.796875 24.058594 37.941406 23.910156 40.9375 24.210938 C 43.929688 24.433594 46.921875 25.109375 49.765625 26.082031 C 52.613281 26.980469 55.828125 28.625 58 29.972656 C 59.496094 30.945312 61.070312 33.191406 61.59375 32.96875 C 61.96875 32.816406 61.667969 31.546875 61.890625 30.871094 C 62.042969 30.121094 62.566406 29.523438 62.789062 28.851562 C 63.015625 28.101562 62.941406 27.429688 63.3125 26.605469 C 63.761719 25.484375 64.886719 24.136719 65.558594 22.789062 C 66.308594 21.441406 66.757812 19.71875 67.503906 18.746094 C 67.953125 18 68.554688 17.699219 69.003906 17.101562 C 69.453125 16.5 69.601562 15.828125 70.199219 15.152344 C 70.949219 14.257812 72.519531 13.28125 73.566406 12.308594 C 74.691406 11.261719 75.664062 9.765625 76.636719 9.015625 C 77.386719 8.492188 78.058594 8.417969 78.65625 7.96875 C 79.257812 7.59375 79.628906 6.996094 80.378906 6.546875 C 81.425781 5.875 83.148438 5.5 84.496094 4.902344 C 85.84375 4.226562 87.339844 3.179688 88.460938 2.804688 C 89.285156 2.503906 89.957031 2.582031 90.707031 2.429688 C 91.378906 2.207031 91.90625 1.757812 92.800781 1.605469 C 93.925781 1.308594 95.722656 1.53125 97.21875 1.382812 C 98.714844 1.160156 99.988281 0.785156 101.632812 0.632812 C 103.878906 0.484375 107.621094 0.183594 109.566406 0.785156 C 110.988281 1.160156 111.515625 2.132812 112.785156 2.730469 C 114.507812 3.476562 116.753906 3.402344 119 4.453125 C 122.214844 5.949219 127.980469 9.988281 130 11.9375 C 131.046875 12.910156 130.898438 13.507812 131.945312 14.40625 C 133.890625 16.203125 138.683594 16.949219 141.976562 20.542969 C 147.886719 27.203125 157.542969 44.269531 158.890625 56.617188 C 160.164062 68.519531 157.394531 83.859375 150.730469 93.214844 C 143.996094 102.648438 130.226562 107.289062 118.699219 112.902344 C 106.425781 118.886719 92.128906 128.019531 79.105469 127.871094 C 66.308594 127.644531 52.910156 119.261719 41.160156 112.375 C 29.183594 105.265625 12.871094 91.644531 7.929688 85.730469 C 6.058594 83.5625 5.984375 82.363281 5.085938 80.34375 C 3.886719 77.875 2.390625 74.878906 1.566406 71.960938 C 0.746094 69.117188 0.144531 63.054688 0.144531 63.054688 " clip-rule="nonzero"/></clipPath><clipPath id="5069e5a1f0"><rect x="0" width="160" y="0" height="128"/></clipPath><clipPath id="58fb6212b0"><path d="M 517.015625 95 L 667.542969 95 L 667.542969 232 L 517.015625 232 Z M 517.015625 95 " clip-rule="nonzero"/></clipPath><clipPath id="a5cc999ffd"><path d="M 589.652344 188.234375 C 593.246094 177.230469 620.789062 149.238281 620.5625 149.015625 C 620.265625 148.789062 596.3125 180.375 592.121094 178.503906 C 588.007812 176.632812 593.769531 139.882812 594.816406 139.882812 C 595.863281 139.882812 598.183594 179.625 598.410156 179.625 C 598.558594 179.550781 600.730469 152.007812 596.015625 140.257812 C 591.074219 128.058594 568.773438 107.851562 568.621094 108 C 568.472656 108.074219 596.6875 136.515625 599.757812 146.46875 C 601.328125 151.632812 599.683594 155.453125 598.558594 159.71875 C 597.511719 163.910156 595.640625 168.175781 593.320312 171.84375 C 590.925781 175.507812 587.78125 178.953125 584.414062 181.648438 C 580.972656 184.414062 576.929688 186.660156 572.8125 188.15625 C 568.695312 189.65625 564.132812 190.476562 559.789062 190.554688 C 555.375 190.703125 550.808594 190.027344 546.617188 188.683594 C 542.425781 187.410156 538.308594 185.3125 534.792969 182.769531 C 531.273438 180.226562 527.980469 176.855469 525.4375 173.339844 C 522.890625 169.746094 520.871094 165.628906 519.597656 161.4375 C 518.328125 157.246094 517.726562 152.605469 517.878906 148.265625 C 518.027344 143.925781 518.925781 139.359375 520.421875 135.242188 C 521.992188 131.203125 524.3125 127.160156 527.007812 123.71875 C 529.777344 120.347656 533.296875 117.28125 536.960938 114.960938 C 540.628906 112.640625 544.894531 110.769531 549.164062 109.722656 C 553.429688 108.75 558.070312 108.375 562.410156 108.75 C 566.75 109.121094 571.242188 110.246094 575.28125 112.042969 C 579.25 113.761719 583.140625 116.308594 586.359375 119.226562 C 589.652344 122.144531 592.496094 125.8125 594.667969 129.628906 C 596.761719 133.371094 598.335938 137.789062 599.160156 142.054688 C 599.980469 146.394531 600.054688 151.035156 599.457031 155.300781 C 598.859375 159.640625 597.4375 164.058594 595.492188 168.023438 C 593.542969 171.917969 590.777344 175.660156 587.707031 178.726562 C 584.5625 181.796875 580.820312 184.492188 576.855469 186.4375 C 572.960938 188.308594 568.472656 189.65625 564.207031 190.253906 C 559.863281 190.777344 555.226562 190.628906 550.957031 189.804688 C 546.617188 188.980469 542.277344 187.335938 538.460938 185.164062 C 534.71875 182.992188 531.125 180.074219 528.207031 176.78125 C 525.285156 173.5625 522.816406 169.597656 521.097656 165.554688 C 519.449219 161.589844 516.828125 153.28125 517.953125 152.683594 C 520.121094 151.558594 546.992188 187.183594 547.140625 187.109375 C 547.292969 186.960938 519.824219 163.535156 517.800781 150.660156 C 515.855469 138.535156 523.265625 121.398438 532.398438 112.414062 C 542.203125 102.910156 562.035156 99.019531 576.332031 96.847656 C 589.429688 94.828125 602.902344 94.304688 614.726562 98.34375 C 626.925781 102.460938 639.574219 111.890625 648.105469 121.996094 C 656.714844 132.101562 666.742188 146.917969 666.144531 158.96875 C 665.621094 170.945312 646.308594 194.59375 645.039062 193.996094 C 643.691406 193.398438 655.367188 153.355469 659.035156 153.65625 C 662.476562 153.878906 669.886719 181.046875 666.519531 192.5 C 663.074219 204.175781 637.402344 222.660156 637.554688 222.8125 C 637.703125 222.960938 662.476562 194.820312 664.722656 196.015625 C 665.992188 196.839844 662.777344 205.523438 661.277344 209.265625 C 660.007812 212.332031 658.507812 214.726562 656.714844 217.121094 C 654.84375 219.519531 652.671875 221.6875 650.351562 223.632812 C 648.03125 225.503906 645.410156 227.152344 642.71875 228.425781 C 640.023438 229.695312 637.03125 230.667969 634.109375 231.269531 C 631.191406 231.867188 628.046875 232.089844 625.054688 231.941406 C 622.058594 231.792969 618.992188 231.269531 616.148438 230.445312 C 613.230469 229.621094 610.386719 228.347656 607.839844 226.851562 C 605.21875 225.355469 602.75 223.484375 600.582031 221.390625 C 598.410156 219.292969 596.464844 216.898438 594.890625 214.355469 C 593.320312 211.808594 591.972656 208.964844 591.074219 206.121094 C 590.101562 203.277344 589.503906 200.28125 589.277344 197.289062 C 589.054688 194.296875 589.652344 188.234375 589.652344 188.234375 " clip-rule="nonzero"/></clipPath><clipPath id="a13bcbc893"><path d="M 0.015625 0 L 150.542969 0 L 150.542969 137 L 0.015625 137 Z M 0.015625 0 " clip-rule="nonzero"/></clipPath><clipPath id="1a9418435f"><path d="M 72.652344 93.234375 C 76.246094 82.230469 103.789062 54.238281 103.5625 54.015625 C 103.265625 53.789062 79.3125 85.375 75.121094 83.503906 C 71.007812 81.632812 76.769531 44.882812 77.816406 44.882812 C 78.863281 44.882812 81.183594 84.625 81.410156 84.625 C 81.558594 84.550781 83.730469 57.007812 79.015625 45.257812 C 74.074219 33.058594 51.773438 12.851562 51.621094 13 C 51.472656 13.074219 79.6875 41.515625 82.757812 51.46875 C 84.328125 56.632812 82.683594 60.453125 81.558594 64.71875 C 80.511719 68.910156 78.640625 73.175781 76.320312 76.84375 C 73.925781 80.507812 70.78125 83.953125 67.414062 86.648438 C 63.972656 89.414062 59.929688 91.660156 55.8125 93.15625 C 51.695312 94.65625 47.132812 95.476562 42.789062 95.554688 C 38.375 95.703125 33.808594 95.027344 29.617188 93.683594 C 25.425781 92.410156 21.308594 90.3125 17.792969 87.769531 C 14.273438 85.226562 10.980469 81.855469 8.4375 78.339844 C 5.890625 74.746094 3.871094 70.628906 2.597656 66.4375 C 1.328125 62.246094 0.726562 57.605469 0.878906 53.265625 C 1.027344 48.925781 1.925781 44.359375 3.421875 40.242188 C 4.992188 36.203125 7.3125 32.160156 10.007812 28.71875 C 12.777344 25.347656 16.296875 22.28125 19.960938 19.960938 C 23.628906 17.640625 27.894531 15.769531 32.164062 14.722656 C 36.429688 13.75 41.070312 13.375 45.410156 13.75 C 49.75 14.121094 54.242188 15.246094 58.28125 17.042969 C 62.25 18.761719 66.140625 21.308594 69.359375 24.226562 C 72.652344 27.144531 75.496094 30.8125 77.667969 34.628906 C 79.761719 38.371094 81.335938 42.789062 82.160156 47.054688 C 82.980469 51.394531 83.054688 56.035156 82.457031 60.300781 C 81.859375 64.640625 80.4375 69.058594 78.492188 73.023438 C 76.542969 76.917969 73.777344 80.660156 70.707031 83.726562 C 67.5625 86.796875 63.820312 89.492188 59.855469 91.4375 C 55.960938 93.308594 51.472656 94.65625 47.207031 95.253906 C 42.863281 95.777344 38.226562 95.628906 33.957031 94.804688 C 29.617188 93.980469 25.277344 92.335938 21.460938 90.164062 C 17.71875 87.992188 14.125 85.074219 11.207031 81.78125 C 8.285156 78.5625 5.816406 74.597656 4.097656 70.554688 C 2.449219 66.589844 -0.171875 58.28125 0.953125 57.683594 C 3.121094 56.558594 29.992188 92.183594 30.140625 92.109375 C 30.292969 91.960938 2.824219 68.535156 0.800781 55.660156 C -1.144531 43.535156 6.265625 26.398438 15.398438 17.414062 C 25.203125 7.910156 45.035156 4.019531 59.332031 1.847656 C 72.429688 -0.171875 85.902344 -0.695312 97.726562 3.34375 C 109.925781 7.460938 122.574219 16.890625 131.105469 26.996094 C 139.714844 37.101562 149.742188 51.917969 149.144531 63.96875 C 148.621094 75.945312 129.308594 99.59375 128.039062 98.996094 C 126.691406 98.398438 138.367188 58.355469 142.035156 58.65625 C 145.476562 58.878906 152.886719 86.046875 149.519531 97.5 C 146.074219 109.175781 120.402344 127.660156 120.554688 127.8125 C 120.703125 127.960938 145.476562 99.820312 147.722656 101.015625 C 148.992188 101.839844 145.777344 110.523438 144.277344 114.265625 C 143.007812 117.332031 141.507812 119.726562 139.714844 122.121094 C 137.84375 124.519531 135.671875 126.6875 133.351562 128.632812 C 131.03125 130.503906 128.410156 132.152344 125.71875 133.425781 C 123.023438 134.695312 120.03125 135.667969 117.109375 136.269531 C 114.191406 136.867188 111.046875 137.089844 108.054688 136.941406 C 105.058594 136.792969 101.992188 136.269531 99.148438 135.445312 C 96.230469 134.621094 93.386719 133.347656 90.839844 131.851562 C 88.21875 130.355469 85.75 128.484375 83.582031 126.390625 C 81.410156 124.292969 79.464844 121.898438 77.890625 119.355469 C 76.320312 116.808594 74.972656 113.964844 74.074219 111.121094 C 73.101562 108.277344 72.503906 105.28125 72.277344 102.289062 C 72.054688 99.296875 72.652344 93.234375 72.652344 93.234375 " clip-rule="nonzero"/></clipPath><clipPath id="8a01e5bcc4"><rect x="0" width="151" y="0" height="137"/></clipPath><clipPath id="f65a1baf0c"><path d="M 314.476562 12.226562 L 528.011719 12.226562 L 528.011719 149.738281 L 314.476562 149.738281 Z M 314.476562 12.226562 " clip-rule="nonzero"/></clipPath><clipPath id="cf7f3fc600"><path d="M 452.761719 119.375 C 451.339844 106.726562 456.132812 76.265625 458.898438 76.191406 C 461.667969 76.117188 469.304688 113.238281 468.03125 113.761719 C 466.757812 114.210938 449.992188 91.085938 451.566406 79.859375 C 453.511719 66.535156 488.988281 41.835938 487.714844 40.339844 C 486.667969 39.070312 455.457031 62.945312 455.082031 62.421875 C 454.710938 61.894531 484.421875 37.199219 484.796875 37.648438 C 485.246094 38.09375 453.960938 58.152344 452.761719 69.679688 C 451.566406 80.683594 475.816406 104.929688 475.589844 105.082031 C 475.292969 105.230469 451.414062 72.222656 452.015625 71.699219 C 452.6875 71.175781 483.449219 107.101562 483.523438 107.027344 C 483.597656 106.953125 468.105469 79.632812 458.078125 77.761719 C 447.972656 75.816406 434.949219 90.9375 423.050781 96.25 C 411.449219 101.339844 387.875 109.421875 387.796875 109.273438 C 387.796875 109.121094 398.050781 102.910156 399.699219 104.183594 C 401.421875 105.53125 398.949219 113.464844 397.453125 117.730469 C 396.03125 122.070312 393.785156 126.335938 391.015625 129.929688 C 388.246094 133.523438 384.730469 136.816406 380.988281 139.359375 C 377.246094 141.90625 372.90625 143.925781 368.488281 145.121094 C 364.148438 146.320312 359.359375 146.84375 354.867188 146.542969 C 350.300781 146.320312 345.585938 145.273438 341.394531 143.550781 C 337.203125 141.90625 333.085938 139.433594 329.644531 136.441406 C 326.203125 133.523438 323.058594 129.855469 320.738281 125.960938 C 318.417969 122.070312 316.621094 117.582031 315.648438 113.164062 C 314.675781 108.75 314.449219 103.957031 314.976562 99.46875 C 315.425781 94.976562 316.769531 90.335938 318.640625 86.21875 C 320.589844 82.105469 323.28125 78.136719 326.425781 74.84375 C 329.496094 71.550781 333.386719 68.632812 337.351562 66.535156 C 341.394531 64.441406 345.960938 62.867188 350.375 62.121094 C 354.867188 61.445312 359.730469 61.445312 364.148438 62.195312 C 368.636719 62.945312 373.203125 64.441406 377.171875 66.609375 C 381.210938 68.707031 385.027344 71.625 388.097656 74.917969 C 391.242188 78.210938 393.9375 82.253906 395.808594 86.371094 C 397.679688 90.488281 399.023438 95.125 399.472656 99.617188 C 399.921875 104.109375 399.699219 108.898438 398.726562 113.3125 C 397.753906 117.730469 395.957031 122.21875 393.5625 126.113281 C 391.242188 130.003906 388.097656 133.671875 384.65625 136.589844 C 381.210938 139.507812 377.09375 141.980469 372.90625 143.625 C 368.636719 145.273438 363.921875 146.320312 359.433594 146.542969 C 354.941406 146.84375 350.152344 146.246094 345.734375 145.046875 C 341.394531 143.851562 337.054688 141.828125 333.3125 139.285156 C 329.570312 136.742188 326.050781 133.371094 323.28125 129.78125 C 320.589844 126.1875 318.34375 121.921875 316.921875 117.582031 C 315.425781 113.3125 314.078125 109.570312 314.675781 104.035156 C 315.722656 94.753906 321.636719 78.734375 329.269531 67.882812 C 337.726562 55.910156 352.472656 44.757812 364.894531 36.375 C 376.273438 28.738281 387.125 22.753906 400.222656 18.785156 C 414.964844 14.296875 434.351562 11.675781 449.621094 12.425781 C 463.015625 13.097656 475.890625 15.269531 486.96875 21.03125 C 498.34375 27.019531 510.09375 36.75 516.753906 48.125 C 523.714844 60.175781 531.125 81.054688 526.632812 92.359375 C 522.367188 103.058594 496.246094 117.953125 492.878906 115.261719 C 488.761719 111.816406 511.589844 56.207031 517.277344 56.808594 C 522.292969 57.332031 525.210938 94.976562 526.558594 104.632812 C 527.082031 108.824219 527.382812 110.695312 527.234375 113.6875 C 527.082031 116.683594 526.632812 119.75 525.734375 122.667969 C 524.914062 125.511719 523.640625 128.359375 522.144531 130.976562 C 520.648438 133.523438 518.777344 136.066406 516.679688 138.164062 C 514.585938 140.332031 512.1875 142.277344 509.644531 143.925781 C 507.101562 145.496094 504.253906 146.84375 501.410156 147.742188 C 498.566406 148.714844 495.5 149.3125 492.503906 149.539062 C 489.511719 149.761719 486.441406 149.613281 483.449219 149.164062 C 480.53125 148.640625 477.535156 147.742188 474.765625 146.542969 C 471.996094 145.421875 469.304688 143.851562 466.910156 141.980469 C 464.589844 140.183594 462.34375 138.011719 460.398438 135.691406 C 458.527344 133.371094 456.878906 130.753906 455.605469 127.984375 C 454.335938 125.289062 452.761719 119.375 452.761719 119.375 " clip-rule="nonzero"/></clipPath><clipPath id="824d67e50f"><path d="M 0.476562 0.226562 L 214.011719 0.226562 L 214.011719 137.738281 L 0.476562 137.738281 Z M 0.476562 0.226562 " clip-rule="nonzero"/></clipPath><clipPath id="be6da6014b"><path d="M 138.761719 107.375 C 137.339844 94.726562 142.132812 64.265625 144.898438 64.191406 C 147.667969 64.117188 155.304688 101.238281 154.03125 101.761719 C 152.757812 102.210938 135.992188 79.085938 137.566406 67.859375 C 139.511719 54.535156 174.988281 29.835938 173.714844 28.339844 C 172.667969 27.070312 141.457031 50.945312 141.082031 50.421875 C 140.710938 49.894531 170.421875 25.199219 170.796875 25.648438 C 171.246094 26.09375 139.960938 46.152344 138.761719 57.679688 C 137.566406 68.683594 161.816406 92.929688 161.589844 93.082031 C 161.292969 93.230469 137.414062 60.222656 138.015625 59.699219 C 138.6875 59.175781 169.449219 95.101562 169.523438 95.027344 C 169.597656 94.953125 154.105469 67.632812 144.078125 65.761719 C 133.972656 63.816406 120.949219 78.9375 109.050781 84.25 C 97.449219 89.339844 73.875 97.421875 73.796875 97.273438 C 73.796875 97.121094 84.050781 90.910156 85.699219 92.183594 C 87.421875 93.53125 84.949219 101.464844 83.453125 105.730469 C 82.03125 110.070312 79.785156 114.335938 77.015625 117.929688 C 74.246094 121.523438 70.730469 124.816406 66.988281 127.359375 C 63.246094 129.90625 58.90625 131.925781 54.488281 133.121094 C 50.148438 134.320312 45.359375 134.84375 40.867188 134.542969 C 36.300781 134.320312 31.585938 133.273438 27.394531 131.550781 C 23.203125 129.90625 19.085938 127.433594 15.644531 124.441406 C 12.203125 121.523438 9.058594 117.855469 6.738281 113.960938 C 4.417969 110.070312 2.621094 105.582031 1.648438 101.164062 C 0.675781 96.75 0.449219 91.957031 0.976562 87.46875 C 1.425781 82.976562 2.769531 78.335938 4.640625 74.21875 C 6.589844 70.105469 9.28125 66.136719 12.425781 62.84375 C 15.496094 59.550781 19.386719 56.632812 23.351562 54.535156 C 27.394531 52.441406 31.960938 50.867188 36.375 50.121094 C 40.867188 49.445312 45.730469 49.445312 50.148438 50.195312 C 54.636719 50.945312 59.203125 52.441406 63.171875 54.609375 C 67.210938 56.707031 71.027344 59.625 74.097656 62.917969 C 77.242188 66.210938 79.9375 70.253906 81.808594 74.371094 C 83.679688 78.488281 85.023438 83.125 85.472656 87.617188 C 85.921875 92.109375 85.699219 96.898438 84.726562 101.3125 C 83.753906 105.730469 81.957031 110.21875 79.5625 114.113281 C 77.242188 118.003906 74.097656 121.671875 70.65625 124.589844 C 67.210938 127.507812 63.09375 129.980469 58.90625 131.625 C 54.636719 133.273438 49.921875 134.320312 45.433594 134.542969 C 40.941406 134.84375 36.152344 134.246094 31.734375 133.046875 C 27.394531 131.851562 23.054688 129.828125 19.3125 127.285156 C 15.570312 124.742188 12.050781 121.371094 9.28125 117.78125 C 6.589844 114.1875 4.34375 109.921875 2.921875 105.582031 C 1.425781 101.3125 0.078125 97.570312 0.675781 92.035156 C 1.722656 82.753906 7.636719 66.734375 15.269531 55.882812 C 23.726562 43.910156 38.472656 32.757812 50.894531 24.375 C 62.273438 16.738281 73.125 10.753906 86.222656 6.785156 C 100.964844 2.296875 120.351562 -0.324219 135.621094 0.425781 C 149.015625 1.097656 161.890625 3.269531 172.96875 9.03125 C 184.34375 15.019531 196.09375 24.75 202.753906 36.125 C 209.714844 48.175781 217.125 69.054688 212.632812 80.359375 C 208.367188 91.058594 182.246094 105.953125 178.878906 103.261719 C 174.761719 99.816406 197.589844 44.207031 203.277344 44.808594 C 208.292969 45.332031 211.210938 82.976562 212.558594 92.632812 C 213.082031 96.824219 213.382812 98.695312 213.234375 101.6875 C 213.082031 104.683594 212.632812 107.75 211.734375 110.667969 C 210.914062 113.511719 209.640625 116.359375 208.144531 118.976562 C 206.648438 121.523438 204.777344 124.066406 202.679688 126.164062 C 200.585938 128.332031 198.1875 130.277344 195.644531 131.925781 C 193.101562 133.496094 190.253906 134.84375 187.410156 135.742188 C 184.566406 136.714844 181.5 137.3125 178.503906 137.539062 C 175.511719 137.761719 172.441406 137.613281 169.449219 137.164062 C 166.53125 136.640625 163.535156 135.742188 160.765625 134.542969 C 157.996094 133.421875 155.304688 131.851562 152.910156 129.980469 C 150.589844 128.183594 148.34375 126.011719 146.398438 123.691406 C 144.527344 121.371094 142.878906 118.753906 141.605469 115.984375 C 140.335938 113.289062 138.761719 107.375 138.761719 107.375 " clip-rule="nonzero"/></clipPath><clipPath id="314af27444"><rect x="0" width="215" y="0" height="138"/></clipPath><clipPath id="5e5ea4aa07"><path d="M 439.640625 32.203125 L 512.910156 32.203125 L 512.910156 107.351562 L 439.640625 107.351562 Z M 439.640625 32.203125 " clip-rule="nonzero"/></clipPath><clipPath id="6b3ff1b05d"><path d="M 512.863281 58.753906 C 512.9375 82.328125 510.167969 88.390625 506.574219 92.957031 C 503.058594 97.523438 497.820312 101.5625 492.503906 103.957031 C 487.191406 106.355469 480.679688 107.550781 474.917969 107.175781 C 469.078125 106.878906 462.71875 104.855469 457.777344 101.863281 C 452.835938 98.867188 448.121094 94.152344 445.128906 89.214844 C 442.136719 84.273438 440.113281 77.914062 439.816406 72.074219 C 439.441406 66.3125 440.636719 59.800781 443.035156 54.488281 C 445.429688 49.171875 449.46875 43.933594 454.035156 40.414062 C 458.601562 36.824219 464.738281 34.054688 470.425781 33.007812 C 476.113281 32.035156 482.777344 32.40625 488.3125 34.128906 C 493.851562 35.851562 503.582031 43.410156 503.582031 43.410156 " clip-rule="nonzero"/></clipPath><clipPath id="59e0a285da"><path d="M 0.640625 0.203125 L 73.910156 0.203125 L 73.910156 75.351562 L 0.640625 75.351562 Z M 0.640625 0.203125 " clip-rule="nonzero"/></clipPath><clipPath id="14e3f3a154"><path d="M 73.863281 26.753906 C 73.9375 50.328125 71.167969 56.390625 67.574219 60.957031 C 64.058594 65.523438 58.820312 69.5625 53.503906 71.957031 C 48.191406 74.355469 41.679688 75.550781 35.917969 75.175781 C 30.078125 74.878906 23.71875 72.855469 18.777344 69.863281 C 13.835938 66.867188 9.121094 62.152344 6.128906 57.214844 C 3.136719 52.273438 1.113281 45.914062 0.816406 40.074219 C 0.441406 34.3125 1.636719 27.800781 4.035156 22.488281 C 6.429688 17.171875 10.46875 11.933594 15.035156 8.414062 C 19.601562 4.824219 25.738281 2.054688 31.425781 1.007812 C 37.113281 0.0351562 43.777344 0.40625 49.3125 2.128906 C 54.851562 3.851562 64.582031 11.410156 64.582031 11.410156 " clip-rule="nonzero"/></clipPath><clipPath id="c95a9ad958"><rect x="0" width="74" y="0" height="76"/></clipPath><clipPath id="73635b2f6d"><path d="M 547.039062 97 L 620.308594 97 L 620.308594 171.941406 L 547.039062 171.941406 Z M 547.039062 97 " clip-rule="nonzero"/></clipPath><clipPath id="cd6a20ec64"><path d="M 620.265625 123.269531 C 620.339844 146.84375 617.570312 152.980469 613.976562 157.546875 C 610.460938 162.113281 605.21875 166.152344 599.90625 168.550781 C 594.59375 170.945312 588.082031 172.140625 582.316406 171.765625 C 576.480469 171.46875 570.117188 169.445312 565.179688 166.453125 C 560.238281 163.460938 555.523438 158.746094 552.53125 153.804688 C 549.535156 148.863281 547.515625 142.503906 547.214844 136.664062 C 546.84375 130.902344 548.039062 124.390625 550.433594 119.078125 C 552.828125 113.761719 556.945312 108.523438 561.511719 105.007812 C 566.078125 101.414062 572.140625 98.644531 577.828125 97.597656 C 583.515625 96.550781 590.175781 96.996094 595.714844 98.71875 C 601.253906 100.441406 611.058594 108 611.058594 108 " clip-rule="nonzero"/></clipPath><clipPath id="e4d5abc4f4"><path d="M 0.0390625 0 L 73.308594 0 L 73.308594 74.941406 L 0.0390625 74.941406 Z M 0.0390625 0 " clip-rule="nonzero"/></clipPath><clipPath id="b035117812"><path d="M 73.265625 26.269531 C 73.339844 49.84375 70.570312 55.980469 66.976562 60.546875 C 63.460938 65.113281 58.21875 69.152344 52.90625 71.550781 C 47.59375 73.945312 41.082031 75.140625 35.316406 74.765625 C 29.480469 74.46875 23.117188 72.445312 18.179688 69.453125 C 13.238281 66.460938 8.523438 61.746094 5.53125 56.804688 C 2.535156 51.863281 0.515625 45.503906 0.214844 39.664062 C -0.15625 33.902344 1.039062 27.390625 3.433594 22.078125 C 5.828125 16.761719 9.945312 11.523438 14.511719 8.007812 C 19.078125 4.414062 25.140625 1.644531 30.828125 0.597656 C 36.515625 -0.449219 43.175781 -0.00390625 48.714844 1.71875 C 54.253906 3.441406 64.058594 11 64.058594 11 " clip-rule="nonzero"/></clipPath><clipPath id="6ddf938349"><rect x="0" width="74" y="0" height="75"/></clipPath><clipPath id="2f7640c162"><path d="M 130.328125 66.382812 L 644 66.382812 L 644 363 L 130.328125 363 Z M 130.328125 66.382812 " clip-rule="nonzero"/></clipPath><clipPath id="054babb3d2"><path d="M 130.335938 248.40625 C 130.410156 248.332031 130.933594 244.816406 131.234375 243.019531 C 131.53125 241.222656 132.128906 237.628906 132.128906 237.554688 C 132.128906 237.554688 132.128906 237.554688 132.207031 237.554688 C 132.207031 237.554688 132.128906 237.554688 132.207031 237.554688 C 132.207031 237.480469 133.628906 234.1875 134.375 232.539062 C 135.050781 230.820312 136.472656 227.527344 136.546875 227.453125 C 136.546875 227.375 138.71875 224.53125 139.839844 223.035156 C 140.960938 221.613281 143.132812 218.769531 143.132812 218.695312 C 143.207031 218.621094 147.773438 215.027344 151.289062 211.882812 C 158.25 205.671875 170.449219 190.554688 181.304688 182.621094 C 191.632812 174.984375 203.53125 171.394531 214.609375 164.582031 C 226.285156 157.398438 236.988281 146.097656 249.5625 140.257812 C 261.835938 134.570312 275.90625 130.753906 289.078125 129.554688 C 301.652344 128.433594 314.152344 131.875 326.800781 132.625 C 339.597656 133.445312 360.40625 134.570312 365.496094 134.421875 C 366.765625 134.34375 367.140625 134.71875 367.890625 134.121094 C 369.910156 132.398438 369.460938 123.042969 373.054688 117.429688 C 378.519531 109.046875 391.242188 99.992188 401.945312 91.984375 C 413.695312 83.152344 427.765625 69.605469 441.238281 67.136719 C 453.511719 64.964844 467.582031 69.753906 479.035156 74.917969 C 490.410156 80.15625 500.664062 89.066406 509.71875 98.496094 C 519.226562 108.375 528.503906 124.089844 534.34375 133.371094 C 537.9375 139.136719 537.785156 144.671875 542.425781 147.816406 C 548.5625 152.007812 562.859375 151.933594 571.089844 151.484375 C 577.453125 151.183594 583.066406 148.414062 587.855469 147.59375 C 591.300781 146.992188 593.917969 146.46875 596.988281 146.46875 C 599.980469 146.394531 603.125 146.769531 606.042969 147.519531 C 609.039062 148.265625 611.957031 149.3125 614.652344 150.734375 C 617.34375 152.15625 619.964844 153.953125 622.210938 155.898438 C 624.53125 157.921875 626.625 160.316406 628.347656 162.785156 C 630.070312 165.257812 631.566406 168.023438 632.613281 170.871094 C 633.734375 173.714844 634.484375 176.78125 634.859375 179.777344 C 635.234375 182.84375 635.234375 186.210938 634.859375 188.980469 C 634.632812 191.375 632.761719 193.996094 633.289062 195.492188 C 633.734375 196.691406 635.53125 196.167969 636.429688 197.738281 C 639.949219 203.800781 647.359375 237.929688 642.117188 252.898438 C 637.402344 266.296875 622.734375 277.296875 610.757812 284.707031 C 599.382812 291.667969 585.910156 293.015625 572.589844 296.980469 C 558.21875 301.324219 537.488281 308.207031 527.308594 309.628906 C 522.21875 310.304688 515.855469 309.480469 515.632812 309.628906 C 515.632812 309.707031 515.632812 309.707031 515.632812 309.707031 C 515.632812 309.855469 515.929688 311.203125 515.855469 312.175781 C 515.78125 313.523438 515.035156 315.394531 514.734375 317.039062 C 514.433594 318.6875 514.507812 320.707031 514.136719 321.980469 C 513.835938 322.953125 513.3125 323.476562 513.011719 324.300781 C 512.714844 325.046875 512.789062 325.796875 512.414062 326.695312 C 511.964844 327.96875 510.617188 329.464844 509.792969 330.960938 C 509.046875 332.382812 508.445312 334.328125 507.625 335.453125 C 507.101562 336.273438 506.425781 336.574219 505.902344 337.246094 C 505.378906 337.921875 505.230469 338.667969 504.554688 339.34375 C 503.65625 340.390625 501.9375 341.4375 500.738281 342.5625 C 499.539062 343.683594 498.34375 345.332031 497.21875 346.152344 C 496.472656 346.679688 495.722656 346.828125 495.050781 347.277344 C 494.300781 347.726562 493.925781 348.398438 493.105469 348.847656 C 491.90625 349.523438 489.960938 349.972656 488.464844 350.644531 C 486.890625 351.320312 485.246094 352.515625 483.972656 352.890625 C 483.074219 353.191406 482.328125 353.113281 481.503906 353.265625 C 480.679688 353.488281 480.082031 354.011719 479.183594 354.164062 C 477.835938 354.460938 475.816406 354.238281 474.167969 354.386719 C 472.523438 354.535156 470.5 355.210938 469.230469 355.136719 C 468.480469 355.0625 468.105469 354.761719 467.359375 354.6875 C 466.460938 354.535156 465.636719 354.984375 464.289062 354.761719 C 461.667969 354.460938 457.851562 352.367188 452.914062 351.46875 C 444.082031 349.820312 427.839844 348.550781 415.191406 348.550781 C 402.46875 348.472656 389.519531 350.269531 376.722656 351.167969 C 364.148438 351.992188 351.648438 353.714844 339.074219 353.789062 C 326.5 353.863281 313.777344 350.121094 301.351562 351.46875 C 288.554688 352.890625 276.28125 361.421875 263.332031 362.320312 C 250.308594 363.292969 236.164062 361.796875 223.515625 356.933594 C 209.894531 351.691406 193.351562 341.664062 184.671875 330.585938 C 176.960938 320.707031 175.464844 298.328125 171.722656 295.632812 C 170.601562 294.8125 168.578125 295.484375 168.503906 295.484375 C 168.429688 295.484375 163.414062 293.988281 163.265625 293.914062 C 163.117188 293.914062 161.171875 293.6875 161.171875 293.613281 C 161.171875 293.613281 161.769531 293.539062 161.769531 293.464844 C 161.769531 293.3125 158.027344 292.417969 157.953125 292.339844 C 157.878906 292.339844 154.808594 290.546875 153.238281 289.570312 C 151.589844 288.675781 148.523438 286.878906 148.445312 286.804688 C 148.371094 286.804688 145.828125 284.257812 144.480469 282.984375 C 143.207031 281.714844 140.589844 279.242188 140.511719 279.167969 C 140.511719 279.09375 138.566406 276.101562 137.59375 274.527344 C 136.621094 272.957031 134.675781 269.960938 134.675781 269.886719 C 134.675781 269.8125 133.554688 266.371094 132.953125 264.648438 C 132.355469 262.925781 131.234375 259.484375 131.234375 259.410156 C 131.234375 259.335938 130.933594 255.742188 130.785156 253.945312 C 130.632812 252.074219 130.335938 248.40625 130.335938 248.40625 " clip-rule="nonzero"/></clipPath><clipPath id="af1df00a33"><path d="M 0.328125 0.382812 L 514 0.382812 L 514 297 L 0.328125 297 Z M 0.328125 0.382812 " clip-rule="nonzero"/></clipPath><clipPath id="503840e98e"><path d="M 0.335938 182.40625 C 0.410156 182.332031 0.933594 178.816406 1.234375 177.019531 C 1.53125 175.222656 2.128906 171.628906 2.128906 171.554688 C 2.128906 171.554688 2.128906 171.554688 2.207031 171.554688 C 2.207031 171.554688 2.128906 171.554688 2.207031 171.554688 C 2.207031 171.480469 3.628906 168.1875 4.375 166.539062 C 5.050781 164.820312 6.472656 161.527344 6.546875 161.453125 C 6.546875 161.375 8.71875 158.53125 9.839844 157.035156 C 10.960938 155.613281 13.132812 152.769531 13.132812 152.695312 C 13.207031 152.621094 17.773438 149.027344 21.289062 145.882812 C 28.25 139.671875 40.449219 124.554688 51.304688 116.621094 C 61.632812 108.984375 73.53125 105.394531 84.609375 98.582031 C 96.285156 91.398438 106.988281 80.097656 119.5625 74.257812 C 131.835938 68.570312 145.90625 64.753906 159.078125 63.554688 C 171.652344 62.433594 184.152344 65.875 196.800781 66.625 C 209.597656 67.445312 230.40625 68.570312 235.496094 68.421875 C 236.765625 68.34375 237.140625 68.71875 237.890625 68.121094 C 239.910156 66.398438 239.460938 57.042969 243.054688 51.429688 C 248.519531 43.046875 261.242188 33.992188 271.945312 25.984375 C 283.695312 17.152344 297.765625 3.605469 311.238281 1.136719 C 323.511719 -1.035156 337.582031 3.753906 349.035156 8.917969 C 360.410156 14.15625 370.664062 23.066406 379.71875 32.496094 C 389.226562 42.375 398.503906 58.089844 404.34375 67.371094 C 407.9375 73.136719 407.785156 78.671875 412.425781 81.816406 C 418.5625 86.007812 432.859375 85.933594 441.089844 85.484375 C 447.453125 85.183594 453.066406 82.414062 457.855469 81.59375 C 461.300781 80.992188 463.917969 80.46875 466.988281 80.46875 C 469.980469 80.394531 473.125 80.769531 476.042969 81.519531 C 479.039062 82.265625 481.957031 83.3125 484.652344 84.734375 C 487.34375 86.15625 489.964844 87.953125 492.210938 89.898438 C 494.53125 91.921875 496.625 94.316406 498.347656 96.785156 C 500.070312 99.257812 501.566406 102.023438 502.613281 104.871094 C 503.734375 107.714844 504.484375 110.78125 504.859375 113.777344 C 505.234375 116.84375 505.234375 120.210938 504.859375 122.980469 C 504.632812 125.375 502.761719 127.996094 503.289062 129.492188 C 503.734375 130.691406 505.53125 130.167969 506.429688 131.738281 C 509.949219 137.800781 517.359375 171.929688 512.117188 186.898438 C 507.402344 200.296875 492.734375 211.296875 480.757812 218.707031 C 469.382812 225.667969 455.910156 227.015625 442.589844 230.980469 C 428.21875 235.324219 407.488281 242.207031 397.308594 243.628906 C 392.21875 244.304688 385.855469 243.480469 385.632812 243.628906 C 385.632812 243.707031 385.632812 243.707031 385.632812 243.707031 C 385.632812 243.855469 385.929688 245.203125 385.855469 246.175781 C 385.78125 247.523438 385.035156 249.394531 384.734375 251.039062 C 384.433594 252.6875 384.507812 254.707031 384.136719 255.980469 C 383.835938 256.953125 383.3125 257.476562 383.011719 258.300781 C 382.714844 259.046875 382.789062 259.796875 382.414062 260.695312 C 381.964844 261.96875 380.617188 263.464844 379.792969 264.960938 C 379.046875 266.382812 378.445312 268.328125 377.625 269.453125 C 377.101562 270.273438 376.425781 270.574219 375.902344 271.246094 C 375.378906 271.921875 375.230469 272.667969 374.554688 273.34375 C 373.65625 274.390625 371.9375 275.4375 370.738281 276.5625 C 369.539062 277.683594 368.34375 279.332031 367.21875 280.152344 C 366.472656 280.679688 365.722656 280.828125 365.050781 281.277344 C 364.300781 281.726562 363.925781 282.398438 363.105469 282.847656 C 361.90625 283.523438 359.960938 283.972656 358.464844 284.644531 C 356.890625 285.320312 355.246094 286.515625 353.972656 286.890625 C 353.074219 287.191406 352.328125 287.113281 351.503906 287.265625 C 350.679688 287.488281 350.082031 288.011719 349.183594 288.164062 C 347.835938 288.460938 345.816406 288.238281 344.167969 288.386719 C 342.523438 288.535156 340.5 289.210938 339.230469 289.136719 C 338.480469 289.0625 338.105469 288.761719 337.359375 288.6875 C 336.460938 288.535156 335.636719 288.984375 334.289062 288.761719 C 331.667969 288.460938 327.851562 286.367188 322.914062 285.46875 C 314.082031 283.820312 297.839844 282.550781 285.191406 282.550781 C 272.46875 282.472656 259.519531 284.269531 246.722656 285.167969 C 234.148438 285.992188 221.648438 287.714844 209.074219 287.789062 C 196.5 287.863281 183.777344 284.121094 171.351562 285.46875 C 158.554688 286.890625 146.28125 295.421875 133.332031 296.320312 C 120.308594 297.292969 106.164062 295.796875 93.515625 290.933594 C 79.894531 285.691406 63.351562 275.664062 54.671875 264.585938 C 46.960938 254.707031 45.464844 232.328125 41.722656 229.632812 C 40.601562 228.8125 38.578125 229.484375 38.503906 229.484375 C 38.429688 229.484375 33.414062 227.988281 33.265625 227.914062 C 33.117188 227.914062 31.171875 227.6875 31.171875 227.613281 C 31.171875 227.613281 31.769531 227.539062 31.769531 227.464844 C 31.769531 227.3125 28.027344 226.417969 27.953125 226.339844 C 27.878906 226.339844 24.808594 224.546875 23.238281 223.570312 C 21.589844 222.675781 18.523438 220.878906 18.445312 220.804688 C 18.371094 220.804688 15.828125 218.257812 14.480469 216.984375 C 13.207031 215.714844 10.589844 213.242188 10.511719 213.167969 C 10.511719 213.09375 8.566406 210.101562 7.59375 208.527344 C 6.621094 206.957031 4.675781 203.960938 4.675781 203.886719 C 4.675781 203.8125 3.554688 200.371094 2.953125 198.648438 C 2.355469 196.925781 1.234375 193.484375 1.234375 193.410156 C 1.234375 193.335938 0.933594 189.742188 0.785156 187.945312 C 0.632812 186.074219 0.335938 182.40625 0.335938 182.40625 " clip-rule="nonzero"/></clipPath><clipPath id="bbef15d59b"><rect x="0" width="514" y="0" height="297"/></clipPath><clipPath id="cdf45ed8ba"><path d="M 713.585938 23.753906 L 717.875 23.753906 L 717.875 27.390625 L 713.585938 27.390625 Z M 713.585938 23.753906 " clip-rule="nonzero"/></clipPath><clipPath id="7b4ca4c881"><path d="M 717.859375 24.996094 C 715.914062 28.066406 714.195312 27.46875 713.746094 26.867188 C 713.371094 26.195312 713.746094 24.398438 714.34375 23.949219 C 714.867188 23.5 717.261719 24.101562 717.261719 24.101562 " clip-rule="nonzero"/></clipPath><clipPath id="b0a12caa04"><path d="M 0.585938 0.753906 L 4.875 0.753906 L 4.875 4.390625 L 0.585938 4.390625 Z M 0.585938 0.753906 " clip-rule="nonzero"/></clipPath><clipPath id="e3d961c0e0"><path d="M 4.859375 1.996094 C 2.914062 5.066406 1.195312 4.46875 0.746094 3.867188 C 0.371094 3.195312 0.746094 1.398438 1.34375 0.949219 C 1.867188 0.5 4.261719 1.101562 4.261719 1.101562 " clip-rule="nonzero"/></clipPath><clipPath id="4b77b8b013"><rect x="0" width="5" y="0" height="5"/></clipPath></defs><g clip-path="url(#fd4c0b6321)"><g clip-path="url(#8987c83fe2)"><g transform="matrix(1, 0, 0, 1, 173, 94)"><g clip-path="url(#6febad90ed)"><g clip-path="url(#7dd23b7e3c)"><g clip-path="url(#23707da3b5)"><rect x="-338" width="1080" fill="#ffffff" height="663.897571" y="-195.428796" fill-opacity="1"/></g></g></g></g></g></g><g clip-path="url(#a65af135d1)"><g clip-path="url(#2624ea9e2c)"><g transform="matrix(1, 0, 0, 1, 182, 117)"><g clip-path="url(#5a928c596b)"><g clip-path="url(#410905e994)"><g clip-path="url(#2c8ff530ad)"><rect x="-347" width="1080" fill="#ffffff" height="663.897571" y="-218.428796" fill-opacity="1"/></g></g></g></g></g></g><g clip-path="url(#c9be7a8a70)"><g clip-path="url(#e941033a14)"><g transform="matrix(1, 0, 0, 1, 79, 181)"><g clip-path="url(#06c7a0b390)"><g clip-path="url(#76cc6942cd)"><g clip-path="url(#44a7207610)"><path fill="#ffffff" d="M 1.039062 -1.824219 L 121.6875 -1.824219 L 121.6875 154.171875 L 1.039062 154.171875 Z M 1.039062 -1.824219 " fill-opacity="1" fill-rule="nonzero"/></g></g></g></g></g></g><g clip-path="url(#7f79620763)"><g clip-path="url(#c856d65706)"><g transform="matrix(1, 0, 0, 1, 104, 182)"><g clip-path="url(#9412771891)"><g clip-path="url(#c5bf92a83b)"><g clip-path="url(#ea6102285b)"><rect x="-269" width="1080" fill="#ffffff" height="663.897571" y="-283.428796" fill-opacity="1"/></g></g></g></g></g></g><g clip-path="url(#dc5e9aa046)"><g clip-path="url(#d9804c9751)"><g transform="matrix(1, 0, 0, 1, 89, 198)"><g clip-path="url(#734c5f6276)"><g clip-path="url(#a95addf8cd)"><g clip-path="url(#c4452faa5e)"><rect x="-254" width="1080" fill="#ffffff" height="663.897571" y="-299.428796" fill-opacity="1"/></g></g></g></g></g></g><g clip-path="url(#44e1fb86b1)"><g clip-path="url(#596c2d6ea6)"><g transform="matrix(1, 0, 0, 1, 159, 299)"><g clip-path="url(#57e58f38f5)"><g clip-path="url(#b134dcb49e)"><g clip-path="url(#da54173961)"><rect x="-324" width="1080" fill="#ffffff" height="663.897571" y="-400.428796" fill-opacity="1"/></g></g></g></g></g></g><g clip-path="url(#d4da5afe75)"><g clip-path="url(#c11c0151cd)"><g transform="matrix(1, 0, 0, 1, 350, 276)"><g clip-path="url(#499f00cd81)"><g clip-path="url(#764029e9ae)"><g clip-path="url(#7bf385ec71)"><rect x="-515" width="1080" fill="#ffffff" height="663.897571" y="-377.428796" fill-opacity="1"/></g></g></g></g></g></g><g clip-path="url(#392269b3e8)"><g clip-path="url(#30d25e3654)"><g transform="matrix(1, 0, 0, 1, 533, 223)"><g clip-path="url(#5069e5a1f0)"><g clip-path="url(#4a51ff383f)"><g clip-path="url(#bf77378fd4)"><rect x="-698" width="1080" fill="#ffffff" height="663.897571" y="-324.428796" fill-opacity="1"/></g></g></g></g></g></g><g clip-path="url(#58fb6212b0)"><g clip-path="url(#a5cc999ffd)"><g transform="matrix(1, 0, 0, 1, 517, 95)"><g clip-path="url(#8a01e5bcc4)"><g clip-path="url(#a13bcbc893)"><g clip-path="url(#1a9418435f)"><rect x="-682" width="1080" fill="#ffffff" height="663.897571" y="-196.428796" fill-opacity="1"/></g></g></g></g></g></g><g clip-path="url(#f65a1baf0c)"><g clip-path="url(#cf7f3fc600)"><g transform="matrix(1, 0, 0, 1, 314, 12)"><g clip-path="url(#314af27444)"><g clip-path="url(#824d67e50f)"><g clip-path="url(#be6da6014b)"><rect x="-479" width="1080" fill="#ffffff" height="663.897571" y="-113.428796" fill-opacity="1"/></g></g></g></g></g></g><g clip-path="url(#5e5ea4aa07)"><g clip-path="url(#6b3ff1b05d)"><g transform="matrix(1, 0, 0, 1, 439, 32)"><g clip-path="url(#c95a9ad958)"><g clip-path="url(#59e0a285da)"><g clip-path="url(#14e3f3a154)"><rect x="-604" width="1080" fill="#ffffff" height="663.897571" y="-133.428796" fill-opacity="1"/></g></g></g></g></g></g><g clip-path="url(#73635b2f6d)"><g clip-path="url(#cd6a20ec64)"><g transform="matrix(1, 0, 0, 1, 547, 97)"><g clip-path="url(#6ddf938349)"><g clip-path="url(#e4d5abc4f4)"><g clip-path="url(#b035117812)"><rect x="-712" width="1080" fill="#ffffff" height="663.897571" y="-198.428796" fill-opacity="1"/></g></g></g></g></g></g><g clip-path="url(#2f7640c162)"><g clip-path="url(#054babb3d2)"><g transform="matrix(1, 0, 0, 1, 130, 66)"><g clip-path="url(#bbef15d59b)"><g clip-path="url(#af1df00a33)"><g clip-path="url(#503840e98e)"><rect x="-295" width="1080" fill="#ffffff" height="663.897571" y="-167.428796" fill-opacity="1"/></g></g></g></g></g></g><path fill="none" d="M 695.429688 249.441406 C 688.957031 235.863281 677.914062 228.753906 665.222656 226.089844 C 668.519531 223.042969 671.3125 219.359375 673.851562 215.171875 C 679.945312 205.144531 682.609375 193.339844 682.863281 181.664062 C 683.371094 157.671875 673.597656 133.429688 658.621094 115.023438 C 630.0625 79.863281 578.148438 80.246094 540.449219 101.695312 C 544.511719 81.386719 541.84375 59.300781 530.421875 42.292969 C 517.09375 22.238281 494.5 11.578125 471.273438 7.894531 C 422.402344 0.28125 361.476562 16.652344 329.746094 56.382812 C 318.066406 70.851562 313.496094 86.59375 314.894531 102.839844 C 311.085938 100.046875 307.023438 97.507812 303.46875 95.351562 C 293.1875 89.382812 281.890625 85.324219 270.085938 83.671875 C 245.84375 80.371094 219.316406 88.242188 200.53125 103.980469 C 185.933594 116.167969 172.605469 134.570312 167.527344 152.976562 C 165.371094 160.59375 164.226562 169.859375 167.273438 177.347656 C 167.402344 177.726562 167.65625 178.109375 167.78125 178.617188 C 107.871094 153.484375 37.425781 251.980469 81.089844 305.164062 C 98.605469 326.488281 126.65625 334.613281 153.183594 338.167969 C 157.882812 375.613281 178.570312 408.234375 213.859375 424.226562 C 248.382812 439.964844 289.890625 438.316406 322.128906 417.878906 C 336.472656 408.742188 347.640625 396.683594 356.273438 382.71875 C 384.707031 424.480469 433.953125 451.769531 484.597656 430.066406 C 515.570312 416.738281 551.746094 382.59375 557.332031 346.289062 C 586.523438 367.234375 631.332031 367.867188 661.792969 350.605469 C 695.558594 331.441406 712.566406 285.109375 695.429688 249.441406 Z M 669.664062 315.574219 C 656.460938 333.851562 633.742188 340.199219 612.292969 339.308594 C 588.9375 338.292969 568.628906 326.617188 554.792969 308.085938 C 551.746094 304.023438 547.558594 302.625 543.875 303.007812 C 537.273438 301.867188 529.53125 307.324219 532.070312 315.320312 C 538.671875 335.5 534.992188 353.398438 523.1875 370.789062 C 511.636719 387.671875 494.121094 402.011719 475.078125 409.628906 C 429.894531 427.78125 385.214844 395.539062 364.90625 356.0625 C 360.335938 347.179688 349.039062 350.988281 345.863281 358.601562 C 329.363281 398.078125 288.492188 418.894531 246.734375 413.183594 C 204.339844 407.472656 171.464844 374.214844 168.542969 331.058594 C 168.289062 326.363281 165.117188 323.570312 160.546875 323.0625 C 124.878906 319 78.804688 302.878906 82.613281 259.214844 C 85.152344 229.769531 107.492188 200.574219 134.273438 188.769531 C 149.503906 182.042969 167.273438 181.789062 181.238281 191.691406 C 183.011719 192.960938 185.296875 190.039062 183.648438 188.515625 C 182.761719 187.753906 182 187.121094 181.109375 186.484375 C 180.855469 181.535156 177.554688 177.09375 177.554688 171.636719 C 177.429688 164.144531 180.347656 157.164062 183.519531 150.566406 C 190.121094 136.984375 200.148438 123.402344 212.460938 114.515625 C 228.453125 102.964844 250.414062 97.128906 269.832031 101.0625 C 279.605469 103.09375 288.621094 107.15625 296.871094 112.613281 C 306.136719 118.707031 312.863281 127.71875 321.875 133.808594 C 329.238281 138.761719 336.726562 129.367188 333.296875 122.386719 C 331.648438 118.960938 329.238281 115.785156 326.445312 112.738281 C 324.414062 76.183594 356.652344 47.496094 389.78125 34.929688 C 425.324219 21.476562 481.046875 14.75 509.476562 46.480469 C 527.753906 66.789062 521.535156 93.828125 518.234375 118.070312 C 518.234375 118.199219 518.234375 118.324219 518.234375 118.453125 C 517.601562 119.085938 517.09375 119.59375 516.457031 120.226562 C 513.160156 123.78125 517.472656 129.875 521.789062 127.082031 C 521.917969 126.957031 522.171875 126.828125 522.296875 126.703125 C 525.597656 129.113281 530.292969 128.988281 532.707031 124.164062 C 533.46875 122.765625 534.101562 121.242188 534.738281 119.71875 C 568.753906 102.839844 615.71875 95.351562 641.738281 126.703125 C 653.164062 140.410156 660.652344 158.941406 661.160156 176.839844 C 661.792969 197.402344 651.257812 208.953125 637.296875 222.28125 C 633.234375 226.089844 634.503906 231.039062 637.929688 233.832031 C 638.691406 235.609375 640.34375 237.003906 643.007812 236.878906 C 686.164062 236.117188 689.335938 288.15625 669.664062 315.574219 Z M 669.664062 315.574219 " fill-opacity="1" fill-rule="nonzero"/><g clip-path="url(#cdf45ed8ba)"><g clip-path="url(#7b4ca4c881)"><g transform="matrix(1, 0, 0, 1, 713, 23)"><g clip-path="url(#4b77b8b013)"><g clip-path="url(#b0a12caa04)"><g clip-path="url(#e3d961c0e0)"><rect x="-878" width="1080" fill="#ffffff" height="663.897571" y="-124.428796" fill-opacity="1"/></g></g></g></g></g></g></svg>