<svg style="background:transparent;" xmlns="http://www.w3.org/2000/svg" xmlns:xlink="http://www.w3.org/1999/xlink" width="1000" zoomAndPan="magnify" viewBox="0 0 750 461.03998" height="604" preserveAspectRatio="xMidYMid meet" version="1.0"><defs><clipPath id="ab7082ed76"><path d="M 28 136 L 213 136 L 213 328.882812 L 28 328.882812 Z M 28 136 " clip-rule="nonzero"/></clipPath><clipPath id="93caeaa0d1"><path d="M 173.296875 216.300781 C 153.085938 215.027344 130.410156 201.929688 119.109375 206.195312 C 108.40625 210.164062 93.285156 230.96875 95.605469 238.304688 C 97.925781 245.488281 131.53125 245.863281 131.683594 250.203125 C 131.832031 254.46875 97.179688 264.875 96.878906 264.273438 C 96.578125 263.675781 129.8125 245.5625 130.335938 246.386719 C 130.933594 247.285156 99.574219 271.011719 98.898438 270.261719 C 98.300781 269.589844 125.019531 241.972656 125.917969 242.71875 C 126.890625 243.46875 106.757812 274.601562 105.1875 274.003906 C 104.214844 273.554688 106.609375 264.574219 108.332031 260.308594 C 110.050781 256.117188 112.671875 251.925781 115.664062 248.40625 C 118.660156 244.964844 122.476562 241.820312 126.441406 239.5 C 130.410156 237.179688 134.976562 235.386719 139.464844 234.488281 C 143.957031 233.515625 148.894531 233.289062 153.460938 233.886719 C 158.027344 234.410156 162.742188 235.757812 166.859375 237.78125 C 171.050781 239.726562 175.089844 242.496094 178.382812 245.714844 C 181.675781 248.933594 184.597656 252.824219 186.691406 256.941406 C 188.789062 261.054688 190.359375 265.695312 191.03125 270.261719 C 191.707031 274.828125 191.707031 279.691406 190.882812 284.257812 C 190.058594 288.75 188.488281 293.390625 186.242188 297.429688 C 184.074219 301.472656 181.078125 305.363281 177.710938 308.507812 C 174.34375 311.578125 170.226562 314.269531 166.035156 316.214844 C 161.84375 318.085938 157.054688 319.359375 152.488281 319.808594 C 147.921875 320.257812 143.058594 319.882812 138.566406 318.910156 C 134.078125 317.863281 129.511719 315.992188 125.621094 313.523438 C 121.726562 311.128906 117.984375 307.910156 115.066406 304.390625 C 112.148438 300.875 109.675781 296.605469 107.957031 292.339844 C 106.308594 288 105.335938 283.210938 105.113281 278.644531 C 104.960938 274.078125 105.484375 269.140625 106.832031 264.722656 C 108.105469 260.308594 110.203125 255.890625 112.820312 252.148438 C 115.441406 248.332031 118.808594 244.816406 122.550781 242.046875 C 126.21875 239.351562 130.558594 237.105469 134.976562 235.683594 C 139.316406 234.261719 144.179688 233.515625 148.820312 233.589844 C 153.386719 233.589844 158.25 234.488281 162.59375 235.984375 C 166.933594 237.480469 171.199219 239.800781 174.867188 242.644531 C 178.460938 245.488281 181.828125 249.082031 184.371094 252.898438 C 186.917969 256.789062 188.863281 261.207031 190.058594 265.695312 C 191.257812 270.113281 192.605469 275.652344 191.40625 279.617188 C 190.359375 283.285156 187.441406 284.933594 183.921875 288.898438 C 176.8125 296.757812 149.121094 321.53125 149.945312 322.503906 C 150.617188 323.402344 181.304688 300.949219 181.078125 300.574219 C 180.855469 300.273438 161.542969 315.542969 149.046875 320.109375 C 134 325.496094 111.699219 330.210938 95.90625 328.042969 C 82.058594 326.097656 69.261719 319.734375 58.785156 311.277344 C 47.707031 302.371094 36.855469 287.925781 31.914062 274.753906 C 27.273438 262.328125 28.246094 247.957031 28.621094 234.9375 C 28.921875 222.289062 28.847656 208.664062 33.785156 197.589844 C 38.800781 186.363281 49.800781 177.15625 58.933594 168.175781 C 67.988281 159.34375 77.121094 149.539062 88.421875 144.226562 C 99.949219 138.761719 113.867188 136.964844 127.714844 136.214844 C 142.910156 135.394531 166.335938 139.660156 175.988281 140.855469 C 180.179688 141.378906 182.125 141.457031 184.96875 142.277344 C 187.890625 143.101562 190.808594 144.300781 193.429688 145.796875 C 196.046875 147.292969 198.515625 149.164062 200.6875 151.261719 C 202.859375 153.28125 204.878906 155.75 206.449219 158.296875 C 208.097656 160.765625 209.445312 163.609375 210.417969 166.453125 C 211.390625 169.296875 212.0625 172.367188 212.289062 175.359375 C 212.511719 178.355469 212.4375 181.496094 211.988281 184.492188 C 211.464844 187.484375 210.640625 190.476562 209.445312 193.246094 C 208.320312 196.015625 206.75 198.710938 204.953125 201.105469 C 203.15625 203.574219 200.988281 205.820312 198.667969 207.691406 C 196.347656 209.636719 193.726562 211.285156 191.03125 212.632812 C 188.265625 213.90625 185.34375 214.953125 182.351562 215.550781 C 179.433594 216.148438 173.296875 216.300781 173.296875 216.300781 " clip-rule="nonzero"/></clipPath><clipPath id="c4d27fcc3f"><path d="M 0 0 L 184.738281 0 L 184.738281 192.882812 L 0 192.882812 Z M 0 0 " clip-rule="nonzero"/></clipPath><clipPath id="cbf513d653"><path d="M 145.296875 80.300781 C 125.085938 79.027344 102.410156 65.929688 91.109375 70.195312 C 80.40625 74.164062 65.285156 94.96875 67.605469 102.304688 C 69.925781 109.488281 103.53125 109.863281 103.683594 114.203125 C 103.832031 118.46875 69.179688 128.875 68.878906 128.273438 C 68.578125 127.675781 101.8125 109.5625 102.335938 110.386719 C 102.933594 111.285156 71.574219 135.011719 70.898438 134.261719 C 70.300781 133.589844 97.019531 105.972656 97.917969 106.71875 C 98.890625 107.46875 78.757812 138.601562 77.1875 138.003906 C 76.214844 137.554688 78.609375 128.574219 80.332031 124.308594 C 82.050781 120.117188 84.671875 115.925781 87.664062 112.40625 C 90.660156 108.964844 94.476562 105.820312 98.441406 103.5 C 102.410156 101.179688 106.976562 99.386719 111.464844 98.488281 C 115.957031 97.515625 120.894531 97.289062 125.460938 97.886719 C 130.027344 98.410156 134.742188 99.757812 138.859375 101.78125 C 143.050781 103.726562 147.089844 106.496094 150.382812 109.714844 C 153.675781 112.933594 156.597656 116.824219 158.691406 120.941406 C 160.789062 125.054688 162.359375 129.695312 163.03125 134.261719 C 163.707031 138.828125 163.707031 143.691406 162.882812 148.257812 C 162.058594 152.75 160.488281 157.390625 158.242188 161.429688 C 156.074219 165.472656 153.078125 169.363281 149.710938 172.507812 C 146.34375 175.578125 142.226562 178.269531 138.035156 180.214844 C 133.84375 182.085938 129.054688 183.359375 124.488281 183.808594 C 119.921875 184.257812 115.058594 183.882812 110.566406 182.910156 C 106.078125 181.863281 101.511719 179.992188 97.621094 177.523438 C 93.726562 175.128906 89.984375 171.910156 87.066406 168.390625 C 84.148438 164.875 81.675781 160.605469 79.957031 156.339844 C 78.308594 152 77.335938 147.210938 77.113281 142.644531 C 76.960938 138.078125 77.484375 133.140625 78.832031 128.722656 C 80.105469 124.308594 82.203125 119.890625 84.820312 116.148438 C 87.441406 112.332031 90.808594 108.816406 94.550781 106.046875 C 98.21875 103.351562 102.558594 101.105469 106.976562 99.683594 C 111.316406 98.261719 116.179688 97.515625 120.820312 97.589844 C 125.386719 97.589844 130.25 98.488281 134.59375 99.984375 C 138.933594 101.480469 143.199219 103.800781 146.867188 106.644531 C 150.460938 109.488281 153.828125 113.082031 156.371094 116.898438 C 158.917969 120.789062 160.863281 125.207031 162.058594 129.695312 C 163.257812 134.113281 164.605469 139.652344 163.40625 143.617188 C 162.359375 147.285156 159.441406 148.933594 155.921875 152.898438 C 148.8125 160.757812 121.121094 185.53125 121.945312 186.503906 C 122.617188 187.402344 153.304688 164.949219 153.078125 164.574219 C 152.855469 164.273438 133.542969 179.542969 121.046875 184.109375 C 106 189.496094 83.699219 194.210938 67.90625 192.042969 C 54.058594 190.097656 41.261719 183.734375 30.785156 175.277344 C 19.707031 166.371094 8.855469 151.925781 3.914062 138.753906 C -0.726562 126.328125 0.246094 111.957031 0.621094 98.9375 C 0.921875 86.289062 0.847656 72.664062 5.785156 61.589844 C 10.800781 50.363281 21.800781 41.15625 30.933594 32.175781 C 39.988281 23.34375 49.121094 13.539062 60.421875 8.226562 C 71.949219 2.761719 85.867188 0.964844 99.714844 0.214844 C 114.910156 -0.605469 138.335938 3.660156 147.988281 4.855469 C 152.179688 5.378906 154.125 5.457031 156.96875 6.277344 C 159.890625 7.101562 162.808594 8.300781 165.429688 9.796875 C 168.046875 11.292969 170.515625 13.164062 172.6875 15.261719 C 174.859375 17.28125 176.878906 19.75 178.449219 22.296875 C 180.097656 24.765625 181.445312 27.609375 182.417969 30.453125 C 183.390625 33.296875 184.0625 36.367188 184.289062 39.359375 C 184.511719 42.355469 184.4375 45.496094 183.988281 48.492188 C 183.464844 51.484375 182.640625 54.476562 181.445312 57.246094 C 180.320312 60.015625 178.75 62.710938 176.953125 65.105469 C 175.15625 67.574219 172.988281 69.820312 170.667969 71.691406 C 168.347656 73.636719 165.726562 75.285156 163.03125 76.632812 C 160.265625 77.90625 157.34375 78.953125 154.351562 79.550781 C 151.433594 80.148438 145.296875 80.300781 145.296875 80.300781 " clip-rule="nonzero"/></clipPath><clipPath id="8b5883511f"><rect x="0" width="185" y="0" height="193"/></clipPath><clipPath id="ac28f4d0ef"><path d="M 86.566406 189.601562 L 186.652344 189.601562 L 186.652344 279.527344 L 86.566406 279.527344 Z M 86.566406 189.601562 " clip-rule="nonzero"/></clipPath><clipPath id="f3ffab65b8"><path d="M 121.203125 189.804688 C 138.792969 190.179688 167.234375 197.066406 176.140625 208.140625 C 184.445312 218.542969 181.304688 251.402344 183.546875 251.625 C 184.445312 251.699219 186.019531 244.515625 186.167969 244.589844 C 186.316406 244.589844 184.597656 252.898438 182.875 256.640625 C 181.152344 260.382812 178.683594 264.050781 175.839844 267.042969 C 173.070312 270.039062 169.554688 272.730469 165.886719 274.679688 C 162.292969 276.625 158.101562 278.046875 154.058594 278.71875 C 150.019531 279.394531 145.601562 279.394531 141.5625 278.792969 C 137.445312 278.121094 133.253906 276.699219 129.660156 274.828125 C 125.992188 272.882812 122.476562 270.261719 119.632812 267.269531 C 116.789062 264.273438 114.316406 260.683594 112.597656 256.941406 C 110.800781 253.199219 109.601562 248.933594 109.152344 244.890625 C 108.703125 240.773438 108.929688 236.359375 109.828125 232.316406 C 110.652344 228.347656 112.296875 224.234375 114.394531 220.714844 C 116.488281 217.121094 119.332031 213.753906 122.476562 211.136719 C 125.621094 208.441406 129.363281 206.121094 133.179688 204.625 C 136.996094 203.050781 141.335938 202.078125 145.378906 201.855469 C 149.496094 201.628906 153.910156 202.078125 157.878906 203.203125 C 161.84375 204.25 165.8125 206.121094 169.253906 208.441406 C 172.695312 210.6875 175.914062 213.679688 178.382812 216.972656 C 180.929688 220.265625 182.949219 224.160156 184.296875 228.050781 C 185.644531 231.941406 186.316406 236.28125 186.394531 240.398438 C 186.394531 244.515625 185.71875 248.855469 184.371094 252.75 C 183.097656 256.640625 181.003906 260.53125 178.535156 263.824219 C 176.0625 267.117188 172.921875 270.1875 169.476562 272.507812 C 166.109375 274.828125 162.144531 276.699219 158.175781 277.820312 C 154.210938 278.945312 149.792969 279.394531 145.675781 279.167969 C 141.5625 279.019531 137.296875 278.046875 133.476562 276.550781 C 129.585938 275.050781 125.84375 272.808594 122.699219 270.113281 C 119.558594 267.492188 116.710938 264.125 114.542969 260.605469 C 112.371094 257.089844 110.800781 252.972656 109.902344 249.007812 C 109.003906 244.964844 107.804688 238.902344 109.152344 236.507812 C 110.050781 234.9375 111.921875 233.589844 113.867188 234.039062 C 118.957031 235.234375 138.417969 260.160156 136.398438 264.347656 C 134.976562 267.117188 123.671875 265.171875 118.882812 264.574219 C 115.441406 264.125 112.96875 263.300781 110.203125 262.179688 C 107.433594 260.980469 104.664062 259.484375 102.269531 257.6875 C 99.871094 255.890625 97.550781 253.796875 95.679688 251.476562 C 93.734375 249.15625 92.015625 246.535156 90.742188 243.84375 C 89.394531 241.148438 88.421875 238.230469 87.75 235.234375 C 87.148438 232.316406 86.851562 229.246094 86.925781 226.179688 C 87 223.183594 87.523438 220.117188 88.273438 217.199219 C 89.09375 214.355469 90.292969 211.433594 91.789062 208.816406 C 93.285156 206.195312 95.082031 203.726562 97.179688 201.554688 C 99.199219 199.308594 101.59375 197.363281 104.140625 195.71875 C 106.683594 194.070312 109.453125 192.722656 112.296875 191.75 C 115.140625 190.777344 121.203125 189.804688 121.203125 189.804688 " clip-rule="nonzero"/></clipPath><clipPath id="5c0ebf5672"><path d="M 0.761719 0.683594 L 100.394531 0.683594 L 100.394531 90.496094 L 0.761719 90.496094 Z M 0.761719 0.683594 " clip-rule="nonzero"/></clipPath><clipPath id="b31538a8d2"><path d="M 35.203125 0.804688 C 52.792969 1.179688 81.234375 8.066406 90.140625 19.140625 C 98.445312 29.542969 95.304688 62.402344 97.546875 62.625 C 98.445312 62.699219 100.019531 55.515625 100.167969 55.589844 C 100.316406 55.589844 98.597656 63.898438 96.875 67.640625 C 95.152344 71.382812 92.683594 75.050781 89.839844 78.042969 C 87.070312 81.039062 83.554688 83.730469 79.886719 85.679688 C 76.292969 87.625 72.101562 89.046875 68.058594 89.71875 C 64.019531 90.394531 59.601562 90.394531 55.5625 89.792969 C 51.445312 89.121094 47.253906 87.699219 43.660156 85.828125 C 39.992188 83.882812 36.476562 81.261719 33.632812 78.269531 C 30.789062 75.273438 28.316406 71.683594 26.597656 67.941406 C 24.800781 64.199219 23.601562 59.933594 23.152344 55.890625 C 22.703125 51.773438 22.929688 47.359375 23.828125 43.316406 C 24.652344 39.347656 26.296875 35.234375 28.394531 31.714844 C 30.488281 28.121094 33.332031 24.753906 36.476562 22.136719 C 39.621094 19.441406 43.363281 17.121094 47.179688 15.625 C 50.996094 14.050781 55.335938 13.078125 59.378906 12.855469 C 63.496094 12.628906 67.910156 13.078125 71.878906 14.203125 C 75.84375 15.25 79.8125 17.121094 83.253906 19.441406 C 86.695312 21.6875 89.914062 24.679688 92.382812 27.972656 C 94.929688 31.265625 96.949219 35.160156 98.296875 39.050781 C 99.644531 42.941406 100.316406 47.28125 100.394531 51.398438 C 100.394531 55.515625 99.71875 59.855469 98.371094 63.75 C 97.097656 67.640625 95.003906 71.53125 92.535156 74.824219 C 90.0625 78.117188 86.921875 81.1875 83.476562 83.507812 C 80.109375 85.828125 76.144531 87.699219 72.175781 88.820312 C 68.210938 89.945312 63.792969 90.394531 59.675781 90.167969 C 55.5625 90.019531 51.296875 89.046875 47.476562 87.550781 C 43.585938 86.050781 39.84375 83.808594 36.699219 81.113281 C 33.558594 78.492188 30.710938 75.125 28.542969 71.605469 C 26.371094 68.089844 24.800781 63.972656 23.902344 60.007812 C 23.003906 55.964844 21.804688 49.902344 23.152344 47.507812 C 24.050781 45.9375 25.921875 44.589844 27.867188 45.039062 C 32.957031 46.234375 52.417969 71.160156 50.398438 75.347656 C 48.976562 78.117188 37.671875 76.171875 32.882812 75.574219 C 29.441406 75.125 26.96875 74.300781 24.203125 73.179688 C 21.433594 71.980469 18.664062 70.484375 16.269531 68.6875 C 13.871094 66.890625 11.550781 64.796875 9.679688 62.476562 C 7.734375 60.15625 6.015625 57.535156 4.742188 54.84375 C 3.394531 52.148438 2.421875 49.230469 1.75 46.234375 C 1.148438 43.316406 0.851562 40.246094 0.925781 37.179688 C 1 34.183594 1.523438 31.117188 2.273438 28.199219 C 3.09375 25.355469 4.292969 22.433594 5.789062 19.816406 C 7.285156 17.195312 9.082031 14.726562 11.179688 12.554688 C 13.199219 10.308594 15.59375 8.363281 18.140625 6.71875 C 20.683594 5.070312 23.453125 3.722656 26.296875 2.75 C 29.140625 1.777344 35.203125 0.804688 35.203125 0.804688 " clip-rule="nonzero"/></clipPath><clipPath id="0868bb11ee"><rect x="0" width="101" y="0" height="91"/></clipPath><clipPath id="cde7cf42ac"><path d="M 119.765625 282.519531 L 356 282.519531 L 356 419.671875 L 119.765625 419.671875 Z M 119.765625 282.519531 " clip-rule="nonzero"/></clipPath><clipPath id="9c3dafdf60"><path d="M 191.707031 304.539062 C 222.617188 349.296875 240.953125 349.894531 253.378906 346.976562 C 265.351562 344.132812 284.4375 324.449219 285.859375 325.945312 C 286.984375 327.144531 272.988281 345.40625 272.089844 344.957031 C 271.414062 344.582031 274.335938 335.976562 276.503906 332.007812 C 278.601562 328.042969 281.519531 324.226562 284.738281 321.15625 C 288.03125 318.085938 291.996094 315.394531 296.113281 313.523438 C 300.15625 311.652344 304.796875 310.378906 309.285156 309.929688 C 313.703125 309.40625 318.492188 309.707031 322.910156 310.679688 C 327.324219 311.652344 331.738281 313.449219 335.558594 315.765625 C 339.449219 318.085938 343.042969 321.230469 345.960938 324.675781 C 348.878906 328.117188 351.347656 332.234375 352.996094 336.347656 C 354.640625 340.539062 355.617188 345.257812 355.839844 349.746094 C 356.140625 354.238281 355.539062 358.953125 354.34375 363.292969 C 353.144531 367.632812 351.125 371.976562 348.578125 375.71875 C 346.035156 379.386719 342.742188 382.902344 339.148438 385.597656 C 335.558594 388.292969 331.367188 390.535156 327.101562 391.957031 C 322.832031 393.378906 318.117188 394.128906 313.554688 394.128906 C 309.0625 394.128906 304.347656 393.304688 300.082031 391.882812 C 295.890625 390.386719 291.625 388.140625 288.03125 385.449219 C 284.511719 382.679688 281.21875 379.234375 278.675781 375.492188 C 276.207031 371.75 274.183594 367.410156 272.988281 363.070312 C 271.789062 358.726562 271.339844 353.9375 271.566406 349.523438 C 271.789062 345.03125 272.835938 340.316406 274.558594 336.125 C 276.207031 332.007812 278.675781 327.890625 281.59375 324.449219 C 284.511719 321.082031 288.179688 317.9375 292.074219 315.691406 C 295.890625 313.371094 300.378906 311.578125 304.796875 310.601562 C 309.136719 309.707031 313.925781 309.40625 318.417969 309.929688 C 322.910156 310.453125 327.472656 311.726562 331.589844 313.671875 C 335.632812 315.542969 339.597656 318.238281 342.816406 321.304688 C 346.109375 324.449219 348.953125 328.265625 351.050781 332.234375 C 353.144531 336.199219 354.71875 340.765625 355.390625 345.179688 C 356.140625 349.597656 355.988281 354.460938 355.390625 358.878906 C 354.71875 363.144531 354.867188 367.109375 351.796875 371.300781 C 346.183594 378.859375 316.398438 394.953125 315.949219 394.355469 C 315.425781 393.679688 352.621094 363.667969 353.144531 364.265625 C 353.746094 364.863281 331.214844 388.515625 319.617188 397.722656 C 309.285156 405.953125 299.480469 414.335938 287.730469 417.707031 C 275.683594 421.148438 261.011719 419.050781 247.914062 417.707031 C 234.964844 416.359375 222.394531 412.765625 209.742188 409.621094 C 197.019531 406.402344 182.949219 404.683594 171.949219 398.394531 C 161.019531 392.183594 151.214844 382.230469 143.730469 372.125 C 136.320312 362.097656 125.542969 339.417969 127.191406 338.296875 C 129.0625 337.023438 159.148438 371.300781 158.925781 371.601562 C 158.625 371.902344 126.144531 340.167969 125.917969 340.390625 C 125.695312 340.617188 155.257812 370.480469 155.183594 370.628906 C 155.109375 370.703125 130.933594 349.523438 125.542969 340.988281 C 122.324219 335.976562 121.503906 331.558594 120.605469 327.367188 C 119.929688 324.148438 119.855469 321.378906 120.007812 318.386719 C 120.15625 315.320312 120.679688 312.324219 121.503906 309.40625 C 122.402344 306.5625 123.671875 303.71875 125.171875 301.097656 C 126.667969 298.554688 128.613281 296.082031 130.707031 293.914062 C 132.804688 291.816406 135.199219 289.871094 137.742188 288.300781 C 140.363281 286.726562 143.132812 285.378906 145.976562 284.484375 C 148.894531 283.585938 151.890625 282.984375 154.882812 282.761719 C 157.878906 282.535156 161.019531 282.6875 163.941406 283.210938 C 166.933594 283.734375 169.925781 284.632812 172.621094 285.828125 C 175.390625 287.027344 178.085938 288.597656 180.480469 290.46875 C 182.800781 292.265625 185.046875 294.4375 186.917969 296.832031 C 188.789062 299.152344 191.707031 304.539062 191.707031 304.539062 " clip-rule="nonzero"/></clipPath><clipPath id="6503a27660"><path d="M 0.8125 0.519531 L 237 0.519531 L 237 137.671875 L 0.8125 137.671875 Z M 0.8125 0.519531 " clip-rule="nonzero"/></clipPath><clipPath id="533f9df2ab"><path d="M 72.707031 22.539062 C 103.617188 67.296875 121.953125 67.894531 134.378906 64.976562 C 146.351562 62.132812 165.4375 42.449219 166.859375 43.945312 C 167.984375 45.144531 153.988281 63.40625 153.089844 62.957031 C 152.414062 62.582031 155.335938 53.976562 157.503906 50.007812 C 159.601562 46.042969 162.519531 42.226562 165.738281 39.15625 C 169.03125 36.085938 172.996094 33.394531 177.113281 31.523438 C 181.15625 29.652344 185.796875 28.378906 190.285156 27.929688 C 194.703125 27.40625 199.492188 27.707031 203.910156 28.679688 C 208.324219 29.652344 212.738281 31.449219 216.558594 33.765625 C 220.449219 36.085938 224.042969 39.230469 226.960938 42.675781 C 229.878906 46.117188 232.347656 50.234375 233.996094 54.347656 C 235.640625 58.539062 236.617188 63.257812 236.839844 67.746094 C 237.140625 72.238281 236.539062 76.953125 235.34375 81.292969 C 234.144531 85.632812 232.125 89.976562 229.578125 93.71875 C 227.035156 97.386719 223.742188 100.902344 220.148438 103.597656 C 216.558594 106.292969 212.367188 108.535156 208.101562 109.957031 C 203.832031 111.378906 199.117188 112.128906 194.554688 112.128906 C 190.0625 112.128906 185.347656 111.304688 181.082031 109.882812 C 176.890625 108.386719 172.625 106.140625 169.03125 103.449219 C 165.511719 100.679688 162.21875 97.234375 159.675781 93.492188 C 157.207031 89.75 155.183594 85.410156 153.988281 81.070312 C 152.789062 76.726562 152.339844 71.9375 152.566406 67.523438 C 152.789062 63.03125 153.835938 58.316406 155.558594 54.125 C 157.207031 50.007812 159.675781 45.890625 162.59375 42.449219 C 165.511719 39.082031 169.179688 35.9375 173.074219 33.691406 C 176.890625 31.371094 181.378906 29.578125 185.796875 28.601562 C 190.136719 27.707031 194.925781 27.40625 199.417969 27.929688 C 203.910156 28.453125 208.472656 29.726562 212.589844 31.671875 C 216.632812 33.542969 220.597656 36.238281 223.816406 39.304688 C 227.109375 42.449219 229.953125 46.265625 232.050781 50.234375 C 234.144531 54.199219 235.71875 58.765625 236.390625 63.179688 C 237.140625 67.597656 236.988281 72.460938 236.390625 76.878906 C 235.71875 81.144531 235.867188 85.109375 232.796875 89.300781 C 227.183594 96.859375 197.398438 112.953125 196.949219 112.355469 C 196.425781 111.679688 233.621094 81.667969 234.144531 82.265625 C 234.746094 82.863281 212.214844 106.515625 200.617188 115.722656 C 190.285156 123.953125 180.480469 132.335938 168.730469 135.707031 C 156.683594 139.148438 142.011719 137.050781 128.914062 135.707031 C 115.964844 134.359375 103.394531 130.765625 90.742188 127.621094 C 78.019531 124.402344 63.949219 122.683594 52.949219 116.394531 C 42.019531 110.183594 32.214844 100.230469 24.730469 90.125 C 17.320312 80.097656 6.542969 57.417969 8.191406 56.296875 C 10.0625 55.023438 40.148438 89.300781 39.925781 89.601562 C 39.625 89.902344 7.144531 58.167969 6.917969 58.390625 C 6.695312 58.617188 36.257812 88.480469 36.183594 88.628906 C 36.109375 88.703125 11.933594 67.523438 6.542969 58.988281 C 3.324219 53.976562 2.503906 49.558594 1.605469 45.367188 C 0.929688 42.148438 0.855469 39.378906 1.007812 36.386719 C 1.15625 33.320312 1.679688 30.324219 2.503906 27.40625 C 3.402344 24.5625 4.671875 21.71875 6.171875 19.097656 C 7.667969 16.554688 9.613281 14.082031 11.707031 11.914062 C 13.804688 9.816406 16.199219 7.871094 18.742188 6.300781 C 21.363281 4.726562 24.132812 3.378906 26.976562 2.484375 C 29.894531 1.585938 32.890625 0.984375 35.882812 0.761719 C 38.878906 0.535156 42.019531 0.6875 44.941406 1.210938 C 47.933594 1.734375 50.925781 2.632812 53.621094 3.828125 C 56.390625 5.027344 59.085938 6.597656 61.480469 8.46875 C 63.800781 10.265625 66.046875 12.4375 67.917969 14.832031 C 69.789062 17.152344 72.707031 22.539062 72.707031 22.539062 " clip-rule="nonzero"/></clipPath><clipPath id="7d3cf775ed"><rect x="0" width="237" y="0" height="138"/></clipPath><clipPath id="84e7eb3169"><path d="M 339.5 270 L 624.410156 270 L 624.410156 426 L 339.5 426 Z M 339.5 270 " clip-rule="nonzero"/></clipPath><clipPath id="e8516f2f5e"><path d="M 339.972656 335.675781 C 341.320312 323.699219 342.292969 320.707031 343.566406 318.011719 C 344.835938 315.242188 346.558594 312.625 348.429688 310.304688 C 350.300781 307.984375 352.546875 305.8125 354.941406 304.015625 C 357.335938 302.21875 360.03125 300.648438 362.800781 299.453125 C 365.570312 298.253906 368.5625 297.429688 371.558594 296.90625 C 374.550781 296.457031 377.621094 296.308594 380.613281 296.53125 C 383.605469 296.757812 386.675781 297.429688 389.519531 298.328125 C 392.363281 299.300781 395.207031 300.648438 397.753906 302.21875 C 400.296875 303.867188 402.691406 305.8125 404.789062 307.984375 C 406.882812 310.152344 410.25 315.242188 410.25 315.242188 C 410.25 315.242188 412.347656 319.285156 414.59375 322.355469 C 419.382812 328.941406 430.683594 346.753906 439.441406 351.917969 C 445.800781 355.585938 452.6875 356.484375 459.125 355.585938 C 465.785156 354.613281 470.875 349.074219 478.585938 345.855469 C 489.136719 341.515625 506.726562 338.144531 517.203125 333.132812 C 525.136719 329.3125 534.640625 322.578125 536.8125 320.484375 C 537.335938 319.957031 537.5625 319.660156 537.636719 319.285156 C 537.710938 319.136719 537.5625 319.0625 537.488281 318.761719 C 537.335938 317.191406 537.410156 308.058594 538.160156 304.691406 C 538.535156 302.746094 540.105469 300.722656 539.882812 300.273438 C 539.730469 300.125 539.433594 300.347656 539.359375 300.199219 C 539.132812 299.75 540.855469 297.429688 541.527344 296.007812 C 542.128906 294.585938 542.574219 292.714844 543.25 291.59375 C 543.699219 290.84375 544.296875 290.46875 544.746094 289.796875 C 545.195312 289.121094 545.269531 288.449219 545.792969 287.699219 C 546.617188 286.652344 548.113281 285.605469 549.238281 284.484375 C 550.285156 283.285156 551.257812 281.636719 552.230469 280.816406 C 552.90625 280.214844 553.578125 280.066406 554.25 279.617188 C 554.851562 279.09375 555.148438 278.496094 555.898438 277.972656 C 556.945312 277.222656 558.816406 276.699219 560.164062 275.949219 C 561.585938 275.203125 563.007812 274.003906 564.207031 273.480469 C 565.027344 273.179688 565.777344 273.179688 566.527344 272.957031 C 567.199219 272.730469 567.722656 272.207031 568.621094 271.984375 C 569.820312 271.609375 571.765625 271.683594 573.261719 271.386719 C 574.832031 271.160156 576.628906 270.410156 577.902344 270.335938 C 578.800781 270.261719 579.472656 270.5625 580.222656 270.5625 C 581.046875 270.5625 581.644531 270.261719 582.542969 270.335938 C 583.890625 270.335938 585.613281 271.011719 587.183594 271.308594 C 588.753906 271.535156 590.625 271.386719 591.824219 271.757812 C 592.722656 271.984375 593.246094 272.507812 593.992188 272.730469 C 594.742188 272.957031 595.492188 272.882812 596.3125 273.179688 C 597.511719 273.703125 599.007812 274.902344 600.355469 275.574219 C 601.777344 276.324219 603.574219 276.847656 604.621094 277.523438 C 605.445312 278.046875 605.746094 278.644531 606.417969 279.167969 C 607.015625 279.617188 607.691406 279.765625 608.4375 280.367188 C 609.410156 281.191406 610.386719 282.761719 611.507812 283.882812 C 612.554688 285.007812 614.128906 286.128906 614.949219 287.101562 C 615.472656 287.851562 615.625 288.523438 616.074219 289.199219 C 616.523438 289.796875 617.121094 290.171875 617.570312 290.992188 C 618.242188 292.042969 618.691406 293.914062 619.367188 295.335938 C 620.039062 296.757812 621.238281 298.253906 621.613281 299.453125 C 621.910156 300.347656 621.835938 301.023438 621.984375 301.773438 C 622.210938 302.519531 622.734375 303.117188 622.882812 303.941406 C 623.183594 305.214844 623.035156 307.085938 623.183594 308.65625 C 623.40625 310.230469 624.007812 312.023438 624.007812 313.296875 C 624.007812 314.195312 623.707031 314.871094 623.632812 315.617188 C 623.632812 316.441406 623.855469 317.113281 623.78125 318.011719 C 623.707031 319.285156 622.882812 321.007812 622.585938 322.503906 C 622.285156 324.074219 622.285156 326.320312 621.835938 327.144531 C 621.6875 327.59375 621.386719 327.519531 621.164062 327.890625 C 620.714844 328.640625 620.789062 330.136719 620.1875 331.558594 C 618.992188 334.179688 613.152344 341.363281 613.453125 341.589844 C 613.679688 341.738281 616.671875 338.296875 616.894531 338.519531 C 617.71875 339.195312 603.273438 365.6875 598.035156 371.152344 C 595.640625 373.621094 594.070312 373.023438 591.523438 375.269531 C 586.136719 379.910156 577.753906 394.804688 570.042969 400.566406 C 563.832031 405.132812 551.035156 408.796875 550.433594 409.097656 C 550.359375 409.171875 550.359375 409.171875 550.359375 409.171875 C 550.359375 409.171875 550.285156 409.171875 550.136719 409.246094 C 548.9375 409.695312 531.273438 417.554688 531.125 417.554688 C 531.050781 417.628906 527.683594 417.855469 526.035156 418.003906 C 524.3125 418.078125 521.019531 418.378906 520.945312 418.378906 C 520.871094 418.378906 517.355469 417.78125 515.929688 417.554688 C 514.882812 417.40625 514.507812 417.179688 513.164062 417.105469 C 509.570312 416.808594 501.5625 416.507812 493.554688 417.179688 C 480.753906 418.304688 458.976562 426.535156 443.855469 425.640625 C 430.832031 424.890625 418.707031 420.773438 407.929688 415.011719 C 397.152344 409.246094 387.125 398.917969 379.117188 391.136719 C 372.457031 384.625 367.816406 377.4375 362.425781 371.976562 C 357.859375 367.410156 351.949219 363.96875 349.027344 360.300781 C 347.007812 357.753906 346.261719 355.507812 345.0625 352.964844 C 343.714844 350.34375 342.292969 347.5 341.46875 344.65625 C 340.648438 341.738281 339.972656 335.675781 339.972656 335.675781 M 585.011719 366.8125 C 606.34375 347.800781 602.902344 350.945312 601.253906 351.84375 C 599.90625 352.589844 598.785156 352.214844 597.285156 353.265625 C 594.070312 355.359375 585.011719 366.8125 585.011719 366.8125 M 621.835938 327.21875 C 621.835938 327.144531 621.835938 327.144531 621.835938 327.144531 C 621.835938 327.144531 621.835938 327.21875 621.835938 327.21875 " clip-rule="nonzero"/></clipPath><clipPath id="059dda109c"><path d="M 0.914062 0.15625 L 285.199219 0.15625 L 285.199219 156 L 0.914062 156 Z M 0.914062 0.15625 " clip-rule="nonzero"/></clipPath><clipPath id="a1ef81ea5c"><path d="M 0.972656 65.675781 C 2.320312 53.699219 3.292969 50.707031 4.566406 48.011719 C 5.835938 45.242188 7.558594 42.625 9.429688 40.304688 C 11.300781 37.984375 13.546875 35.8125 15.941406 34.015625 C 18.335938 32.21875 21.03125 30.648438 23.800781 29.453125 C 26.570312 28.253906 29.5625 27.429688 32.558594 26.90625 C 35.550781 26.457031 38.621094 26.308594 41.613281 26.53125 C 44.605469 26.757812 47.675781 27.429688 50.519531 28.328125 C 53.363281 29.300781 56.207031 30.648438 58.753906 32.21875 C 61.296875 33.867188 63.691406 35.8125 65.789062 37.984375 C 67.882812 40.152344 71.25 45.242188 71.25 45.242188 C 71.25 45.242188 73.347656 49.285156 75.59375 52.355469 C 80.382812 58.941406 91.683594 76.753906 100.441406 81.917969 C 106.800781 85.585938 113.6875 86.484375 120.125 85.585938 C 126.785156 84.613281 131.875 79.074219 139.585938 75.855469 C 150.136719 71.515625 167.726562 68.144531 178.203125 63.132812 C 186.136719 59.3125 195.640625 52.578125 197.8125 50.484375 C 198.335938 49.957031 198.5625 49.660156 198.636719 49.285156 C 198.710938 49.136719 198.5625 49.0625 198.488281 48.761719 C 198.335938 47.191406 198.410156 38.058594 199.160156 34.691406 C 199.535156 32.746094 201.105469 30.722656 200.882812 30.273438 C 200.730469 30.125 200.433594 30.347656 200.359375 30.199219 C 200.132812 29.75 201.855469 27.429688 202.527344 26.007812 C 203.128906 24.585938 203.574219 22.714844 204.25 21.59375 C 204.699219 20.84375 205.296875 20.46875 205.746094 19.796875 C 206.195312 19.121094 206.269531 18.449219 206.792969 17.699219 C 207.617188 16.652344 209.113281 15.605469 210.238281 14.484375 C 211.285156 13.285156 212.257812 11.636719 213.230469 10.816406 C 213.90625 10.214844 214.578125 10.066406 215.25 9.617188 C 215.851562 9.09375 216.148438 8.496094 216.898438 7.972656 C 217.945312 7.222656 219.816406 6.699219 221.164062 5.949219 C 222.585938 5.203125 224.007812 4.003906 225.207031 3.480469 C 226.027344 3.179688 226.777344 3.179688 227.527344 2.957031 C 228.199219 2.730469 228.722656 2.207031 229.621094 1.984375 C 230.820312 1.609375 232.765625 1.683594 234.261719 1.386719 C 235.832031 1.160156 237.628906 0.410156 238.902344 0.335938 C 239.800781 0.261719 240.472656 0.5625 241.222656 0.5625 C 242.046875 0.5625 242.644531 0.261719 243.542969 0.335938 C 244.890625 0.335938 246.613281 1.011719 248.183594 1.308594 C 249.753906 1.535156 251.625 1.386719 252.824219 1.757812 C 253.722656 1.984375 254.246094 2.507812 254.992188 2.730469 C 255.742188 2.957031 256.492188 2.882812 257.3125 3.179688 C 258.511719 3.703125 260.007812 4.902344 261.355469 5.574219 C 262.777344 6.324219 264.574219 6.847656 265.621094 7.523438 C 266.445312 8.046875 266.746094 8.644531 267.417969 9.167969 C 268.015625 9.617188 268.691406 9.765625 269.4375 10.367188 C 270.410156 11.191406 271.386719 12.761719 272.507812 13.882812 C 273.554688 15.007812 275.128906 16.128906 275.949219 17.101562 C 276.472656 17.851562 276.625 18.523438 277.074219 19.199219 C 277.523438 19.796875 278.121094 20.171875 278.570312 20.992188 C 279.242188 22.042969 279.691406 23.914062 280.367188 25.335938 C 281.039062 26.757812 282.238281 28.253906 282.613281 29.453125 C 282.910156 30.347656 282.835938 31.023438 282.984375 31.773438 C 283.210938 32.519531 283.734375 33.117188 283.882812 33.941406 C 284.183594 35.214844 284.035156 37.085938 284.183594 38.65625 C 284.40625 40.230469 285.007812 42.023438 285.007812 43.296875 C 285.007812 44.195312 284.707031 44.871094 284.632812 45.617188 C 284.632812 46.441406 284.855469 47.113281 284.78125 48.011719 C 284.707031 49.285156 283.882812 51.007812 283.585938 52.503906 C 283.285156 54.074219 283.285156 56.320312 282.835938 57.144531 C 282.6875 57.59375 282.386719 57.519531 282.164062 57.890625 C 281.714844 58.640625 281.789062 60.136719 281.1875 61.558594 C 279.992188 64.179688 274.152344 71.363281 274.453125 71.589844 C 274.679688 71.738281 277.671875 68.296875 277.894531 68.519531 C 278.71875 69.195312 264.273438 95.6875 259.035156 101.152344 C 256.640625 103.621094 255.070312 103.023438 252.523438 105.269531 C 247.136719 109.910156 238.753906 124.804688 231.042969 130.566406 C 224.832031 135.132812 212.035156 138.796875 211.433594 139.097656 C 211.359375 139.171875 211.359375 139.171875 211.359375 139.171875 C 211.359375 139.171875 211.285156 139.171875 211.136719 139.246094 C 209.9375 139.695312 192.273438 147.554688 192.125 147.554688 C 192.050781 147.628906 188.683594 147.855469 187.035156 148.003906 C 185.3125 148.078125 182.019531 148.378906 181.945312 148.378906 C 181.871094 148.378906 178.355469 147.78125 176.929688 147.554688 C 175.882812 147.40625 175.507812 147.179688 174.164062 147.105469 C 170.570312 146.808594 162.5625 146.507812 154.554688 147.179688 C 141.753906 148.304688 119.976562 156.535156 104.855469 155.640625 C 91.832031 154.890625 79.707031 150.773438 68.929688 145.011719 C 58.152344 139.246094 48.125 128.917969 40.117188 121.136719 C 33.457031 114.625 28.816406 107.4375 23.425781 101.976562 C 18.859375 97.410156 12.949219 93.96875 10.027344 90.300781 C 8.007812 87.753906 7.261719 85.507812 6.0625 82.964844 C 4.714844 80.34375 3.292969 77.5 2.46875 74.65625 C 1.648438 71.738281 0.972656 65.675781 0.972656 65.675781 M 246.011719 96.8125 C 267.34375 77.800781 263.902344 80.945312 262.253906 81.84375 C 260.90625 82.589844 259.785156 82.214844 258.285156 83.265625 C 255.070312 85.359375 246.011719 96.8125 246.011719 96.8125 M 282.835938 57.21875 C 282.835938 57.144531 282.835938 57.144531 282.835938 57.144531 C 282.835938 57.144531 282.835938 57.21875 282.835938 57.21875 " clip-rule="nonzero"/></clipPath><clipPath id="3907c0be30"><rect x="0" width="286" y="0" height="156"/></clipPath><clipPath id="10a2497476"><path d="M 450.792969 354.484375 L 524.375 354.484375 L 524.375 429.632812 L 450.792969 429.632812 Z M 450.792969 354.484375 " clip-rule="nonzero"/></clipPath><clipPath id="d8d41fed91"><path d="M 524.089844 380.957031 C 524.089844 404.53125 521.394531 410.59375 517.800781 415.160156 C 514.210938 419.726562 508.972656 423.84375 503.730469 426.238281 C 498.417969 428.632812 491.90625 429.828125 486.070312 429.457031 C 480.304688 429.082031 473.945312 427.136719 469.003906 424.140625 C 463.988281 421.148438 459.347656 416.433594 456.28125 411.417969 C 453.285156 406.480469 451.339844 400.117188 450.964844 394.355469 C 450.667969 388.589844 451.863281 382.003906 454.183594 376.765625 C 456.582031 371.453125 460.695312 366.210938 465.261719 362.621094 C 469.828125 359.027344 475.890625 356.332031 481.578125 355.285156 C 487.339844 354.238281 493.925781 354.613281 499.464844 356.332031 C 505.003906 358.128906 514.808594 365.613281 514.808594 365.613281 " clip-rule="nonzero"/></clipPath><clipPath id="dec37b0824"><path d="M 0.792969 0.484375 L 74.089844 0.484375 L 74.089844 75.632812 L 0.792969 75.632812 Z M 0.792969 0.484375 " clip-rule="nonzero"/></clipPath><clipPath id="f9d5440776"><path d="M 74.089844 26.957031 C 74.089844 50.53125 71.394531 56.59375 67.800781 61.160156 C 64.210938 65.726562 58.972656 69.84375 53.730469 72.238281 C 48.417969 74.632812 41.90625 75.828125 36.070312 75.457031 C 30.304688 75.082031 23.945312 73.136719 19.003906 70.140625 C 13.988281 67.148438 9.347656 62.433594 6.28125 57.417969 C 3.285156 52.480469 1.339844 46.117188 0.964844 40.355469 C 0.667969 34.589844 1.863281 28.003906 4.183594 22.765625 C 6.582031 17.453125 10.695312 12.210938 15.261719 8.621094 C 19.828125 5.027344 25.890625 2.332031 31.578125 1.285156 C 37.339844 0.238281 43.925781 0.613281 49.464844 2.332031 C 55.003906 4.128906 64.808594 11.613281 64.808594 11.613281 " clip-rule="nonzero"/></clipPath><clipPath id="9be2a1dace"><rect x="0" width="75" y="0" height="76"/></clipPath><clipPath id="eef0e5bcff"><path d="M 620.835938 245.734375 L 694.105469 245.734375 L 694.105469 320.882812 L 620.835938 320.882812 Z M 620.835938 245.734375 " clip-rule="nonzero"/></clipPath><clipPath id="ee7ba5bca5"><path d="M 694.0625 272.207031 C 694.136719 295.785156 691.367188 301.847656 687.847656 306.410156 C 684.257812 310.976562 679.015625 315.09375 673.703125 317.488281 C 668.464844 319.882812 661.878906 321.082031 656.113281 320.707031 C 650.351562 320.332031 643.988281 318.386719 638.976562 315.394531 C 634.035156 312.398438 629.320312 307.683594 626.328125 302.746094 C 623.332031 297.730469 621.386719 291.367188 621.011719 285.605469 C 620.636719 279.84375 621.835938 273.257812 624.230469 268.015625 C 626.625 262.703125 630.742188 257.464844 635.308594 253.871094 C 639.875 250.355469 645.9375 247.585938 651.625 246.535156 C 657.3125 245.488281 663.972656 245.9375 669.511719 247.660156 C 675.050781 249.378906 684.855469 256.941406 684.855469 256.941406 " clip-rule="nonzero"/></clipPath><clipPath id="4824da53cb"><path d="M 0.835938 0.734375 L 74.105469 0.734375 L 74.105469 75.882812 L 0.835938 75.882812 Z M 0.835938 0.734375 " clip-rule="nonzero"/></clipPath><clipPath id="e43da120ec"><path d="M 74.0625 27.207031 C 74.136719 50.785156 71.367188 56.847656 67.847656 61.410156 C 64.257812 65.976562 59.015625 70.09375 53.703125 72.488281 C 48.464844 74.882812 41.878906 76.082031 36.113281 75.707031 C 30.351562 75.332031 23.988281 73.386719 18.976562 70.394531 C 14.035156 67.398438 9.320312 62.683594 6.328125 57.746094 C 3.332031 52.730469 1.386719 46.367188 1.011719 40.605469 C 0.636719 34.84375 1.835938 28.257812 4.230469 23.015625 C 6.625 17.703125 10.742188 12.464844 15.308594 8.871094 C 19.875 5.355469 25.9375 2.585938 31.625 1.535156 C 37.3125 0.488281 43.972656 0.9375 49.511719 2.660156 C 55.050781 4.378906 64.855469 11.941406 64.855469 11.941406 " clip-rule="nonzero"/></clipPath><clipPath id="da874b1b36"><rect x="0" width="75" y="0" height="76"/></clipPath><clipPath id="ca42b628b6"><path d="M 593.816406 251.046875 L 667.085938 251.046875 L 667.085938 326.195312 L 593.816406 326.195312 Z M 593.816406 251.046875 " clip-rule="nonzero"/></clipPath><clipPath id="5fa226e3d8"><path d="M 667.042969 277.523438 C 667.117188 301.097656 664.347656 307.160156 660.828125 311.726562 C 657.238281 316.292969 652 320.40625 646.683594 322.726562 C 641.445312 325.121094 634.859375 326.320312 629.097656 326.019531 C 623.332031 325.648438 616.972656 323.625 611.957031 320.632812 C 607.015625 317.636719 602.300781 312.921875 599.308594 307.984375 C 596.3125 303.042969 594.367188 296.683594 593.992188 290.917969 C 593.621094 285.082031 594.816406 278.570312 597.210938 273.257812 C 599.605469 268.015625 603.722656 262.777344 608.289062 259.183594 C 612.855469 255.59375 618.917969 252.898438 624.605469 251.851562 C 630.292969 250.804688 636.953125 251.175781 642.492188 252.898438 C 648.03125 254.621094 657.835938 262.179688 657.835938 262.179688 " clip-rule="nonzero"/></clipPath><clipPath id="81e5601424"><path d="M 0.816406 0.046875 L 74.085938 0.046875 L 74.085938 75.195312 L 0.816406 75.195312 Z M 0.816406 0.046875 " clip-rule="nonzero"/></clipPath><clipPath id="23974b42dd"><path d="M 74.042969 26.523438 C 74.117188 50.097656 71.347656 56.160156 67.828125 60.726562 C 64.238281 65.292969 59 69.40625 53.683594 71.726562 C 48.445312 74.121094 41.859375 75.320312 36.097656 75.019531 C 30.332031 74.648438 23.972656 72.625 18.957031 69.632812 C 14.015625 66.636719 9.300781 61.921875 6.308594 56.984375 C 3.3125 52.042969 1.367188 45.683594 0.992188 39.917969 C 0.621094 34.082031 1.816406 27.570312 4.210938 22.257812 C 6.605469 17.015625 10.722656 11.777344 15.289062 8.183594 C 19.855469 4.59375 25.917969 1.898438 31.605469 0.851562 C 37.292969 -0.195312 43.953125 0.175781 49.492188 1.898438 C 55.03125 3.621094 64.835938 11.179688 64.835938 11.179688 " clip-rule="nonzero"/></clipPath><clipPath id="1e27c771a9"><rect x="0" width="75" y="0" height="76"/></clipPath><clipPath id="8192958529"><path d="M 516 73.191406 L 703.277344 73.191406 L 703.277344 270 L 516 270 Z M 516 73.191406 " clip-rule="nonzero"/></clipPath><clipPath id="1a66997cc6"><path d="M 516.007812 136.742188 C 516.679688 130.527344 516.304688 128.207031 516.679688 127.382812 C 516.828125 126.9375 517.128906 127.011719 517.277344 126.636719 C 517.578125 125.886719 517.277344 124.390625 517.726562 122.746094 C 518.625 119.675781 521.171875 113.839844 523.863281 110.097656 C 526.558594 106.277344 530.003906 102.6875 533.746094 99.992188 C 537.335938 97.296875 541.902344 96.25 545.871094 93.78125 C 549.910156 91.308594 555.523438 87.117188 557.769531 85.171875 C 558.742188 84.273438 559.042969 83.375 559.640625 83.003906 C 560.089844 82.777344 560.390625 83.003906 560.914062 82.851562 C 561.734375 82.476562 564.054688 80.382812 564.132812 80.457031 C 564.132812 80.53125 561.734375 82.402344 561.886719 82.703125 C 562.035156 82.925781 564.054688 82.105469 564.132812 82.328125 C 564.28125 82.703125 559.941406 84.949219 558.21875 86.296875 C 556.796875 87.492188 554.402344 89.886719 554.476562 90.039062 C 554.625 90.1875 559.414062 84.425781 564.429688 82.253906 C 574.757812 77.761719 601.328125 72.597656 617.195312 73.945312 C 630.816406 75.070312 644.289062 80.757812 654.316406 86.445312 C 662.550781 91.085938 668.089844 98.945312 674.375 103.507812 C 679.242188 107.027344 685.230469 108.226562 688.296875 111.96875 C 690.992188 115.261719 691.441406 122.070312 692.714844 124.015625 C 693.164062 124.691406 693.910156 125.214844 693.984375 125.289062 C 693.984375 125.363281 695.707031 128.132812 696.53125 129.628906 C 697.429688 131.050781 699.074219 133.894531 699.148438 133.972656 C 699.148438 133.972656 700.121094 137.1875 700.570312 138.761719 C 701.097656 140.40625 702.070312 143.550781 702.070312 143.550781 C 702.070312 143.550781 702.070312 143.550781 702.070312 143.625 C 702.070312 143.625 702.21875 146.917969 702.367188 148.640625 C 702.441406 150.285156 702.59375 153.582031 702.59375 153.65625 C 702.59375 153.730469 701.992188 156.949219 701.695312 158.59375 C 701.320312 160.242188 700.722656 163.460938 700.722656 163.535156 C 700.722656 163.609375 699.226562 166.902344 698.625 168.175781 C 698.175781 169.074219 697.578125 169.371094 697.578125 170.496094 C 697.503906 173.1875 703.339844 178.800781 703.191406 184.492188 C 703.042969 193.398438 694.808594 207.617188 687.625 218.542969 C 679.539062 230.746094 663.375 246.460938 655.964844 253.570312 C 652.371094 256.941406 650.277344 258.4375 647.507812 260.53125 C 644.960938 262.476562 642.566406 264.273438 639.949219 265.621094 C 637.253906 266.96875 634.261719 268.089844 631.339844 268.765625 C 628.421875 269.4375 625.277344 269.8125 622.285156 269.738281 C 619.292969 269.738281 616.222656 269.289062 613.304688 268.539062 C 610.386719 267.792969 607.464844 266.59375 604.773438 265.171875 C 602.152344 263.75 599.605469 261.953125 597.363281 259.933594 C 595.117188 257.914062 593.097656 255.519531 591.449219 253.046875 C 589.726562 250.503906 588.304688 247.734375 587.257812 244.890625 C 586.285156 242.046875 585.535156 239.050781 585.238281 236.058594 C 584.863281 233.066406 584.9375 229.921875 585.3125 226.925781 C 585.761719 223.933594 586.507812 220.941406 587.632812 218.097656 C 588.753906 215.328125 590.25 212.558594 591.972656 210.085938 C 593.695312 207.617188 598.109375 203.351562 598.109375 203.351562 C 598.109375 203.351562 602.527344 198.785156 606.269531 195.941406 C 612.929688 190.925781 633.289062 179.550781 635.832031 177.53125 C 636.207031 177.230469 636.429688 177.230469 636.503906 176.855469 C 636.582031 175.882812 634.785156 172.664062 632.988281 170.792969 C 630.59375 168.398438 623.929688 165.179688 622.507812 164.359375 C 622.136719 164.132812 622.136719 164.132812 621.835938 163.984375 C 621.011719 163.460938 617.570312 161.515625 617.496094 161.515625 C 617.421875 161.4375 614.875 159.042969 613.902344 158.070312 C 613.152344 157.398438 612.105469 156.347656 612.105469 156.425781 C 612.03125 156.425781 612.929688 157.097656 612.78125 157.398438 C 612.257812 158.746094 597.210938 158.667969 594.21875 160.617188 C 592.945312 161.515625 592.945312 163.011719 592.273438 163.832031 C 591.671875 164.507812 591 164.808594 590.402344 165.332031 C 589.878906 165.929688 589.652344 166.601562 588.980469 167.203125 C 588.007812 168.101562 586.285156 168.847656 585.011719 169.746094 C 583.742188 170.71875 582.46875 172.140625 581.34375 172.816406 C 580.597656 173.265625 579.847656 173.265625 579.175781 173.636719 C 578.425781 173.9375 577.976562 174.535156 577.152344 174.910156 C 575.957031 175.433594 574.085938 175.660156 572.589844 176.109375 C 571.089844 176.558594 569.445312 177.53125 568.171875 177.753906 C 567.273438 177.980469 566.601562 177.753906 565.851562 177.90625 C 565.027344 177.980469 564.429688 178.355469 563.53125 178.429688 C 562.261719 178.578125 560.390625 178.128906 558.816406 178.128906 C 557.246094 178.128906 555.375 178.503906 554.101562 178.277344 C 553.203125 178.203125 552.605469 177.753906 551.855469 177.605469 C 551.035156 177.53125 550.359375 177.679688 549.460938 177.457031 C 548.1875 177.15625 546.617188 176.183594 545.121094 175.660156 C 543.625 175.136719 541.753906 174.910156 540.554688 174.3125 C 539.730469 173.9375 539.359375 173.339844 538.609375 172.964844 C 537.9375 172.589844 537.261719 172.515625 536.4375 172.066406 C 535.390625 171.394531 534.117188 169.894531 532.921875 168.921875 C 531.648438 167.949219 530.003906 167.128906 529.027344 166.230469 C 528.429688 165.554688 528.207031 164.882812 527.605469 164.28125 C 527.082031 163.757812 526.410156 163.460938 525.886719 162.785156 C 525.0625 161.738281 524.390625 160.015625 523.492188 158.667969 C 522.667969 157.324219 521.320312 155.976562 520.722656 154.851562 C 520.273438 154.027344 520.273438 153.355469 519.972656 152.605469 C 519.671875 151.859375 519.148438 151.410156 518.777344 150.585938 C 518.328125 149.390625 518.25 147.441406 517.878906 145.945312 C 517.429688 144.375 516.605469 142.726562 516.457031 141.457031 C 516.304688 140.558594 516.53125 139.808594 516.457031 139.058594 C 516.378906 138.3125 516.007812 136.742188 516.007812 136.742188 M 547.742188 93.40625 C 551.855469 92.28125 554.328125 89.214844 554.175781 89.066406 C 553.953125 88.839844 547.742188 93.40625 547.742188 93.40625 M 575.65625 165.554688 C 575.730469 165.480469 578.128906 163.460938 578.128906 163.386719 C 578.128906 163.386719 578.128906 163.386719 578.050781 163.386719 C 577.902344 163.460938 575.65625 165.554688 575.65625 165.554688 M 600.355469 149.089844 C 601.925781 148.042969 602.078125 148.042969 602.226562 147.816406 C 602.601562 147.070312 602.601562 142.878906 602.375 142.800781 C 602.152344 142.800781 601.179688 146.097656 600.804688 147.292969 C 600.582031 148.042969 600.355469 149.089844 600.355469 149.089844 M 602.078125 141.980469 C 602.152344 141.90625 602.152344 141.90625 602.078125 141.90625 C 602.078125 141.980469 602.078125 141.980469 602.078125 141.980469 M 602.078125 141.90625 C 602.226562 141.90625 603.050781 141.230469 603.050781 141.082031 C 603.125 141.007812 603.050781 140.855469 602.976562 140.855469 C 602.902344 140.855469 602.226562 141.457031 602.152344 141.679688 C 602.078125 141.753906 602.078125 141.90625 602.078125 141.90625 M 602.152344 141.90625 C 604.773438 145.496094 603.5 142.355469 603.273438 141.679688 C 603.199219 141.378906 603.199219 141.15625 603.050781 141.082031 C 602.902344 141.007812 602.152344 141.90625 602.152344 141.90625 M 602.300781 141.082031 C 602.976562 140.332031 602.675781 139.660156 602.601562 139.660156 C 602.453125 139.660156 602.300781 141.082031 602.300781 141.082031 M 516.679688 127.382812 C 516.679688 127.308594 516.679688 127.308594 516.679688 127.382812 M 564.132812 82.328125 C 565.777344 81.28125 564.730469 82.179688 564.429688 82.253906 C 564.28125 82.328125 564.132812 82.328125 564.132812 82.328125 " clip-rule="nonzero"/></clipPath><clipPath id="699c9dcdcb"><path d="M 0 0.191406 L 187.277344 0.191406 L 187.277344 196.917969 L 0 196.917969 Z M 0 0.191406 " clip-rule="nonzero"/></clipPath><clipPath id="ab7554ec8f"><path d="M 0.0078125 63.742188 C 0.679688 57.527344 0.304688 55.207031 0.679688 54.382812 C 0.828125 53.9375 1.128906 54.011719 1.277344 53.636719 C 1.578125 52.886719 1.277344 51.390625 1.726562 49.746094 C 2.625 46.675781 5.171875 40.839844 7.863281 37.097656 C 10.558594 33.277344 14.003906 29.6875 17.746094 26.992188 C 21.335938 24.296875 25.902344 23.25 29.871094 20.78125 C 33.910156 18.308594 39.523438 14.117188 41.769531 12.171875 C 42.742188 11.273438 43.042969 10.375 43.640625 10.003906 C 44.089844 9.777344 44.390625 10.003906 44.914062 9.851562 C 45.734375 9.476562 48.054688 7.382812 48.132812 7.457031 C 48.132812 7.53125 45.734375 9.402344 45.886719 9.703125 C 46.035156 9.925781 48.054688 9.105469 48.132812 9.328125 C 48.28125 9.703125 43.941406 11.949219 42.21875 13.296875 C 40.796875 14.492188 38.402344 16.886719 38.476562 17.039062 C 38.625 17.1875 43.414062 11.425781 48.429688 9.253906 C 58.757812 4.761719 85.328125 -0.402344 101.195312 0.945312 C 114.816406 2.070312 128.289062 7.757812 138.316406 13.445312 C 146.550781 18.085938 152.089844 25.945312 158.375 30.507812 C 163.242188 34.027344 169.230469 35.226562 172.296875 38.96875 C 174.992188 42.261719 175.441406 49.070312 176.714844 51.015625 C 177.164062 51.691406 177.910156 52.214844 177.984375 52.289062 C 177.984375 52.363281 179.707031 55.132812 180.53125 56.628906 C 181.429688 58.050781 183.074219 60.894531 183.148438 60.972656 C 183.148438 60.972656 184.121094 64.1875 184.570312 65.761719 C 185.097656 67.40625 186.070312 70.550781 186.070312 70.550781 C 186.070312 70.550781 186.070312 70.550781 186.070312 70.625 C 186.070312 70.625 186.21875 73.917969 186.367188 75.640625 C 186.441406 77.285156 186.59375 80.582031 186.59375 80.65625 C 186.59375 80.730469 185.992188 83.949219 185.695312 85.59375 C 185.320312 87.242188 184.722656 90.460938 184.722656 90.535156 C 184.722656 90.609375 183.226562 93.902344 182.625 95.175781 C 182.175781 96.074219 181.578125 96.371094 181.578125 97.496094 C 181.503906 100.1875 187.339844 105.800781 187.191406 111.492188 C 187.042969 120.398438 178.808594 134.617188 171.625 145.542969 C 163.539062 157.746094 147.375 173.460938 139.964844 180.570312 C 136.371094 183.941406 134.277344 185.4375 131.507812 187.53125 C 128.960938 189.476562 126.566406 191.273438 123.949219 192.621094 C 121.253906 193.96875 118.261719 195.089844 115.339844 195.765625 C 112.421875 196.4375 109.277344 196.8125 106.285156 196.738281 C 103.292969 196.738281 100.222656 196.289062 97.304688 195.539062 C 94.386719 194.792969 91.464844 193.59375 88.773438 192.171875 C 86.152344 190.75 83.605469 188.953125 81.363281 186.933594 C 79.117188 184.914062 77.097656 182.519531 75.449219 180.046875 C 73.726562 177.503906 72.304688 174.734375 71.257812 171.890625 C 70.285156 169.046875 69.535156 166.050781 69.238281 163.058594 C 68.863281 160.066406 68.9375 156.921875 69.3125 153.925781 C 69.761719 150.933594 70.507812 147.941406 71.632812 145.097656 C 72.753906 142.328125 74.25 139.558594 75.972656 137.085938 C 77.695312 134.617188 82.109375 130.351562 82.109375 130.351562 C 82.109375 130.351562 86.527344 125.785156 90.269531 122.941406 C 96.929688 117.925781 117.289062 106.550781 119.832031 104.53125 C 120.207031 104.230469 120.429688 104.230469 120.503906 103.855469 C 120.582031 102.882812 118.785156 99.664062 116.988281 97.792969 C 114.59375 95.398438 107.929688 92.179688 106.507812 91.359375 C 106.136719 91.132812 106.136719 91.132812 105.835938 90.984375 C 105.011719 90.460938 101.570312 88.515625 101.496094 88.515625 C 101.421875 88.4375 98.875 86.042969 97.902344 85.070312 C 97.152344 84.398438 96.105469 83.347656 96.105469 83.425781 C 96.03125 83.425781 96.929688 84.097656 96.78125 84.398438 C 96.257812 85.746094 81.210938 85.667969 78.21875 87.617188 C 76.945312 88.515625 76.945312 90.011719 76.273438 90.832031 C 75.671875 91.507812 75 91.808594 74.402344 92.332031 C 73.878906 92.929688 73.652344 93.601562 72.980469 94.203125 C 72.007812 95.101562 70.285156 95.847656 69.011719 96.746094 C 67.742188 97.71875 66.46875 99.140625 65.34375 99.816406 C 64.597656 100.265625 63.847656 100.265625 63.175781 100.636719 C 62.425781 100.9375 61.976562 101.535156 61.152344 101.910156 C 59.957031 102.433594 58.085938 102.660156 56.589844 103.109375 C 55.089844 103.558594 53.445312 104.53125 52.171875 104.753906 C 51.273438 104.980469 50.601562 104.753906 49.851562 104.90625 C 49.027344 104.980469 48.429688 105.355469 47.53125 105.429688 C 46.261719 105.578125 44.390625 105.128906 42.816406 105.128906 C 41.246094 105.128906 39.375 105.503906 38.101562 105.277344 C 37.203125 105.203125 36.605469 104.753906 35.855469 104.605469 C 35.035156 104.53125 34.359375 104.679688 33.460938 104.457031 C 32.1875 104.15625 30.617188 103.183594 29.121094 102.660156 C 27.625 102.136719 25.753906 101.910156 24.554688 101.3125 C 23.730469 100.9375 23.359375 100.339844 22.609375 99.964844 C 21.9375 99.589844 21.261719 99.515625 20.4375 99.066406 C 19.390625 98.394531 18.117188 96.894531 16.921875 95.921875 C 15.648438 94.949219 14.003906 94.128906 13.027344 93.230469 C 12.429688 92.554688 12.207031 91.882812 11.605469 91.28125 C 11.082031 90.757812 10.410156 90.460938 9.886719 89.785156 C 9.0625 88.738281 8.390625 87.015625 7.492188 85.667969 C 6.667969 84.324219 5.320312 82.976562 4.722656 81.851562 C 4.273438 81.027344 4.273438 80.355469 3.972656 79.605469 C 3.671875 78.859375 3.148438 78.410156 2.777344 77.585938 C 2.328125 76.390625 2.25 74.441406 1.878906 72.945312 C 1.429688 71.375 0.605469 69.726562 0.457031 68.457031 C 0.304688 67.558594 0.53125 66.808594 0.457031 66.058594 C 0.378906 65.3125 0.0078125 63.742188 0.0078125 63.742188 M 31.742188 20.40625 C 35.855469 19.28125 38.328125 16.214844 38.175781 16.066406 C 37.953125 15.839844 31.742188 20.40625 31.742188 20.40625 M 59.65625 92.554688 C 59.730469 92.480469 62.128906 90.460938 62.128906 90.386719 C 62.128906 90.386719 62.128906 90.386719 62.050781 90.386719 C 61.902344 90.460938 59.65625 92.554688 59.65625 92.554688 M 84.355469 76.089844 C 85.925781 75.042969 86.078125 75.042969 86.226562 74.816406 C 86.601562 74.070312 86.601562 69.878906 86.375 69.800781 C 86.152344 69.800781 85.179688 73.097656 84.804688 74.292969 C 84.582031 75.042969 84.355469 76.089844 84.355469 76.089844 M 86.078125 68.980469 C 86.152344 68.90625 86.152344 68.90625 86.078125 68.90625 C 86.078125 68.980469 86.078125 68.980469 86.078125 68.980469 M 86.078125 68.90625 C 86.226562 68.90625 87.050781 68.230469 87.050781 68.082031 C 87.125 68.007812 87.050781 67.855469 86.976562 67.855469 C 86.902344 67.855469 86.226562 68.457031 86.152344 68.679688 C 86.078125 68.753906 86.078125 68.90625 86.078125 68.90625 M 86.152344 68.90625 C 88.773438 72.496094 87.5 69.355469 87.273438 68.679688 C 87.199219 68.378906 87.199219 68.15625 87.050781 68.082031 C 86.902344 68.007812 86.152344 68.90625 86.152344 68.90625 M 86.300781 68.082031 C 86.976562 67.332031 86.675781 66.660156 86.601562 66.660156 C 86.453125 66.660156 86.300781 68.082031 86.300781 68.082031 M 0.679688 54.382812 C 0.679688 54.308594 0.679688 54.308594 0.679688 54.382812 M 48.132812 9.328125 C 49.777344 8.28125 48.730469 9.179688 48.429688 9.253906 C 48.28125 9.328125 48.132812 9.328125 48.132812 9.328125 " clip-rule="nonzero"/></clipPath><clipPath id="492da17c0c"><rect x="0" width="188" y="0" height="197"/></clipPath><clipPath id="0c0be0f983"><path d="M 572.710938 127.105469 L 646.292969 127.105469 L 646.292969 202.253906 L 572.710938 202.253906 Z M 572.710938 127.105469 " clip-rule="nonzero"/></clipPath><clipPath id="265b337582"><path d="M 646.011719 153.582031 C 646.011719 177.230469 643.316406 183.292969 639.722656 187.859375 C 636.132812 192.425781 630.890625 196.464844 625.578125 198.859375 C 620.339844 201.257812 613.753906 202.453125 607.988281 202.078125 C 602.226562 201.78125 595.863281 199.757812 590.925781 196.765625 C 585.910156 193.773438 581.195312 189.054688 578.203125 184.117188 C 575.207031 179.175781 573.261719 172.816406 572.886719 166.976562 C 572.589844 161.214844 573.785156 154.703125 576.105469 149.390625 C 578.5 144.074219 582.617188 138.835938 587.183594 135.316406 C 591.75 131.726562 597.8125 128.957031 603.5 127.910156 C 609.1875 126.859375 615.847656 127.308594 621.386719 129.03125 C 626.925781 130.753906 636.730469 138.3125 636.730469 138.3125 " clip-rule="nonzero"/></clipPath><clipPath id="85d6e0b086"><path d="M 0.710938 0.105469 L 74.234375 0.105469 L 74.234375 75.253906 L 0.710938 75.253906 Z M 0.710938 0.105469 " clip-rule="nonzero"/></clipPath><clipPath id="5235de8dff"><path d="M 74.011719 26.582031 C 74.011719 50.230469 71.316406 56.292969 67.722656 60.859375 C 64.132812 65.425781 58.890625 69.464844 53.578125 71.859375 C 48.339844 74.257812 41.753906 75.453125 35.988281 75.078125 C 30.226562 74.78125 23.863281 72.757812 18.925781 69.765625 C 13.910156 66.773438 9.195312 62.054688 6.203125 57.117188 C 3.207031 52.175781 1.261719 45.816406 0.886719 39.976562 C 0.589844 34.214844 1.785156 27.703125 4.105469 22.390625 C 6.5 17.074219 10.617188 11.835938 15.183594 8.316406 C 19.75 4.726562 25.8125 1.957031 31.5 0.910156 C 37.1875 -0.140625 43.847656 0.308594 49.386719 2.03125 C 54.925781 3.753906 64.730469 11.3125 64.730469 11.3125 " clip-rule="nonzero"/></clipPath><clipPath id="66897394ae"><rect x="0" width="75" y="0" height="76"/></clipPath><clipPath id="47c2002226"><path d="M 178.710938 22 L 526 22 L 526 206.167969 L 178.710938 206.167969 Z M 178.710938 22 " clip-rule="nonzero"/></clipPath><clipPath id="480b89ca08"><path d="M 463.167969 154.476562 C 454.410156 145.796875 434.351562 116.15625 435.023438 115.632812 C 435.625 115.183594 459.722656 144.074219 459.722656 144.074219 C 459.722656 144 433.230469 113.839844 433.453125 113.613281 C 433.753906 113.3125 466.160156 143.25 464.4375 145.871094 C 462.792969 148.339844 438.617188 139.882812 428.363281 132.25 C 417.363281 124.015625 400.820312 97.445312 401.644531 96.773438 C 402.394531 96.101562 432.554688 127.085938 432.253906 127.382812 C 431.957031 127.683594 401.71875 99.84375 401.496094 100.140625 C 401.195312 100.441406 432.40625 131.5 432.78125 131.125 C 433.152344 130.828125 406.882812 101.488281 406.957031 101.414062 C 407.035156 101.414062 433.003906 130.078125 432.703125 130.378906 C 432.40625 130.679688 413.320312 104.480469 401.046875 98.867188 C 389.519531 93.554688 375.148438 95.574219 362.050781 95.726562 C 348.878906 95.949219 335.035156 96.996094 322.234375 100.066406 C 309.511719 103.058594 297.085938 107.476562 285.488281 113.6875 C 273.4375 120.199219 252.03125 139.210938 251.582031 138.6875 C 251.132812 138.164062 277.925781 110.84375 280.320312 112.566406 C 282.867188 114.363281 265.578125 142.429688 264.679688 151.484375 C 264.304688 156.050781 266.773438 158.371094 266.773438 162.1875 C 266.851562 166.601562 265.953125 171.84375 264.457031 176.257812 C 262.957031 180.671875 260.636719 185.089844 257.792969 188.832031 C 254.949219 192.574219 251.28125 196.015625 247.390625 198.636719 C 243.5 201.257812 239.007812 203.351562 234.441406 204.550781 C 229.953125 205.820312 224.9375 206.34375 220.296875 206.046875 C 215.582031 205.820312 210.71875 204.699219 206.375 202.976562 C 202.035156 201.257812 197.769531 198.636719 194.175781 195.566406 C 190.660156 192.574219 187.367188 188.757812 184.96875 184.714844 C 182.574219 180.671875 180.78125 176.035156 179.730469 171.46875 C 178.757812 166.902344 178.460938 161.886719 178.984375 157.246094 C 179.507812 152.605469 180.855469 147.742188 182.875 143.550781 C 184.820312 139.285156 187.664062 135.167969 190.882812 131.726562 C 194.101562 128.359375 198.070312 125.363281 202.257812 123.195312 C 206.375 120.949219 211.089844 119.375 215.730469 118.628906 C 220.371094 117.878906 225.386719 117.878906 230.027344 118.703125 C 234.59375 119.453125 239.382812 121.023438 243.5 123.269531 C 247.617188 125.4375 251.582031 128.507812 254.800781 131.875 C 258.019531 135.316406 260.789062 139.433594 262.808594 143.699219 C 264.753906 147.96875 266.027344 152.832031 266.550781 157.472656 C 267.074219 162.113281 266.773438 167.128906 265.726562 171.691406 C 264.753906 176.257812 262.882812 180.898438 260.414062 184.941406 C 258.019531 188.90625 254.800781 192.722656 251.207031 195.71875 C 247.617188 198.785156 243.347656 201.332031 239.007812 203.050781 C 234.59375 204.773438 229.726562 205.820312 225.011719 206.046875 C 220.371094 206.34375 215.433594 205.746094 210.867188 204.472656 C 206.375 203.277344 201.8125 201.105469 197.992188 198.488281 C 194.101562 195.867188 190.507812 192.425781 187.664062 188.683594 C 184.820312 184.941406 182.5 180.523438 181.003906 176.035156 C 179.507812 171.617188 178.757812 167.351562 178.757812 162.039062 C 178.683594 154.851562 179.132812 145.570312 182.351562 136.816406 C 186.542969 125.511719 205.402344 101.1875 205.253906 101.113281 C 205.105469 101.039062 184.074219 134.046875 183.25 133.523438 C 182.425781 133.074219 193.878906 107.101562 202.035156 95.425781 C 210.492188 83.375 233.917969 63.167969 233.621094 62.792969 C 233.246094 62.421875 205.105469 89.363281 204.578125 88.839844 C 204.054688 88.316406 224.789062 62.867188 236.164062 53.589844 C 246.34375 45.207031 256.972656 39.292969 268.871094 34.351562 C 281.519531 29.113281 296.5625 25.148438 310.109375 23.652344 C 322.832031 22.304688 335.855469 20.433594 347.605469 25.074219 C 361.230469 30.460938 384.953125 58.230469 385.402344 57.78125 C 385.851562 57.332031 353.445312 30.609375 355.390625 27.242188 C 357.1875 23.949219 380.238281 32.480469 392.886719 35.851562 C 405.984375 39.292969 419.832031 42.210938 432.554688 47.675781 C 445.351562 53.214844 458.003906 60.175781 469.453125 69.007812 C 481.429688 78.210938 502.308594 102.6875 502.382812 102.535156 C 502.535156 102.460938 470.203125 71.027344 471.324219 69.753906 C 472.445312 68.40625 501.488281 88.015625 509.792969 95.050781 C 514.433594 98.945312 517.054688 102.011719 519.449219 105.378906 C 521.394531 108.148438 522.59375 110.621094 523.640625 113.464844 C 524.6875 116.308594 525.363281 119.300781 525.734375 122.296875 C 526.035156 125.289062 526.035156 128.359375 525.660156 131.351562 C 525.285156 134.34375 524.464844 137.339844 523.414062 140.109375 C 522.292969 142.953125 520.871094 145.648438 519.148438 148.117188 C 517.429688 150.585938 515.332031 152.90625 513.085938 154.851562 C 510.765625 156.875 508.222656 158.59375 505.527344 159.941406 C 502.910156 161.363281 499.988281 162.410156 497.070312 163.085938 C 494.152344 163.832031 491.082031 164.132812 488.015625 164.132812 C 485.019531 164.132812 481.953125 163.683594 479.035156 162.9375 C 476.113281 162.261719 473.269531 161.066406 470.574219 159.71875 C 467.957031 158.296875 463.167969 154.476562 463.167969 154.476562 " clip-rule="nonzero"/></clipPath><clipPath id="4a7e2006d2"><path d="M 0.710938 0 L 348 0 L 348 184.167969 L 0.710938 184.167969 Z M 0.710938 0 " clip-rule="nonzero"/></clipPath><clipPath id="b7ff1314d3"><path d="M 285.167969 132.476562 C 276.410156 123.796875 256.351562 94.15625 257.023438 93.632812 C 257.625 93.183594 281.722656 122.074219 281.722656 122.074219 C 281.722656 122 255.230469 91.839844 255.453125 91.613281 C 255.753906 91.3125 288.160156 121.25 286.4375 123.871094 C 284.792969 126.339844 260.617188 117.882812 250.363281 110.25 C 239.363281 102.015625 222.820312 75.445312 223.644531 74.773438 C 224.394531 74.101562 254.554688 105.085938 254.253906 105.382812 C 253.957031 105.683594 223.71875 77.84375 223.496094 78.140625 C 223.195312 78.441406 254.40625 109.5 254.78125 109.125 C 255.152344 108.828125 228.882812 79.488281 228.957031 79.414062 C 229.035156 79.414062 255.003906 108.078125 254.703125 108.378906 C 254.40625 108.679688 235.320312 82.480469 223.046875 76.867188 C 211.519531 71.554688 197.148438 73.574219 184.050781 73.726562 C 170.878906 73.949219 157.035156 74.996094 144.234375 78.066406 C 131.511719 81.058594 119.085938 85.476562 107.488281 91.6875 C 95.4375 98.199219 74.03125 117.210938 73.582031 116.6875 C 73.132812 116.164062 99.925781 88.84375 102.320312 90.566406 C 104.867188 92.363281 87.578125 120.429688 86.679688 129.484375 C 86.304688 134.050781 88.773438 136.371094 88.773438 140.1875 C 88.851562 144.601562 87.953125 149.84375 86.457031 154.257812 C 84.957031 158.671875 82.636719 163.089844 79.792969 166.832031 C 76.949219 170.574219 73.28125 174.015625 69.390625 176.636719 C 65.5 179.257812 61.007812 181.351562 56.441406 182.550781 C 51.953125 183.820312 46.9375 184.34375 42.296875 184.046875 C 37.582031 183.820312 32.71875 182.699219 28.375 180.976562 C 24.035156 179.257812 19.769531 176.636719 16.175781 173.566406 C 12.660156 170.574219 9.367188 166.757812 6.96875 162.714844 C 4.574219 158.671875 2.78125 154.035156 1.730469 149.46875 C 0.757812 144.902344 0.460938 139.886719 0.984375 135.246094 C 1.507812 130.605469 2.855469 125.742188 4.875 121.550781 C 6.820312 117.285156 9.664062 113.167969 12.882812 109.726562 C 16.101562 106.359375 20.070312 103.363281 24.257812 101.195312 C 28.375 98.949219 33.089844 97.375 37.730469 96.628906 C 42.371094 95.878906 47.386719 95.878906 52.027344 96.703125 C 56.59375 97.453125 61.382812 99.023438 65.5 101.269531 C 69.617188 103.4375 73.582031 106.507812 76.800781 109.875 C 80.019531 113.316406 82.789062 117.433594 84.808594 121.699219 C 86.753906 125.96875 88.027344 130.832031 88.550781 135.472656 C 89.074219 140.113281 88.773438 145.128906 87.726562 149.691406 C 86.753906 154.257812 84.882812 158.898438 82.414062 162.941406 C 80.019531 166.90625 76.800781 170.722656 73.207031 173.71875 C 69.617188 176.785156 65.347656 179.332031 61.007812 181.050781 C 56.59375 182.773438 51.726562 183.820312 47.011719 184.046875 C 42.371094 184.34375 37.433594 183.746094 32.867188 182.472656 C 28.375 181.277344 23.8125 179.105469 19.992188 176.488281 C 16.101562 173.867188 12.507812 170.425781 9.664062 166.683594 C 6.820312 162.941406 4.5 158.523438 3.003906 154.035156 C 1.507812 149.617188 0.757812 145.351562 0.757812 140.039062 C 0.683594 132.851562 1.132812 123.570312 4.351562 114.816406 C 8.542969 103.511719 27.402344 79.1875 27.253906 79.113281 C 27.105469 79.039062 6.074219 112.046875 5.25 111.523438 C 4.425781 111.074219 15.878906 85.101562 24.035156 73.425781 C 32.492188 61.375 55.917969 41.167969 55.621094 40.792969 C 55.246094 40.421875 27.105469 67.363281 26.578125 66.839844 C 26.054688 66.316406 46.789062 40.867188 58.164062 31.589844 C 68.34375 23.207031 78.972656 17.292969 90.871094 12.351562 C 103.519531 7.113281 118.5625 3.148438 132.109375 1.652344 C 144.832031 0.304688 157.855469 -1.566406 169.605469 3.074219 C 183.230469 8.460938 206.953125 36.230469 207.402344 35.78125 C 207.851562 35.332031 175.445312 8.609375 177.390625 5.242188 C 179.1875 1.949219 202.238281 10.480469 214.886719 13.851562 C 227.984375 17.292969 241.832031 20.210938 254.554688 25.675781 C 267.351562 31.214844 280.003906 38.175781 291.453125 47.007812 C 303.429688 56.210938 324.308594 80.6875 324.382812 80.535156 C 324.535156 80.460938 292.203125 49.027344 293.324219 47.753906 C 294.445312 46.40625 323.488281 66.015625 331.792969 73.050781 C 336.433594 76.945312 339.054688 80.011719 341.449219 83.378906 C 343.394531 86.148438 344.59375 88.621094 345.640625 91.464844 C 346.6875 94.308594 347.363281 97.300781 347.734375 100.296875 C 348.035156 103.289062 348.035156 106.359375 347.660156 109.351562 C 347.285156 112.34375 346.464844 115.339844 345.414062 118.109375 C 344.292969 120.953125 342.871094 123.648438 341.148438 126.117188 C 339.429688 128.585938 337.332031 130.90625 335.085938 132.851562 C 332.765625 134.875 330.222656 136.59375 327.527344 137.941406 C 324.910156 139.363281 321.988281 140.410156 319.070312 141.085938 C 316.152344 141.832031 313.082031 142.132812 310.015625 142.132812 C 307.019531 142.132812 303.953125 141.683594 301.035156 140.9375 C 298.113281 140.261719 295.269531 139.066406 292.574219 137.71875 C 289.957031 136.296875 285.167969 132.476562 285.167969 132.476562 " clip-rule="nonzero"/></clipPath><clipPath id="117df5c57e"><rect x="0" width="348" y="0" height="185"/></clipPath><clipPath id="c3ac935354"><path d="M 142.605469 66.308594 L 625 66.308594 L 625 380.960938 L 142.605469 380.960938 Z M 142.605469 66.308594 " clip-rule="nonzero"/></clipPath><clipPath id="c636a25142"><path d="M 142.609375 231.566406 C 144.332031 219.441406 145.453125 216.523438 146.800781 213.828125 C 148.222656 211.136719 151.964844 206.269531 151.964844 206.269531 C 151.964844 206.269531 158.476562 199.234375 162.367188 193.921875 C 168.65625 185.464844 176.511719 170.421875 184.597656 159.269531 C 192.753906 147.96875 200.835938 135.09375 211.316406 126.410156 C 221.417969 118.105469 234.890625 114.960938 245.96875 107.699219 C 257.269531 100.214844 266.25 88.242188 278.449219 82.179688 C 290.875 75.96875 306.441406 73.648438 320.140625 71.25 C 333.011719 69.007812 345.210938 68.109375 358.160156 67.808594 C 371.632812 67.433594 385.402344 64.964844 399.472656 69.457031 C 416.988281 75.070312 447.148438 93.855469 453.136719 104.78125 C 456.054688 110.097656 452.089844 119.375 453.363281 120.199219 C 453.8125 120.5 454.109375 119.601562 455.082031 119.453125 C 459.949219 118.628906 484.273438 121.472656 499.464844 122.746094 C 515.40625 124.015625 533.667969 122.96875 548.414062 127.085938 C 561.734375 130.828125 573.636719 137.5625 584.636719 144.75 C 595.265625 151.785156 606.792969 159.417969 613.453125 169.597656 C 620.039062 179.625 623.632812 192.347656 624.605469 205.445312 C 625.652344 220.863281 622.957031 242.71875 616.296875 256.417969 C 610.535156 268.242188 599.308594 277.523438 590.476562 284.707031 C 583.140625 290.621094 569.371094 294.136719 568.023438 297.804688 C 567.425781 299.375 569.21875 300.796875 569.445312 301.996094 C 569.59375 302.96875 569.371094 303.71875 569.445312 304.539062 C 569.519531 305.363281 569.96875 306.039062 569.96875 306.9375 C 570.117188 308.359375 569.59375 310.304688 569.519531 311.949219 C 569.371094 313.597656 569.746094 315.617188 569.519531 316.964844 C 569.371094 317.9375 568.921875 318.535156 568.695312 319.359375 C 568.546875 320.109375 568.695312 320.933594 568.472656 321.828125 C 568.097656 323.175781 566.976562 324.824219 566.375 326.394531 C 565.777344 327.890625 565.476562 329.914062 564.804688 331.109375 C 564.355469 332.007812 563.757812 332.382812 563.308594 333.132812 C 562.859375 333.878906 562.785156 334.628906 562.261719 335.453125 C 561.511719 336.574219 559.941406 337.773438 558.816406 339.042969 C 557.769531 340.316406 556.945312 341.886719 555.824219 343.085938 C 554.777344 344.207031 552.679688 345.707031 552.230469 346.152344 C 552.15625 346.230469 552.082031 346.304688 552.082031 346.304688 C 552.007812 346.378906 552.007812 346.304688 551.929688 346.378906 C 551.40625 346.753906 545.34375 352.214844 545.195312 352.066406 C 545.195312 352.066406 545.269531 351.917969 545.269531 351.917969 C 545.269531 351.917969 544.894531 352.292969 544.894531 352.292969 C 544.820312 352.367188 541.601562 354.011719 539.957031 354.910156 C 538.308594 355.734375 535.089844 357.457031 535.015625 357.457031 C 534.941406 357.457031 531.425781 358.355469 529.628906 358.804688 C 527.832031 359.25 524.3125 360.148438 524.238281 360.148438 C 524.164062 360.148438 520.496094 360.148438 518.699219 360.148438 C 516.828125 360.148438 513.164062 360.148438 513.085938 360.148438 C 513.011719 360.148438 509.496094 359.25 507.699219 358.804688 C 505.902344 358.355469 502.382812 357.53125 502.308594 357.457031 C 502.234375 357.457031 498.867188 355.660156 497.371094 354.910156 C 496.097656 354.238281 495.347656 352.816406 493.703125 352.964844 C 489.363281 353.414062 480.457031 366.660156 471.472656 371.003906 C 461.21875 376.015625 447 379.683594 434.425781 379.386719 C 421.476562 379.085938 405.535156 376.167969 394.984375 368.683594 C 384.054688 360.898438 377.84375 333.878906 370.660156 332.832031 C 366.316406 332.234375 364.296875 339.644531 358.683594 342.785156 C 349.105469 348.101562 324.179688 360.597656 315.5 357.007812 C 309.511719 354.460938 309.585938 337.773438 305.695312 337.546875 C 301.128906 337.324219 297.386719 355.433594 289.601562 362.171875 C 280.171875 370.328125 263.929688 378.5625 250.832031 380.207031 C 238.335938 381.78125 223.816406 378.710938 212.8125 373.171875 C 201.8125 367.632812 192.902344 356.78125 184.597656 347.050781 C 176.289062 337.171875 167.980469 326.246094 163.117188 314.269531 C 158.175781 302.070312 153.761719 283.285156 155.332031 274.527344 C 156.230469 269.664062 162.292969 265.847656 161.84375 264.125 C 161.621094 263.226562 160.199219 263.453125 159.222656 262.703125 C 157.351562 261.503906 154.285156 258.960938 152.265625 256.714844 C 150.242188 254.46875 148.445312 251.851562 147.023438 249.15625 C 145.601562 246.535156 144.480469 243.542969 143.730469 240.625 C 142.984375 237.703125 142.609375 231.566406 142.609375 231.566406 " clip-rule="nonzero"/></clipPath><clipPath id="5f47a6caa9"><path d="M 0.605469 0.308594 L 483 0.308594 L 483 314.960938 L 0.605469 314.960938 Z M 0.605469 0.308594 " clip-rule="nonzero"/></clipPath><clipPath id="c4bbb33ddf"><path d="M 0.609375 165.566406 C 2.332031 153.441406 3.453125 150.523438 4.800781 147.828125 C 6.222656 145.136719 9.964844 140.269531 9.964844 140.269531 C 9.964844 140.269531 16.476562 133.234375 20.367188 127.921875 C 26.65625 119.464844 34.511719 104.421875 42.597656 93.269531 C 50.753906 81.96875 58.835938 69.09375 69.316406 60.410156 C 79.417969 52.105469 92.890625 48.960938 103.96875 41.699219 C 115.269531 34.214844 124.25 22.242188 136.449219 16.179688 C 148.875 9.96875 164.441406 7.648438 178.140625 5.25 C 191.011719 3.007812 203.210938 2.109375 216.160156 1.808594 C 229.632812 1.433594 243.402344 -1.035156 257.472656 3.457031 C 274.988281 9.070312 305.148438 27.855469 311.136719 38.78125 C 314.054688 44.097656 310.089844 53.375 311.363281 54.199219 C 311.8125 54.5 312.109375 53.601562 313.082031 53.453125 C 317.949219 52.628906 342.273438 55.472656 357.464844 56.746094 C 373.40625 58.015625 391.667969 56.96875 406.414062 61.085938 C 419.734375 64.828125 431.636719 71.5625 442.636719 78.75 C 453.265625 85.785156 464.792969 93.417969 471.453125 103.597656 C 478.039062 113.625 481.632812 126.347656 482.605469 139.445312 C 483.652344 154.863281 480.957031 176.71875 474.296875 190.417969 C 468.535156 202.242188 457.308594 211.523438 448.476562 218.707031 C 441.140625 224.621094 427.371094 228.136719 426.023438 231.804688 C 425.425781 233.375 427.21875 234.796875 427.445312 235.996094 C 427.59375 236.96875 427.371094 237.71875 427.445312 238.539062 C 427.519531 239.363281 427.96875 240.039062 427.96875 240.9375 C 428.117188 242.359375 427.59375 244.304688 427.519531 245.949219 C 427.371094 247.597656 427.746094 249.617188 427.519531 250.964844 C 427.371094 251.9375 426.921875 252.535156 426.695312 253.359375 C 426.546875 254.109375 426.695312 254.933594 426.472656 255.828125 C 426.097656 257.175781 424.976562 258.824219 424.375 260.394531 C 423.777344 261.890625 423.476562 263.914062 422.804688 265.109375 C 422.355469 266.007812 421.757812 266.382812 421.308594 267.132812 C 420.859375 267.878906 420.785156 268.628906 420.261719 269.453125 C 419.511719 270.574219 417.941406 271.773438 416.816406 273.042969 C 415.769531 274.316406 414.945312 275.886719 413.824219 277.085938 C 412.777344 278.207031 410.679688 279.707031 410.230469 280.152344 C 410.15625 280.230469 410.082031 280.304688 410.082031 280.304688 C 410.007812 280.378906 410.007812 280.304688 409.929688 280.378906 C 409.40625 280.753906 403.34375 286.214844 403.195312 286.066406 C 403.195312 286.066406 403.269531 285.917969 403.269531 285.917969 C 403.269531 285.917969 402.894531 286.292969 402.894531 286.292969 C 402.820312 286.367188 399.601562 288.011719 397.957031 288.910156 C 396.308594 289.734375 393.089844 291.457031 393.015625 291.457031 C 392.941406 291.457031 389.425781 292.355469 387.628906 292.804688 C 385.832031 293.25 382.3125 294.148438 382.238281 294.148438 C 382.164062 294.148438 378.496094 294.148438 376.699219 294.148438 C 374.828125 294.148438 371.164062 294.148438 371.085938 294.148438 C 371.011719 294.148438 367.496094 293.25 365.699219 292.804688 C 363.902344 292.355469 360.382812 291.53125 360.308594 291.457031 C 360.234375 291.457031 356.867188 289.660156 355.371094 288.910156 C 354.097656 288.238281 353.347656 286.816406 351.703125 286.964844 C 347.363281 287.414062 338.457031 300.660156 329.472656 305.003906 C 319.21875 310.015625 305 313.683594 292.425781 313.386719 C 279.476562 313.085938 263.535156 310.167969 252.984375 302.683594 C 242.054688 294.898438 235.84375 267.878906 228.660156 266.832031 C 224.316406 266.234375 222.296875 273.644531 216.683594 276.785156 C 207.105469 282.101562 182.179688 294.597656 173.5 291.007812 C 167.511719 288.460938 167.585938 271.773438 163.695312 271.546875 C 159.128906 271.324219 155.386719 289.433594 147.601562 296.171875 C 138.171875 304.328125 121.929688 312.5625 108.832031 314.207031 C 96.335938 315.78125 81.816406 312.710938 70.8125 307.171875 C 59.8125 301.632812 50.902344 290.78125 42.597656 281.050781 C 34.289062 271.171875 25.980469 260.246094 21.117188 248.269531 C 16.175781 236.070312 11.761719 217.285156 13.332031 208.527344 C 14.230469 203.664062 20.292969 199.847656 19.84375 198.125 C 19.621094 197.226562 18.199219 197.453125 17.222656 196.703125 C 15.351562 195.503906 12.285156 192.960938 10.265625 190.714844 C 8.242188 188.46875 6.445312 185.851562 5.023438 183.15625 C 3.601562 180.535156 2.480469 177.542969 1.730469 174.625 C 0.984375 171.703125 0.609375 165.566406 0.609375 165.566406 " clip-rule="nonzero"/></clipPath><clipPath id="03a50a7242"><rect x="0" width="483" y="0" height="315"/></clipPath><clipPath id="1658a7f9ce"><path d="M 23.464844 14.023438 L 714.804688 14.023438 L 714.804688 440.824219 L 23.464844 440.824219 Z M 23.464844 14.023438 " clip-rule="nonzero"/></clipPath></defs><g clip-path="url(#ab7082ed76)"><g clip-path="url(#93caeaa0d1)"><g transform="matrix(1, 0, 0, 1, 28, 136)"><g clip-path="url(#8b5883511f)"><g clip-path="url(#c4d27fcc3f)"><g clip-path="url(#cbf513d653)"><rect x="-193" width="1080" fill="#ffffff" height="663.897571" y="-237.428796" fill-opacity="1"/></g></g></g></g></g></g><g clip-path="url(#ac28f4d0ef)"><g clip-path="url(#f3ffab65b8)"><g transform="matrix(1, 0, 0, 1, 86, 189)"><g clip-path="url(#0868bb11ee)"><g clip-path="url(#5c0ebf5672)"><g clip-path="url(#b31538a8d2)"><rect x="-251" width="1080" fill="#ffffff" height="663.897571" y="-290.428796" fill-opacity="1"/></g></g></g></g></g></g><g clip-path="url(#cde7cf42ac)"><g clip-path="url(#9c3dafdf60)"><g transform="matrix(1, 0, 0, 1, 119, 282)"><g clip-path="url(#7d3cf775ed)"><g clip-path="url(#6503a27660)"><g clip-path="url(#533f9df2ab)"><rect x="-284" width="1080" fill="#ffffff" height="663.897571" y="-383.428796" fill-opacity="1"/></g></g></g></g></g></g><g clip-path="url(#84e7eb3169)"><g clip-path="url(#e8516f2f5e)"><g transform="matrix(1, 0, 0, 1, 339, 270)"><g clip-path="url(#3907c0be30)"><g clip-path="url(#059dda109c)"><g clip-path="url(#a1ef81ea5c)"><rect x="-504" width="1080" fill="#ffffff" height="663.897571" y="-371.428796" fill-opacity="1"/></g></g></g></g></g></g><g clip-path="url(#10a2497476)"><g clip-path="url(#d8d41fed91)"><g transform="matrix(1, 0, 0, 1, 450, 354)"><g clip-path="url(#9be2a1dace)"><g clip-path="url(#dec37b0824)"><g clip-path="url(#f9d5440776)"><rect x="-615" width="1080" fill="#ffffff" height="663.897571" y="-455.428796" fill-opacity="1"/></g></g></g></g></g></g><g clip-path="url(#eef0e5bcff)"><g clip-path="url(#ee7ba5bca5)"><g transform="matrix(1, 0, 0, 1, 620, 245)"><g clip-path="url(#da874b1b36)"><g clip-path="url(#4824da53cb)"><g clip-path="url(#e43da120ec)"><rect x="-785" width="1080" fill="#ffffff" height="663.897571" y="-346.428796" fill-opacity="1"/></g></g></g></g></g></g><g clip-path="url(#ca42b628b6)"><g clip-path="url(#5fa226e3d8)"><g transform="matrix(1, 0, 0, 1, 593, 251)"><g clip-path="url(#1e27c771a9)"><g clip-path="url(#81e5601424)"><g clip-path="url(#23974b42dd)"><rect x="-758" width="1080" fill="#ffffff" height="663.897571" y="-352.428796" fill-opacity="1"/></g></g></g></g></g></g><g clip-path="url(#8192958529)"><g clip-path="url(#1a66997cc6)"><g transform="matrix(1, 0, 0, 1, 516, 73)"><g clip-path="url(#492da17c0c)"><g clip-path="url(#699c9dcdcb)"><g clip-path="url(#ab7554ec8f)"><rect x="-681" width="1080" fill="#ffffff" height="663.897571" y="-174.428796" fill-opacity="1"/></g></g></g></g></g></g><g clip-path="url(#0c0be0f983)"><g clip-path="url(#265b337582)"><g transform="matrix(1, 0, 0, 1, 572, 127)"><g clip-path="url(#66897394ae)"><g clip-path="url(#85d6e0b086)"><g clip-path="url(#5235de8dff)"><rect x="-737" width="1080" fill="#ffffff" height="663.897571" y="-228.428796" fill-opacity="1"/></g></g></g></g></g></g><g clip-path="url(#47c2002226)"><g clip-path="url(#480b89ca08)"><g transform="matrix(1, 0, 0, 1, 178, 22)"><g clip-path="url(#117df5c57e)"><g clip-path="url(#4a7e2006d2)"><g clip-path="url(#b7ff1314d3)"><rect x="-343" width="1080" fill="#ffffff" height="663.897571" y="-123.428796" fill-opacity="1"/></g></g></g></g></g></g><g clip-path="url(#c3ac935354)"><g clip-path="url(#c636a25142)"><g transform="matrix(1, 0, 0, 1, 142, 66)"><g clip-path="url(#03a50a7242)"><g clip-path="url(#5f47a6caa9)"><g clip-path="url(#c4bbb33ddf)"><rect x="-307" width="1080" fill="#ffffff" height="663.897571" y="-167.428796" fill-opacity="1"/></g></g></g></g></g></g><g clip-path="url(#1658a7f9ce)"><path fill="none" d="M 697.597656 248.304688 C 691 241.316406 683.929688 236.109375 683.929688 236.109375 C 683.929688 236.109375 687.703125 231.050781 694.976562 221.761719 C 711.664062 200.429688 717.449219 174.335938 713.710938 147.945312 C 705.519531 90.222656 640.554688 59.789062 588.84375 68.96875 C 568.109375 72.648438 538.363281 88.144531 524.535156 106.082031 C 519.996094 96.660156 497.441406 72.007812 480.320312 58.792969 C 401.984375 -1.691406 262.878906 -7.058594 202.46875 81.070312 C 195.695312 90.949219 191.054688 102.121094 187.085938 113.34375 C 185 119.222656 183.382812 126.152344 182.050781 132.230469 C 173.171875 131.226562 155.261719 128.097656 152.363281 127.679688 C 117.867188 122.761719 85.164062 130.734375 58.960938 153.828125 C 7.289062 199.382812 12.117188 292.582031 72.875 331.128906 C 85.539062 339.167969 102.417969 341.21875 117.441406 341.195312 C 118.988281 347.492188 121.117188 354.226562 124.066406 360.828125 C 136.597656 388.875 158.996094 407.191406 186.933594 419.046875 C 242.664062 442.671875 306.898438 420.085938 346.855469 378.144531 C 352.171875 385.433594 367.34375 401.6875 369.949219 404.40625 C 379.234375 414.113281 391.050781 421.265625 402.871094 427.359375 C 427.605469 440.113281 458.816406 443.320312 486.03125 439.035156 C 536.761719 431.027344 597.945312 403.011719 623.320312 334.71875 C 627.332031 335.632812 632.722656 336.636719 642.824219 337.246094 C 653 337.867188 666.800781 336.707031 676.347656 333.066406 C 695.511719 325.78125 717.871094 300.457031 712.832031 276.320312 C 710.445312 264.84375 705.617188 256.777344 697.597656 248.304688 " fill-opacity="1" fill-rule="nonzero"/></g><path fill="#ffffff" d="M 161.582031 391.40625 C 178.535156 402.558594 207.957031 415.160156 228.386719 415.125 C 273.375 415.066406 318.40625 401.703125 342.652344 362.949219 C 346.839844 356.257812 353.78125 351.722656 356.269531 358.878906 C 375.832031 415.136719 438.859375 437.609375 495.246094 426.074219 C 554.019531 414.050781 588.835938 386.0625 611.085938 333.066406 C 611.195312 329.144531 616.8125 319.238281 621.3125 320.753906 C 644.867188 328.679688 680.734375 326.421875 695.300781 300.558594 C 710.625 273.359375 689.785156 248.058594 663.921875 243.589844 C 655.980469 242.207031 668.847656 228.699219 673.878906 224.925781 C 718.234375 191.640625 712.425781 131.71875 659.335938 96.371094 C 615.230469 67.011719 555.40625 80.085938 522.746094 120.816406 C 467.019531 14.773438 214.25 -30.324219 198.628906 140.324219 C 198.136719 145.652344 193.449219 150.460938 187.707031 148.636719 C 152.875 137.574219 106.277344 129.515625 75.910156 156.261719 C 54.429688 175.191406 38.496094 210.230469 40.015625 238.539062 C 41.355469 263.59375 51.464844 304.117188 73.964844 318.4375 C 101.910156 336.226562 138.359375 321.460938 125.078125 326.832031 C 133.117188 348.835938 140.171875 377.335938 161.582031 391.40625 " fill-opacity="1" fill-rule="nonzero"/><path fill="none" d="M 687.707031 298.476562 C 673.054688 324.445312 639.777344 321.34375 616.109375 313.148438 C 615.457031 312.925781 614.835938 312.855469 614.234375 312.863281 C 612.808594 312.683594 611.328125 313.265625 610.070312 314.875 C 609.980469 314.976562 609.902344 315.089844 609.824219 315.195312 C 609.757812 315.285156 609.695312 315.355469 609.628906 315.453125 L 609.597656 315.511719 C 609.265625 315.992188 608.992188 316.507812 608.78125 317.054688 L 608.046875 318.4375 C 587 372.902344 553.792969 407.191406 494.871094 419.25 C 438.21875 430.855469 378.585938 406.210938 358.894531 349.707031 C 356.5625 343.011719 347.777344 341.460938 343.859375 347.738281 C 319.53125 386.679688 275.679688 406.96875 230.496094 407.035156 C 209.964844 407.0625 190.273438 400.671875 173.234375 389.46875 C 151.671875 375.289062 143.078125 354.339844 134.945312 332.035156 C 149.496094 326.8125 163.21875 318.0625 174.84375 308.484375 C 180.410156 303.890625 176.117188 297.515625 170.160156 301.472656 C 144.742188 318.375 109.1875 329.246094 80.972656 311.28125 C 58.28125 296.839844 49.164062 266.25 47.808594 240.984375 C 46.285156 212.53125 56.105469 184.003906 77.699219 164.984375 C 108.234375 138.097656 154.988281 146.097656 190.039062 157.246094 C 195.425781 158.957031 199.820312 154.4375 200.28125 149.445312 C 215.992188 -21.703125 485.046875 17.113281 531.738281 150.121094 C 533.144531 154.121094 539.261719 152.542969 538.152344 148.355469 C 535.871094 139.730469 532.835938 131.484375 529.140625 123.644531 C 529.898438 123.058594 530.652344 122.335938 531.390625 121.417969 C 564.214844 80.492188 617.507812 75.492188 661.808594 105.027344 C 715.1875 140.609375 698.296875 201.789062 653.589844 235.277344 C 648.839844 238.828125 647.992188 248.253906 655.453125 249.550781 C 681.613281 254.101562 703.121094 271.136719 687.707031 298.476562 Z M 673.875 238.644531 C 715.101562 201.191406 726.898438 146.804688 683.625 102.257812 C 637.140625 54.402344 564.027344 64.5625 523.675781 113.164062 C 452.792969 -10.605469 210.863281 -23.152344 185.429688 138.945312 C 146.785156 127.929688 101.839844 124.566406 68.753906 151.03125 C 40.605469 173.535156 29.332031 209.382812 31.234375 244.496094 C 32.964844 276.640625 47.289062 309.671875 75.089844 327.351562 C 90.433594 337.105469 106.765625 338.730469 122.582031 335.519531 C 126.15625 384.644531 173.664062 417.175781 219.394531 422.992188 C 267.84375 429.148438 319.203125 406.714844 349.257812 368.644531 C 374.476562 419.21875 427.71875 442.652344 484.863281 434.808594 C 541.886719 426.976562 610.761719 389.5625 619.230469 327.808594 C 650.132812 339.1875 684.988281 332.730469 702.628906 302.039062 C 719.3125 273.003906 699.496094 248.90625 673.875 238.644531 " fill-opacity="1" fill-rule="nonzero"/></svg>